<svg width="33" height="31" viewBox="0 0 33 31" fill="none" xmlns="http://www.w3.org/2000/svg">
<g clip-path="url(#clip0_894_1869)">
<path d="M17.3984 0C8.91976 0 2.04688 6.91472 2.04688 15.445C2.04688 23.1536 7.66093 29.5431 15.0005 30.7031V19.9086H11.1012V15.445H15.0005V12.0424C15.0005 8.17194 17.2909 6.03435 20.7988 6.03435C22.4782 6.03435 24.2344 6.33553 24.2344 6.33553V10.135H22.3002C20.392 10.135 19.7979 11.3258 19.7979 12.5475V15.445H24.0548L23.3748 19.9086H19.7979V30.7031C27.1359 29.5447 32.7499 23.152 32.7499 15.445C32.7499 6.91472 25.8771 0 17.3984 0Z" fill="#9dd9c9"/>
</g>
<defs>
<clipPath id="clip0_894_1869">
<rect width="32.7499" height="30.7031" fill="white"/>
</clipPath>
</defs>
</svg>
