<svg width="32" height="31" viewBox="0 0 32 31" fill="none" xmlns="http://www.w3.org/2000/svg">
<g clip-path="url(#clip0_894_1872)">
<path d="M19.7203 8.06211C18.7762 8.01862 18.4922 8.01094 16.1012 8.01094C13.7102 8.01094 13.4274 8.0199 12.4833 8.06211C10.0539 8.17341 8.92305 9.3235 8.81175 11.7337C8.76953 12.6778 8.7593 12.9605 8.7593 15.3515C8.7593 17.7425 8.76953 18.0253 8.81175 18.9707C8.92305 21.3745 10.0488 22.5309 12.4833 22.6422C13.4262 22.6844 13.7102 22.6947 16.1012 22.6947C18.4934 22.6947 18.7762 22.6857 19.7203 22.6422C22.1497 22.5322 23.2793 21.3783 23.3919 18.9707C23.4341 18.0265 23.443 17.7425 23.443 15.3515C23.443 12.9605 23.4341 12.6778 23.3919 11.7337C23.2793 9.32478 22.1471 8.17341 19.7203 8.06211ZM16.1012 19.9506C13.5618 19.9506 11.5021 17.8922 11.5021 15.3515C11.5021 12.8121 13.5618 10.7537 16.1012 10.7537C18.6406 10.7537 20.7002 12.8121 20.7002 15.3515C20.7002 17.8909 18.6406 19.9506 16.1012 19.9506ZM20.8819 11.6467C20.2883 11.6467 19.8073 11.1657 19.8073 10.5721C19.8073 9.9785 20.2883 9.49748 20.8819 9.49748C21.4755 9.49748 21.9565 9.9785 21.9565 10.5721C21.9565 11.1644 21.4755 11.6467 20.8819 11.6467ZM19.0858 15.3515C19.0858 17.0005 17.7489 18.3361 16.1012 18.3361C14.4534 18.3361 13.1166 17.0005 13.1166 15.3515C13.1166 13.7025 14.4534 12.3669 16.1012 12.3669C17.7489 12.3669 19.0858 13.7025 19.0858 15.3515ZM16.1012 0C7.62328 0 0.749634 6.87365 0.749634 15.3515C0.749634 23.8294 7.62328 30.7031 16.1012 30.7031C24.5791 30.7031 31.4527 23.8294 31.4527 15.3515C31.4527 6.87365 24.5791 0 16.1012 0ZM25.0025 19.0436C24.8554 22.2994 23.0426 24.1032 19.7945 24.2529C18.8389 24.2964 18.5331 24.3066 16.1012 24.3066C13.6692 24.3066 13.3648 24.2964 12.4091 24.2529C9.1546 24.1032 7.34951 22.2968 7.19984 19.0436C7.15634 18.0892 7.14611 17.7835 7.14611 15.3515C7.14611 12.9196 7.15634 12.6151 7.19984 11.6595C7.34951 8.40496 9.15588 6.59988 12.4091 6.45148C13.3648 6.40671 13.6692 6.39647 16.1012 6.39647C18.5331 6.39647 18.8389 6.40671 19.7945 6.45148C23.0503 6.60116 24.8567 8.41136 25.0025 11.6595C25.046 12.6151 25.0562 12.9196 25.0562 15.3515C25.0562 17.7835 25.046 18.0892 25.0025 19.0436Z" fill="#9dd9c9"/>
</g>
<defs>
<clipPath id="clip0_894_1872">
<rect width="30.7031" height="30.7031" fill="white" transform="translate(0.75)"/>
</clipPath>
</defs>
</svg>
