<svg width="32" height="31" viewBox="0 0 32 31" fill="none" xmlns="http://www.w3.org/2000/svg">
<g clip-path="url(#clip0_894_1874)">
<path d="M15.8042 0C7.32629 0 0.452637 6.87365 0.452637 15.3515C0.452637 23.8294 7.32629 30.7031 15.8042 30.7031C24.2821 30.7031 31.1557 23.8294 31.1557 15.3515C31.1557 6.87365 24.2821 0 15.8042 0ZM21.4855 21.6098C18.7964 21.7941 12.8068 21.7941 10.1215 21.6098C7.20987 21.4103 6.87086 19.9851 6.84911 15.3515C6.87086 10.709 7.21371 9.29279 10.1215 9.09322C12.8068 8.90901 18.7977 8.90901 21.4855 9.09322C24.3985 9.29279 24.7362 10.7179 24.7592 15.3515C24.7362 19.9941 24.3946 21.4103 21.4855 21.6098ZM13.2456 12.3554L19.5359 15.3464L13.2456 18.3476V12.3554Z" fill="#9dd9c9"/>
</g>
<defs>
<clipPath id="clip0_894_1874">
<rect width="30.7031" height="30.7031" fill="white" transform="translate(0.453125)"/>
</clipPath>
</defs>
</svg>
