<svg width="53" height="32" viewBox="0 0 53 32" fill="none" xmlns="http://www.w3.org/2000/svg">
<path d="M48.3267 0.000483408H4.39333C3.24644 -0.0159089 2.13937 0.385172 1.31553 1.11555C0.491684 1.84592 0.0184969 2.8458 0 3.89536L0 27.2646C0.0184969 28.3142 0.491684 29.3141 1.31553 30.0445C2.13937 30.7748 3.24644 31.1759 4.39333 31.1595H48.3267C49.4736 31.1759 50.5806 30.7748 51.4045 30.0445C52.2283 29.3141 52.7015 28.3142 52.72 27.2646V3.89536C52.7015 2.8458 52.2283 1.84592 51.4045 1.11555C50.5806 0.385172 49.4736 -0.0159089 48.3267 0.000483408Z" fill="white"/>
<path fill-rule="evenodd" clip-rule="evenodd" d="M13.3853 28.64H13.3003C13.3003 28.5965 13.2791 28.5309 13.2791 28.5089C13.2791 28.4872 13.2791 28.4436 13.2152 28.4436H13.0875V28.64H13.0237V28.1812H13.2152C13.3003 28.1812 13.364 28.2032 13.364 28.2904C13.364 28.356 13.3428 28.378 13.3216 28.3995C13.3429 28.4216 13.364 28.4434 13.364 28.4872V28.5744C13.364 28.5965 13.364 28.5965 13.3853 28.5965V28.64ZM13.3003 28.3124C13.3003 28.2468 13.2578 28.2468 13.2365 28.2468H13.0875V28.378H13.2152C13.2578 28.378 13.3003 28.356 13.3003 28.3124V28.3124ZM13.662 28.3997C13.662 28.1377 13.4493 27.9189 13.1726 27.9189C12.9174 27.9189 12.7046 28.1377 12.7046 28.3997C12.7046 28.6838 12.9174 28.9026 13.1726 28.9026C13.4492 28.9024 13.662 28.6838 13.662 28.3997ZM13.5981 28.3997C13.5981 28.6402 13.4068 28.8149 13.1726 28.8149C12.9385 28.8149 12.7684 28.64 12.7684 28.3997C12.7684 28.1812 12.9387 27.9845 13.1726 27.9845C13.4066 27.9845 13.5981 28.1812 13.5981 28.3997ZM39.8084 19.5703C39.8084 20.226 39.4042 20.5316 38.6808 20.5316H37.2982V19.8759H38.6808C38.8084 19.8759 38.9149 19.8542 38.9576 19.8106C39 19.7667 39.0426 19.7011 39.0426 19.6138C39.0426 19.5262 39.0001 19.4389 38.9576 19.3953C38.9149 19.3515 38.8299 19.3298 38.7022 19.3298C38.0429 19.3077 37.213 19.3515 37.213 18.39C37.213 17.9527 37.4896 17.4719 38.2341 17.4719H39.6594V18.1276H38.3404C38.213 18.1276 38.1277 18.1276 38.0639 18.1712C38 18.2367 37.9576 18.3023 37.9576 18.4117C37.9576 18.521 38.0215 18.5866 38.1064 18.6304C38.1917 18.6522 38.2769 18.674 38.3833 18.674H38.766C39.1702 18.674 39.4256 18.7613 39.5959 18.9145C39.7233 19.0674 39.8084 19.2643 39.8084 19.5703V19.5703ZM36.8087 18.9145C36.6384 18.7613 36.383 18.674 35.9788 18.674H35.596C35.4898 18.674 35.4045 18.652 35.3195 18.6304C35.2342 18.5866 35.1707 18.521 35.1707 18.4117C35.1707 18.3023 35.1918 18.2367 35.277 18.1712C35.3408 18.1276 35.4258 18.1276 35.5535 18.1276H36.8725V17.4719H35.4472C34.6812 17.4719 34.4258 17.9527 34.4258 18.39C34.4258 19.3513 35.2557 19.3077 35.9153 19.3298C36.0427 19.3298 36.128 19.3515 36.1704 19.3953C36.2128 19.4389 36.2556 19.5262 36.2556 19.6138C36.2556 19.7011 36.2129 19.7667 36.1704 19.8106C36.1065 19.8542 36.0215 19.8759 35.8938 19.8759H34.511V20.5316H35.8938C36.617 20.5316 37.0213 20.2258 37.0213 19.5703C37.0213 19.2643 36.9364 19.0674 36.8087 18.9145V18.9145ZM34.0855 19.898H32.4051V19.286H34.0431V18.6743H32.4051V18.1059H34.0855V17.4722H31.7029V20.5318H34.0855V19.898ZM30.9369 17.6252C30.7028 17.494 30.4263 17.472 30.0646 17.472H28.4267V20.5316H29.1498V19.4171H29.9158C30.1709 19.4171 30.32 19.4391 30.4264 19.5482C30.5541 19.7011 30.5541 19.9635 30.5541 20.1602V20.5316H31.256V19.9415C31.256 19.6574 31.2349 19.5262 31.1497 19.3733C31.0859 19.2857 30.9585 19.1766 30.7882 19.111C30.9795 19.0457 31.2989 18.7833 31.2989 18.3023C31.2987 17.9528 31.171 17.7561 30.9369 17.6252V17.6252ZM26.8948 17.472H24.6184L23.7035 18.4774L22.8313 17.472H19.9592V20.5316H22.7889L23.7037 19.5262L24.576 20.5316H25.9589V19.5047H26.8524C27.4693 19.5047 28.0865 19.3298 28.0865 18.4774C28.0863 17.6469 27.448 17.472 26.8948 17.472ZM30.3624 18.7398C30.2562 18.7833 30.1498 18.7833 30.0221 18.7833L29.1498 18.8054V18.1057H30.0221C30.1498 18.1057 30.2775 18.1057 30.3624 18.1713C30.4477 18.2152 30.5113 18.3025 30.5113 18.4337C30.5113 18.5649 30.4477 18.6742 30.3624 18.7398V18.7398ZM26.8948 18.8926H25.9587V18.1057H26.8948C27.1502 18.1057 27.3203 18.2152 27.3203 18.4774C27.3203 18.7398 27.15 18.8926 26.8948 18.8926ZM24.1503 19.0018L25.2565 17.8V20.2696L24.1503 19.0018ZM22.4271 19.898H20.6613V19.286H22.2355V18.6743H20.6613V18.1059H22.4484L23.2355 19.002L22.4271 19.898V19.898ZM37.8298 15.2646H36.8087L35.4684 12.9698V15.2646H34.0219L33.7451 14.587H32.256L31.9794 15.2646H31.1496C30.8092 15.2646 30.3624 15.1772 30.1074 14.9148C29.8733 14.6526 29.7456 14.3029 29.7456 13.7565C29.7456 13.2975 29.8094 12.8823 30.1283 12.5545C30.341 12.314 30.7241 12.2049 31.2133 12.2049H31.894V12.8606H31.2133C30.9582 12.8606 30.8091 12.9043 30.6602 13.0355C30.5326 13.1667 30.4687 13.407 30.4687 13.7348C30.4687 14.0626 30.5326 14.3031 30.6602 14.4561C30.7665 14.5653 30.9582 14.609 31.1494 14.609H31.4687L32.4898 12.205H33.5536L34.7449 15.0899V12.2049H35.8513L37.1065 14.3248V12.2049H37.8296V15.2646H37.8298V15.2646ZM29.3839 12.2049H28.6608V15.2646H29.3839V12.2049V12.2049ZM27.8733 12.336C27.6392 12.2049 27.3842 12.2049 27.0225 12.2049H25.3842V15.2646H26.0862V14.1499H26.8521C27.1075 14.1499 27.2777 14.1718 27.384 14.2811C27.5117 14.4341 27.4903 14.6965 27.4903 14.8712V15.2646H28.2134V14.6526C28.2134 14.3904 28.1923 14.2592 28.086 14.1062C28.0222 14.0187 27.8945 13.9094 27.7456 13.844C27.9369 13.7565 28.2563 13.5162 28.2563 13.0353C28.2564 12.6857 28.1073 12.4889 27.8733 12.336ZM24.8736 14.6309H23.2142V14.0189H24.8523V13.3852H23.2142V12.8387H24.8736V12.205H22.4909V15.2648H24.8736V14.6309ZM21.959 12.2049H20.7889L19.9167 14.2811L18.9806 12.2049H17.8318V15.0897L16.6192 12.2049H15.5555L14.279 15.2646H15.0449L15.3214 14.587H16.8105L17.0871 15.2646H18.5338V12.8606L19.5762 15.2646H20.193L21.2356 12.8606V15.2646H21.9589V12.2049H21.959ZM33.49 13.9314L33.0005 12.7294L32.5113 13.9314H33.49ZM27.3203 13.4507C27.2141 13.5163 27.1076 13.5163 26.9587 13.5163H26.0862V12.8389H26.9585C27.0862 12.8389 27.2349 12.8389 27.3202 12.8826C27.4051 12.9482 27.4478 13.0357 27.4478 13.1667C27.4478 13.2977 27.4053 13.4069 27.3203 13.4507V13.4507ZM15.5766 13.9314L16.066 12.7294L16.5553 13.9314H15.5766V13.9314ZM39.6383 2.61035H14.2576V13.6255L15.1299 11.593H16.9806L17.236 12.0957V11.593H19.4061L19.8954 12.6857L20.3635 11.593H27.2777C27.5967 11.593 27.8732 11.6586 28.0862 11.8333V11.593H29.9795V11.8333C30.2984 11.6584 30.7027 11.593 31.1709 11.593H33.9152L34.1706 12.0957V11.593H36.1916L36.4896 12.0957V11.593H38.4679V15.8766H36.4683L36.0855 15.221V15.8766H33.5963L33.3198 15.1773H32.7026L32.4261 15.8766H31.1285C30.6178 15.8766 30.2348 15.7454 29.9797 15.6144V15.8766H26.8948V14.8931C26.8948 14.7619 26.8735 14.74 26.7884 14.74H26.6821V15.8765H20.7251V15.33L20.5124 15.8765H19.2572L19.0446 15.3519V15.8765H16.6404L16.3852 15.1772H15.7682L15.4916 15.8765H14.2576V28.7931H39.6383V20.9468C39.3618 21.078 38.9787 21.1436 38.5958 21.1436H36.7448V20.8813C36.5322 21.0563 36.1491 21.1436 35.7876 21.1436H29.9582V20.1602C29.9582 20.0291 29.9371 20.0291 29.8305 20.0291H29.7243V21.1436H27.8095V19.9853C27.4906 20.1382 27.1288 20.1382 26.8097 20.1382H26.5969V21.1436H24.2567L23.7037 20.4879L23.0868 21.1436H19.3209V16.8602H23.1504L23.7035 17.5156L24.2993 16.8602H26.8735C27.1712 16.8602 27.6607 16.9037 27.8733 17.1222V16.8602H30.1709C30.405 16.8602 30.8519 16.9037 31.1496 17.1222V16.8602H34.6174V17.1224C34.8089 16.9474 35.1707 16.8603 35.4896 16.8603H37.4256V17.1224C37.6385 16.9695 37.9362 16.8603 38.3193 16.8603H39.6383V2.61035V2.61035Z" fill="#0077A6"/>
</svg>
