<svg width="54" height="33" viewBox="0 0 54 33" fill="none" xmlns="http://www.w3.org/2000/svg">
<path d="M49.0127 0.843501H5.07937C3.93248 0.827109 2.82541 1.22819 2.00156 1.95856C1.17772 2.68894 0.704532 3.68882 0.686035 4.73838L0.686035 28.1077C0.704532 29.1572 1.17772 30.1571 2.00156 30.8875C2.82541 31.6178 3.93248 32.0189 5.07937 32.0025H49.0127C50.1596 32.0189 51.2667 31.6178 52.0905 30.8875C52.9144 30.1571 53.3875 29.1572 53.406 28.1077V4.73838C53.3875 3.68882 52.9144 2.68894 52.0905 1.95856C51.2667 1.22819 50.1596 0.827109 49.0127 0.843501Z" fill="white"/>
<path d="M16.2553 25.9675V23.0025H17.5853C17.927 23.0025 18.1896 23.0717 18.3732 23.2101C18.5567 23.3456 18.6485 23.532 18.6485 23.7692C18.6485 23.9301 18.6118 24.0657 18.5383 24.1758C18.4678 24.286 18.3717 24.3707 18.2503 24.43C18.1289 24.4893 17.9976 24.5189 17.8564 24.5189L17.9326 24.3918C18.1021 24.3918 18.2517 24.4215 18.3816 24.4808C18.5115 24.5401 18.6146 24.6276 18.6908 24.7434C18.7671 24.8564 18.8052 24.9976 18.8052 25.167C18.8052 25.4211 18.7092 25.6188 18.5172 25.76C18.328 25.8983 18.0456 25.9675 17.67 25.9675H16.2553ZM16.6789 25.6244H17.6531C17.8875 25.6244 18.0668 25.5849 18.191 25.5058C18.3153 25.4268 18.3774 25.3025 18.3774 25.1331C18.3774 24.9608 18.3153 24.8352 18.191 24.7561C18.0668 24.677 17.8875 24.6375 17.6531 24.6375H16.6407V24.2944H17.5472C17.7618 24.2944 17.9284 24.2549 18.047 24.1758C18.1656 24.0968 18.2249 23.9782 18.2249 23.82C18.2249 23.6619 18.1656 23.5433 18.047 23.4642C17.9284 23.3852 17.7618 23.3456 17.5472 23.3456H16.6789V25.6244ZM20.7995 26.0014C20.5736 26.0014 20.3632 25.9633 20.1684 25.8871C19.9764 25.8108 19.8098 25.7049 19.6686 25.5694C19.5274 25.431 19.4173 25.27 19.3382 25.0865C19.2591 24.903 19.2196 24.7025 19.2196 24.485C19.2196 24.2676 19.2591 24.0671 19.3382 23.8836C19.4173 23.7 19.5274 23.5405 19.6686 23.4049C19.8098 23.2666 19.9764 23.1592 20.1684 23.083C20.3604 23.0068 20.5708 22.9686 20.7995 22.9686C21.0254 22.9686 21.233 23.0068 21.4222 23.083C21.6142 23.1564 21.7808 23.2623 21.922 23.4007C22.066 23.5362 22.1761 23.6958 22.2524 23.8793C22.3314 24.0629 22.371 24.2648 22.371 24.485C22.371 24.7053 22.3314 24.9072 22.2524 25.0907C22.1761 25.2743 22.066 25.4352 21.922 25.5736C21.7808 25.7092 21.6142 25.815 21.4222 25.8913C21.233 25.9647 21.0254 26.0014 20.7995 26.0014ZM20.7995 25.6244C20.9633 25.6244 21.1144 25.5962 21.2527 25.5397C21.3939 25.4832 21.5154 25.4042 21.617 25.3025C21.7215 25.198 21.802 25.0766 21.8585 24.9383C21.9178 24.7999 21.9474 24.6488 21.9474 24.485C21.9474 24.3212 21.9178 24.1702 21.8585 24.0318C21.802 23.8934 21.7215 23.7734 21.617 23.6718C21.5154 23.5673 21.3939 23.4868 21.2527 23.4303C21.1144 23.3739 20.9633 23.3456 20.7995 23.3456C20.6329 23.3456 20.479 23.3739 20.3378 23.4303C20.1995 23.4868 20.078 23.5673 19.9736 23.6718C19.8691 23.7734 19.7872 23.8934 19.7279 24.0318C19.6714 24.1702 19.6432 24.3212 19.6432 24.485C19.6432 24.6488 19.6714 24.7999 19.7279 24.9383C19.7872 25.0766 19.8691 25.198 19.9736 25.3025C20.078 25.4042 20.1995 25.4832 20.3378 25.5397C20.479 25.5962 20.6329 25.6244 20.7995 25.6244ZM23.0184 25.9675V23.0025H23.442V25.599H25.0473V25.9675H23.0184ZM25.9188 24.2817H27.4436V24.6418H25.9188V24.2817ZM25.9569 25.599H27.6851V25.9675H25.5333V23.0025H27.6258V23.371H25.9569V25.599ZM28.9597 25.9675V23.371H27.9431V23.0025H30.3956V23.371H29.379V25.9675H28.9597ZM32.1541 26.0014C31.9282 26.0014 31.7178 25.9633 31.5229 25.8871C31.3309 25.8108 31.1643 25.7049 31.0231 25.5694C30.8819 25.431 30.7718 25.27 30.6927 25.0865C30.6137 24.903 30.5741 24.7025 30.5741 24.485C30.5741 24.2676 30.6137 24.0671 30.6927 23.8836C30.7718 23.7 30.8819 23.5405 31.0231 23.4049C31.1643 23.2666 31.3309 23.1592 31.5229 23.083C31.715 23.0068 31.9253 22.9686 32.1541 22.9686C32.38 22.9686 32.5875 23.0068 32.7767 23.083C32.9687 23.1564 33.1353 23.2623 33.2765 23.4007C33.4205 23.5362 33.5307 23.6958 33.6069 23.8793C33.686 24.0629 33.7255 24.2648 33.7255 24.485C33.7255 24.7053 33.686 24.9072 33.6069 25.0907C33.5307 25.2743 33.4205 25.4352 33.2765 25.5736C33.1353 25.7092 32.9687 25.815 32.7767 25.8913C32.5875 25.9647 32.38 26.0014 32.1541 26.0014ZM32.1541 25.6244C32.3178 25.6244 32.4689 25.5962 32.6073 25.5397C32.7485 25.4832 32.8699 25.4042 32.9715 25.3025C33.076 25.198 33.1565 25.0766 33.213 24.9383C33.2723 24.7999 33.3019 24.6488 33.3019 24.485C33.3019 24.3212 33.2723 24.1702 33.213 24.0318C33.1565 23.8934 33.076 23.7734 32.9715 23.6718C32.8699 23.5673 32.7485 23.4868 32.6073 23.4303C32.4689 23.3739 32.3178 23.3456 32.1541 23.3456C31.9875 23.3456 31.8336 23.3739 31.6924 23.4303C31.554 23.4868 31.4326 23.5673 31.3281 23.6718C31.2236 23.7734 31.1417 23.8934 31.0824 24.0318C31.0259 24.1702 30.9977 24.3212 30.9977 24.485C30.9977 24.6488 31.0259 24.7999 31.0824 24.9383C31.1417 25.0766 31.2236 25.198 31.3281 25.3025C31.4326 25.4042 31.554 25.4832 31.6924 25.5397C31.8336 25.5962 31.9875 25.6244 32.1541 25.6244Z" fill="#231F20"/>
<path d="M19.0444 7.62291C19.0444 7.28123 19.3149 7.01025 19.6411 7.01025C19.9673 7.01025 20.2377 7.28126 20.2377 7.62291V17.0078C20.2377 17.3495 19.9673 17.6204 19.6411 17.6204C19.3148 17.6204 19.0444 17.3494 19.0444 17.0078V7.62291Z" fill="#231F20" stroke="white" stroke-width="0.338857"/>
<path d="M25.1719 7.62315C25.1719 7.28147 25.4423 7.01049 25.7685 7.01049C26.0947 7.01049 26.3652 7.28151 26.3652 7.62315V13.8797C26.3652 14.2214 26.0947 14.4924 25.7685 14.4924C25.4423 14.4924 25.1719 14.2214 25.1719 13.8797V7.62315Z" fill="#231F20" stroke="white" stroke-width="0.338857"/>
<path d="M31.8125 7.62291C31.8125 7.28123 32.0829 7.01025 32.4091 7.01025C32.7354 7.01025 33.0058 7.28126 33.0058 7.62291V13.8795C33.0058 14.2212 32.7354 14.4921 32.4091 14.4921C32.0829 14.4921 31.8125 14.2211 31.8125 13.8795V7.62291Z" fill="#231F20" stroke="white" stroke-width="0.338857"/>
<path d="M34.875 7.62315C34.875 7.28147 35.1454 7.01049 35.4716 7.01049C35.7978 7.01049 36.0682 7.28149 36.0683 7.62315C36.0683 7.62316 36.0683 7.62316 36.0683 7.62317V17.008C36.0683 17.3497 35.7979 17.6207 35.4716 17.6207C35.1454 17.6207 34.875 17.3497 34.875 17.008V7.62315Z" fill="#231F20" stroke="white" stroke-width="0.338857"/>
<path d="M26.3652 17.0089C26.3652 17.3506 26.0948 17.6216 25.7685 17.6216C25.4423 17.6216 25.1719 17.3506 25.1719 17.0089C25.1719 16.6672 25.4423 16.3962 25.7685 16.3962C26.0948 16.3962 26.3652 16.6672 26.3652 17.0089Z" fill="#231F20" stroke="white" stroke-width="0.338857"/>
<path d="M28.2378 7.62315C28.2378 7.28147 28.5082 7.01049 28.8344 7.01049C29.1607 7.01049 29.4311 7.28151 29.4311 7.62315V13.8797C29.4311 14.2214 29.1606 14.4924 28.8344 14.4924C28.5082 14.4924 28.2378 14.2214 28.2378 13.8797V7.62315Z" fill="#231F20" stroke="white" stroke-width="0.338857"/>
<path d="M29.4311 17.0089C29.4311 17.3506 29.1607 17.6216 28.8344 17.6216C28.5082 17.6216 28.2378 17.3506 28.2378 17.0089C28.2378 16.6672 28.5082 16.3962 28.8344 16.3962C29.1607 16.3962 29.4311 16.6672 29.4311 17.0089Z" fill="#231F20" stroke="white" stroke-width="0.338857"/>
<path d="M22.1094 7.62291C22.1094 7.28123 22.3798 7.01025 22.706 7.01025C23.0322 7.01025 23.3027 7.28127 23.3027 7.62291V13.8795C23.3027 14.2212 23.0323 14.4921 22.706 14.4921C22.3798 14.4921 22.1094 14.2211 22.1094 13.8795V7.62291Z" fill="#231F20" stroke="white" stroke-width="0.338857"/>
<path d="M23.3027 17.0089C23.3027 17.3506 23.0323 17.6216 22.706 17.6216C22.3798 17.6216 22.1094 17.3506 22.1094 17.0089C22.1094 16.6672 22.3798 16.3962 22.706 16.3962C23.0323 16.3962 23.3027 16.6672 23.3027 17.0089Z" fill="#231F20" stroke="white" stroke-width="0.338857"/>
<path d="M33.0058 17.0089C33.0058 17.3506 32.7354 17.6216 32.4091 17.6216C32.0829 17.6216 31.8125 17.3506 31.8125 17.0089C31.8125 16.6672 32.0829 16.3962 32.4091 16.3962C32.7354 16.3962 33.0058 16.6672 33.0058 17.0089Z" fill="#231F20" stroke="white" stroke-width="0.338857"/>
<path d="M18.1073 3.88232H37.0035C38.1738 3.88232 39.1322 4.85565 39.1322 6.05911V18.5722C39.1322 19.7757 38.1738 20.749 37.0035 20.749H18.1073C16.9369 20.749 15.9785 19.7757 15.9785 18.5722V6.05911C15.9785 4.85565 16.9369 3.88232 18.1073 3.88232ZM37.0035 19.5238C37.5227 19.5238 37.939 19.0937 37.939 18.5722V6.05911C37.939 5.53762 37.5227 5.10759 37.0035 5.10759H18.1073C17.588 5.10759 17.1718 5.53762 17.1718 6.05911V18.5722C17.1718 19.0937 17.588 19.5238 18.1073 19.5238H37.0035Z" fill="#231F20" stroke="white" stroke-width="0.338857"/>
</svg>
