<svg width="54" height="32" viewBox="0 0 54 32" fill="none" xmlns="http://www.w3.org/2000/svg">
<path d="M49.0127 0.42187H5.07937C3.93248 0.405478 2.82541 0.806558 2.00156 1.53693C1.17772 2.26731 0.704532 3.26719 0.686035 4.31675L0.686035 27.686C0.704532 28.7356 1.17772 29.7355 2.00156 30.4658C2.82541 31.1962 3.93248 31.5973 5.07937 31.5809H49.0127C50.1596 31.5973 51.2667 31.1962 52.0905 30.4658C52.9144 29.7355 53.3875 28.7356 53.406 27.686V4.31675C53.3875 3.26719 52.9144 2.26731 52.0905 1.53693C51.2667 0.806558 50.1596 0.405478 49.0127 0.42187Z" fill="white"/>
<g clip-path="url(#clip0_289_5)">
<path d="M12.9994 22.3933C16.2993 22.4096 19.3096 19.629 19.3096 16.2471C19.3096 12.5492 16.2973 9.99088 12.9994 9.99292H10.1597C6.82206 9.99088 4.07373 12.5492 4.07373 16.2471C4.07373 19.6311 6.82206 22.4096 10.1597 22.3933H12.9994Z" fill="#0079BE"/>
<path d="M10.1739 10.5049C7.1239 10.5049 4.6514 13.0469 4.64941 16.1822C4.64941 19.3174 7.12192 21.8574 10.1739 21.8574C13.2258 21.8574 15.6983 19.3154 15.6983 16.1822C15.6983 13.0469 13.2258 10.5069 10.1739 10.5049V10.5049ZM6.67345 16.1822C6.67544 14.6492 7.60809 13.3425 8.92173 12.8247V19.5396C7.60809 19.0218 6.67544 17.7151 6.67345 16.1822V16.1822ZM11.428 19.5417V12.8247C12.7416 13.3425 13.6743 14.6492 13.6762 16.1822C13.6743 17.7151 12.7416 19.0218 11.428 19.5417Z" fill="white"/>
<path d="M21.2471 12.6615C21.2471 12.0744 20.9494 12.1131 20.6637 12.107V11.9378C20.9117 11.95 21.1657 11.95 21.4118 11.95C21.6777 11.95 22.0408 11.9378 22.5111 11.9378C24.1542 11.9378 25.0491 13.0651 25.0491 14.2209C25.0491 14.8671 24.682 16.4898 22.4337 16.4898C22.1103 16.4898 21.8107 16.4776 21.513 16.4776C21.2273 16.4776 20.9475 16.4837 20.6617 16.4898V16.3206C21.0427 16.2819 21.2273 16.2676 21.2451 15.8252L21.2471 12.6615ZM21.8682 15.7192C21.8682 16.2207 22.2174 16.2798 22.529 16.2798C23.9002 16.2798 24.3506 15.2157 24.3506 14.2454C24.3506 13.0264 23.5886 12.1457 22.3643 12.1457C22.1043 12.1457 21.9833 12.1641 21.8682 12.1722V15.7192ZM25.2714 16.3206H25.3924C25.569 16.3206 25.698 16.3206 25.698 16.1045V14.3371C25.698 14.0497 25.6028 14.011 25.3686 13.8805V13.7765C25.6663 13.6848 26.0234 13.5625 26.0473 13.5421C26.0929 13.5156 26.1306 13.5095 26.1623 13.5095C26.1941 13.5095 26.206 13.5482 26.206 13.6012V16.1045C26.206 16.3206 26.3449 16.3206 26.5235 16.3206H26.6307V16.4898C26.4144 16.4898 26.1921 16.4776 25.9639 16.4776C25.7357 16.4776 25.5075 16.4837 25.2714 16.4898V16.3206ZM25.95 12.5045C25.7853 12.5045 25.6385 12.3475 25.6385 12.1783C25.6385 12.0152 25.7913 11.8644 25.95 11.8644C26.1147 11.8644 26.2616 12.001 26.2616 12.1783C26.2616 12.3557 26.1227 12.5045 25.95 12.5045ZM27.2339 14.3759C27.2339 14.1353 27.1644 14.0701 26.8668 13.9457V13.8214C27.1386 13.7296 27.3986 13.6461 27.7042 13.5074C27.724 13.5074 27.7419 13.5217 27.7419 13.5727V13.9967C28.105 13.7296 28.4146 13.5074 28.8412 13.5074C29.381 13.5074 29.5715 13.9111 29.5715 14.4207V16.1025C29.5715 16.3186 29.7104 16.3186 29.889 16.3186H30.0041V16.4878C29.7818 16.4878 29.5596 16.4755 29.3314 16.4755C29.1032 16.4755 28.873 16.4816 28.6448 16.4878V16.3186H28.7579C28.9365 16.3186 29.0615 16.3186 29.0615 16.1025V14.4166C29.0615 14.0436 28.8412 13.8621 28.4781 13.8621C28.2757 13.8621 27.9522 14.0313 27.7419 14.1761V16.1066C27.7419 16.3226 27.8828 16.3226 28.0594 16.3226H28.1725V16.4918C27.9502 16.4918 27.728 16.4796 27.4998 16.4796C27.2716 16.4796 27.0434 16.4857 26.8152 16.4918V16.3226H26.9303C27.1089 16.3226 27.2339 16.3226 27.2339 16.1066V14.3759ZM30.4843 14.6898C30.4704 14.7489 30.4704 14.8468 30.4843 15.069C30.522 15.6887 30.9089 16.1963 31.4169 16.1963C31.7662 16.1963 32.04 16.0006 32.2742 15.76L32.3634 15.8517C32.0717 16.2493 31.7086 16.5877 31.1887 16.5877C30.1787 16.5877 29.9763 15.5827 29.9763 15.1668C29.9763 13.8886 30.8137 13.5095 31.2582 13.5095C31.7721 13.5095 32.3257 13.8418 32.3317 14.5328C32.3317 14.5716 32.3317 14.6103 32.3257 14.6511L32.2682 14.6898H30.4843ZM31.6074 14.4798C31.7662 14.4798 31.784 14.3942 31.784 14.3167C31.784 13.9845 31.5876 13.7174 31.2324 13.7174C30.8454 13.7174 30.5795 14.011 30.5021 14.4798H31.6074ZM32.4766 16.3206H32.6472C32.8238 16.3206 32.9508 16.3206 32.9508 16.1045V14.2719C32.9508 14.0701 32.7167 14.0313 32.6214 13.9783V13.8805C33.0858 13.6787 33.3398 13.5074 33.3973 13.5074C33.435 13.5074 33.4529 13.5278 33.4529 13.5931V14.1802H33.4667C33.6255 13.9253 33.8914 13.5074 34.2784 13.5074C34.4371 13.5074 34.6395 13.6175 34.6395 13.854C34.6395 14.0293 34.5185 14.1863 34.3419 14.1863C34.1434 14.1863 34.1434 14.0293 33.9232 14.0293C33.816 14.0293 33.4608 14.1802 33.4608 14.5716V16.1045C33.4608 16.3206 33.5878 16.3206 33.7664 16.3206H34.1216V16.4898C33.7723 16.4837 33.5064 16.4776 33.2326 16.4776C32.9726 16.4776 32.7048 16.4837 32.4766 16.4898V16.3206ZM34.9213 15.5827C35.0046 16.0128 35.2566 16.3777 35.721 16.3777C36.094 16.3777 36.2349 16.1433 36.2349 15.9149C36.2349 15.1444 34.8518 15.3931 34.8518 14.3432C34.8518 13.9783 35.1376 13.5074 35.8361 13.5074C36.0385 13.5074 36.3123 13.5666 36.5584 13.697L36.604 14.3616H36.4572C36.3937 13.9518 36.1714 13.7154 35.7646 13.7154C35.5106 13.7154 35.2705 13.8662 35.2705 14.1455C35.2705 14.9099 36.7429 14.6735 36.7429 15.6968C36.7429 16.1269 36.4056 16.5836 35.6515 16.5836C35.3975 16.5836 35.0999 16.4918 34.8776 16.3614L34.8082 15.6112L34.9213 15.5827ZM42.4737 13.1181H42.315C42.1939 12.3557 41.6681 12.0479 40.9577 12.0479C40.2274 12.0479 39.1678 12.5493 39.1678 14.1149C39.1678 15.4338 40.0826 16.3777 41.0589 16.3777C41.6879 16.3777 42.2078 15.9333 42.3348 15.2483L42.4797 15.2871L42.3348 16.2391C42.0689 16.4083 41.3506 16.5856 40.9319 16.5856C39.4476 16.5856 38.507 15.601 38.507 14.1333C38.507 12.796 39.6679 11.8379 40.912 11.8379C41.426 11.8379 41.9221 12.0091 42.4102 12.1844L42.4737 13.1181ZM42.7019 16.3206H42.823C43.0016 16.3206 43.1286 16.3206 43.1286 16.1045V12.4719C43.1286 12.0479 43.0333 12.0356 42.7912 11.9622V11.8583C43.0452 11.7727 43.3111 11.6565 43.4461 11.577C43.5155 11.5382 43.5671 11.5056 43.585 11.5056C43.6247 11.5056 43.6366 11.5443 43.6366 11.5973V16.1045C43.6366 16.3206 43.7755 16.3206 43.9541 16.3206H44.0612V16.4898C43.8469 16.4898 43.6247 16.4776 43.3945 16.4776C43.1663 16.4776 42.9381 16.4837 42.7019 16.4898V16.3206ZM46.7778 16.131C46.7778 16.2493 46.8472 16.2554 46.9544 16.2554C47.0298 16.2554 47.1251 16.2493 47.2084 16.2493V16.3858C46.9346 16.4123 46.4147 16.5489 46.2936 16.5877L46.2619 16.5673V16.0393C45.8809 16.3593 45.5892 16.5877 45.1387 16.5877C44.7954 16.5877 44.4402 16.3593 44.4402 15.813V14.1435C44.4402 13.9743 44.4144 13.8112 44.0592 13.7786V13.6542C44.2874 13.6481 44.7954 13.6094 44.8768 13.6094C44.9462 13.6094 44.9462 13.6542 44.9462 13.799V15.4807C44.9462 15.6764 44.9462 16.237 45.4979 16.237C45.7142 16.237 45.9999 16.0678 46.2658 15.8395V14.0843C46.2658 13.9539 45.9622 13.8825 45.734 13.8173V13.6991C46.3055 13.6603 46.6607 13.6073 46.7242 13.6073C46.7758 13.6073 46.7758 13.6522 46.7758 13.7256L46.7778 16.131ZM48.0418 13.9783C48.2958 13.7561 48.6391 13.5095 48.9884 13.5095C49.7246 13.5095 50.1691 14.1679 50.1691 14.8794C50.1691 15.7335 49.5599 16.5877 48.651 16.5877C48.1807 16.5877 47.9347 16.4307 47.768 16.3593L47.5775 16.5082L47.4445 16.4368C47.5001 16.0515 47.5338 15.6744 47.5338 15.2769V12.4719C47.5338 12.0479 47.4386 12.0356 47.1965 11.9622V11.8583C47.4505 11.7727 47.7164 11.6565 47.8513 11.577C47.9208 11.5382 47.9724 11.5056 47.9922 11.5056C48.0299 11.5056 48.0418 11.5443 48.0418 11.5973V13.9783ZM48.0418 15.7519C48.0418 16.0006 48.27 16.4185 48.6947 16.4185C49.3733 16.4185 49.6591 15.7335 49.6591 15.1525C49.6591 14.4492 49.1392 13.8621 48.6431 13.8621C48.4069 13.8621 48.2105 14.0191 48.0398 14.17L48.0418 15.7519ZM20.6558 20.2815H20.7054C20.8304 20.2815 20.9614 20.2651 20.9614 20.0796V18.2205C20.9614 18.035 20.8304 18.0187 20.7054 18.0187H20.6558V17.9127C20.7907 17.9127 20.9971 17.927 21.1677 17.927C21.3404 17.927 21.5467 17.9127 21.7095 17.9127V18.0187H21.6598C21.5368 18.0187 21.4039 18.037 21.4039 18.2205V20.0796C21.4039 20.2651 21.5348 20.2815 21.6598 20.2815H21.7095V20.3895C21.5428 20.3895 21.3364 20.3752 21.1638 20.3752C20.9951 20.3752 20.7907 20.3895 20.6558 20.3895V20.2815Z" fill="#231F20"/>
<path d="M21.7092 20.4036C21.5425 20.4036 21.3361 20.3894 21.1635 20.3894C20.9948 20.3894 20.7924 20.4036 20.6555 20.4036H20.6416V20.267H20.7051C20.8301 20.265 20.9452 20.2528 20.9452 20.0795V18.2204C20.9432 18.0471 20.8301 18.0349 20.7051 18.0328H20.6416V17.8962H20.6555C20.7904 17.8962 20.9988 17.9105 21.1675 17.9105C21.3401 17.9105 21.5465 17.8962 21.7092 17.8962H21.7251V18.0328H21.6616C21.5365 18.0349 21.4215 18.0471 21.4215 18.2204V20.0795C21.4215 20.2528 21.5365 20.263 21.6616 20.267H21.7251V20.4036H21.7092ZM21.6953 20.373V20.2976H21.6616C21.5385 20.2976 21.3917 20.2752 21.3897 20.0795V18.2204C21.3897 18.0247 21.5365 18.0022 21.6616 18.0022H21.6953V17.9268C21.5365 17.9268 21.3361 17.9411 21.1675 17.9411C21.0028 17.9411 20.8043 17.9289 20.6714 17.9268V18.0022H20.7051C20.8281 18.0022 20.975 18.0247 20.975 18.2204V20.0795C20.975 20.2752 20.8281 20.2976 20.7051 20.2976H20.6714V20.373C20.8043 20.371 21.0008 20.3588 21.1635 20.3588C21.3322 20.3588 21.5326 20.373 21.6953 20.373V20.373ZM24.0825 19.6881L24.0884 19.682V18.3508C24.0884 18.0593 23.892 18.0165 23.7888 18.0165H23.7134V17.9105C23.8761 17.9105 24.0348 17.9248 24.1976 17.9248C24.3385 17.9248 24.4813 17.9105 24.6222 17.9105V18.0165H24.5706C24.4258 18.0165 24.263 18.0451 24.263 18.467V20.0836C24.263 20.2079 24.267 20.3323 24.2829 20.4424H24.1519L22.3739 18.4059V19.8675C22.3739 20.1753 22.4315 20.2833 22.6994 20.2833H22.7569V20.3914C22.6081 20.3914 22.4613 20.3771 22.3124 20.3771C22.1576 20.3771 21.9989 20.3914 21.8421 20.3914V20.2833H21.8898C22.1279 20.2833 22.2013 20.1162 22.2013 19.8328V18.3386C22.2013 18.1409 22.0426 18.0206 21.8878 18.0206H21.8421V17.9146C21.9731 17.9146 22.108 17.9289 22.239 17.9289C22.3422 17.9289 22.4434 17.9146 22.5466 17.9146L24.0825 19.6881Z" fill="#231F20"/>
<path d="M24.2834 20.4571L24.1405 20.4509L22.3883 18.443V19.8659C22.3923 20.1737 22.4379 20.2614 22.6979 20.2654H22.7713V20.402H22.7554C22.6066 20.402 22.4577 20.3878 22.3089 20.3878C22.1541 20.3878 21.9954 20.402 21.8386 20.402H21.8228V20.2675H21.8863C22.1145 20.2654 22.1799 20.1166 22.1819 19.8333V18.339C22.1819 18.1495 22.0311 18.0353 21.8823 18.0353H21.8228V17.8987H21.8386C21.9716 17.8987 22.1065 17.913 22.2355 17.913C22.3387 17.913 22.4379 17.8987 22.555 17.9048L24.073 19.66V18.3553C24.071 18.072 23.8885 18.0394 23.7873 18.0373H23.696V17.9008H23.7119C23.8746 17.9008 24.0333 17.915 24.196 17.915C24.3369 17.915 24.4778 17.9008 24.6207 17.9008H24.6366V18.0373H24.5691C24.4262 18.0414 24.2794 18.0536 24.2754 18.4736V20.084C24.2754 20.2084 24.2794 20.3327 24.2953 20.4387L24.2992 20.4571H24.2834ZM24.1504 20.4265H24.2655C24.2496 20.3205 24.2476 20.2022 24.2476 20.084V18.4695C24.2476 18.0435 24.4223 18.0027 24.5691 18.0027H24.6048V17.9273C24.4679 17.9273 24.333 17.9415 24.1941 17.9415C24.0353 17.9415 23.8825 17.9293 23.7257 17.9273V18.0027H23.7873C23.8924 18.0027 24.1028 18.0516 24.1028 18.3533L24.0988 19.6947L24.0909 19.7028L24.079 19.713L22.5431 17.9293C22.4399 17.9293 22.3407 17.9436 22.2355 17.9436C22.1085 17.9436 21.9795 17.9313 21.8545 17.9293V18.0047H21.8843C22.047 18.0047 22.2137 18.1311 22.2137 18.339V19.8333C22.2137 20.1166 22.1363 20.2981 21.8882 20.3001H21.8545V20.3776C22.0033 20.3755 22.1581 20.3633 22.3089 20.3633C22.4538 20.3633 22.5967 20.3755 22.7395 20.3776V20.3021H22.6959C22.424 20.3021 22.3565 20.1798 22.3565 19.872V18.3696L24.1504 20.4265ZM24.0829 19.6885L24.0948 19.6783L24.0829 19.6885ZM24.075 19.6824L24.073 19.6783L24.075 19.6824ZM25.1386 18.0883C24.8787 18.0883 24.8687 18.1515 24.8171 18.4104H24.714C24.7278 18.3105 24.7457 18.2126 24.7556 18.1087C24.7695 18.0088 24.7755 17.9109 24.7755 17.807H24.8588C24.8866 17.913 24.9719 17.9089 25.0672 17.9089H26.8491C26.9424 17.9089 27.0297 17.9048 27.0357 17.7988L27.119 17.8131C27.1051 17.9089 27.0912 18.0047 27.0813 18.1005C27.0753 18.1963 27.0753 18.2922 27.0753 18.388L26.9722 18.4267C26.9642 18.2962 26.9483 18.0863 26.7162 18.0863H26.1506V19.9739C26.1506 20.2471 26.2717 20.2797 26.4364 20.2797H26.5019V20.3878C26.3669 20.3878 26.1248 20.3735 25.9383 20.3735C25.7319 20.3735 25.4898 20.3878 25.3549 20.3878V20.2797H25.4204C25.6109 20.2797 25.7061 20.2614 25.7061 19.9821V18.0863L25.1386 18.0883Z" fill="#231F20"/>
<path d="M26.4991 20.404C26.3621 20.404 26.122 20.3897 25.9355 20.3897C25.7291 20.3897 25.487 20.404 25.3521 20.404H25.3382V20.2674H25.4176C25.6081 20.2634 25.6855 20.2593 25.6894 19.9861V18.1066H25.1378V18.076H25.7192V19.9882C25.7192 20.2735 25.6081 20.3021 25.4176 20.3021H25.366V20.3775C25.5029 20.3775 25.7351 20.3632 25.9355 20.3632C26.1161 20.3632 26.3463 20.3755 26.4832 20.3775V20.3021H26.4336C26.2669 20.3021 26.132 20.2593 26.132 19.98V18.076H26.7134C26.9455 18.076 26.9753 18.2799 26.9832 18.4103L27.0586 18.3818C27.0586 18.2901 27.0586 18.1963 27.0646 18.1025C27.0745 18.0108 27.0864 17.9211 27.1003 17.8294L27.0467 17.8212C27.0309 17.9252 26.9336 17.9292 26.8463 17.9292H25.0485C24.9671 17.9292 24.8778 17.9252 24.8481 17.8253H24.7905C24.7905 17.9211 24.7826 18.0169 24.7707 18.1127C24.7608 18.2106 24.7449 18.3043 24.731 18.3981H24.8044C24.8501 18.1514 24.8798 18.0699 25.1378 18.074V18.1046C24.8818 18.1086 24.8878 18.1535 24.8322 18.4165L24.8302 18.4287H24.6973L24.6992 18.4103C24.7131 18.3104 24.731 18.2126 24.7409 18.1086C24.7548 18.0108 24.7627 17.9109 24.7627 17.809V17.7927H24.8719L24.8739 17.8029C24.8977 17.8926 24.9612 17.8926 25.0485 17.8946H26.8483C26.9455 17.8926 27.015 17.8926 27.0209 17.7988L27.0229 17.7825L27.0388 17.7865L27.136 17.8029L27.1341 17.8192C27.1202 17.915 27.1063 18.0108 27.0963 18.1046C27.0904 18.1983 27.0904 18.2941 27.0904 18.39V18.4001L27.0805 18.4042L26.9574 18.4491V18.4287C26.9475 18.2962 26.9356 18.1025 26.7173 18.1025H26.1657V19.9759C26.1697 20.243 26.2728 20.2613 26.4375 20.2654H26.5189V20.402L26.4991 20.404ZM27.2273 20.2817H27.2769C27.4019 20.2817 27.5329 20.2654 27.5329 20.0799V18.2208C27.5329 18.0352 27.4019 18.0189 27.2769 18.0189H27.2273V17.9129C27.4377 17.9129 27.7968 17.9272 28.0865 17.9272C28.3782 17.9272 28.7354 17.9129 28.9716 17.9129C28.9656 18.0658 28.9696 18.3003 28.9795 18.4552L28.8743 18.4837C28.8585 18.2534 28.8168 18.0699 28.4536 18.0699H27.9734V18.9995H28.3842C28.5906 18.9995 28.6362 18.8792 28.6561 18.6876H28.7592C28.7533 18.8262 28.7493 18.9648 28.7493 19.1034C28.7493 19.238 28.7533 19.3725 28.7592 19.5071L28.6561 19.5274C28.6362 19.3154 28.6243 19.1768 28.3862 19.1768H27.9714V20.0024C27.9714 20.2328 28.1719 20.2328 28.3921 20.2328C28.8069 20.2328 28.9894 20.2042 29.0926 19.8006L29.1898 19.8251C29.1442 20.0126 29.1025 20.2022 29.0728 20.3897C28.8505 20.3897 28.4536 20.3755 28.1441 20.3755C27.8325 20.3755 27.4218 20.3897 27.2253 20.3897V20.2817H27.2273Z" fill="#231F20"/>
<path d="M29.0752 20.4036C28.8529 20.4036 28.4561 20.3894 28.1465 20.3894C27.835 20.3894 27.4242 20.4036 27.2278 20.4036H27.2139V20.267H27.2774C27.4024 20.265 27.5155 20.2528 27.5175 20.0795V18.2204C27.5155 18.0471 27.4024 18.0349 27.2774 18.0328H27.2139V17.8962H27.2278C27.4381 17.8962 27.7973 17.9105 28.087 17.9105C28.3767 17.9105 28.7359 17.8962 28.972 17.8962H28.9879V17.9125C28.9859 17.9655 28.9839 18.0287 28.9839 18.096C28.9839 18.2183 28.9879 18.3529 28.9938 18.4548V18.467L28.9819 18.4711L28.8609 18.5037V18.4854C28.841 18.255 28.8113 18.0879 28.4541 18.0838H27.9878V18.9828H28.3846C28.5831 18.9807 28.6188 18.8768 28.6426 18.6851L28.6446 18.6709H28.7775V18.6872C28.7716 18.8258 28.7656 18.9644 28.7656 19.103C28.7656 19.2376 28.7696 19.3721 28.7775 19.5067V19.5189L28.7656 19.5209L28.6466 19.5454L28.6446 19.5291C28.6208 19.313 28.6188 19.1948 28.3906 19.1907H27.9917V20.002C27.9917 20.2181 28.1723 20.2161 28.3985 20.2181C28.8152 20.2161 28.9819 20.1957 29.0851 19.7961L29.0891 19.7819L29.103 19.7839L29.2141 19.8125L29.2101 19.8267C29.1665 20.0143 29.1248 20.2018 29.0931 20.3894L29.0911 20.4016L29.0752 20.4036ZM29.0633 20.373C29.0931 20.1937 29.1327 20.0143 29.1744 19.8349L29.1069 19.8165C29.0038 20.214 28.8033 20.2487 28.3965 20.2467C28.1783 20.2467 27.962 20.2467 27.96 20V19.1581H28.3886C28.6307 19.156 28.6545 19.3049 28.6724 19.5067L28.7478 19.4904C28.7418 19.3599 28.7379 19.2294 28.7379 19.099C28.7379 18.9644 28.7418 18.8319 28.7478 18.6994H28.6724C28.6525 18.8849 28.597 19.0134 28.3866 19.0113H27.96V18.0512H28.4561C28.8152 18.0491 28.8748 18.2387 28.8906 18.4629L28.9661 18.4426C28.9601 18.3427 28.9561 18.2142 28.9561 18.096C28.9561 18.0349 28.9581 17.9778 28.9601 17.9268C28.7259 17.9268 28.3747 17.9411 28.091 17.9411C27.8072 17.9411 27.4579 17.9289 27.2456 17.9268V18.0022H27.2794C27.4024 18.0022 27.5492 18.0247 27.5492 18.2204V20.0795C27.5492 20.2752 27.4024 20.2976 27.2794 20.2976H27.2456V20.373C27.448 20.373 27.8469 20.3588 28.1505 20.3588C28.4521 20.3588 28.841 20.373 29.0633 20.373V20.373ZM29.6586 18.2876C29.6586 18.0287 29.5197 18.0186 29.4125 18.0186H29.351V17.9125C29.4621 17.9125 29.6765 17.9268 29.8868 17.9268C30.0932 17.9268 30.2599 17.9125 30.4424 17.9125C30.877 17.9125 31.2639 18.0328 31.2639 18.5384C31.2639 18.8564 31.0576 19.0521 30.7837 19.1622L31.3751 20.0693C31.4723 20.2202 31.5398 20.2609 31.7104 20.2813V20.3894C31.5973 20.3894 31.4862 20.3751 31.3711 20.3751C31.2639 20.3751 31.1528 20.3894 31.0457 20.3894C30.7798 20.0306 30.5516 19.6473 30.3273 19.2396H30.0991V20C30.0991 20.2732 30.2221 20.2833 30.3809 20.2833H30.4424V20.3914C30.246 20.3914 30.0455 20.3771 29.8491 20.3771C29.6824 20.3771 29.5217 20.3914 29.349 20.3914V20.2833H29.4105C29.5395 20.2833 29.6566 20.2242 29.6566 20.0917L29.6586 18.2876ZM30.1011 19.1112H30.2698C30.615 19.1112 30.8016 18.9767 30.8016 18.5567C30.8016 18.2408 30.6051 18.0389 30.2976 18.0389C30.1944 18.0389 30.1507 18.0491 30.1011 18.0532V19.1112Z" fill="#231F20"/>
<path d="M31.7097 20.4038C31.5946 20.4038 31.4835 20.3895 31.3704 20.3895C31.2652 20.3895 31.1541 20.4038 31.035 20.3977C30.7691 20.0409 30.5429 19.6597 30.3207 19.2541H30.1163V19.9981C30.1202 20.2652 30.2234 20.2631 30.3842 20.2672H30.4616V20.4038H30.4457C30.2492 20.4038 30.0488 20.3895 29.8524 20.3895C29.6877 20.3895 29.5249 20.4038 29.3523 20.4038H29.3364V20.2672H29.4138C29.5388 20.2672 29.644 20.2101 29.644 20.0919V18.2898C29.642 18.0371 29.521 18.0391 29.4138 18.035H29.3364V17.8984H29.3523C29.4634 17.8984 29.6777 17.9127 29.8881 17.9127C30.0944 17.9127 30.2611 17.8984 30.4437 17.8984C30.8783 17.8984 31.2791 18.0228 31.2811 18.5385C31.2811 18.8586 31.0747 19.0584 30.8088 19.1705L31.3882 20.0633C31.4855 20.2101 31.545 20.2468 31.7137 20.2692L31.7256 20.2713V20.4058L31.7097 20.4038ZM30.1004 19.2235H30.3365L30.3405 19.2316C30.5647 19.6393 30.7929 20.0226 31.0469 20.3732C31.1521 20.3732 31.2632 20.3589 31.3704 20.3589C31.4815 20.3589 31.5867 20.3712 31.6938 20.3732V20.2957C31.5311 20.2754 31.4557 20.2244 31.3605 20.0776L30.7592 19.1542L30.7771 19.146C31.0469 19.0359 31.2474 18.8464 31.2474 18.5345C31.2474 18.0411 30.8743 17.927 30.4397 17.927C30.2572 17.927 30.0925 17.9412 29.8841 17.9412C29.6817 17.9412 29.4773 17.929 29.3642 17.927V18.0024H29.4118C29.519 18.0024 29.6718 18.0207 29.6718 18.2878V20.0898C29.6718 20.2325 29.5408 20.2978 29.4118 20.2978H29.3642V20.3732C29.5309 20.3732 29.6877 20.3589 29.8504 20.3589C30.0429 20.3589 30.2393 20.3732 30.4298 20.3732V20.2978H30.3822C30.2254 20.2978 30.0845 20.2774 30.0845 19.9981V19.2235H30.1004ZM30.1004 19.1256H30.0845V18.0391L30.0984 18.0371C30.146 18.033 30.1917 18.0228 30.2969 18.0228C30.6124 18.0228 30.8168 18.2328 30.8168 18.5569C30.8168 18.9809 30.6183 19.1236 30.2691 19.1256H30.1004ZM30.2691 19.0951C30.6104 19.093 30.783 18.9707 30.787 18.5569C30.785 18.247 30.5985 18.0554 30.2969 18.0534C30.2036 18.0534 30.1599 18.0615 30.1163 18.0656V19.093H30.2691V19.0951ZM34.0552 19.6883L34.0612 19.6821V18.351C34.0612 18.0595 33.8647 18.0167 33.7615 18.0167H33.6861V17.9107C33.8488 17.9107 34.0076 17.9249 34.1703 17.9249C34.3112 17.9249 34.4541 17.9107 34.595 17.9107V18.0167H34.5434C34.3985 18.0167 34.2358 18.0452 34.2358 18.4672V20.0837C34.2358 20.2081 34.2398 20.3324 34.2556 20.4425H34.1247L32.3467 18.406V19.8677C32.3467 20.1755 32.4062 20.2835 32.6721 20.2835H32.7317V20.3916C32.5828 20.3916 32.434 20.3773 32.2872 20.3773C32.1304 20.3773 31.9716 20.3916 31.8169 20.3916V20.2835H31.8645C32.1026 20.2835 32.176 20.1164 32.176 19.833V18.3388C32.176 18.141 32.0173 18.0207 31.8625 18.0207H31.8169V17.9147C31.9478 17.9147 32.0828 17.929 32.2137 17.929C32.3169 17.929 32.4181 17.9147 32.5213 17.9147L34.0552 19.6883Z" fill="#231F20"/>
<path d="M34.256 20.457L34.1131 20.4529L32.3609 18.445V19.8679C32.3649 20.1757 32.4105 20.2634 32.6705 20.2674H32.7439V20.404H32.728C32.5792 20.404 32.4304 20.3897 32.2815 20.3897C32.1268 20.3897 31.968 20.404 31.8132 20.404H31.7974V20.2674H31.8609C32.0891 20.2674 32.1545 20.1166 32.1565 19.8312V18.3369C32.1565 18.1474 32.0057 18.0332 31.8589 18.0332H31.7974V17.8966H31.8132C31.9442 17.8966 32.0791 17.9109 32.2101 17.9109C32.3113 17.9109 32.4125 17.8966 32.5276 17.9027L34.0456 19.66V18.3553C34.0456 18.074 33.8611 18.0393 33.7599 18.0373H33.6686V17.9007H33.6845C33.8472 17.9007 34.0059 17.915 34.1687 17.915C34.3096 17.915 34.4504 17.9007 34.5933 17.9007H34.6092V18.0373H34.5437C34.4008 18.0414 34.254 18.0536 34.25 18.4735V20.084C34.25 20.2083 34.254 20.3306 34.2699 20.4407L34.2719 20.457H34.256ZM34.125 20.4264H34.2381C34.2222 20.3204 34.2203 20.2022 34.2203 20.084V18.4695C34.2203 18.0434 34.3949 18.0047 34.5437 18.0026H34.5794V17.9272C34.4445 17.9272 34.3076 17.9415 34.1706 17.9415C34.0119 17.9415 33.8571 17.9292 33.7023 17.9272V18.0026H33.7639C33.871 18.0047 34.0794 18.0516 34.0794 18.3512L34.0754 19.6926L34.0694 19.7007L34.0595 19.713L32.5217 17.9292C32.4185 17.9292 32.3192 17.9435 32.2141 17.9435C32.0871 17.9435 31.9561 17.9313 31.8311 17.9292V18.0047H31.8609C32.0236 18.0067 32.1903 18.1311 32.1903 18.339V19.8332C32.1903 20.1186 32.1129 20.3 31.8648 20.3H31.8311V20.3755C31.9799 20.3755 32.1347 20.3612 32.2855 20.3612C32.4304 20.3612 32.5732 20.3734 32.7161 20.3755V20.3H32.6725C32.4006 20.3 32.3331 20.1777 32.3312 19.8679V18.3655L34.125 20.4264ZM34.0556 19.6885L34.0655 19.6783L34.0556 19.6885ZM34.0456 19.6824L34.0437 19.6783L34.0456 19.6824ZM35.1489 19.8822C35.1132 20.0024 35.0715 20.0962 35.0715 20.1594C35.0715 20.2654 35.2164 20.2837 35.3295 20.2837H35.3672V20.3918C35.2283 20.3836 35.0874 20.3775 34.9485 20.3775C34.8235 20.3775 34.7005 20.3836 34.5755 20.3918V20.2837H34.5953C34.7302 20.2837 34.8433 20.2022 34.8949 20.0534L35.4486 18.4246C35.4922 18.2941 35.5557 18.1168 35.5776 17.9843C35.6867 17.9456 35.8256 17.8742 35.8911 17.8314C35.901 17.8273 35.907 17.8232 35.9189 17.8232C35.9288 17.8232 35.9367 17.8232 35.9427 17.8334C35.9526 17.862 35.9625 17.8946 35.9744 17.9211L36.6094 19.7782C36.6511 19.9025 36.6928 20.033 36.7364 20.141C36.7781 20.2409 36.8515 20.2817 36.9646 20.2817H36.9845V20.3897C36.8297 20.3816 36.6729 20.3755 36.5082 20.3755C36.3395 20.3755 36.1649 20.3816 35.9903 20.3897V20.2817H36.028C36.1074 20.2817 36.2423 20.2674 36.2423 20.1798C36.2423 20.1329 36.2106 20.0371 36.1729 19.925L36.0379 19.5132H35.2541L35.1489 19.8822ZM35.653 18.3084H35.645L35.3236 19.3134H35.9685L35.653 18.3084Z" fill="#231F20"/>
<path d="M36.9913 20.4041C36.8365 20.3959 36.6797 20.3898 36.515 20.3898C36.3464 20.3898 36.1737 20.3979 35.9971 20.4041H35.9813V20.2654H36.0348C36.1142 20.2654 36.2333 20.2471 36.2333 20.1778C36.2333 20.137 36.2035 20.0392 36.1658 19.927L36.0348 19.5255H35.2728L35.1657 19.8842C35.13 20.0045 35.0903 20.0983 35.0903 20.1574C35.0923 20.243 35.2212 20.2654 35.3344 20.2654H35.3879V20.4041H35.3721C35.2331 20.3959 35.0923 20.3898 34.9553 20.3898C34.8323 20.3898 34.7073 20.3979 34.5823 20.4041H34.5664V20.2654H34.6021C34.7311 20.2654 34.8383 20.19 34.8879 20.0453L35.4415 18.4165C35.4871 18.284 35.5487 18.1087 35.5784 17.966C35.6876 17.9293 35.8245 17.8579 35.892 17.8131C35.9019 17.809 35.9118 17.8049 35.9257 17.8049C35.9336 17.8049 35.9535 17.807 35.9634 17.8253C35.9733 17.8539 35.9832 17.8865 35.9951 17.915L36.6321 19.7701C36.6738 19.8944 36.7135 20.0249 36.7591 20.1309C36.7988 20.2247 36.8623 20.2634 36.9734 20.2634H37.0091V20.402L36.9913 20.4041ZM36.011 20.3714C36.1817 20.3653 36.3503 20.3592 36.515 20.3592C36.6758 20.3592 36.8266 20.3653 36.9754 20.3714V20.2981H36.9714C36.8524 20.2981 36.771 20.2512 36.7294 20.1472C36.6837 20.0392 36.642 19.9087 36.6024 19.7843L35.9674 17.9293C35.9574 17.9008 35.9475 17.8681 35.9376 17.8437C35.9356 17.8396 35.9356 17.8396 35.9316 17.8396H35.9257C35.9178 17.8396 35.9138 17.8416 35.9058 17.8437C35.8384 17.8885 35.7015 17.9578 35.5983 17.9864C35.5764 18.1209 35.5149 18.2983 35.4693 18.4287L34.9157 20.0575C34.8621 20.2124 34.741 20.3001 34.6021 20.3001H34.5962V20.3735C34.7152 20.3674 34.8343 20.3613 34.9534 20.3613C35.0863 20.3613 35.2232 20.3674 35.3542 20.3735V20.3001H35.3324C35.2193 20.2981 35.0625 20.2858 35.0585 20.1594C35.0585 20.0881 35.1002 19.9984 35.1339 19.8781L35.1498 19.8822L35.1339 19.8761L35.247 19.4969H36.0527L36.1916 19.9189C36.2313 20.033 36.261 20.1268 36.261 20.1798C36.2571 20.2879 36.1102 20.296 36.0328 20.2981H36.009L36.011 20.3714ZM35.3046 19.3277L35.636 18.2922H35.6538V18.3085H35.6499H35.6538V18.2922H35.6638L35.9912 19.3277H35.3046ZM35.3463 19.2971H35.9515L35.6518 18.3452L35.3463 19.2971ZM35.6399 18.3125L35.6479 18.3105L35.6399 18.3125ZM37.1441 18.0883C36.8841 18.0883 36.8742 18.1515 36.8226 18.4104H36.7194C36.7333 18.3105 36.7512 18.2126 36.7611 18.1087C36.775 18.0088 36.7809 17.9109 36.7809 17.807H36.8643C36.8921 17.913 36.9794 17.9089 37.0707 17.9089H38.8526C38.9459 17.9089 39.0312 17.9048 39.0391 17.7988L39.1225 17.8131C39.1086 17.9089 39.0947 18.0047 39.0848 18.1005C39.0768 18.1963 39.0768 18.2922 39.0768 18.388L38.9737 18.4267C38.9677 18.2962 38.9498 18.0863 38.7177 18.0863H38.1521V19.9739C38.1521 20.2471 38.2732 20.2797 38.4379 20.2797H38.5034V20.3878C38.3684 20.3878 38.1283 20.3735 37.9398 20.3735C37.7334 20.3735 37.4913 20.3878 37.3564 20.3878V20.2797H37.4219C37.6124 20.2797 37.7096 20.2614 37.7096 19.9821V18.0863L37.1441 18.0883Z" fill="#231F20"/>
<path d="M38.5025 20.4042C38.3676 20.4042 38.1255 20.3899 37.939 20.3899C37.7326 20.3899 37.4905 20.4042 37.3556 20.4042H37.3397V20.2676H37.421C37.6115 20.2635 37.6869 20.2594 37.6929 19.9863V18.1068H37.1432V18.0762H37.7246V19.9883C37.7246 20.2737 37.6135 20.3002 37.423 20.3022H37.3714V20.3777C37.5083 20.3756 37.7405 20.3634 37.9409 20.3634C38.1215 20.3634 38.3517 20.3756 38.4886 20.3777V20.3022H38.437C38.2703 20.3022 38.1374 20.2594 38.1354 19.9822V18.0782H38.7168C38.949 18.0782 38.9788 18.2821 38.9847 18.4125L39.0601 18.384C39.0601 18.2923 39.0601 18.1985 39.0661 18.1047C39.076 18.013 39.0879 17.9233 39.1018 17.8316L39.0502 17.8234C39.0343 17.9274 38.9371 17.9314 38.8518 17.9314H37.0519C36.9706 17.9314 36.8833 17.9274 36.8515 17.8275H36.796C36.796 17.9253 36.788 18.0211 36.7741 18.1149C36.7642 18.2128 36.7483 18.3065 36.7344 18.4003H36.8079C36.8535 18.1536 36.8833 18.0721 37.1412 18.0762V18.1068C36.8853 18.1108 36.8912 18.1557 36.8337 18.4186L36.8317 18.4309H36.6987L36.7007 18.4125C36.7146 18.3126 36.7325 18.2128 36.7424 18.1108C36.7563 18.0109 36.7642 17.9131 36.7642 17.8112V17.7949H36.8734L36.8753 17.8051C36.8992 17.8947 36.9627 17.8947 37.05 17.8968H37.0678H38.8498C38.945 17.8947 39.0145 17.8927 39.0204 17.801V17.7847L39.0363 17.7887L39.1335 17.8051L39.1315 17.8214C39.1177 17.9172 39.1038 18.013 39.0938 18.1068C39.0859 18.2005 39.0859 18.2984 39.0859 18.3921V18.4023L39.076 18.4064L38.953 18.4513V18.4309C38.945 18.2984 38.9311 18.1047 38.7128 18.1047H38.1652V19.9781C38.1691 20.2452 38.2723 20.2635 38.437 20.2676H38.5184V20.4042H38.5025ZM39.2486 20.2819H39.2962C39.4213 20.2819 39.5522 20.2655 39.5522 20.08V18.2209C39.5522 18.0354 39.4213 18.0191 39.2962 18.0191H39.2486V17.9131C39.3836 17.9131 39.5899 17.9274 39.7586 17.9274C39.9312 17.9274 40.1396 17.9131 40.3023 17.9131V18.0191H40.2547C40.1297 18.0191 39.9987 18.0374 39.9987 18.2209V20.08C39.9987 20.2655 40.1297 20.2819 40.2547 20.2819H40.3023V20.3899C40.1356 20.3899 39.9293 20.3756 39.7566 20.3756C39.5879 20.3756 39.3836 20.3899 39.2486 20.3899V20.2819Z" fill="#231F20"/>
<path d="M40.302 20.4038C40.1353 20.4038 39.9289 20.3895 39.7563 20.3895C39.5876 20.3895 39.3832 20.4038 39.2483 20.4038H39.2324V20.2672H39.2959C39.4209 20.2652 39.536 20.255 39.536 20.0797V18.2205C39.536 18.0472 39.4209 18.035 39.2959 18.033H39.2324V17.8964H39.2483C39.3832 17.8964 39.5896 17.9107 39.7583 17.9107C39.9309 17.9107 40.1373 17.8964 40.302 17.8964H40.3159V18.033H40.2524C40.1254 18.035 40.0123 18.0472 40.0103 18.2205V20.0797C40.0123 20.2529 40.1254 20.2652 40.2524 20.2672H40.3159V20.4038H40.302ZM40.2861 20.3732V20.2978H40.2524C40.1293 20.2978 39.9825 20.2754 39.9825 20.0797V18.2205C39.9825 18.0248 40.1293 18.0024 40.2524 18.0024H40.2861V17.927C40.1274 17.927 39.9269 17.9412 39.7583 17.9412C39.5956 17.9412 39.3971 17.929 39.2622 17.927V18.0024H39.2959C39.419 18.0024 39.5658 18.0248 39.5658 18.2205V20.0797C39.5658 20.2754 39.419 20.2978 39.2959 20.2978H39.2622V20.3732C39.3951 20.3712 39.5916 20.3589 39.7543 20.3589C39.923 20.3589 40.1234 20.3712 40.2861 20.3732ZM41.6791 17.8577C42.4153 17.8577 43.0027 18.3265 43.0027 19.0828C43.0027 19.8982 42.4332 20.4425 41.697 20.4425C40.9648 20.4425 40.4052 19.9308 40.4052 19.1684C40.4052 18.4305 40.9608 17.8577 41.6791 17.8577V17.8577ZM41.7307 20.2855C42.4014 20.2855 42.5185 19.6781 42.5185 19.1603C42.5185 18.6425 42.2467 18.0146 41.6732 18.0146C41.0679 18.0146 40.8894 18.5691 40.8894 19.0441C40.8894 19.6781 41.1711 20.2855 41.7307 20.2855V20.2855Z" fill="#231F20"/>
<path d="M40.3896 19.1685C40.3916 18.4224 40.9532 17.8455 41.6795 17.8435V17.8741C40.9691 17.8741 40.4194 18.4388 40.4194 19.1685C40.4214 19.9228 40.973 20.4263 41.6973 20.4263C42.4256 20.4263 42.9872 19.8902 42.9892 19.0829C42.9892 18.3368 42.4097 17.8741 41.6795 17.8741V17.8435C42.4216 17.8435 43.0169 18.3185 43.0169 19.0829C43.0169 19.9085 42.4395 20.4569 41.6973 20.4569C40.9592 20.4549 40.3916 19.9391 40.3896 19.1685V19.1685ZM40.8738 19.0422C40.8738 18.5651 41.0564 17.9984 41.6735 17.9984C42.2589 18.0005 42.5327 18.6406 42.5347 19.1604C42.5347 19.6782 42.4157 20.2999 41.7331 20.2999V20.2693C42.3899 20.2693 42.503 19.6782 42.505 19.1604C42.505 18.6467 42.2351 18.0311 41.6735 18.029C41.0802 18.029 40.9056 18.5692 40.9036 19.0422C40.9036 19.6741 41.1854 20.2673 41.7311 20.2693V20.2999C41.1576 20.2999 40.8758 19.6823 40.8738 19.0422ZM45.3307 19.6884L45.3386 19.6823V18.3511C45.3386 18.0596 45.1422 18.0168 45.037 18.0168H44.9616V17.9108C45.1243 17.9108 45.2831 17.925 45.4438 17.925C45.5867 17.925 45.7276 17.9108 45.8684 17.9108V18.0168H45.8169C45.672 18.0168 45.5093 18.0453 45.5093 18.4673V20.0838C45.5093 20.2082 45.5132 20.3325 45.5311 20.4426H45.4001L43.6202 18.4061V19.8678C43.6202 20.1756 43.6777 20.2836 43.9436 20.2836H44.0032V20.3917C43.8543 20.3917 43.7055 20.3774 43.5567 20.3774C43.4019 20.3774 43.2412 20.3917 43.0864 20.3917V20.2836H43.134C43.3721 20.2836 43.4436 20.1165 43.4436 19.8331V18.3389C43.4436 18.1411 43.2848 18.0209 43.13 18.0209H43.0844V17.9149C43.2154 17.9149 43.3503 17.9291 43.4813 17.9291C43.5845 17.9291 43.6857 17.9149 43.7888 17.9149L45.3307 19.6884Z" fill="#231F20"/>
<path d="M45.5313 20.457L45.3885 20.4509L43.6363 18.443V19.8658C43.6402 20.1737 43.6859 20.2613 43.9458 20.2654H44.0212V20.404H44.0054C43.8565 20.404 43.7077 20.3897 43.5589 20.3897C43.4041 20.3897 43.2454 20.404 43.0886 20.404H43.0747V20.2654H43.1382C43.3664 20.2654 43.4319 20.1145 43.4339 19.8312V18.3369C43.4339 18.1474 43.2831 18.0332 43.1342 18.0332H43.0747V17.8966H43.0886C43.2215 17.8966 43.3565 17.9109 43.4855 17.9109C43.5887 17.9109 43.6879 17.8966 43.8049 17.9027L45.323 19.6579V18.3533C45.323 18.0699 45.1384 18.0373 45.0372 18.0352H44.946V17.8987H44.9618C45.1245 17.8987 45.2833 17.9129 45.444 17.9129C45.5849 17.9129 45.7258 17.8987 45.8707 17.8987H45.8846V18.0352H45.8171C45.6742 18.0393 45.5274 18.0536 45.5254 18.4715V20.084C45.5254 20.2083 45.5274 20.3327 45.5452 20.4407L45.5472 20.457H45.5313ZM45.4004 20.4264H45.5135C45.4976 20.3204 45.4956 20.2022 45.4956 20.084V18.4695C45.4956 18.0434 45.6702 18.0047 45.8171 18.0026H45.8548V17.9272C45.7179 17.9272 45.5829 17.9415 45.444 17.9415C45.2873 17.9415 45.1325 17.9292 44.9757 17.9272V18.0026H45.0372C45.1444 18.0047 45.3527 18.0516 45.3527 18.3533L45.3488 19.6946L45.3428 19.7028L45.3309 19.715L43.793 17.9313C43.6918 17.9313 43.5906 17.9456 43.4855 17.9456C43.3585 17.9456 43.2295 17.9333 43.1025 17.9313V18.0067H43.1323C43.295 18.0087 43.4617 18.1331 43.4617 18.341V19.8353C43.4617 20.1186 43.3843 20.3 43.1362 20.3021H43.1025V20.3775C43.2533 20.3775 43.4061 20.3632 43.5589 20.3632C43.7037 20.3632 43.8466 20.3755 43.9895 20.3775V20.3021H43.9458C43.674 20.3021 43.6065 20.1798 43.6065 19.872V18.3696L45.4004 20.4264ZM45.3309 19.6885L45.3428 19.6783L45.3309 19.6885ZM45.323 19.6824L45.321 19.6783L45.323 19.6824ZM46.4243 19.8822C46.3906 20.0024 46.3489 20.0962 46.3489 20.1594C46.3489 20.2654 46.4937 20.2837 46.6069 20.2837H46.6446V20.3918C46.5057 20.3836 46.3648 20.3775 46.2259 20.3775C46.1008 20.3775 45.9778 20.3836 45.8528 20.3918V20.2837H45.8726C46.0076 20.2837 46.1227 20.2022 46.1743 20.0534L46.7279 18.4246C46.7716 18.2941 46.8351 18.1168 46.8549 17.9843C46.966 17.9456 47.1029 17.8742 47.1704 17.8314C47.1803 17.8273 47.1863 17.8232 47.1982 17.8232C47.2081 17.8232 47.2141 17.8232 47.222 17.8334C47.2319 17.862 47.2438 17.8946 47.2538 17.9211L47.8887 19.7782C47.9304 19.9025 47.9721 20.033 48.0177 20.141C48.0594 20.2409 48.1328 20.2817 48.2459 20.2817H48.2678V20.3897C48.113 20.3816 47.9562 20.3755 47.7915 20.3755C47.6228 20.3755 47.4502 20.3816 47.2736 20.3897V20.2817H47.3113C47.3907 20.2817 47.5256 20.2674 47.5256 20.1798C47.5256 20.1329 47.4939 20.0371 47.4562 19.925L47.3212 19.5132H46.5374L46.4243 19.8822ZM46.9303 18.3084H46.9244L46.6029 19.3134H47.2498L46.9303 18.3084Z" fill="#231F20"/>
<path d="M48.2657 20.404C48.111 20.3978 47.9542 20.3897 47.7895 20.3897C47.6208 20.3897 47.4482 20.3978 47.2716 20.404H47.2557V20.2674H47.3073C47.3886 20.2674 47.5077 20.249 47.5077 20.1797C47.5077 20.139 47.4779 20.0431 47.4383 19.929L47.3073 19.5274H46.5453L46.4381 19.8862C46.4044 20.0085 46.3627 20.1002 46.3627 20.1593C46.3627 20.247 46.4917 20.2674 46.6068 20.2674H46.6604V20.406H46.6445C46.5056 20.3999 46.3647 20.3917 46.2278 20.3917C46.1048 20.3917 45.9798 20.3999 45.8547 20.406H45.8389V20.2674H45.8746C46.0036 20.2674 46.1107 20.1899 46.1623 20.0472L46.716 18.4184C46.7596 18.2859 46.8231 18.1106 46.8529 17.9679C46.962 17.9292 47.1009 17.8578 47.1664 17.815C47.1763 17.811 47.1843 17.8069 47.1981 17.8069C47.2081 17.8069 47.2259 17.8089 47.2359 17.8273C47.2458 17.8558 47.2557 17.8864 47.2676 17.917L47.9026 19.772C47.9443 19.8964 47.9859 20.0268 48.0296 20.1328C48.0693 20.2266 48.1328 20.2633 48.2439 20.2653H48.2796V20.404H48.2657ZM47.2855 20.3734C47.4561 20.3673 47.6248 20.3591 47.7895 20.3591C47.9502 20.3591 48.101 20.3652 48.2518 20.3713V20.298H48.2459C48.1288 20.298 48.0475 20.2511 48.0038 20.1471C47.9582 20.0391 47.9165 19.9086 47.8768 19.7843L47.2418 17.9272C47.2319 17.8986 47.222 17.866 47.212 17.8415C47.2101 17.8375 47.2101 17.8375 47.2061 17.8375H47.2001C47.1922 17.8375 47.1882 17.8395 47.1803 17.8415C47.1128 17.8843 46.9739 17.9557 46.8727 17.9842C46.8509 18.1188 46.7894 18.2961 46.7437 18.4266L46.1901 20.0554C46.1385 20.2103 46.0175 20.298 45.8766 20.298H45.8706V20.3713C45.9897 20.3652 46.1087 20.3591 46.2278 20.3591C46.3608 20.3591 46.4977 20.3652 46.6306 20.3713V20.298H46.6068C46.4937 20.2959 46.3369 20.2837 46.333 20.1573C46.333 20.086 46.3766 19.9963 46.4104 19.876L46.4243 19.8801L46.4104 19.8739L46.5235 19.4948H47.3291L47.468 19.9168C47.5057 20.0309 47.5375 20.1247 47.5375 20.1777C47.5315 20.2857 47.3867 20.2939 47.3093 20.2959H47.2874L47.2855 20.3734ZM46.581 19.3276L46.9124 18.2921H46.9303V18.3084H46.9263H46.9303V18.2921H46.9402L47.2676 19.3276H46.581ZM46.6207 19.297H47.2239L46.9243 18.3471L46.6207 19.297ZM46.9144 18.3124L46.9203 18.3104L46.9144 18.3124ZM49.1369 20.0411C49.1369 20.1838 49.2321 20.2246 49.3432 20.2409C49.4841 20.2511 49.6409 20.2511 49.7996 20.2327C49.9445 20.2144 50.0695 20.1288 50.131 20.0411C50.1866 19.9636 50.2164 19.8638 50.2382 19.7863H50.3374C50.2997 19.9881 50.2521 20.1879 50.2104 20.3897C49.9068 20.3897 49.6032 20.3754 49.2996 20.3754C48.996 20.3754 48.6924 20.3897 48.3888 20.3897V20.2817H48.4364C48.5614 20.2817 48.6963 20.2653 48.6963 20.0452V18.2207C48.6963 18.0352 48.5614 18.0189 48.4364 18.0189H48.3888V17.9129C48.5713 17.9129 48.7519 17.9272 48.9345 17.9272C49.1111 17.9272 49.2837 17.9129 49.4603 17.9129V18.0189H49.373C49.242 18.0189 49.1388 18.023 49.1388 18.2105V20.0411H49.1369Z" fill="#231F20"/>
<path d="M50.2101 20.4038C49.9065 20.4038 49.6009 20.3895 49.2993 20.3895C48.9956 20.3895 48.692 20.4038 48.3865 20.4038H48.3726V20.2672H48.4361C48.5611 20.2652 48.6801 20.255 48.6801 20.045V18.2205C48.6781 18.0473 48.5611 18.0371 48.4361 18.033H48.3726V17.8964H48.3865C48.571 17.8964 48.7496 17.9107 48.9322 17.9107C49.1068 17.9107 49.2794 17.8964 49.458 17.8964H49.4719V18.033H49.3707C49.2377 18.0371 49.1544 18.031 49.1504 18.2103V20.0409C49.1504 20.1734 49.2358 20.2081 49.3429 20.2244C49.4044 20.2285 49.4679 20.2326 49.5354 20.2326C49.6207 20.2326 49.708 20.2285 49.7973 20.2183C49.9382 20.202 50.0593 20.1184 50.1188 20.0328C50.1724 19.9574 50.2021 19.8595 50.224 19.782L50.2279 19.7698H50.3589L50.3549 19.7882C50.3152 19.992 50.2676 20.1897 50.2259 20.3916L50.224 20.4038H50.2101ZM50.1962 20.3732C50.2359 20.1816 50.2815 19.992 50.3192 19.8004H50.2478C50.2259 19.8779 50.1962 19.9737 50.1406 20.0511C50.0771 20.1429 49.9481 20.2305 49.7993 20.2489C49.708 20.2591 49.6187 20.2631 49.5354 20.2631C49.4679 20.2631 49.4044 20.2591 49.3409 20.255C49.2278 20.2427 49.1187 20.1938 49.1207 20.0409V18.2103C49.1207 18.0126 49.2417 18.0024 49.3707 18.0024H49.4421V17.927C49.2715 17.927 49.1048 17.9413 48.9322 17.9413C48.7536 17.9413 48.5789 17.929 48.4003 17.927V18.0024H48.4341C48.5571 18.0024 48.7079 18.0248 48.7079 18.2205V20.045C48.7079 20.2754 48.5571 20.2978 48.4341 20.2978H48.4003V20.3732C48.7 20.3732 48.9976 20.3589 49.2973 20.3589C49.5989 20.3589 49.8985 20.3732 50.1962 20.3732V20.3732ZM50.2954 17.8108C50.5038 17.8108 50.6585 17.9759 50.6585 18.1859C50.6585 18.3958 50.5038 18.5589 50.2954 18.5589C50.087 18.5589 49.9323 18.3958 49.9323 18.1859C49.9323 17.9759 50.087 17.8108 50.2954 17.8108ZM50.2954 18.4876C50.4581 18.4876 50.5831 18.3449 50.5831 18.1838C50.5831 18.0228 50.4601 17.8781 50.2954 17.8781C50.1327 17.8781 50.0077 18.0228 50.0077 18.1838C50.0077 18.3449 50.1327 18.4876 50.2954 18.4876ZM50.1148 18.3816V18.3632C50.1605 18.3571 50.1684 18.3592 50.1684 18.3306V18.0534C50.1684 18.0146 50.1644 18.0004 50.1168 18.0024V17.9841H50.3033C50.3668 17.9841 50.4264 18.0146 50.4264 18.084C50.4264 18.139 50.3907 18.1798 50.341 18.1961L50.4006 18.2817C50.4284 18.3204 50.4601 18.3571 50.4799 18.3693V18.3816H50.4085C50.3748 18.3816 50.345 18.3082 50.2775 18.2103H50.2379V18.3347C50.2379 18.3592 50.2458 18.3571 50.2914 18.3632V18.3816H50.1148ZM50.2379 18.1859H50.2815C50.3291 18.1859 50.351 18.1492 50.351 18.0901C50.351 18.031 50.3172 18.0106 50.2795 18.0106H50.2398V18.1859H50.2379Z" fill="#231F20"/>
<path d="M12.9994 22.3933C16.2993 22.4096 19.3096 19.629 19.3096 16.2471C19.3096 12.5492 16.2973 9.99088 12.9994 9.99292H10.1597C6.82206 9.99088 4.07373 12.5492 4.07373 16.2471C4.07373 19.6311 6.82206 22.4096 10.1597 22.3933H12.9994Z" fill="#0079BE"/>
<path d="M10.1739 10.5049C7.1239 10.5049 4.6514 13.0469 4.64941 16.1822C4.64941 19.3174 7.12192 21.8574 10.1739 21.8574C13.2258 21.8574 15.6983 19.3154 15.6983 16.1822C15.6983 13.0469 13.2258 10.5069 10.1739 10.5049V10.5049ZM6.67345 16.1822C6.67544 14.6492 7.60809 13.3425 8.92173 12.8247V19.5396C7.60809 19.0218 6.67544 17.7151 6.67345 16.1822V16.1822ZM11.428 19.5417V12.8247C12.7416 13.3425 13.6743 14.6492 13.6762 16.1822C13.6743 17.7151 12.7416 19.0218 11.428 19.5417Z" fill="white"/>
<path d="M21.2461 12.6615C21.2461 12.0744 20.9485 12.1131 20.6627 12.107V11.9378C20.9108 11.95 21.1648 11.95 21.4108 11.95C21.6767 11.95 22.0399 11.9378 22.5102 11.9378C24.1532 11.9378 25.0481 13.0651 25.0481 14.2209C25.0481 14.8671 24.681 16.4898 22.4328 16.4898C22.1093 16.4898 21.8097 16.4776 21.512 16.4776C21.2263 16.4776 20.9465 16.4837 20.6607 16.4898V16.3206C21.0417 16.2819 21.2263 16.2676 21.2441 15.8252L21.2461 12.6615ZM21.8672 15.7192C21.8672 16.2207 22.2165 16.2798 22.528 16.2798C23.8992 16.2798 24.3497 15.2157 24.3497 14.2454C24.3497 13.0264 23.5877 12.1457 22.3633 12.1457C22.1034 12.1457 21.9823 12.1641 21.8672 12.1722V15.7192ZM25.2704 16.3206H25.3914C25.568 16.3206 25.697 16.3206 25.697 16.1045V14.3371C25.697 14.0497 25.6018 14.011 25.3676 13.8805V13.7765C25.6653 13.6848 26.0225 13.5625 26.0463 13.5421C26.0919 13.5156 26.1296 13.5095 26.1614 13.5095C26.1931 13.5095 26.205 13.5482 26.205 13.6012V16.1045C26.205 16.3206 26.3439 16.3206 26.5225 16.3206H26.6297V16.4898C26.4134 16.4898 26.1911 16.4776 25.9629 16.4776C25.7347 16.4776 25.5065 16.4837 25.2704 16.4898V16.3206ZM25.949 12.5045C25.7843 12.5045 25.6375 12.3475 25.6375 12.1783C25.6375 12.0152 25.7903 11.8644 25.949 11.8644C26.1137 11.8644 26.2606 12.001 26.2606 12.1783C26.2606 12.3557 26.1217 12.5045 25.949 12.5045ZM27.2329 14.3759C27.2329 14.1353 27.1635 14.0701 26.8658 13.9457V13.8214C27.1377 13.7296 27.3976 13.6461 27.7032 13.5074C27.7231 13.5074 27.7409 13.5217 27.7409 13.5727V13.9967C28.104 13.7296 28.4136 13.5074 28.8402 13.5074C29.38 13.5074 29.5705 13.9111 29.5705 14.4207V16.1025C29.5705 16.3186 29.7094 16.3186 29.888 16.3186H30.0031V16.4878C29.7808 16.4878 29.5586 16.4755 29.3304 16.4755C29.1022 16.4755 28.872 16.4816 28.6438 16.4878V16.3186H28.7569C28.9355 16.3186 29.0605 16.3186 29.0605 16.1025V14.4166C29.0605 14.0436 28.8402 13.8621 28.4771 13.8621C28.2747 13.8621 27.9513 14.0313 27.7409 14.1761V16.1066C27.7409 16.3226 27.8818 16.3226 28.0584 16.3226H28.1715V16.4918C27.9493 16.4918 27.727 16.4796 27.4988 16.4796C27.2706 16.4796 27.0424 16.4857 26.8142 16.4918V16.3226H26.9293C27.1079 16.3226 27.2329 16.3226 27.2329 16.1066V14.3759ZM30.4833 14.6898C30.4694 14.7489 30.4694 14.8468 30.4833 15.069C30.521 15.6887 30.9079 16.1963 31.4159 16.1963C31.7652 16.1963 32.039 16.0006 32.2732 15.76L32.3625 15.8517C32.0708 16.2493 31.7076 16.5877 31.1877 16.5877C30.1777 16.5877 29.9753 15.5827 29.9753 15.1668C29.9753 13.8886 30.8127 13.5095 31.2572 13.5095C31.7711 13.5095 32.3248 13.8418 32.3307 14.5328C32.3307 14.5716 32.3307 14.6103 32.3248 14.6511L32.2672 14.6898H30.4833ZM31.6064 14.4798C31.7652 14.4798 31.783 14.3942 31.783 14.3167C31.783 13.9845 31.5866 13.7174 31.2314 13.7174C30.8444 13.7174 30.5785 14.011 30.5011 14.4798H31.6064ZM32.4756 16.3206H32.6462C32.8228 16.3206 32.9498 16.3206 32.9498 16.1045V14.2719C32.9498 14.0701 32.7157 14.0313 32.6204 13.9783V13.8805C33.0848 13.6787 33.3388 13.5074 33.3963 13.5074C33.434 13.5074 33.4519 13.5278 33.4519 13.5931V14.1802H33.4658C33.6245 13.9253 33.8904 13.5074 34.2774 13.5074C34.4361 13.5074 34.6385 13.6175 34.6385 13.854C34.6385 14.0293 34.5175 14.1863 34.3409 14.1863C34.1424 14.1863 34.1424 14.0293 33.9222 14.0293C33.815 14.0293 33.4598 14.1802 33.4598 14.5716V16.1045C33.4598 16.3206 33.5868 16.3206 33.7654 16.3206H34.1206V16.4898C33.7714 16.4837 33.5055 16.4776 33.2316 16.4776C32.9717 16.4776 32.7038 16.4837 32.4756 16.4898V16.3206ZM34.9203 15.5827C35.0036 16.0128 35.2557 16.3777 35.72 16.3777C36.0931 16.3777 36.2339 16.1433 36.2339 15.9149C36.2339 15.1444 34.8509 15.3931 34.8509 14.3432C34.8509 13.9783 35.1366 13.5074 35.8351 13.5074C36.0375 13.5074 36.3113 13.5666 36.5574 13.697L36.603 14.3616H36.4562C36.3927 13.9518 36.1704 13.7154 35.7637 13.7154C35.5097 13.7154 35.2696 13.8662 35.2696 14.1455C35.2696 14.9099 36.7419 14.6735 36.7419 15.6968C36.7419 16.1269 36.4046 16.5836 35.6505 16.5836C35.3966 16.5836 35.0989 16.4918 34.8766 16.3614L34.8072 15.6112L34.9203 15.5827ZM42.4728 13.1181H42.314C42.193 12.3557 41.6671 12.0479 40.9567 12.0479C40.2265 12.0479 39.1668 12.5493 39.1668 14.1149C39.1668 15.4338 40.0816 16.3777 41.0579 16.3777C41.687 16.3777 42.2069 15.9333 42.3338 15.2483L42.4787 15.2871L42.3338 16.2391C42.0679 16.4083 41.3496 16.5856 40.9309 16.5856C39.4466 16.5856 38.506 15.601 38.506 14.1333C38.506 12.796 39.6669 11.8379 40.9111 11.8379C41.425 11.8379 41.9211 12.0091 42.4093 12.1844L42.4728 13.1181ZM42.701 16.3206H42.822C43.0006 16.3206 43.1276 16.3206 43.1276 16.1045V12.4719C43.1276 12.0479 43.0323 12.0356 42.7903 11.9622V11.8583C43.0442 11.7727 43.3102 11.6565 43.4451 11.577C43.5145 11.5382 43.5661 11.5056 43.584 11.5056C43.6237 11.5056 43.6356 11.5443 43.6356 11.5973V16.1045C43.6356 16.3206 43.7745 16.3206 43.9531 16.3206H44.0602V16.4898C43.8459 16.4898 43.6237 16.4776 43.3935 16.4776C43.1653 16.4776 42.9371 16.4837 42.701 16.4898V16.3206ZM46.7768 16.131C46.7768 16.2493 46.8463 16.2554 46.9534 16.2554C47.0288 16.2554 47.1241 16.2493 47.2074 16.2493V16.3858C46.9336 16.4123 46.4137 16.5489 46.2926 16.5877L46.2609 16.5673V16.0393C45.8799 16.3593 45.5882 16.5877 45.1377 16.5877C44.7944 16.5877 44.4392 16.3593 44.4392 15.813V14.1435C44.4392 13.9743 44.4135 13.8112 44.0583 13.7786V13.6542C44.2865 13.6481 44.7944 13.6094 44.8758 13.6094C44.9453 13.6094 44.9453 13.6542 44.9453 13.799V15.4807C44.9453 15.6764 44.9453 16.237 45.4969 16.237C45.7132 16.237 45.999 16.0678 46.2649 15.8395V14.0843C46.2649 13.9539 45.9612 13.8825 45.733 13.8173V13.6991C46.3045 13.6603 46.6597 13.6073 46.7232 13.6073C46.7748 13.6073 46.7748 13.6522 46.7748 13.7256L46.7768 16.131ZM48.0409 13.9783C48.2948 13.7561 48.6381 13.5095 48.9874 13.5095C49.7236 13.5095 50.1681 14.1679 50.1681 14.8794C50.1681 15.7335 49.5589 16.5877 48.65 16.5877C48.1798 16.5877 47.9337 16.4307 47.767 16.3593L47.5765 16.5082L47.4436 16.4368C47.4991 16.0515 47.5329 15.6744 47.5329 15.2769V12.4719C47.5329 12.0479 47.4376 12.0356 47.1955 11.9622V11.8583C47.4495 11.7727 47.7154 11.6565 47.8504 11.577C47.9198 11.5382 47.9714 11.5056 47.9912 11.5056C48.0289 11.5056 48.0409 11.5443 48.0409 11.5973V13.9783ZM48.0409 15.7519C48.0409 16.0006 48.2691 16.4185 48.6937 16.4185C49.3724 16.4185 49.6581 15.7335 49.6581 15.1525C49.6581 14.4492 49.1382 13.8621 48.6421 13.8621C48.406 13.8621 48.2095 14.0191 48.0389 14.17L48.0409 15.7519ZM20.6548 20.2815H20.7044C20.8294 20.2815 20.9604 20.2651 20.9604 20.0796V18.2205C20.9604 18.035 20.8294 18.0187 20.7044 18.0187H20.6548V17.9127C20.7897 17.9127 20.9961 17.927 21.1667 17.927C21.3394 17.927 21.5458 17.9127 21.7085 17.9127V18.0187H21.6589C21.5358 18.0187 21.4029 18.037 21.4029 18.2205V20.0796C21.4029 20.2651 21.5339 20.2815 21.6589 20.2815H21.7085V20.3895C21.5418 20.3895 21.3354 20.3752 21.1628 20.3752C20.9941 20.3752 20.7897 20.3895 20.6548 20.3895V20.2815Z" fill="#231F20"/>
<path d="M21.7087 20.4036C21.542 20.4036 21.3356 20.3894 21.163 20.3894C20.9943 20.3894 20.7919 20.4036 20.655 20.4036H20.6411V20.267H20.7046C20.8296 20.265 20.9447 20.2528 20.9447 20.0795V18.2204C20.9427 18.0471 20.8296 18.0349 20.7046 18.0328H20.6411V17.8962H20.655C20.7899 17.8962 20.9983 17.9105 21.167 17.9105C21.3396 17.9105 21.546 17.8962 21.7087 17.8962H21.7246V18.0328H21.6611C21.5361 18.0349 21.421 18.0471 21.421 18.2204V20.0795C21.421 20.2528 21.5361 20.263 21.6611 20.267H21.7246V20.4036H21.7087ZM21.6948 20.373V20.2976H21.6611C21.538 20.2976 21.3912 20.2752 21.3892 20.0795V18.2204C21.3892 18.0247 21.5361 18.0022 21.6611 18.0022H21.6948V17.9268C21.5361 17.9268 21.3356 17.9411 21.167 17.9411C21.0023 17.9411 20.8038 17.9289 20.6709 17.9268V18.0022H20.7046C20.8276 18.0022 20.9745 18.0247 20.9745 18.2204V20.0795C20.9745 20.2752 20.8276 20.2976 20.7046 20.2976H20.6709V20.373C20.8038 20.371 21.0003 20.3588 21.163 20.3588C21.3317 20.3588 21.5321 20.373 21.6948 20.373V20.373ZM24.082 19.6881L24.0879 19.682V18.3508C24.0879 18.0593 23.8915 18.0165 23.7883 18.0165H23.7129V17.9105C23.8756 17.9105 24.0344 17.9248 24.1971 17.9248C24.338 17.9248 24.4808 17.9105 24.6217 17.9105V18.0165H24.5701C24.4253 18.0165 24.2626 18.0451 24.2626 18.467V20.0836C24.2626 20.2079 24.2665 20.3323 24.2824 20.4424H24.1514L22.3735 18.4059V19.8675C22.3735 20.1753 22.431 20.2833 22.6989 20.2833H22.7564V20.3914C22.6076 20.3914 22.4608 20.3771 22.3119 20.3771C22.1572 20.3771 21.9984 20.3914 21.8416 20.3914V20.2833H21.8893C22.1274 20.2833 22.2008 20.1162 22.2008 19.8328V18.3386C22.2008 18.1409 22.0421 18.0206 21.8873 18.0206H21.8416V17.9146C21.9726 17.9146 22.1076 17.9289 22.2385 17.9289C22.3417 17.9289 22.4429 17.9146 22.5461 17.9146L24.082 19.6881Z" fill="#231F20"/>
<path d="M24.2829 20.4568L24.14 20.4507L22.3878 18.4428V19.8656C22.3918 20.1735 22.4374 20.2611 22.6974 20.2652H22.7708V20.4018H22.7549C22.6061 20.4018 22.4573 20.3875 22.3084 20.3875C22.1537 20.3875 21.9949 20.4018 21.8381 20.4018H21.8223V20.2672H21.8858C22.114 20.2652 22.1794 20.1164 22.1814 19.833V18.3388C22.1814 18.1492 22.0306 18.0351 21.8818 18.0351H21.8223V17.8985H21.8381C21.9711 17.8985 22.106 17.9127 22.235 17.9127C22.3382 17.9127 22.4374 17.8985 22.5545 17.9046L24.0725 19.6598V18.3551C24.0705 18.0717 23.888 18.0391 23.7868 18.0371H23.6955V17.9005H23.7114C23.8741 17.9005 24.0328 17.9148 24.1956 17.9148C24.3364 17.9148 24.4773 17.9005 24.6202 17.9005H24.6361V18.0371H24.5686C24.4257 18.0412 24.2789 18.0534 24.2749 18.4733V20.0838C24.2749 20.2081 24.2789 20.3325 24.2948 20.4385L24.2987 20.4568H24.2829ZM24.1499 20.4262H24.265C24.2491 20.3202 24.2471 20.202 24.2471 20.0838V18.4693C24.2471 18.0432 24.4218 18.0024 24.5686 18.0024H24.6043V17.927C24.4674 17.927 24.3325 17.9413 24.1936 17.9413C24.0348 17.9413 23.882 17.929 23.7253 17.927V18.0024H23.7868C23.8919 18.0024 24.1023 18.0514 24.1023 18.3531L24.0983 19.6944L24.0904 19.7026L24.0785 19.7128L22.5426 17.929C22.4394 17.929 22.3402 17.9433 22.235 17.9433C22.108 17.9433 21.979 17.9311 21.854 17.929V18.0045H21.8838C22.0465 18.0045 22.2132 18.1309 22.2132 18.3388V19.833C22.2132 20.1164 22.1358 20.2978 21.8877 20.2999H21.854V20.3773C22.0028 20.3753 22.1576 20.363 22.3084 20.363C22.4533 20.363 22.5962 20.3753 22.739 20.3773V20.3019H22.6954C22.4235 20.3019 22.3561 20.1796 22.3561 19.8718V18.3694L24.1499 20.4262ZM24.0824 19.6883L24.0944 19.6781L24.0824 19.6883ZM24.0745 19.6822L24.0725 19.6781L24.0745 19.6822ZM25.1381 18.0881C24.8782 18.0881 24.8682 18.1512 24.8167 18.4101H24.7135C24.7274 18.3103 24.7452 18.2124 24.7551 18.1084C24.769 18.0086 24.775 17.9107 24.775 17.8067H24.8583C24.8861 17.9127 24.9714 17.9087 25.0667 17.9087H26.8486C26.9419 17.9087 27.0292 17.9046 27.0352 17.7986L27.1185 17.8129C27.1046 17.9087 27.0907 18.0045 27.0808 18.1003C27.0748 18.1961 27.0748 18.2919 27.0748 18.3877L26.9717 18.4264C26.9637 18.296 26.9479 18.086 26.7157 18.086H26.1501V19.9737C26.1501 20.2468 26.2712 20.2795 26.4359 20.2795H26.5014V20.3875C26.3664 20.3875 26.1243 20.3732 25.9378 20.3732C25.7314 20.3732 25.4894 20.3875 25.3544 20.3875V20.2795H25.4199C25.6104 20.2795 25.7056 20.2611 25.7056 19.9818V18.086L25.1381 18.0881Z" fill="#231F20"/>
<path d="M26.4995 20.4038C26.3626 20.4038 26.1225 20.3895 25.936 20.3895C25.7296 20.3895 25.4875 20.4038 25.3526 20.4038H25.3387V20.2672H25.4181C25.6086 20.2631 25.686 20.259 25.6899 19.9859V18.1064H25.1383V18.0758H25.7197V19.9879C25.7197 20.2733 25.6086 20.3018 25.4181 20.3018H25.3665V20.3773C25.5034 20.3773 25.7356 20.363 25.936 20.363C26.1166 20.363 26.3468 20.3752 26.4837 20.3773V20.3018H26.4341C26.2674 20.3018 26.1324 20.259 26.1324 19.9798V18.0758H26.7139C26.946 18.0758 26.9758 18.2796 26.9837 18.4101L27.0591 18.3816C27.0591 18.2898 27.0591 18.196 27.0651 18.1023C27.075 18.0105 27.0869 17.9208 27.1008 17.8291L27.0472 17.821C27.0314 17.9249 26.9341 17.929 26.8468 17.929H25.049C24.9676 17.929 24.8783 17.9249 24.8486 17.825H24.791C24.791 17.9208 24.7831 18.0167 24.7712 18.1125C24.7613 18.2103 24.7454 18.3041 24.7315 18.3979H24.8049C24.8505 18.1512 24.8803 18.0697 25.1383 18.0737V18.1043C24.8823 18.1084 24.8883 18.1532 24.8327 18.4162L24.8307 18.4284H24.6978L24.6997 18.4101C24.7136 18.3102 24.7315 18.2124 24.7414 18.1084C24.7553 18.0105 24.7632 17.9107 24.7632 17.8087V17.7924H24.8724L24.8744 17.8026C24.8982 17.8923 24.9617 17.8923 25.049 17.8943H26.8488C26.946 17.8923 27.0155 17.8923 27.0214 17.7985L27.0234 17.7822L27.0393 17.7863L27.1365 17.8026L27.1345 17.8189C27.1206 17.9147 27.1068 18.0105 27.0968 18.1043C27.0909 18.1981 27.0909 18.2939 27.0909 18.3897V18.3999L27.081 18.404L26.9579 18.4488V18.4284C26.948 18.2959 26.9361 18.1023 26.7178 18.1023H26.1662V19.9757C26.1701 20.2427 26.2733 20.2611 26.438 20.2651H26.5194V20.4017L26.4995 20.4038ZM27.2278 20.2815H27.2774C27.4024 20.2815 27.5334 20.2651 27.5334 20.0796V18.2205C27.5334 18.035 27.4024 18.0187 27.2774 18.0187H27.2278V17.9127C27.4381 17.9127 27.7973 17.927 28.087 17.927C28.3787 17.927 28.7359 17.9127 28.9721 17.9127C28.9661 18.0656 28.9701 18.3 28.98 18.4549L28.8748 18.4835C28.8589 18.2531 28.8173 18.0697 28.4541 18.0697H27.9739V18.9992H28.3847C28.5911 18.9992 28.6367 18.879 28.6565 18.6873H28.7597C28.7538 18.826 28.7498 18.9646 28.7498 19.1032C28.7498 19.2377 28.7538 19.3723 28.7597 19.5068L28.6565 19.5272C28.6367 19.3152 28.6248 19.1766 28.3867 19.1766H27.9719V20.0022C27.9719 20.2325 28.1724 20.2325 28.3926 20.2325C28.8073 20.2325 28.9899 20.204 29.0931 19.8004L29.1903 19.8248C29.1447 20.0124 29.103 20.202 29.0733 20.3895C28.851 20.3895 28.4541 20.3752 28.1446 20.3752C27.833 20.3752 27.4223 20.3895 27.2258 20.3895V20.2815H27.2278Z" fill="#231F20"/>
<path d="M29.0747 20.4036C28.8525 20.4036 28.4556 20.3894 28.146 20.3894C27.8345 20.3894 27.4237 20.4036 27.2273 20.4036H27.2134V20.267H27.2769C27.4019 20.265 27.515 20.2528 27.517 20.0795V18.2204C27.515 18.0471 27.4019 18.0349 27.2769 18.0328H27.2134V17.8962H27.2273C27.4376 17.8962 27.7968 17.9105 28.0865 17.9105C28.3762 17.9105 28.7354 17.8962 28.9715 17.8962H28.9874V17.9125C28.9854 17.9655 28.9834 18.0287 28.9834 18.096C28.9834 18.2183 28.9874 18.3529 28.9933 18.4548V18.467L28.9814 18.4711L28.8604 18.5037V18.4854C28.8405 18.255 28.8108 18.0879 28.4536 18.0838H27.9873V18.9828H28.3841C28.5826 18.9807 28.6183 18.8768 28.6421 18.6851L28.6441 18.6709H28.7771V18.6872C28.7711 18.8258 28.7651 18.9644 28.7651 19.103C28.7651 19.2376 28.7691 19.3721 28.7771 19.5067V19.5189L28.7651 19.5209L28.6461 19.5454L28.6441 19.5291C28.6203 19.313 28.6183 19.1948 28.3901 19.1907H27.9912V20.002C27.9912 20.2181 28.1718 20.2161 28.398 20.2181C28.8148 20.2161 28.9814 20.1957 29.0846 19.7961L29.0886 19.7819L29.1025 19.7839L29.2136 19.8125L29.2096 19.8267C29.166 20.0143 29.1243 20.2018 29.0926 20.3894L29.0906 20.4016L29.0747 20.4036ZM29.0628 20.373C29.0926 20.1937 29.1323 20.0143 29.1739 19.8349L29.1065 19.8165C29.0033 20.214 28.8028 20.2487 28.3961 20.2467C28.1778 20.2467 27.9615 20.2467 27.9595 20V19.1581H28.3881C28.6302 19.156 28.654 19.3049 28.6719 19.5067L28.7473 19.4904C28.7413 19.3599 28.7374 19.2294 28.7374 19.099C28.7374 18.9644 28.7413 18.8319 28.7473 18.6994H28.6719C28.652 18.8849 28.5965 19.0134 28.3861 19.0113H27.9595V18.0512H28.4556C28.8148 18.0491 28.8743 18.2387 28.8902 18.4629L28.9656 18.4426C28.9596 18.3427 28.9556 18.2142 28.9556 18.096C28.9556 18.0349 28.9576 17.9778 28.9596 17.9268C28.7255 17.9268 28.3742 17.9411 28.0905 17.9411C27.8067 17.9411 27.4575 17.9289 27.2451 17.9268V18.0022H27.2789C27.4019 18.0022 27.5487 18.0247 27.5487 18.2204V20.0795C27.5487 20.2752 27.4019 20.2976 27.2789 20.2976H27.2451V20.373C27.4475 20.373 27.8464 20.3588 28.15 20.3588C28.4516 20.3588 28.8406 20.373 29.0628 20.373V20.373ZM29.6581 18.2876C29.6581 18.0287 29.5192 18.0186 29.412 18.0186H29.3505V17.9125C29.4617 17.9125 29.676 17.9268 29.8863 17.9268C30.0927 17.9268 30.2594 17.9125 30.4419 17.9125C30.8765 17.9125 31.2634 18.0328 31.2634 18.5384C31.2634 18.8564 31.0571 19.0521 30.7832 19.1622L31.3746 20.0693C31.4718 20.2202 31.5393 20.2609 31.7099 20.2813V20.3894C31.5968 20.3894 31.4857 20.3751 31.3706 20.3751C31.2634 20.3751 31.1523 20.3894 31.0452 20.3894C30.7793 20.0306 30.5511 19.6473 30.3268 19.2396H30.0986V20C30.0986 20.2732 30.2217 20.2833 30.3804 20.2833H30.4419V20.3914C30.2455 20.3914 30.0451 20.3771 29.8486 20.3771C29.6819 20.3771 29.5212 20.3914 29.3485 20.3914V20.2833H29.4101C29.539 20.2833 29.6561 20.2242 29.6561 20.0917L29.6581 18.2876ZM30.1006 19.1112H30.2693C30.6146 19.1112 30.8011 18.9767 30.8011 18.5567C30.8011 18.2408 30.6046 18.0389 30.2971 18.0389C30.1939 18.0389 30.1502 18.0491 30.1006 18.0532V19.1112Z" fill="#231F20"/>
<path d="M31.7102 20.4038C31.5951 20.4038 31.484 20.3895 31.3709 20.3895C31.2657 20.3895 31.1546 20.4038 31.0355 20.3977C30.7696 20.0409 30.5434 19.6597 30.3212 19.2541H30.1168V19.9981C30.1207 20.2652 30.2239 20.2631 30.3847 20.2672H30.462V20.4038H30.4462C30.2497 20.4038 30.0493 20.3895 29.8528 20.3895C29.6881 20.3895 29.5254 20.4038 29.3528 20.4038H29.3369V20.2672H29.4143C29.5393 20.2672 29.6445 20.2101 29.6445 20.0919V18.2898C29.6425 18.0371 29.5215 18.0391 29.4143 18.035H29.3369V17.8984H29.3528C29.4639 17.8984 29.6782 17.9127 29.8886 17.9127C30.0949 17.9127 30.2616 17.8984 30.4442 17.8984C30.8788 17.8984 31.2796 18.0228 31.2816 18.5385C31.2816 18.8586 31.0752 19.0584 30.8093 19.1705L31.3887 20.0633C31.486 20.2101 31.5455 20.2468 31.7142 20.2692L31.7261 20.2713V20.4058L31.7102 20.4038ZM30.1009 19.2235H30.337L30.341 19.2316C30.5652 19.6393 30.7934 20.0226 31.0474 20.3732C31.1526 20.3732 31.2637 20.3589 31.3709 20.3589C31.482 20.3589 31.5872 20.3712 31.6943 20.3732V20.2957C31.5316 20.2754 31.4562 20.2244 31.361 20.0776L30.7597 19.1542L30.7776 19.146C31.0474 19.0359 31.2478 18.8464 31.2478 18.5345C31.2478 18.0411 30.8748 17.927 30.4402 17.927C30.2577 17.927 30.093 17.9412 29.8846 17.9412C29.6822 17.9412 29.4778 17.929 29.3647 17.927V18.0024H29.4123C29.5195 18.0024 29.6723 18.0207 29.6723 18.2878V20.0898C29.6723 20.2325 29.5413 20.2978 29.4123 20.2978H29.3647V20.3732C29.5314 20.3732 29.6881 20.3589 29.8509 20.3589C30.0433 20.3589 30.2398 20.3732 30.4303 20.3732V20.2978H30.3827C30.2259 20.2978 30.085 20.2774 30.085 19.9981V19.2235H30.1009ZM30.1009 19.1256H30.085V18.0391L30.0989 18.0371C30.1465 18.033 30.1922 18.0228 30.2973 18.0228C30.6129 18.0228 30.8172 18.2328 30.8172 18.5569C30.8172 18.9809 30.6188 19.1236 30.2696 19.1256H30.1009ZM30.2696 19.0951C30.6109 19.093 30.7835 18.9707 30.7875 18.5569C30.7855 18.247 30.599 18.0554 30.2973 18.0534C30.2041 18.0534 30.1604 18.0615 30.1168 18.0656V19.093H30.2696V19.0951ZM34.0557 19.6883L34.0617 19.6821V18.351C34.0617 18.0595 33.8652 18.0167 33.762 18.0167H33.6866V17.9107C33.8493 17.9107 34.0081 17.9249 34.1708 17.9249C34.3117 17.9249 34.4546 17.9107 34.5955 17.9107V18.0167H34.5439C34.399 18.0167 34.2363 18.0452 34.2363 18.4672V20.0837C34.2363 20.2081 34.2403 20.3324 34.2561 20.4425H34.1252L32.3472 18.406V19.8677C32.3472 20.1755 32.4067 20.2835 32.6726 20.2835H32.7321V20.3916C32.5833 20.3916 32.4345 20.3773 32.2876 20.3773C32.1309 20.3773 31.9721 20.3916 31.8174 20.3916V20.2835H31.865C32.1031 20.2835 32.1765 20.1164 32.1765 19.833V18.3388C32.1765 18.141 32.0178 18.0207 31.863 18.0207H31.8174V17.9147C31.9483 17.9147 32.0833 17.929 32.2142 17.929C32.3174 17.929 32.4186 17.9147 32.5218 17.9147L34.0557 19.6883Z" fill="#231F20"/>
<path d="M34.2555 20.4568L34.1126 20.4527L32.3604 18.4447V19.8676C32.3644 20.1755 32.41 20.2631 32.67 20.2672H32.7434V20.4038H32.7275C32.5787 20.4038 32.4299 20.3895 32.2811 20.3895C32.1263 20.3895 31.9675 20.4038 31.8128 20.4038H31.7969V20.2672H31.8604C32.0886 20.2672 32.1541 20.1163 32.156 19.8309V18.3367C32.156 18.1471 32.0052 18.033 31.8584 18.033H31.7969V17.8964H31.8128C31.9437 17.8964 32.0787 17.9107 32.2096 17.9107C32.3108 17.9107 32.412 17.8964 32.5271 17.9025L34.0451 19.6597V18.3551C34.0451 18.0737 33.8606 18.0391 33.7594 18.037H33.6681V17.9005H33.684C33.8467 17.9005 34.0055 17.9147 34.1682 17.9147C34.3091 17.9147 34.45 17.9005 34.5928 17.9005H34.6087V18.037H34.5432C34.4003 18.0411 34.2535 18.0534 34.2495 18.4733V20.0837C34.2495 20.2081 34.2535 20.3304 34.2694 20.4405L34.2714 20.4568H34.2555ZM34.1245 20.4262H34.2376C34.2218 20.3202 34.2198 20.202 34.2198 20.0837V18.4692C34.2198 18.0432 34.3944 18.0044 34.5432 18.0024H34.5789V17.927C34.444 17.927 34.3071 17.9412 34.1702 17.9412C34.0114 17.9412 33.8566 17.929 33.7019 17.927V18.0024H33.7634C33.8705 18.0044 34.0789 18.0513 34.0789 18.351L34.0749 19.6923L34.069 19.7005L34.059 19.7127L32.5212 17.929C32.418 17.929 32.3188 17.9433 32.2136 17.9433C32.0866 17.9433 31.9556 17.931 31.8306 17.929V18.0044H31.8604C32.0231 18.0065 32.1898 18.1308 32.1898 18.3387V19.833C32.1898 20.1184 32.1124 20.2998 31.8643 20.2998H31.8306V20.3752C31.9794 20.3752 32.1342 20.361 32.285 20.361C32.4299 20.361 32.5728 20.3732 32.7156 20.3752V20.2998H32.672C32.4001 20.2998 32.3327 20.1775 32.3307 19.8676V18.3652L34.1245 20.4262ZM34.0551 19.6882L34.065 19.6781L34.0551 19.6882ZM34.0451 19.6821L34.0432 19.6781L34.0451 19.6821ZM35.1484 19.8819C35.1127 20.0022 35.0711 20.096 35.0711 20.1591C35.0711 20.2651 35.2159 20.2835 35.329 20.2835H35.3667V20.3915C35.2278 20.3834 35.0869 20.3773 34.948 20.3773C34.823 20.3773 34.7 20.3834 34.575 20.3915V20.2835H34.5948C34.7297 20.2835 34.8429 20.202 34.8945 20.0531L35.4481 18.4244C35.4917 18.2939 35.5552 18.1165 35.5771 17.984C35.6862 17.9453 35.8251 17.874 35.8906 17.8312C35.9005 17.8271 35.9065 17.823 35.9184 17.823C35.9283 17.823 35.9362 17.823 35.9422 17.8332C35.9521 17.8617 35.962 17.8943 35.9739 17.9208L36.6089 19.7779C36.6506 19.9023 36.6923 20.0328 36.7359 20.1408C36.7776 20.2407 36.851 20.2815 36.9641 20.2815H36.984V20.3895C36.8292 20.3813 36.6724 20.3752 36.5077 20.3752C36.3391 20.3752 36.1644 20.3813 35.9898 20.3895V20.2815H36.0275C36.1069 20.2815 36.2418 20.2672 36.2418 20.1795C36.2418 20.1326 36.2101 20.0368 36.1724 19.9247L36.0374 19.5129H35.2536L35.1484 19.8819ZM35.6525 18.3082H35.6445L35.3231 19.3132H35.968L35.6525 18.3082Z" fill="#231F20"/>
<path d="M36.9908 20.4038C36.836 20.3957 36.6793 20.3895 36.5146 20.3895C36.3459 20.3895 36.1732 20.3977 35.9966 20.4038H35.9808V20.2652H36.0343C36.1137 20.2652 36.2328 20.2469 36.2328 20.1775C36.2328 20.1368 36.203 20.0389 36.1653 19.9268L36.0343 19.5252H35.2723L35.1652 19.884C35.1295 20.0043 35.0898 20.098 35.0898 20.1572C35.0918 20.2428 35.2208 20.2652 35.3339 20.2652H35.3874V20.4038H35.3716C35.2327 20.3957 35.0918 20.3895 34.9549 20.3895C34.8318 20.3895 34.7068 20.3977 34.5818 20.4038H34.5659V20.2652H34.6016C34.7306 20.2652 34.8378 20.1898 34.8874 20.045L35.441 18.4163C35.4867 18.2838 35.5482 18.1084 35.5779 17.9657C35.6871 17.929 35.824 17.8577 35.8915 17.8129C35.9014 17.8088 35.9113 17.8047 35.9252 17.8047C35.9331 17.8047 35.953 17.8067 35.9629 17.8251C35.9728 17.8536 35.9827 17.8862 35.9947 17.9148L36.6316 19.7698C36.6733 19.8942 36.713 20.0247 36.7586 20.1307C36.7983 20.2244 36.8618 20.2632 36.9729 20.2632H37.0087V20.4018L36.9908 20.4038ZM36.0105 20.3712C36.1812 20.3651 36.3499 20.359 36.5146 20.359C36.6753 20.359 36.8261 20.3651 36.9749 20.3712V20.2978H36.971C36.8519 20.2978 36.7705 20.2509 36.7289 20.147C36.6832 20.0389 36.6416 19.9085 36.6019 19.7841L35.9669 17.929C35.9569 17.9005 35.947 17.8679 35.9371 17.8434C35.9351 17.8394 35.9351 17.8394 35.9312 17.8394H35.9252C35.9173 17.8394 35.9133 17.8414 35.9054 17.8434C35.8379 17.8883 35.701 17.9576 35.5978 17.9861C35.576 18.1207 35.5144 18.298 35.4688 18.4285L34.9152 20.0573C34.8616 20.2122 34.7405 20.2999 34.6016 20.2999H34.5957V20.3732C34.7147 20.3671 34.8338 20.361 34.9529 20.361C35.0858 20.361 35.2227 20.3671 35.3537 20.3732V20.2999H35.3319C35.2188 20.2978 35.062 20.2856 35.058 20.1592C35.058 20.0878 35.0997 19.9982 35.1334 19.8779L35.1493 19.882L35.1334 19.8758L35.2466 19.4967H36.0522L36.1911 19.9186C36.2308 20.0328 36.2606 20.1266 36.2606 20.1796C36.2566 20.2876 36.1097 20.2958 36.0324 20.2978H36.0085L36.0105 20.3712ZM35.3041 19.3275L35.6355 18.2919H35.6533V18.3082H35.6494H35.6533V18.2919H35.6633L35.9907 19.3275H35.3041ZM35.3458 19.2969H35.951L35.6514 18.3449L35.3458 19.2969ZM35.6395 18.3123L35.6474 18.3103L35.6395 18.3123ZM37.1436 18.0881C36.8836 18.0881 36.8737 18.1512 36.8221 18.4101H36.7189C36.7328 18.3103 36.7507 18.2124 36.7606 18.1084C36.7745 18.0086 36.7805 17.9107 36.7805 17.8067H36.8638C36.8916 17.9127 36.9789 17.9087 37.0702 17.9087H38.8521C38.9454 17.9087 39.0307 17.9046 39.0387 17.7986L39.122 17.8129C39.1081 17.9087 39.0942 18.0045 39.0843 18.1003C39.0764 18.1961 39.0764 18.2919 39.0764 18.3877L38.9732 18.4264C38.9672 18.296 38.9494 18.086 38.7172 18.086H38.1516V19.9737C38.1516 20.2469 38.2727 20.2795 38.4374 20.2795H38.5029V20.3875C38.3679 20.3875 38.1278 20.3732 37.9393 20.3732C37.7329 20.3732 37.4909 20.3875 37.3559 20.3875V20.2795H37.4214C37.6119 20.2795 37.7091 20.2611 37.7091 19.9818V18.086L37.1436 18.0881Z" fill="#231F20"/>
<path d="M38.502 20.4039C38.3671 20.4039 38.125 20.3897 37.9385 20.3897C37.7321 20.3897 37.49 20.4039 37.3551 20.4039H37.3392V20.2673H37.4205C37.611 20.2633 37.6864 20.2592 37.6924 19.986V18.1065H37.1427V18.0759H37.7242V19.9881C37.7242 20.2735 37.613 20.3 37.4225 20.302H37.3709V20.3774C37.5079 20.3754 37.74 20.3632 37.9404 20.3632C38.121 20.3632 38.3512 20.3754 38.4881 20.3774V20.302H38.4365C38.2698 20.302 38.1369 20.2592 38.1349 19.982V18.078H38.7163C38.9485 18.078 38.9783 18.2818 38.9842 18.4123L39.0596 18.3837C39.0596 18.292 39.0596 18.1982 39.0656 18.1045C39.0755 18.0127 39.0874 17.923 39.1013 17.8313L39.0497 17.8232C39.0338 17.9271 38.9366 17.9312 38.8513 17.9312H37.0515C36.9701 17.9312 36.8828 17.9271 36.851 17.8272H36.7955C36.7955 17.9251 36.7875 18.0209 36.7736 18.1147C36.7637 18.2125 36.7479 18.3063 36.734 18.4001H36.8074C36.853 18.1534 36.8828 18.0719 37.1408 18.0759V18.1065C36.8848 18.1106 36.8907 18.1554 36.8332 18.4184L36.8312 18.4306H36.6982L36.7002 18.4123C36.7141 18.3124 36.732 18.2125 36.7419 18.1106C36.7558 18.0107 36.7637 17.9129 36.7637 17.8109V17.7946H36.8729L36.8749 17.8048C36.8987 17.8945 36.9622 17.8945 37.0495 17.8965H37.0673H38.8493C38.9445 17.8945 39.014 17.8925 39.0199 17.8007V17.7844L39.0358 17.7885L39.133 17.8048L39.1311 17.8211C39.1172 17.9169 39.1033 18.0127 39.0934 18.1065C39.0854 18.2003 39.0854 18.2981 39.0854 18.3919V18.4021L39.0755 18.4062L38.9525 18.451V18.4306C38.9445 18.2981 38.9306 18.1045 38.7124 18.1045H38.1647V19.9779C38.1686 20.2449 38.2718 20.2633 38.4365 20.2673H38.5179V20.4039H38.502ZM39.2481 20.2816H39.2958C39.4208 20.2816 39.5517 20.2653 39.5517 20.0798V18.2207C39.5517 18.0352 39.4208 18.0189 39.2958 18.0189H39.2481V17.9129C39.3831 17.9129 39.5894 17.9271 39.7581 17.9271C39.9308 17.9271 40.1391 17.9129 40.3018 17.9129V18.0189H40.2542C40.1292 18.0189 39.9982 18.0372 39.9982 18.2207V20.0798C39.9982 20.2653 40.1292 20.2816 40.2542 20.2816H40.3018V20.3897C40.1351 20.3897 39.9288 20.3754 39.7561 20.3754C39.5875 20.3754 39.3831 20.3897 39.2481 20.3897V20.2816Z" fill="#231F20"/>
<path d="M40.3025 20.4038C40.1358 20.4038 39.9294 20.3895 39.7568 20.3895C39.5881 20.3895 39.3837 20.4038 39.2488 20.4038H39.2329V20.2672H39.2964C39.4214 20.2652 39.5365 20.255 39.5365 20.0797V18.2205C39.5365 18.0472 39.4214 18.035 39.2964 18.033H39.2329V17.8964H39.2488C39.3837 17.8964 39.5901 17.9107 39.7588 17.9107C39.9314 17.9107 40.1378 17.8964 40.3025 17.8964H40.3164V18.033H40.2529C40.1259 18.035 40.0128 18.0472 40.0108 18.2205V20.0797C40.0128 20.2529 40.1259 20.2652 40.2529 20.2672H40.3164V20.4038H40.3025ZM40.2866 20.3732V20.2978H40.2529C40.1298 20.2978 39.983 20.2754 39.983 20.0797V18.2205C39.983 18.0248 40.1298 18.0024 40.2529 18.0024H40.2866V17.927C40.1279 17.927 39.9274 17.9412 39.7588 17.9412C39.596 17.9412 39.3976 17.929 39.2627 17.927V18.0024H39.2964C39.4194 18.0024 39.5663 18.0248 39.5663 18.2205V20.0797C39.5663 20.2754 39.4194 20.2978 39.2964 20.2978H39.2627V20.3732C39.3956 20.3712 39.5921 20.3589 39.7548 20.3589C39.9235 20.3589 40.1239 20.3712 40.2866 20.3732ZM41.6796 17.8577C42.4158 17.8577 43.0032 18.3265 43.0032 19.0828C43.0032 19.8982 42.4337 20.4425 41.6975 20.4425C40.9652 20.4425 40.4057 19.9308 40.4057 19.1684C40.4057 18.4305 40.9613 17.8577 41.6796 17.8577V17.8577ZM41.7312 20.2855C42.4019 20.2855 42.519 19.6781 42.519 19.1603C42.519 18.6425 42.2471 18.0146 41.6737 18.0146C41.0684 18.0146 40.8898 18.5691 40.8898 19.0441C40.8898 19.6781 41.1716 20.2855 41.7312 20.2855V20.2855Z" fill="#231F20"/>
<path d="M40.3901 19.1683C40.3921 18.4222 40.9537 17.8453 41.68 17.8433V17.8738C40.9696 17.8738 40.4199 18.4385 40.4199 19.1683C40.4219 19.9226 40.9735 20.4261 41.6978 20.4261C42.4261 20.4261 42.9877 19.8899 42.9896 19.0827C42.9896 18.3366 42.4102 17.8738 41.68 17.8738V17.8433C42.4221 17.8433 43.0174 18.3182 43.0174 19.0827C43.0174 19.9083 42.44 20.4566 41.6978 20.4566C40.9596 20.4546 40.3921 19.9389 40.3901 19.1683V19.1683ZM40.8743 19.0419C40.8743 18.5649 41.0569 17.9982 41.674 17.9982C42.2594 18.0002 42.5332 18.6403 42.5352 19.1601C42.5352 19.6779 42.4162 20.2997 41.7335 20.2997V20.2691C42.3904 20.2691 42.5035 19.6779 42.5055 19.1601C42.5055 18.6464 42.2356 18.0308 41.674 18.0288C41.0807 18.0288 40.9061 18.569 40.9041 19.0419C40.9041 19.6739 41.1859 20.2671 41.7316 20.2691V20.2997C41.1581 20.2997 40.8763 19.682 40.8743 19.0419ZM45.3312 19.6881L45.3391 19.682V18.3509C45.3391 18.0593 45.1427 18.0165 45.0375 18.0165H44.9621V17.9105C45.1248 17.9105 45.2836 17.9248 45.4443 17.9248C45.5872 17.9248 45.728 17.9105 45.8689 17.9105V18.0165H45.8173C45.6725 18.0165 45.5098 18.0451 45.5098 18.467V20.0836C45.5098 20.2079 45.5137 20.3323 45.5316 20.4424H45.4006L43.6207 18.4059V19.8675C43.6207 20.1753 43.6782 20.2834 43.9441 20.2834H44.0036V20.3914C43.8548 20.3914 43.706 20.3771 43.5572 20.3771C43.4024 20.3771 43.2417 20.3914 43.0869 20.3914V20.2834H43.1345C43.3726 20.2834 43.4441 20.1162 43.4441 19.8329V18.3386C43.4441 18.1409 43.2853 18.0206 43.1305 18.0206H43.0849V17.9146C43.2159 17.9146 43.3508 17.9289 43.4818 17.9289C43.5849 17.9289 43.6861 17.9146 43.7893 17.9146L45.3312 19.6881Z" fill="#231F20"/>
<path d="M45.5308 20.4568L45.388 20.4507L43.6358 18.4427V19.8656C43.6398 20.1734 43.6854 20.2611 43.9454 20.2651H44.0208V20.4038H44.0049C43.8561 20.4038 43.7072 20.3895 43.5584 20.3895C43.4036 20.3895 43.2449 20.4038 43.0881 20.4038H43.0742V20.2651H43.1377C43.3659 20.2651 43.4314 20.1143 43.4334 19.8309V18.3367C43.4334 18.1471 43.2826 18.033 43.1337 18.033H43.0742V17.8964H43.0881C43.2211 17.8964 43.356 17.9107 43.485 17.9107C43.5882 17.9107 43.6874 17.8964 43.8045 17.9025L45.3225 19.6577V18.353C45.3225 18.0697 45.1379 18.037 45.0367 18.035H44.9455V17.8984H44.9613C45.1241 17.8984 45.2828 17.9127 45.4435 17.9127C45.5844 17.9127 45.7253 17.8984 45.8702 17.8984H45.8841V18.035H45.8166C45.6737 18.0391 45.5269 18.0534 45.5249 18.4712V20.0837C45.5249 20.2081 45.5269 20.3324 45.5447 20.4405L45.5467 20.4568H45.5308ZM45.3999 20.4262H45.513C45.4971 20.3202 45.4951 20.202 45.4951 20.0837V18.4692C45.4951 18.0432 45.6698 18.0044 45.8166 18.0024H45.8543V17.927C45.7174 17.927 45.5824 17.9412 45.4435 17.9412C45.2868 17.9412 45.132 17.929 44.9752 17.927V18.0024H45.0367C45.1439 18.0044 45.3523 18.0513 45.3523 18.353L45.3483 19.6944L45.3423 19.7025L45.3304 19.7147L43.7926 17.931C43.6914 17.931 43.5901 17.9453 43.485 17.9453C43.358 17.9453 43.229 17.9331 43.102 17.931V18.0065H43.1318C43.2945 18.0085 43.4612 18.1329 43.4612 18.3408V19.835C43.4612 20.1184 43.3838 20.2998 43.1357 20.3018H43.102V20.3773C43.2528 20.3773 43.4056 20.363 43.5584 20.363C43.7033 20.363 43.8461 20.3752 43.989 20.3773V20.3018H43.9454C43.6735 20.3018 43.606 20.1795 43.606 19.8717V18.3693L45.3999 20.4262ZM45.3304 19.6882L45.3423 19.6781L45.3304 19.6882ZM45.3225 19.6821L45.3205 19.6781L45.3225 19.6821ZM46.4238 19.8819C46.3901 20.0022 46.3484 20.096 46.3484 20.1591C46.3484 20.2651 46.4933 20.2835 46.6064 20.2835H46.6441V20.3915C46.5052 20.3834 46.3643 20.3773 46.2254 20.3773C46.1004 20.3773 45.9773 20.3834 45.8523 20.3915V20.2835H45.8722C46.0071 20.2835 46.1222 20.202 46.1738 20.0531L46.7274 18.4244C46.7711 18.2939 46.8346 18.1165 46.8544 17.984C46.9655 17.9453 47.1025 17.874 47.1699 17.8312C47.1798 17.8271 47.1858 17.823 47.1977 17.823C47.2076 17.823 47.2136 17.823 47.2215 17.8332C47.2314 17.8617 47.2433 17.8943 47.2533 17.9208L47.8883 19.7779C47.9299 19.9023 47.9716 20.0328 48.0172 20.1408C48.0589 20.2407 48.1323 20.2815 48.2454 20.2815H48.2673V20.3895C48.1125 20.3813 47.9557 20.3752 47.791 20.3752C47.6224 20.3752 47.4497 20.3813 47.2731 20.3895V20.2815H47.3108C47.3902 20.2815 47.5251 20.2672 47.5251 20.1795C47.5251 20.1326 47.4934 20.0368 47.4557 19.9247L47.3207 19.5129H46.5369L46.4238 19.8819ZM46.9298 18.3082H46.9239L46.6024 19.3132H47.2493L46.9298 18.3082Z" fill="#231F20"/>
<path d="M48.2652 20.4037C48.1105 20.3976 47.9537 20.3894 47.789 20.3894C47.6203 20.3894 47.4477 20.3976 47.2711 20.4037H47.2552V20.2671H47.3068C47.3882 20.2671 47.5072 20.2488 47.5072 20.1795C47.5072 20.1387 47.4775 20.0429 47.4378 19.9287L47.3068 19.5272H46.5448L46.4377 19.8859C46.4039 20.0082 46.3623 20.1 46.3623 20.1591C46.3623 20.2468 46.4912 20.2671 46.6063 20.2671H46.6599V20.4058H46.644C46.5051 20.3996 46.3642 20.3915 46.2273 20.3915C46.1043 20.3915 45.9793 20.3996 45.8543 20.4058H45.8384V20.2671H45.8741C46.0031 20.2671 46.1102 20.1897 46.1618 20.047L46.7155 18.4182C46.7591 18.2857 46.8226 18.1104 46.8524 17.9677C46.9615 17.929 47.1004 17.8576 47.1659 17.8148C47.1758 17.8107 47.1838 17.8066 47.1977 17.8066C47.2076 17.8066 47.2254 17.8087 47.2354 17.827C47.2453 17.8556 47.2552 17.8861 47.2671 17.9167L47.9021 19.7718C47.9438 19.8961 47.9855 20.0266 48.0291 20.1326C48.0688 20.2264 48.1323 20.2631 48.2434 20.2651H48.2791V20.4037H48.2652ZM47.285 20.3731C47.4556 20.367 47.6243 20.3589 47.789 20.3589C47.9497 20.3589 48.1005 20.365 48.2514 20.3711V20.2977H48.2454C48.1283 20.2977 48.047 20.2508 48.0033 20.1469C47.9577 20.0388 47.916 19.9084 47.8763 19.784L47.2413 17.9269C47.2314 17.8984 47.2215 17.8658 47.2116 17.8413C47.2096 17.8372 47.2096 17.8372 47.2056 17.8372H47.1996C47.1917 17.8372 47.1877 17.8393 47.1798 17.8413C47.1123 17.8841 46.9734 17.9555 46.8722 17.984C46.8504 18.1185 46.7889 18.2959 46.7432 18.4264L46.1896 20.0551C46.138 20.2101 46.017 20.2977 45.8761 20.2977H45.8701V20.3711C45.9892 20.365 46.1083 20.3589 46.2273 20.3589C46.3603 20.3589 46.4972 20.365 46.6301 20.3711V20.2977H46.6063C46.4932 20.2957 46.3365 20.2834 46.3325 20.1571C46.3325 20.0857 46.3761 19.996 46.4099 19.8757L46.4238 19.8798L46.4099 19.8737L46.523 19.4945H47.3286L47.4675 19.9165C47.5052 20.0307 47.537 20.1244 47.537 20.1774C47.531 20.2855 47.3862 20.2936 47.3088 20.2957H47.287L47.285 20.3731ZM46.5805 19.3274L46.9119 18.2918H46.9298V18.3081H46.9258H46.9298V18.2918H46.9397L47.2671 19.3274H46.5805ZM46.6202 19.2968H47.2235L46.9238 18.3468L46.6202 19.2968ZM46.9139 18.3122L46.9199 18.3102L46.9139 18.3122ZM49.1364 20.0409C49.1364 20.1836 49.2316 20.2243 49.3427 20.2406C49.4836 20.2508 49.6404 20.2508 49.7992 20.2325C49.944 20.2141 50.069 20.1285 50.1305 20.0409C50.1861 19.9634 50.2159 19.8635 50.2377 19.786H50.3369C50.2992 19.9879 50.2516 20.1876 50.2099 20.3894C49.9063 20.3894 49.6027 20.3752 49.2991 20.3752C48.9955 20.3752 48.6919 20.3894 48.3883 20.3894V20.2814H48.4359C48.5609 20.2814 48.6958 20.2651 48.6958 20.0449V18.2205C48.6958 18.035 48.5609 18.0186 48.4359 18.0186H48.3883V17.9126C48.5708 17.9126 48.7514 17.9269 48.934 17.9269C49.1106 17.9269 49.2832 17.9126 49.4598 17.9126V18.0186H49.3725C49.2415 18.0186 49.1384 18.0227 49.1384 18.2103V20.0409H49.1364Z" fill="#231F20"/>
<path d="M50.2106 20.4035C49.907 20.4035 49.6014 20.3893 49.2997 20.3893C48.9961 20.3893 48.6925 20.4035 48.3869 20.4035H48.373V20.267H48.4366C48.5616 20.2649 48.6806 20.2547 48.6806 20.0448V18.2203C48.6786 18.047 48.5616 18.0368 48.4366 18.0327H48.373V17.8962H48.3869C48.5715 17.8962 48.7501 17.9104 48.9326 17.9104C49.1073 17.9104 49.2799 17.8962 49.4585 17.8962H49.4724V18.0327H49.3712C49.2382 18.0368 49.1549 18.0307 49.1509 18.2101V20.0407C49.1509 20.1732 49.2362 20.2078 49.3434 20.2242C49.4049 20.2282 49.4684 20.2323 49.5359 20.2323C49.6212 20.2323 49.7085 20.2282 49.7978 20.218C49.9387 20.2017 50.0597 20.1182 50.1193 20.0325C50.1729 19.9571 50.2026 19.8593 50.2244 19.7818L50.2284 19.7696H50.3594L50.3554 19.7879C50.3157 19.9918 50.2681 20.1895 50.2264 20.3913L50.2244 20.4035H50.2106ZM50.1967 20.373C50.2364 20.1813 50.282 19.9918 50.3197 19.8001H50.2483C50.2264 19.8776 50.1967 19.9734 50.1411 20.0509C50.0776 20.1426 49.9486 20.2303 49.7998 20.2486C49.7085 20.2588 49.6192 20.2629 49.5359 20.2629C49.4684 20.2629 49.4049 20.2588 49.3414 20.2547C49.2283 20.2425 49.1192 20.1936 49.1212 20.0407V18.2101C49.1212 18.0124 49.2422 18.0022 49.3712 18.0022H49.4426V17.9267C49.272 17.9267 49.1053 17.941 48.9326 17.941C48.754 17.941 48.5794 17.9288 48.4008 17.9267V18.0022H48.4346C48.5576 18.0022 48.7084 18.0246 48.7084 18.2203V20.0448C48.7084 20.2751 48.5576 20.2975 48.4346 20.2975H48.4008V20.373C48.7005 20.373 48.9981 20.3587 49.2978 20.3587C49.5994 20.3587 49.899 20.373 50.1967 20.373V20.373ZM50.2959 17.8105C50.5042 17.8105 50.659 17.9757 50.659 18.1856C50.659 18.3956 50.5042 18.5587 50.2959 18.5587C50.0875 18.5587 49.9328 18.3956 49.9328 18.1856C49.9328 17.9757 50.0875 17.8105 50.2959 17.8105ZM50.2959 18.4873C50.4586 18.4873 50.5836 18.3446 50.5836 18.1836C50.5836 18.0226 50.4606 17.8778 50.2959 17.8778C50.1332 17.8778 50.0082 18.0226 50.0082 18.1836C50.0082 18.3446 50.1332 18.4873 50.2959 18.4873ZM50.1153 18.3813V18.363C50.161 18.3569 50.1689 18.3589 50.1689 18.3304V18.0531C50.1689 18.0144 50.1649 18.0001 50.1173 18.0022V17.9838H50.3038C50.3673 17.9838 50.4269 18.0144 50.4269 18.0837C50.4269 18.1387 50.3911 18.1795 50.3415 18.1958L50.4011 18.2814C50.4288 18.3202 50.4606 18.3569 50.4804 18.3691V18.3813H50.409C50.3753 18.3813 50.3455 18.3079 50.278 18.2101H50.2383V18.3344C50.2383 18.3589 50.2463 18.3569 50.2919 18.363V18.3813H50.1153ZM50.2383 18.1856H50.282C50.3296 18.1856 50.3515 18.1489 50.3515 18.0898C50.3515 18.0307 50.3177 18.0103 50.28 18.0103H50.2403V18.1856H50.2383Z" fill="#231F20"/>
</g>
<defs>
<clipPath id="clip0_289_5">
<rect width="46.5847" height="12.4003" fill="white" transform="translate(4.07373 9.99292)"/>
</clipPath>
</defs>
</svg>
