<svg width="53" height="32" viewBox="0 0 53 32" fill="none" xmlns="http://www.w3.org/2000/svg">
<path d="M48.3267 0.000483408H4.39333C3.24644 -0.0159089 2.13937 0.385172 1.31553 1.11555C0.491684 1.84592 0.0184969 2.8458 0 3.89536L0 27.2646C0.0184969 28.3142 0.491684 29.3141 1.31553 30.0445C2.13937 30.7748 3.24644 31.1759 4.39333 31.1595H48.3267C49.4736 31.1759 50.5806 30.7748 51.4045 30.0445C52.2283 29.3141 52.7015 28.3142 52.72 27.2646V3.89536C52.7015 2.8458 52.2283 1.84592 51.4045 1.11555C50.5806 0.385172 49.4736 -0.0159089 48.3267 0.000483408Z" fill="white"/>
<path d="M12.978 11.2899C13.426 11.1365 13.9038 11.0547 14.3996 11.0547C16.5699 11.0547 18.3818 12.6379 18.796 14.7427L21.8722 14.0983C21.1674 10.5229 18.0891 7.83105 14.3996 7.83105C13.5534 7.83105 12.743 7.97219 11.9824 8.23401L12.978 11.2899Z" fill="#FFCB05"/>
<path d="M9.34839 21.5292L11.4291 19.1135C10.5012 18.2688 9.91585 17.0354 9.91585 15.6608C9.91585 14.2883 10.5012 13.0549 11.4291 12.2122L9.34839 9.79443C7.77143 11.2303 6.77588 13.3269 6.77588 15.6608C6.77588 17.9967 7.77143 20.0933 9.34839 21.5292" fill="#00A4E0"/>
<path d="M18.796 16.5857C18.3798 18.6884 16.5699 20.2696 14.4016 20.2696C13.9038 20.2696 13.424 20.1877 12.978 20.0323L11.9824 23.0923C12.743 23.3521 13.5554 23.4932 14.4016 23.4932C18.0872 23.4932 21.1634 20.8055 21.8722 17.2341L18.796 16.5857Z" fill="#EF4123"/>
<path d="M24.5621 19.2139C24.4606 19.0462 24.3252 18.7782 24.2416 18.5798C23.7538 17.418 23.7319 16.2152 24.142 15.0616C24.594 13.7955 25.4581 12.828 26.5752 12.333C27.9789 11.7132 29.53 11.8339 30.8759 12.6541C31.7301 13.1573 32.3354 13.9346 32.7954 15.035C32.8531 15.1761 32.9049 15.3255 32.9566 15.4543L24.5621 19.2139ZM27.3656 14.2005C26.3681 14.6402 25.8544 15.6016 25.9619 16.7266L30.183 14.8591C29.4563 13.9836 28.5125 13.6932 27.3656 14.2005V14.2005ZM30.7087 18.2627C30.7067 18.2627 30.7067 18.2648 30.7067 18.2648L30.6191 18.2034C30.3662 18.6227 29.974 18.9643 29.4782 19.1852C28.5344 19.6066 27.6603 19.4982 27.0311 18.9316L26.9734 19.0216C26.9734 19.0216 26.9734 19.0196 26.9714 19.0196L25.9002 20.6662C26.167 20.8564 26.4517 21.0159 26.7504 21.1448C27.9331 21.65 29.1437 21.6255 30.3364 21.0937C31.1985 20.7091 31.8755 20.1241 32.3374 19.3816L30.7087 18.2627ZM35.8895 9.91113V19.0625L37.2754 19.6393L36.4889 21.5252L34.9597 20.8707C34.6172 20.7173 34.3823 20.4841 34.2071 20.2202C34.0378 19.9523 33.9124 19.5821 33.9124 19.0871V9.91113H35.8895ZM39.4775 16.7327C39.4775 15.9534 39.814 15.2539 40.3436 14.7793L38.922 13.1511C37.9583 14.0266 37.351 15.305 37.351 16.7286C37.349 18.1543 37.9563 19.4348 38.918 20.3102L40.3377 18.6821C39.81 18.2055 39.4775 17.51 39.4775 16.7327V16.7327ZM42.0022 19.3284C41.7235 19.3284 41.4527 19.2793 41.2018 19.1934L40.5228 21.2655C40.9868 21.425 41.4826 21.513 42.0002 21.513C44.2502 21.515 46.1278 19.8746 46.5639 17.6961L44.4772 17.2584C44.2402 18.4427 43.2228 19.3305 42.0022 19.3284V19.3284ZM42.0082 11.9525C41.4925 11.9525 40.9967 12.0384 40.5328 12.1959L41.2058 14.27C41.4587 14.1841 41.7275 14.1371 42.0062 14.1371C43.2288 14.1391 44.2482 15.0309 44.4792 16.2173L46.5659 15.7836C46.1378 13.6011 44.2602 11.9545 42.0082 11.9525V11.9525Z" fill="#231F20"/>
</svg>
