<svg width="53" height="32" viewBox="0 0 53 32" fill="none" xmlns="http://www.w3.org/2000/svg">
<path d="M48.3267 0.000483408H4.39333C3.24644 -0.0159089 2.13937 0.385172 1.31553 1.11555C0.491684 1.84592 0.0184969 2.8458 0 3.89536L0 27.2646C0.0184969 28.3142 0.491684 29.3141 1.31553 30.0445C2.13937 30.7748 3.24644 31.1759 4.39333 31.1595H48.3267C49.4736 31.1759 50.5806 30.7748 51.4045 30.0445C52.2283 29.3141 52.7015 28.3142 52.72 27.2646V3.89536C52.7015 2.8458 52.2283 1.84592 51.4045 1.11555C50.5806 0.385172 49.4736 -0.0159089 48.3267 0.000483408Z" fill="white"/>
<g clip-path="url(#clip0_289_41)">
<path d="M17.4734 6.96143H13.4363C11.6524 7.04807 10.1942 7.78617 9.77317 9.30825C9.55363 10.102 9.43282 10.9738 9.26115 11.7967C8.38843 15.9807 7.61458 20.28 6.77979 24.3804H38.2107C40.6406 24.3804 42.3091 23.853 42.7599 21.8716C42.9694 20.9513 43.17 19.909 43.3704 18.8978C44.1516 14.9553 44.9335 11.013 45.7337 6.96143H17.4734Z" fill="#822124"/>
<path d="M17.1583 13.152C17.3272 13.0325 17.5446 12.4884 17.2962 12.2618C17.2175 12.1901 17.0859 12.1693 16.9023 12.2012C16.732 12.2307 16.6341 12.2902 16.5675 12.3833C16.4606 12.5329 16.3625 12.9844 16.5282 13.1521C16.6895 13.3153 17.0509 13.228 17.1583 13.152V13.152ZM14.7557 12.2618C14.6348 13.0682 14.4985 13.8588 14.3618 14.6491C13.4845 14.6586 12.5888 14.6936 11.7426 14.6288C11.9024 13.8557 12.0171 13.0361 12.1759 12.2618H11.2306C10.8922 14.234 10.5844 16.2377 10.2065 18.1694H11.1716C11.3229 17.1786 11.4645 16.1775 11.6639 15.2358C12.4866 15.215 13.4728 15.1787 14.2634 15.2561C14.1004 16.2351 13.9034 17.179 13.7514 18.1694H14.7164C15.0266 16.168 15.3532 14.1838 15.7406 12.2618H14.7557V12.2618ZM28.4034 13.9613C27.6525 13.6497 27.0622 14.1762 26.7885 14.6694C26.8506 14.45 26.8762 14.193 26.9265 13.9613H26.1781C25.9951 15.4189 25.7255 16.7873 25.4692 18.1694H26.316C26.4347 17.349 26.486 16.2431 26.7492 15.4584C26.9597 14.8313 27.5104 14.297 28.305 14.5885C28.316 14.3571 28.3805 14.1805 28.4034 13.9613V13.9613ZM28.8759 17.1781C28.7979 16.9709 28.7778 16.6288 28.7973 16.3687C28.841 15.7842 29.0484 15.0725 29.3684 14.7503C29.81 14.3056 30.6818 14.3792 31.3772 14.6289C31.3987 14.3881 31.4458 14.1734 31.4757 13.9411C30.3352 13.7497 29.2531 13.8688 28.6793 14.4874C28.1175 15.0929 27.7493 16.4845 28.0096 17.3602C28.3142 18.3848 29.6804 18.4405 30.7864 18.0481C30.8353 17.8421 30.8613 17.6125 30.9045 17.4007C30.3001 17.7232 29.1446 17.8908 28.8759 17.1781V17.1781ZM38.388 13.9815C37.6395 13.597 37.0164 14.2421 36.7732 14.6288C36.8424 14.4304 36.8464 14.1647 36.911 13.9612H36.1627C35.9609 15.4061 35.7177 16.8085 35.4341 18.1693H36.3006C36.306 17.6116 36.4127 17.199 36.4974 16.6521C36.6785 15.4841 36.9445 14.2034 38.27 14.5884C38.3138 14.3909 38.3321 14.1669 38.388 13.9815ZM16.2918 13.9613C16.2689 13.9647 16.2704 13.9932 16.2721 14.0219C16.0855 15.4555 15.8329 16.8214 15.5631 18.1693H16.4099C16.6134 16.7261 16.8465 15.3134 17.1386 13.9612L16.2918 13.9613V13.9613ZM23.736 13.8804C23.1241 13.9288 22.6068 14.1097 22.2393 14.5075C21.7884 14.9954 21.4234 16.0742 21.5303 17.0567C21.683 18.4583 23.3817 18.4079 24.7404 18.0683C24.7635 17.8222 24.8215 17.6119 24.8585 17.3804C24.2988 17.5955 23.327 17.8958 22.7512 17.5221C22.3166 17.2397 22.3141 16.5249 22.4558 15.9035C23.369 15.8737 24.3181 15.8793 25.2326 15.9035C25.2905 15.4632 25.4566 14.983 25.3113 14.5481C25.1199 13.9738 24.434 13.8251 23.736 13.8804ZM24.5434 15.4179H22.5542C22.6172 14.9482 23.0286 14.4318 23.6769 14.4064C24.2869 14.3824 24.7237 14.6365 24.5434 15.4179V15.4179ZM20.5259 13.9613C19.8092 13.6847 18.9357 14.0149 18.557 14.3289C18.5584 14.3427 18.548 14.3446 18.5368 14.3456C18.5432 14.3401 18.5503 14.3345 18.557 14.3289C18.5569 14.3278 18.5568 14.3266 18.5566 14.3255C18.563 14.1904 18.6092 14.0963 18.6156 13.9613H17.887C17.5833 16.0366 17.2233 18.0539 16.8433 20.0508H17.6901C17.8127 19.2731 17.8936 18.4526 18.0643 17.7243C18.2577 18.4903 19.5205 18.344 20.0534 18.048C21.1527 17.4372 22.0008 14.5303 20.5259 13.9613V13.9613ZM19.8564 17.3804C19.4033 17.8733 18.2895 17.8659 18.2021 17.0364C18.1641 16.6755 18.2949 16.2971 18.3598 15.9237C18.4252 15.5458 18.4723 15.1832 18.5369 14.8515C18.9831 14.2917 20.2945 14.224 20.4275 15.1549C20.5429 15.9631 20.2315 16.9721 19.8564 17.3804V17.3804ZM41.5389 12.1405C41.4663 12.7942 41.3693 13.4229 41.2436 14.0219C39.1664 13.3464 37.8925 14.9165 37.9154 16.8544C37.9199 17.2292 37.9827 17.6008 38.2107 17.8659C38.6041 18.3226 39.7298 18.4321 40.2984 18.0479C40.4083 17.9736 40.5208 17.8383 40.5937 17.7445C40.6485 17.6739 40.7355 17.4889 40.7513 17.5422C40.7213 17.7475 40.6767 17.9377 40.6726 18.1693H41.4406C41.5888 15.988 42.0463 14.1249 42.3859 12.1404H41.539V12.1405H41.5389ZM39.6484 17.704C39.0783 17.7166 38.7949 17.3541 38.7818 16.7532C38.7591 15.7007 39.2085 14.5314 40.1211 14.4266C40.5459 14.3778 40.8535 14.4793 41.1648 14.5885C40.879 15.7707 40.9822 17.6746 39.6484 17.704V17.704ZM32.342 13.9613C32.3004 14.2017 32.2364 14.4192 32.1845 14.6491C32.6842 14.5204 34.2403 14.1257 34.3902 14.8109C34.44 15.0386 34.3541 15.2804 34.2917 15.4584C32.8847 15.3215 31.7379 15.5616 31.4361 16.5913C31.2341 17.281 31.4588 17.9597 31.8891 18.1492C32.718 18.514 33.7261 18.0961 34.0751 17.5221C34.0389 17.7207 34.0045 17.9216 34.0161 18.1694H34.7447C34.7525 17.4525 34.8541 16.8722 34.9614 16.2271C35.0528 15.6778 35.2249 15.1339 35.1977 14.6491C35.135 13.5387 33.3444 13.9315 32.342 13.9613V13.9613ZM33.7206 17.3601C33.2842 17.799 32.0592 17.9237 32.1845 16.8746C32.2885 16.0032 33.2121 15.8181 34.2128 15.9438C34.1385 16.4205 34.0532 17.0257 33.7206 17.3601V17.3601Z" fill="white"/>
</g>
<defs>
<clipPath id="clip0_289_41">
<rect width="38.9617" height="17.419" fill="white" transform="translate(6.77588 6.96143)"/>
</clipPath>
</defs>
</svg>
