<svg width="53" height="32" viewBox="0 0 53 32" fill="none" xmlns="http://www.w3.org/2000/svg">
<path d="M48.3267 0.000483408H4.39333C3.24644 -0.0159089 2.13937 0.385172 1.31553 1.11555C0.491684 1.84592 0.0184969 2.8458 0 3.89536L0 27.2646C0.0184969 28.3142 0.491684 29.3141 1.31553 30.0445C2.13937 30.7748 3.24644 31.1759 4.39333 31.1595H48.3267C49.4736 31.1759 50.5806 30.7748 51.4045 30.0445C52.2283 29.3141 52.7015 28.3142 52.72 27.2646V3.89536C52.7015 2.8458 52.2283 1.84592 51.4045 1.11555C50.5806 0.385172 49.4736 -0.0159089 48.3267 0.000483408Z" fill="white"/>
<g clip-path="url(#clip0_289_67)">
<path d="M38.4611 25.2538V25.306H38.5085C38.5174 25.3062 38.5261 25.3039 38.5339 25.2994C38.537 25.2971 38.5395 25.2941 38.5411 25.2906C38.5428 25.2871 38.5436 25.2833 38.5434 25.2794C38.5436 25.2756 38.5428 25.2718 38.5411 25.2684C38.5394 25.265 38.537 25.2621 38.5339 25.2599C38.5262 25.2552 38.5174 25.2529 38.5085 25.2533H38.4611V25.2538ZM38.509 25.2169C38.5293 25.2156 38.5494 25.2216 38.5659 25.2338C38.5725 25.2394 38.5778 25.2465 38.5812 25.2545C38.5847 25.2625 38.5863 25.2713 38.5858 25.28C38.5861 25.2876 38.5849 25.2951 38.5821 25.3021C38.5794 25.3091 38.5752 25.3154 38.5698 25.3206C38.5571 25.332 38.5412 25.3388 38.5244 25.3401L38.5879 25.4145H38.539L38.4805 25.3406H38.4616V25.4145H38.4207V25.217H38.5096L38.509 25.2169ZM38.4963 25.4826C38.5177 25.4828 38.539 25.4784 38.5587 25.4695C38.5776 25.4612 38.5949 25.4492 38.6095 25.4342C38.6241 25.4192 38.6358 25.4015 38.6439 25.382C38.6606 25.3406 38.6606 25.2941 38.6439 25.2528C38.6357 25.2333 38.624 25.2156 38.6095 25.2005C38.5949 25.1856 38.5776 25.1736 38.5587 25.1652C38.5389 25.1568 38.5177 25.1527 38.4963 25.1529C38.4745 25.1527 38.4529 25.1569 38.4328 25.1652C38.4134 25.1734 38.3957 25.1854 38.3808 25.2005C38.3583 25.2242 38.3431 25.2542 38.3371 25.2867C38.3311 25.3192 38.3345 25.3528 38.3469 25.3833C38.3546 25.4029 38.3661 25.4206 38.3808 25.4355C38.3957 25.4506 38.4134 25.4626 38.4328 25.4709C38.4528 25.4797 38.4745 25.4841 38.4963 25.4839M38.4963 25.1054C38.5521 25.1053 38.6057 25.1278 38.6456 25.1681C38.6648 25.1874 38.68 25.2104 38.6905 25.2358C38.7014 25.2619 38.707 25.29 38.707 25.3183C38.707 25.3467 38.7014 25.3748 38.6905 25.4009C38.6798 25.4262 38.6645 25.4491 38.6456 25.4686C38.6261 25.4878 38.6034 25.5033 38.5786 25.5143C38.5526 25.5257 38.5246 25.5314 38.4963 25.5313C38.4677 25.5315 38.4393 25.5257 38.4129 25.5143C38.3879 25.5036 38.365 25.4881 38.3455 25.4686C38.3265 25.4484 38.3114 25.4247 38.3011 25.3987C38.2903 25.3726 38.2847 25.3445 38.2847 25.3161C38.2847 25.2877 38.2903 25.2597 38.3011 25.2336C38.3116 25.2082 38.3269 25.1851 38.3461 25.1658C38.3653 25.1461 38.3883 25.1305 38.4136 25.1202C38.4399 25.1087 38.4683 25.103 38.4969 25.1032M19.0425 24.3428C19.0425 23.9662 19.2826 23.6569 19.6751 23.6569C20.0501 23.6569 20.3032 23.9529 20.3032 24.3428C20.3032 24.7326 20.0501 25.0287 19.6751 25.0287C19.2826 25.0287 19.0425 24.7193 19.0425 24.3428M20.7307 24.3428V23.2712H20.2773V23.5323C20.1335 23.3394 19.9153 23.2184 19.6187 23.2184C19.0343 23.2184 18.5756 23.6893 18.5756 24.3433C18.5756 24.9973 19.034 25.4682 19.6187 25.4682C19.9152 25.4682 20.1335 25.3471 20.2773 25.1543V25.4145H20.7302V24.3428H20.7307ZM36.0518 24.3428C36.0518 23.9662 36.292 23.6569 36.6846 23.6569C37.06 23.6569 37.3127 23.9529 37.3127 24.3428C37.3127 24.7326 37.06 25.0287 36.6846 25.0287C36.2921 25.0287 36.0518 24.7193 36.0518 24.3428ZM37.7406 24.3428V22.4111H37.2868V23.5323C37.1429 23.3394 36.9248 23.2184 36.6281 23.2184C36.0437 23.2184 35.5851 23.6893 35.5851 24.3433C35.5851 24.9973 36.0435 25.4682 36.6281 25.4682C36.9248 25.4682 37.1429 25.3471 37.2868 25.1543V25.4145H37.7406V24.3428ZM26.3585 23.6349C26.6507 23.6349 26.8384 23.8231 26.8863 24.1545H25.8043C25.8527 23.8451 26.0355 23.6349 26.3586 23.6349M26.3677 23.2172C25.7565 23.2172 25.329 23.674 25.329 24.3421C25.329 25.0233 25.7737 25.4671 26.398 25.4671C26.7121 25.4671 26.9997 25.3865 27.2528 25.1669L27.0306 24.8217C26.8558 24.9652 26.6332 25.0458 26.4239 25.0458C26.1317 25.0458 25.8657 24.9068 25.8003 24.5211H27.3486C27.3531 24.4631 27.3576 24.4047 27.3576 24.342C27.353 23.6741 26.9511 23.2171 26.3674 23.2171M31.842 24.342C31.842 23.9655 32.0821 23.6561 32.4745 23.6561C32.8496 23.6561 33.1027 23.9522 33.1027 24.342C33.1027 24.7319 32.8496 25.0279 32.4745 25.0279C32.0821 25.0279 31.8418 24.7185 31.8418 24.342M33.5301 24.342V23.2712H33.0769V23.5323C32.9325 23.3394 32.7149 23.2184 32.4182 23.2184C31.8338 23.2184 31.3752 23.6893 31.3752 24.3433C31.3752 24.9973 31.8336 25.4682 32.4182 25.4682C32.7149 25.4682 32.9325 25.3471 33.0769 25.1543V25.4145H33.5302V24.3428L33.5301 24.342ZM29.2813 24.342C29.2813 24.9919 29.7216 25.4669 30.3937 25.4669C30.7078 25.4669 30.917 25.3952 31.1433 25.2115L30.9255 24.835C30.7553 24.9607 30.5765 25.0279 30.3792 25.0279C30.0173 25.0233 29.7511 24.7544 29.7511 24.342C29.7511 23.9296 30.0173 23.6608 30.3792 23.6561C30.576 23.6561 30.7548 23.7234 30.9255 23.849L31.1433 23.4725C30.9167 23.2889 30.7074 23.2171 30.3937 23.2171C29.7216 23.2171 29.2813 23.692 29.2813 24.342M35.1268 23.2171C34.8652 23.2171 34.6948 23.3428 34.5771 23.531V23.2712H34.1277V25.4133H34.5816V24.2125C34.5816 23.858 34.7299 23.6611 35.0263 23.6611C35.1234 23.6597 35.2197 23.678 35.3099 23.715L35.4496 23.2759C35.3493 23.2353 35.2184 23.2175 35.1266 23.2175M22.9725 23.4416C22.7544 23.2938 22.4538 23.2175 22.1222 23.2175C21.5939 23.2175 21.2538 23.4776 21.2538 23.9032C21.2538 24.2525 21.507 24.468 21.9733 24.5352L22.1875 24.5665C22.4361 24.6024 22.5535 24.6696 22.5535 24.7906C22.5535 24.9562 22.3883 25.0507 22.0782 25.0507C21.7642 25.0507 21.5375 24.9476 21.3847 24.8266L21.1716 25.1898C21.4202 25.3781 21.7343 25.4678 22.0744 25.4678C22.6766 25.4678 23.0256 25.1765 23.0256 24.7687C23.0256 24.3921 22.7509 24.1952 22.2971 24.128L22.0834 24.0961C21.8871 24.07 21.7299 24.0294 21.7299 23.8858C21.7299 23.7292 21.8781 23.635 22.1269 23.635C22.3931 23.635 22.6507 23.7381 22.777 23.8186L22.9733 23.4421L22.9725 23.4416ZM28.8233 23.2179C28.5617 23.2179 28.3913 23.3435 28.274 23.5318V23.2712H27.8247V25.4133H28.2781V24.2125C28.2781 23.858 28.4264 23.6611 28.7228 23.6611C28.8198 23.6597 28.9162 23.678 29.0063 23.715L29.1461 23.2759C29.0457 23.2353 28.9149 23.2175 28.823 23.2175M24.9539 23.2712H24.2124V22.6214H23.754V23.2712H23.3311V23.697H23.754V24.6742C23.754 25.1712 23.9418 25.4672 24.4782 25.4672C24.675 25.4672 24.9016 25.4045 25.0455 25.3016L24.9145 24.9027C24.7792 24.9832 24.6309 25.0238 24.513 25.0238C24.2863 25.0238 24.2124 24.8803 24.2124 24.6653V23.6974H24.9539V23.2712ZM18.1746 25.4138V24.0695C18.1746 23.5632 17.8606 23.2226 17.3543 23.218C17.0881 23.2134 16.8136 23.2985 16.6213 23.5991C16.4775 23.3616 16.2509 23.218 15.9322 23.218C15.7095 23.218 15.4919 23.2852 15.3215 23.5361V23.2712H14.8677V25.4133H15.3251V24.2256C15.3251 23.8537 15.5258 23.6561 15.8358 23.6561C16.1369 23.6561 16.2892 23.8578 16.2892 24.2209V25.413H16.7476V24.2253C16.7476 23.8535 16.9569 23.6559 17.2579 23.6559C17.5675 23.6559 17.7152 23.8575 17.7152 24.2206V25.4128L18.1746 25.4138Z" fill="#231F20"/>
<path d="M38.7199 18.2886V17.9753H38.6405L38.5486 18.1903L38.4573 17.9753H38.3776V18.2886H38.434V18.0526L38.5199 18.2562H38.5784L38.6643 18.0521V18.2886H38.7202H38.7199ZM38.2162 18.2886V18.029H38.3178V17.9761H38.0581V18.029H38.1597V18.2886H38.2156H38.2162Z" fill="#F79410"/>
<path d="M29.6943 19.6321H22.8228V6.9458H29.6945L29.6943 19.6321Z" fill="#FF5F00"/>
<path d="M23.2588 13.2889C23.2588 10.7155 24.4317 8.42309 26.2582 6.94576C24.8756 5.82585 23.1657 5.21804 21.405 5.22071C17.068 5.22071 13.5522 8.83291 13.5522 13.2889C13.5522 17.7449 17.068 21.3571 21.405 21.3571C23.1657 21.3598 24.8757 20.752 26.2583 19.632C24.432 18.155 23.2588 15.8624 23.2588 13.2889Z" fill="#EB001B"/>
<path d="M38.9655 13.2891C38.9655 17.7451 35.4498 21.3573 31.1127 21.3573C29.3518 21.36 27.6416 20.7522 26.2588 19.6323C28.0858 18.155 29.2587 15.8627 29.2587 13.2891C29.2587 10.7156 28.0858 8.42333 26.2588 6.946C27.6416 5.82613 29.3518 5.21833 31.1126 5.22096C35.4497 5.22096 38.9654 8.83315 38.9654 13.2891" fill="#F79E1B"/>
</g>
<defs>
<clipPath id="clip0_289_67">
<rect width="25.4098" height="20.3085" fill="white" transform="translate(13.5518 5.2207)"/>
</clipPath>
</defs>
</svg>
