<svg width="53" height="32" viewBox="0 0 53 32" fill="none" xmlns="http://www.w3.org/2000/svg">
<path d="M48.3267 0.000483408H4.39333C3.24644 -0.0159089 2.13937 0.385172 1.31553 1.11555C0.491684 1.84592 0.0184969 2.8458 0 3.89536L0 27.2646C0.0184969 28.3142 0.491684 29.3141 1.31553 30.0445C2.13937 30.7748 3.24644 31.1759 4.39333 31.1595H48.3267C49.4736 31.1759 50.5806 30.7748 51.4045 30.0445C52.2283 29.3141 52.7015 28.3142 52.72 27.2646V3.89536C52.7015 2.8458 52.2283 1.84592 51.4045 1.11555C50.5806 0.385172 49.4736 -0.0159089 48.3267 0.000483408Z" fill="white"/>
<path d="M24.258 21.5074H21.2861L23.1435 9.78107H26.1157L24.258 21.5074ZM18.786 9.78107L15.9528 17.8466L15.6175 16.1097L15.6178 16.1104L14.6178 10.8369C14.6178 10.8369 14.4969 9.78107 13.2081 9.78107H8.5242L8.46924 9.97962C8.46924 9.97962 9.90158 10.2858 11.5779 11.3199L14.1598 21.5078H17.2563L21.9844 9.78107H18.786V9.78107ZM42.1612 21.5074H44.89L42.5108 9.78075H40.1218C39.0186 9.78075 38.7499 10.6546 38.7499 10.6546L34.3177 21.5074H37.4156L38.0352 19.7656H41.8131L42.1612 21.5074ZM38.891 17.3594L40.4525 12.9711L41.331 17.3594H38.891ZM34.55 12.601L34.9741 10.0828C34.9741 10.0828 33.6655 9.57153 32.3012 9.57153C30.8264 9.57153 27.3242 10.2337 27.3242 13.4536C27.3242 16.483 31.4347 16.5207 31.4347 18.1119C31.4347 19.7032 27.7477 19.4181 26.5309 18.4146L26.0891 21.0476C26.0891 21.0476 27.4161 21.7098 29.4435 21.7098C31.4716 21.7098 34.5311 20.631 34.5311 17.695C34.5311 14.6461 30.3837 14.3623 30.3837 13.0367C30.384 11.7108 33.2783 11.8811 34.55 12.601V12.601Z" fill="#2566AF"/>
<path d="M15.6178 16.1098L14.6178 10.8363C14.6178 10.8363 14.4969 9.78052 13.2081 9.78052H8.5242L8.46924 9.97907C8.46924 9.97907 10.7205 10.4584 12.8799 12.2541C14.9445 13.9706 15.6178 16.1098 15.6178 16.1098Z" fill="#E6A540"/>
</svg>
