<svg width="95" height="105" viewBox="0 0 95 105" fill="none" xmlns="http://www.w3.org/2000/svg">
<path d="M93.2805 94.465C93.4031 95.5573 93.293 96.6631 92.9576 97.7098C92.6221 98.7565 92.0688 99.7203 91.3341 100.538C90.5974 101.354 89.6961 102.005 88.6896 102.448C87.6832 102.891 86.5943 103.115 85.4948 103.107H9.50618C8.40663 103.115 7.31777 102.891 6.31131 102.448C5.30484 102.005 4.40359 101.354 3.6669 100.538C2.93218 99.7203 2.37887 98.7565 2.04339 97.7098C1.70791 96.6631 1.59786 95.5573 1.72047 94.465L8.5719 33.0357H86.4291L93.2805 94.465Z" stroke="#231F20" stroke-width="2.5" stroke-linecap="round" stroke-linejoin="round"/>
<path d="M28.0371 33.0357V21.3571C28.0371 16.1949 30.0878 11.2441 33.7381 7.59381C37.3883 3.94355 42.3391 1.89285 47.5014 1.89285C52.6636 1.89285 57.6145 3.94355 61.2647 7.59381C64.915 11.2441 66.9657 16.1949 66.9657 21.3571V33.0357" stroke="#231F20" stroke-width="2.5" stroke-linecap="round" stroke-linejoin="round"/>
</svg>
