<svg xmlns="http://www.w3.org/2000/svg" width="21" height="18" viewBox="0 0 21 18" fill="none">
<path d="M8.82397 1.54424L1.32519 9.08204L8.82397 16.6198C8.8917 16.7088 8.97774 16.7821 9.07627 16.8349C9.17481 16.8877 9.28354 16.9187 9.39509 16.9258C9.50665 16.9329 9.61844 16.916 9.72288 16.8762C9.82732 16.8363 9.92199 16.7745 10.0005 16.6949C10.0789 16.6153 10.1394 16.5198 10.1777 16.4147C10.2161 16.3097 10.2314 16.1977 10.2227 16.0863C10.214 15.9748 10.1815 15.8666 10.1273 15.7688C10.0731 15.671 9.9985 15.586 9.90861 15.5196L4.29818 9.86235L19.2255 9.86235C19.4325 9.86235 19.6309 9.78014 19.7773 9.6338C19.9236 9.48746 20.0058 9.28899 20.0058 9.08204C20.0058 8.87509 19.9236 8.67661 19.7773 8.53027C19.6309 8.38394 19.4325 8.30173 19.2255 8.30173L4.29818 8.30173L9.9086 2.64448C10.0545 2.49755 10.1361 2.29867 10.1353 2.0916C10.1346 1.88454 10.0516 1.68624 9.9047 1.54034C9.75777 1.39444 9.55889 1.31289 9.35183 1.31362C9.14476 1.31435 8.94647 1.39731 8.80056 1.54424L8.82397 1.54424Z" fill="#BBAC95" stroke="#BBAC95"/>
</svg>