<svg width="24" height="24" viewBox="0 0 24 24" fill="none" xmlns="http://www.w3.org/2000/svg">
<path d="M19.6795 15.9525C18.5087 15.9525 17.4723 16.5216 16.825 17.3951L7.45834 12.622C7.53943 12.3225 7.58709 12.0102 7.58709 11.6852C7.58709 11.2783 7.51524 10.8892 7.39005 10.5257L16.8093 5.9546C17.4559 6.83951 18.4987 7.41712 19.6795 7.41712C21.6442 7.41712 23.2361 5.82443 23.2361 3.86042C23.2361 1.8964 21.6442 0.303711 19.6795 0.303711C17.7148 0.303711 16.1229 1.8964 16.1229 3.86042C16.1229 4.13642 16.1578 4.40388 16.2175 4.6621L6.66308 9.29862C6.01223 8.58087 5.07613 8.12775 4.0312 8.12775C2.06725 8.12775 0.474609 9.72044 0.474609 11.6845C0.474609 13.6485 2.06725 15.2412 4.0312 15.2412C5.1622 15.2412 6.168 14.7119 6.81957 13.8882L16.2246 18.6819C16.1606 18.948 16.1236 19.224 16.1236 19.5092C16.1236 21.4732 17.7156 23.0659 19.6802 23.0659C21.6449 23.0659 23.2368 21.4732 23.2368 19.5092C23.2368 17.5452 21.6442 15.9525 19.6795 15.9525ZM19.6795 1.72568C20.8582 1.72568 21.8135 2.68101 21.8135 3.8597C21.8135 5.0384 20.8582 5.99373 19.6795 5.99373C18.5009 5.99373 17.5455 5.0384 17.5455 3.8597C17.5455 2.68101 18.5009 1.72568 19.6795 1.72568ZM4.03049 13.8185C2.85184 13.8185 1.89654 12.8631 1.89654 11.6845C1.89654 10.5058 2.85184 9.55043 4.03049 9.55043C5.20915 9.55043 6.16445 10.5065 6.16445 11.6845C6.16445 12.8624 5.20915 13.8185 4.03049 13.8185ZM19.6795 21.6432C18.5009 21.6432 17.5455 20.6879 17.5455 19.5092C17.5455 18.3305 18.5009 17.3752 19.6795 17.3752C20.8582 17.3752 21.8135 18.3305 21.8135 19.5092C21.8135 20.6879 20.8582 21.6432 19.6795 21.6432Z" fill="#CECCC3"/>
</svg>
