<svg width="32" height="32" viewBox="0 0 32 32" fill="none" xmlns="http://www.w3.org/2000/svg">
<path d="M13.5384 0H1.23077C0.551012 0 0 0.551012 0 1.23077V13.5384C0 14.2182 0.551012 14.7692 1.23077 14.7692H13.5384C14.2182 14.7692 14.7692 14.2182 14.7692 13.5384V1.23077C14.7692 0.551012 14.2182 0 13.5384 0Z" fill="#CECECE"/>
<path d="M30.7699 0H18.4622C17.7825 0 17.2314 0.551012 17.2314 1.23077V13.5384C17.2314 14.2182 17.7825 14.7692 18.4622 14.7692H30.7699C31.4496 14.7692 32.0006 14.2182 32.0006 13.5384V1.23077C32.0006 0.551012 31.4496 0 30.7699 0Z" fill="#CECECE"/>
<path d="M13.5384 17.2307H1.23077C0.551012 17.2307 0 17.7817 0 18.4615V30.7691C0 31.4489 0.551012 31.9999 1.23077 31.9999H13.5384C14.2182 31.9999 14.7692 31.4489 14.7692 30.7691V18.4615C14.7692 17.7817 14.2182 17.2307 13.5384 17.2307Z" fill="#CECECE"/>
<path d="M30.7699 17.2308H18.4622C17.7825 17.2308 17.2314 17.7818 17.2314 18.4616V30.7692C17.2314 31.449 17.7825 32 18.4622 32H30.7699C31.4496 32 32.0006 31.449 32.0006 30.7692V18.4616C32.0006 17.7818 31.4496 17.2308 30.7699 17.2308Z" fill="#CECECE"/>
</svg>
