<svg width="57" height="57" viewBox="0 0 57 57" fill="none" xmlns="http://www.w3.org/2000/svg">
<g filter="url(#filter0_d_366_21090)">
<circle cx="28.5" cy="23.5" r="18.5" fill="white"/>
</g>
<path d="M36.9719 16.418C36.4824 15.9283 35.9012 15.5398 35.2616 15.2747C34.6219 15.0097 33.9363 14.8733 33.2439 14.8733C32.5516 14.8733 31.866 15.0097 31.2263 15.2747C30.5867 15.5398 30.0055 15.9283 29.516 16.418L28.5002 17.4338L27.4844 16.418C26.4957 15.4293 25.1547 14.8738 23.7564 14.8738C22.3582 14.8738 21.0172 15.4293 20.0285 16.418C19.0398 17.4067 18.4844 18.7476 18.4844 20.1459C18.4844 21.5441 19.0398 22.8851 20.0285 23.8738L21.0444 24.8896L28.5002 32.3455L35.956 24.8896L36.9719 23.8738C37.4616 23.3843 37.85 22.8032 38.1151 22.1635C38.3801 21.5239 38.5165 20.8383 38.5165 20.1459C38.5165 19.4535 38.3801 18.7679 38.1151 18.1282C37.85 17.4886 37.4616 16.9074 36.9719 16.418V16.418Z" fill="#9DD9C9" stroke="#9DD9C9" stroke-width="1.3" stroke-linecap="round" stroke-linejoin="round"/>
<defs>
<filter id="filter0_d_366_21090" x="0" y="0" width="57" height="57" filterUnits="userSpaceOnUse" color-interpolation-filters="sRGB">
<feFlood flood-opacity="0" result="BackgroundImageFix"/>
<feColorMatrix in="SourceAlpha" type="matrix" values="0 0 0 0 0 0 0 0 0 0 0 0 0 0 0 0 0 0 127 0" result="hardAlpha"/>
<feOffset dy="5"/>
<feGaussianBlur stdDeviation="5"/>
<feComposite in2="hardAlpha" operator="out"/>
<feColorMatrix type="matrix" values="0 0 0 0 0.215686 0 0 0 0 0.203922 0 0 0 0 0.207843 0 0 0 0.08 0"/>
<feBlend mode="normal" in2="BackgroundImageFix" result="effect1_dropShadow_366_21090"/>
<feBlend mode="normal" in="SourceGraphic" in2="effect1_dropShadow_366_21090" result="shape"/>
</filter>
</defs>
</svg>
