<svg width="25" height="25" viewBox="0 0 25 25" fill="none" xmlns="http://www.w3.org/2000/svg">
<path d="M22.9994 22.125C23.0275 22.3755 23.0023 22.6292 22.9254 22.8692C22.8484 23.1093 22.7215 23.3303 22.553 23.5178C22.384 23.7051 22.1773 23.8544 21.9465 23.956C21.7156 24.0575 21.4659 24.1091 21.2137 24.1071H3.78514C3.53295 24.1091 3.28321 24.0575 3.05237 23.956C2.82153 23.8544 2.61482 23.7051 2.44586 23.5178C2.27734 23.3303 2.15044 23.1093 2.07349 22.8692C1.99655 22.6292 1.9713 22.3755 1.99943 22.125L3.57086 8.03571H21.428L22.9994 22.125Z" stroke="#231F20" stroke-width="1.71429" stroke-linecap="round" stroke-linejoin="round"/>
<path d="M8.03516 8.03571V5.35714C8.03516 4.17314 8.5055 3.03763 9.34272 2.20041C10.1799 1.3632 11.3154 0.892853 12.4994 0.892853C13.6834 0.892853 14.819 1.3632 15.6562 2.20041C16.4934 3.03763 16.9637 4.17314 16.9637 5.35714V8.03571" stroke="#231F20" stroke-width="1.71429" stroke-linecap="round" stroke-linejoin="round"/>
</svg>
