<svg width="44" height="44" viewBox="0 0 44 44" fill="none" xmlns="http://www.w3.org/2000/svg">
<circle cx="22" cy="22" r="21.25" stroke="#373435" stroke-width="1.5"/>
<path d="M31.8851 32.9601V29.8401C31.8851 28.1851 31.3654 26.598 30.4403 25.4278C29.5153 24.2575 28.2606 23.6001 26.9524 23.6001H17.087C15.7788 23.6001 14.5241 24.2575 13.599 25.4278C12.674 26.598 12.1543 28.1851 12.1543 29.8401V32.9601" stroke="#373435" stroke-width="1.5" stroke-linecap="square" stroke-linejoin="round"/>
<path d="M22.0188 19.4401C24.5996 19.4401 26.6919 17.3448 26.6919 14.7601C26.6919 12.1754 24.5996 10.0801 22.0188 10.0801C19.4379 10.0801 17.3457 12.1754 17.3457 14.7601C17.3457 17.3448 19.4379 19.4401 22.0188 19.4401Z" stroke="#373435" stroke-width="1.5" stroke-linecap="round" stroke-linejoin="round"/>
</svg>
