<svg width="57" height="57" viewBox="0 0 57 57" fill="none" xmlns="http://www.w3.org/2000/svg">
<g filter="url(#filter0_d_366_21095)">
<circle cx="28.5" cy="23.5" r="18.5" fill="white"/>
</g>
<g clip-path="url(#clip0_366_21095)">
<path d="M38.9987 16.9286C38.9112 16.8098 38.7914 16.7186 38.6537 16.6658L28.7966 12.9365C28.7033 12.8958 28.6026 12.8748 28.5008 12.8748C28.3991 12.8748 28.2984 12.8958 28.2051 12.9365L18.348 16.7315C18.2178 16.766 18.0988 16.8339 18.003 16.9286C17.8882 17.0674 17.8244 17.2414 17.8223 17.4215V29.4472C17.8244 29.6113 17.8756 29.7709 17.9693 29.9056C18.063 30.0403 18.1949 30.1438 18.348 30.2029L28.2051 33.9979H28.5008H28.7966L38.6537 30.2029C38.8068 30.1438 38.9387 30.0403 39.0324 29.9056C39.1261 29.7709 39.1773 29.6113 39.1794 29.4472V17.4872C39.1933 17.2847 39.1286 17.0846 38.9987 16.9286Z" fill="#9DD9C9" stroke="#89CDBB" stroke-width="0.5" stroke-linecap="round" stroke-linejoin="round"/>
<path d="M28.5 34.1128V21.0356" stroke="#89CDBB" stroke-width="0.5" stroke-linecap="round" stroke-linejoin="round"/>
<path d="M28.5 21.5834V34.0417" stroke="#89CDBB" stroke-width="0.5" stroke-linecap="round" stroke-linejoin="round"/>
<path d="M18.002 16.9943L28.4998 21.0357L38.9977 16.9943" fill="#9DD9C9"/>
<path d="M18.002 16.9943L28.4998 21.0357L38.9977 16.9943" stroke="#89CDBB" stroke-width="0.5" stroke-linecap="round" stroke-linejoin="round"/>
</g>
<defs>
<filter id="filter0_d_366_21095" x="0" y="0" width="57" height="57" filterUnits="userSpaceOnUse" color-interpolation-filters="sRGB">
<feFlood flood-opacity="0" result="BackgroundImageFix"/>
<feColorMatrix in="SourceAlpha" type="matrix" values="0 0 0 0 0 0 0 0 0 0 0 0 0 0 0 0 0 0 127 0" result="hardAlpha"/>
<feOffset dy="5"/>
<feGaussianBlur stdDeviation="5"/>
<feComposite in2="hardAlpha" operator="out"/>
<feColorMatrix type="matrix" values="0 0 0 0 0.215686 0 0 0 0 0.203922 0 0 0 0 0.207843 0 0 0 0.08 0"/>
<feBlend mode="normal" in2="BackgroundImageFix" result="effect1_dropShadow_366_21095"/>
<feBlend mode="normal" in="SourceGraphic" in2="effect1_dropShadow_366_21095" result="shape"/>
</filter>
<clipPath id="clip0_366_21095">
<rect width="23" height="23" fill="white" transform="translate(17 12)"/>
</clipPath>
</defs>
</svg>
