<svg width="12" height="10" viewBox="0 0 12 10" fill="none" xmlns="http://www.w3.org/2000/svg">
<path d="M5.28672 0.934006L0.892578 5.35101L5.28672 9.76801C5.32641 9.82013 5.37682 9.86311 5.43456 9.89404C5.4923 9.92498 5.55601 9.94314 5.62139 9.94731C5.68676 9.95148 5.75226 9.94156 5.81346 9.91822C5.87466 9.89487 5.93014 9.85865 5.97612 9.812C6.02211 9.76535 6.05754 9.70937 6.08 9.64784C6.10247 9.58631 6.11146 9.52067 6.10636 9.45537C6.10125 9.39006 6.08218 9.32661 6.05042 9.26932C6.01866 9.21203 5.97497 9.16223 5.92229 9.1233L2.63469 5.80826L11.3818 5.80826C11.5031 5.80826 11.6194 5.76008 11.7051 5.67433C11.7909 5.58858 11.8391 5.47228 11.8391 5.35101C11.8391 5.22974 11.7909 5.11344 11.7051 5.02769C11.6194 4.94194 11.5031 4.89376 11.3818 4.89376L2.63469 4.89376L5.92229 1.57872C6.00779 1.49262 6.05558 1.37608 6.05515 1.25475C6.05472 1.13341 6.00611 1.01721 5.92001 0.931719C5.83391 0.846224 5.71737 0.798434 5.59603 0.798863C5.47469 0.799292 5.3585 0.847904 5.273 0.934006L5.28672 0.934006Z" fill="#BBAC95"/>
</svg>
