<svg width="21" height="18" viewBox="0 0 21 18" fill="none" xmlns="http://www.w3.org/2000/svg">
<path d="M12.3684 16.472L19.8672 8.93423L12.3684 1.39643C12.3007 1.3075 12.2146 1.23415 12.1161 1.18136C12.0176 1.12857 11.9088 1.09757 11.7973 1.09045C11.6857 1.08333 11.5739 1.10027 11.4695 1.14011C11.3651 1.17995 11.2704 1.24176 11.1919 1.32137C11.1134 1.40098 11.053 1.49651 11.0146 1.60152C10.9763 1.70652 10.961 1.81854 10.9697 1.92998C10.9784 2.04143 11.0109 2.1497 11.0651 2.24747C11.1193 2.34524 11.1939 2.43022 11.2838 2.49667L16.8942 8.15392L1.96687 8.15392C1.75992 8.15392 1.56145 8.23613 1.41511 8.38246C1.26878 8.5288 1.18657 8.72728 1.18657 8.93423C1.18657 9.14118 1.26878 9.33965 1.41511 9.48599C1.56145 9.63233 1.75992 9.71454 1.96687 9.71454L16.8942 9.71454L11.2838 15.3718C11.1379 15.5187 11.0563 15.7176 11.0571 15.9247C11.0578 16.1317 11.1407 16.33 11.2877 16.4759C11.4346 16.6218 11.6335 16.7034 11.8406 16.7026C12.0476 16.7019 12.2459 16.619 12.3918 16.472L12.3684 16.472Z" fill="#BBAC95" stroke="#BBAC95"/>
</svg>
