<svg width="21" height="17" viewBox="0 0 21 17" fill="none" xmlns="http://www.w3.org/2000/svg">
<path d="M9.01636 1.05337L1.51758 8.59116L9.01636 16.129C9.08408 16.2179 9.17012 16.2912 9.26866 16.344C9.36719 16.3968 9.47592 16.4278 9.58748 16.4349C9.69903 16.4421 9.81082 16.4251 9.91526 16.3853C10.0197 16.3454 10.1144 16.2836 10.1929 16.204C10.2713 16.1244 10.3318 16.0289 10.3701 15.9239C10.4085 15.8189 10.4238 15.7069 10.4151 15.5954C10.4064 15.484 10.3738 15.3757 10.3196 15.2779C10.2654 15.1802 10.1909 15.0952 10.101 15.0287L4.49056 9.37147L19.4179 9.37147C19.6248 9.37147 19.8233 9.28926 19.9697 9.14293C20.116 8.99659 20.1982 8.79811 20.1982 8.59116C20.1982 8.38421 20.116 8.18574 19.9697 8.0394C19.8233 7.89306 19.6248 7.81085 19.4179 7.81085L4.49056 7.81085L10.101 2.15361C10.2469 2.00667 10.3284 1.80779 10.3277 1.60073C10.327 1.39366 10.244 1.19537 10.0971 1.04947C9.95015 0.903566 9.75128 0.822012 9.54421 0.822743C9.33714 0.823475 9.13885 0.906434 8.99295 1.05337L9.01636 1.05337Z" fill="#BBAC95" stroke="#BBAC95"/>
</svg>
