<svg width="12" height="11" viewBox="0 0 12 11" fill="none" xmlns="http://www.w3.org/2000/svg">
<path d="M6.71328 9.96931L11.1074 5.55231L6.71328 1.13531C6.67359 1.08319 6.62318 1.04021 6.56544 1.00928C6.5077 0.978344 6.44399 0.960177 6.37861 0.956006C6.31324 0.951835 6.24774 0.961758 6.18654 0.985104C6.12534 1.00845 6.06986 1.04467 6.02388 1.09132C5.97789 1.13797 5.94246 1.19395 5.92 1.25548C5.89753 1.31701 5.88854 1.38265 5.89364 1.44795C5.89875 1.51326 5.91782 1.5767 5.94958 1.634C5.98134 1.69129 6.02503 1.74109 6.07771 1.78002L9.36531 5.09506L0.618179 5.09506C0.49691 5.09506 0.380607 5.14324 0.294857 5.22899C0.209106 5.31474 0.160932 5.43104 0.160932 5.55231C0.160932 5.67358 0.209106 5.78988 0.294857 5.87563C0.380607 5.96138 0.49691 6.00956 0.618179 6.00956L9.36531 6.00956L6.07771 9.3246C5.99221 9.4107 5.94442 9.52724 5.94485 9.64857C5.94528 9.76991 5.99389 9.88611 6.07999 9.9716C6.16609 10.0571 6.28263 10.1049 6.40397 10.1045C6.5253 10.104 6.6415 10.0554 6.727 9.96931L6.71328 9.96931Z" fill="#BBAC95"/>
</svg>
