<svg width="20" height="20" viewBox="0 0 20 20" fill="none" xmlns="http://www.w3.org/2000/svg">
<path d="M20 8.54167V0.833333C20 0.373333 19.6267 0 19.1667 0H0.833333C0.373333 0 0 0.373333 0 0.833333V8.54167C0 9.00167 0.373333 9.375 0.833333 9.375H19.1667C19.6267 9.375 20 9.00167 20 8.54167Z" fill="#373435"/>
<path d="M0 11.4583V19.1667C0 19.6267 0.373333 20 0.833333 20H19.1667C19.6267 20 20 19.6267 20 19.1667V11.4583C20 10.9983 19.6267 10.625 19.1667 10.625H0.833333C0.373333 10.625 0 10.9983 0 11.4583Z" fill="#373435"/>
</svg>
