<svg width="32" height="32" viewBox="0 0 32 32" fill="none" xmlns="http://www.w3.org/2000/svg">
<path d="M32 9.11111V0.888889C32 0.398222 31.4027 0 30.6667 0H1.33333C0.597333 0 0 0.398222 0 0.888889V9.11111C0 9.60178 0.597333 10 1.33333 10H30.6667C31.4027 10 32 9.60178 32 9.11111Z" fill="#CECECE"/>
<path d="M32 20.1111V11.8889C32 11.3982 31.4027 11 30.6667 11H1.33333C0.597333 11 0 11.3982 0 11.8889V20.1111C0 20.6018 0.597333 21 1.33333 21H30.6667C31.4027 21 32 20.6018 32 20.1111Z" fill="#CECECE"/>
<path d="M32 31.1111V22.8889C32 22.3982 31.4027 22 30.6667 22H1.33333C0.597333 22 0 22.3982 0 22.8889V31.1111C0 31.6018 0.597333 32 1.33333 32H30.6667C31.4027 32 32 31.6018 32 31.1111Z" fill="#CECECE"/>
</svg>
