<svg width="131" height="92" viewBox="0 0 131 92" fill="none" xmlns="http://www.w3.org/2000/svg">
<path fill-rule="evenodd" clip-rule="evenodd" d="M43.3824 88.36V91.8315H44.0919C44.2634 91.8334 44.4347 91.8216 44.6044 91.7963C44.7317 91.7774 44.8556 91.7398 44.972 91.685C45.0755 91.6344 45.169 91.5657 45.2481 91.4821C45.5394 91.1862 45.6849 90.7306 45.6844 90.1155C45.6851 89.9235 45.6672 89.732 45.6311 89.5435C45.5996 89.3793 45.5467 89.2199 45.4738 89.0694C45.4076 88.9364 45.3206 88.8148 45.2161 88.7092C45.1314 88.626 45.0334 88.5575 44.9261 88.5065C44.8077 88.4511 44.6818 88.413 44.5525 88.3935C44.3843 88.3691 44.2145 88.3579 44.0445 88.36H43.3824ZM41.8047 88.2644H44.241C44.5925 88.2577 44.9427 88.3076 45.2782 88.4124C45.5593 88.5027 45.8147 88.6591 46.0229 88.8684C46.2003 89.039 46.3437 89.2417 46.4455 89.4659C46.5429 89.6815 46.5934 89.9154 46.5935 90.152C46.5958 90.3992 46.541 90.6435 46.4333 90.8659C46.3251 91.0859 46.17 91.2795 45.9791 91.4333C45.7731 91.5986 45.538 91.7238 45.2859 91.8026C45.0047 91.8915 44.7114 91.9357 44.4165 91.9335H41.8061V91.8315H41.9405C42.0316 91.8458 42.1249 91.8383 42.2126 91.8097C42.3003 91.7812 42.3801 91.7323 42.4453 91.667C42.5106 91.6018 42.5595 91.5221 42.5881 91.4344C42.6166 91.3467 42.6241 91.2534 42.6098 91.1623V89.0292C42.6245 88.9381 42.6174 88.8447 42.5889 88.7568C42.5605 88.669 42.5116 88.5891 42.4462 88.5239C42.3808 88.4586 42.3009 88.4099 42.2129 88.3816C42.125 88.3533 42.0316 88.3463 41.9405 88.3612H41.8061V88.2656L41.8047 88.2644ZM50.4801 89.0498L49.7601 90.6864H51.2182L50.4798 89.0498H50.4801ZM50.7593 88.1894H50.8549L52.3317 91.4001C52.372 91.4902 52.426 91.5736 52.4919 91.6472C52.5454 91.7095 52.6135 91.7577 52.69 91.7875C52.773 91.8183 52.8609 91.8333 52.9494 91.8317H53.0472V91.9338H50.9175V91.8317H51.1953C51.3001 91.8389 51.405 91.8195 51.5003 91.7753C51.5309 91.7577 51.556 91.732 51.5729 91.7011C51.5897 91.6701 51.5977 91.6351 51.5959 91.5999C51.5937 91.5386 51.5807 91.4782 51.5577 91.4213C51.5319 91.3513 51.4769 91.2247 51.3904 91.0401C51.3858 91.0294 51.3782 91.0127 51.3676 90.9883C51.3571 90.9639 51.3437 90.9405 51.3325 90.9166L51.2716 90.7839H49.7178L49.5982 91.0569C49.5606 91.1457 49.541 91.241 49.5404 91.3375C49.5413 91.4216 49.5643 91.5041 49.6073 91.5765C49.6482 91.6514 49.7089 91.7137 49.7828 91.7564C49.8221 91.7807 49.8648 91.7991 49.9095 91.8112C49.9625 91.8236 50.0166 91.8308 50.0711 91.8327V91.9347H48.5749V91.8327C48.6635 91.8248 48.7508 91.8053 48.8343 91.7746C48.9111 91.7409 48.983 91.6968 49.0477 91.6434C49.2906 91.4195 49.4773 91.1415 49.5925 90.832L50.7595 88.1903L50.7593 88.1894ZM54.8443 88.2642H57.3478V88.3598H57.0825C56.9915 88.3454 56.8984 88.3529 56.8108 88.3815C56.7232 88.4102 56.6437 88.4592 56.5787 88.5245C56.5138 88.5899 56.4653 88.6697 56.4372 88.7574C56.4092 88.8452 56.4023 88.9383 56.4172 89.0292V91.8372H57.3693C57.5537 91.8383 57.7357 91.7954 57.9002 91.7122C58.0677 91.6284 58.2153 91.5098 58.3334 91.3645C58.4036 91.2761 58.4688 91.1839 58.5287 91.0882C58.5922 90.9831 58.6458 90.8724 58.6889 90.7574C58.739 90.6276 58.7895 90.4797 58.8383 90.3105H58.936V91.9357H54.8446L54.8383 91.8382H54.9758C55.0668 91.8507 55.1595 91.8419 55.2465 91.8125C55.3336 91.783 55.4125 91.7337 55.4772 91.6685C55.5419 91.6032 55.5905 91.5238 55.6192 91.4365C55.6479 91.3493 55.6558 91.2565 55.6425 91.1656V89.0292C55.6555 88.9386 55.6472 88.8462 55.6183 88.7593C55.5894 88.6725 55.5407 88.5935 55.476 88.5287C55.4114 88.4639 55.3325 88.415 55.2457 88.386C55.1588 88.3569 55.0664 88.3484 54.9758 88.3612H54.8446V88.2656L54.8443 88.2642ZM64.2163 91.8363H64.5947C64.6896 91.8447 64.7853 91.834 64.876 91.8046C64.9667 91.7753 65.0505 91.7279 65.1225 91.6654C65.2463 91.5088 65.3052 91.3106 65.2872 91.1118V89.4752C65.2915 89.3471 65.2818 89.2188 65.2583 89.0928C65.2387 89.0142 65.1956 88.9434 65.1347 88.8899C64.9858 88.7641 64.7936 88.7017 64.5992 88.7161H64.3186V88.6246C64.5107 88.6156 64.7022 88.5963 64.8923 88.5665C65.0511 88.5435 65.2074 88.5057 65.3591 88.4537C65.5155 88.399 65.6674 88.3322 65.8133 88.2539H65.9916V91.2008C65.9916 91.6247 66.2195 91.8367 66.6751 91.8367H67.0246V91.9342H64.2165V91.8367L64.2163 91.8363ZM71.0625 89.8244C71.1798 89.7431 71.2739 89.6328 71.3355 89.5041C71.3926 89.3697 71.4203 89.2247 71.4165 89.0787C71.4248 88.9702 71.4102 88.8612 71.3737 88.7587C71.3371 88.6562 71.2794 88.5626 71.2043 88.4838C71.0281 88.3393 70.8031 88.2678 70.5758 88.284C70.4086 88.2804 70.2421 88.3072 70.0846 88.3634C69.9588 88.4067 69.8468 88.4825 69.7597 88.583C69.6832 88.6767 69.6426 88.7946 69.6452 88.9155C69.6456 88.9872 69.6609 89.0582 69.6901 89.1238C69.7192 89.1894 69.7617 89.2482 69.8147 89.2967C69.8613 89.3366 69.9112 89.3723 69.9641 89.4035C70.2186 89.5307 70.4829 89.6373 70.7544 89.7223C70.8215 89.7422 70.9236 89.7773 71.0625 89.8244ZM70.1242 90.25C70.0137 90.3134 69.9121 90.3914 69.8223 90.4818C69.7461 90.5587 69.6877 90.6514 69.6514 90.7533C69.6142 90.8654 69.5962 90.983 69.5981 91.1011C69.5981 91.6428 69.9387 91.9133 70.62 91.9125C70.8036 91.9154 70.9862 91.8844 71.1586 91.821C71.3018 91.7712 71.43 91.6857 71.5308 91.5724C71.6164 91.4743 71.6635 91.3486 71.6634 91.2184C71.6652 91.1513 71.6524 91.0847 71.6258 91.0231C71.5992 90.9614 71.5595 90.9063 71.5095 90.8616C71.461 90.8209 71.4101 90.7833 71.357 90.7488C71.2136 90.674 71.0412 90.5947 70.8414 90.5124C70.7788 90.4864 70.7178 90.462 70.6614 90.4407C70.605 90.4195 70.5469 90.3994 70.4874 90.3781C70.4491 90.3645 70.408 90.3492 70.3623 90.3325C70.3167 90.3157 70.2768 90.3019 70.2447 90.2897C70.2127 90.2775 70.173 90.2658 70.1252 90.25H70.1242ZM70.0114 90.2022C69.776 90.1151 69.5641 89.9746 69.3921 89.7919C69.2644 89.6338 69.1978 89.4352 69.2044 89.2321C69.2004 89.0338 69.2609 88.8396 69.3768 88.6786C69.5046 88.5114 69.6785 88.3852 69.8771 88.3156C70.1221 88.2268 70.3814 88.1838 70.642 88.1889C70.8315 88.1727 71.0223 88.1945 71.2033 88.2529C71.3843 88.3113 71.5519 88.4051 71.6962 88.529C71.7693 88.5978 71.8276 88.6808 71.8677 88.7728C71.9078 88.8648 71.9288 88.964 71.9295 89.0643C71.9309 89.1733 71.9064 89.2811 71.8578 89.3786C71.8012 89.483 71.7214 89.5729 71.6245 89.6415C71.4914 89.7364 71.3481 89.8161 71.1973 89.8793C71.4306 89.9579 71.6504 90.0721 71.8487 90.218C71.9587 90.3 72.0483 90.4062 72.1107 90.5284C72.1731 90.6505 72.2067 90.7854 72.2087 90.9226C72.209 91.0411 72.1851 91.1585 72.1384 91.2674C72.0909 91.3784 72.0219 91.479 71.9355 91.5633C71.6319 91.8546 71.1738 92 70.5612 91.9995C70.3262 92.0007 70.0917 91.9751 69.8625 91.9232C69.6742 91.885 69.4946 91.8121 69.333 91.7081C69.232 91.6472 69.1484 91.5613 69.0902 91.4587C69.0319 91.3561 69.0011 91.2403 69.0005 91.1224C68.998 90.9927 69.033 90.8651 69.1011 90.7548C69.1838 90.6327 69.2941 90.5319 69.4231 90.4606C69.6096 90.3538 69.807 90.2673 70.0119 90.2027L70.0114 90.2022ZM75.5121 88.279C75.4095 88.2708 75.3066 88.2907 75.2145 88.3365C75.1224 88.3824 75.0445 88.4525 74.9893 88.5393C74.9508 88.6107 74.9226 88.6871 74.9054 88.7663C74.893 88.8214 74.885 88.8773 74.8815 88.9336C74.8753 89.0022 74.8707 89.0923 74.8678 89.202C74.865 89.3117 74.8616 89.4095 74.8616 89.4919C74.8586 89.6335 74.8698 89.7751 74.8951 89.9145C74.9126 90.0108 74.9484 90.1028 75.0005 90.1857C75.05 90.257 75.1173 90.314 75.1958 90.3509C75.2743 90.3879 75.3611 90.4035 75.4475 90.3963C75.5414 90.3999 75.635 90.384 75.7225 90.3496C75.8099 90.3152 75.8892 90.2631 75.9555 90.1965C76.0471 90.1034 76.113 89.9881 76.1467 89.8619C76.1904 89.6937 76.2105 89.5201 76.2062 89.3464C76.212 89.1429 76.1868 88.9397 76.1314 88.7439C76.0939 88.6062 76.0138 88.4839 75.9027 88.3944C75.7884 88.3147 75.6512 88.2746 75.5121 88.2802V88.279ZM76.2 90.6212V90.0294H76.1909C76.0975 90.1849 75.965 90.3132 75.8066 90.4015C75.6403 90.4837 75.4565 90.5239 75.2711 90.5189C75.1035 90.5197 74.937 90.4903 74.7799 90.4319C74.6294 90.3779 74.4907 90.2956 74.3711 90.1895C74.2565 90.0908 74.164 89.9692 74.0993 89.8325C74.0341 89.6975 74.0007 89.5493 74.0018 89.3994C73.9999 89.1794 74.0648 88.964 74.188 88.7816C74.3182 88.5917 74.4981 88.4413 74.7081 88.3469C74.9395 88.24 75.1918 88.1864 75.4466 88.1898C75.7455 88.1855 76.0392 88.2686 76.2916 88.4288C76.5438 88.5924 76.7452 88.8233 76.8729 89.0954C77.0145 89.401 77.0848 89.7348 77.0788 90.0715C77.0893 90.3298 77.048 90.5877 76.9573 90.8298C76.8667 91.072 76.7285 91.2936 76.551 91.4816C76.3865 91.6459 76.191 91.7759 75.9758 91.864C75.7622 91.9533 75.533 91.9989 75.3015 91.9983C75.1461 92.0067 74.9906 91.9838 74.8441 91.9312C74.6977 91.8785 74.5633 91.7971 74.4488 91.6917C74.3796 91.6311 74.3237 91.5569 74.2846 91.4737C74.2455 91.3905 74.224 91.3001 74.2215 91.2082C74.2192 91.1493 74.2285 91.0906 74.249 91.0354C74.2696 90.9801 74.3008 90.9295 74.341 90.8865C74.3788 90.8456 74.4249 90.8133 74.4763 90.7917C74.5276 90.7701 74.5829 90.7597 74.6386 90.7612C74.7526 90.7573 74.8636 90.7978 74.9482 90.8743C74.9885 90.9117 75.0202 90.9573 75.0413 91.0081C75.0624 91.0588 75.0723 91.1136 75.0703 91.1685C75.0728 91.2426 75.052 91.3157 75.0108 91.3774C74.9598 91.4431 74.8931 91.495 74.8169 91.5284C74.7316 91.5726 74.6888 91.6154 74.6888 91.6596C74.6888 91.7222 74.7483 91.7791 74.8688 91.8269C75.0001 91.8776 75.1399 91.9025 75.2807 91.9001C75.4131 91.9077 75.5453 91.8817 75.665 91.8247C75.7848 91.7677 75.8882 91.6814 75.9658 91.5738C76.1399 91.2871 76.2214 90.9537 76.1991 90.619L76.2 90.6212ZM80.9058 89.9637V89.9699C81.1102 89.992 81.311 90.0396 81.5035 90.1116C81.6384 90.1609 81.7646 90.2315 81.8771 90.3208C81.9729 90.3967 82.0506 90.493 82.1044 90.6028C82.1724 90.7479 82.1957 90.9099 82.1712 91.0683C82.1468 91.2267 82.0758 91.3742 81.9672 91.4921C81.8012 91.6671 81.5917 91.795 81.36 91.8625C81.0728 91.955 80.7723 91.9999 80.4706 91.9954C80.2829 91.9953 80.0958 91.9759 79.9121 91.9374C79.7599 91.9095 79.6124 91.8596 79.4745 91.7894C79.3603 91.7224 79.2636 91.6294 79.1921 91.5179C79.1246 91.42 79.0875 91.3044 79.0855 91.1855C79.0839 91.1258 79.0943 91.0665 79.116 91.011C79.1377 90.9554 79.1704 90.9048 79.212 90.8621C79.2529 90.8201 79.3021 90.787 79.3565 90.765C79.4108 90.7429 79.4691 90.7324 79.5278 90.734C79.5836 90.7317 79.6393 90.7408 79.6915 90.7608C79.7437 90.7807 79.7912 90.811 79.8313 90.8499C79.8697 90.8885 79.8998 90.9345 79.9197 90.9852C79.9397 91.0358 79.9491 91.09 79.9473 91.1443C79.9486 91.2115 79.9312 91.2777 79.8971 91.3356C79.8516 91.4004 79.7935 91.4553 79.7262 91.4971C79.6513 91.5449 79.6133 91.5872 79.6133 91.6252C79.6133 91.7046 79.6896 91.7701 79.8435 91.8205C80.0291 91.8757 80.2221 91.9015 80.4156 91.8972C80.6685 91.9193 80.9201 91.8422 81.1172 91.6821C81.2005 91.5838 81.2621 91.4689 81.2979 91.3451C81.3336 91.2213 81.3428 91.0913 81.3247 90.9637C81.3362 90.7002 81.2523 90.4413 81.0882 90.2347C80.9211 90.0885 80.7027 90.0145 80.4811 90.0289C80.4156 90.0289 80.298 90.0363 80.1256 90.0502C80.0786 90.0575 80.0312 90.061 79.9836 90.0607C79.8847 90.0607 79.8342 90.0304 79.8342 89.9694C79.8342 89.9085 79.8906 89.8793 80.0016 89.8793C80.0228 89.8793 80.0823 89.8839 80.1784 89.8946C80.2802 89.9071 80.3826 89.9142 80.4851 89.9159C80.6149 89.9219 80.7442 89.8962 80.8619 89.8411C80.9574 89.7898 81.0308 89.7052 81.0679 89.6033C81.1162 89.4594 81.1379 89.308 81.132 89.1564C81.1326 89.0597 81.1238 88.9631 81.1059 88.8681C81.0905 88.7871 81.0655 88.7083 81.0314 88.6332C81.0026 88.5697 80.962 88.5123 80.9118 88.464C80.843 88.4008 80.7621 88.3522 80.674 88.3213C80.5858 88.2904 80.4923 88.2777 80.3991 88.284C80.2737 88.2835 80.1487 88.2983 80.0269 88.3282C79.9279 88.3516 79.8336 88.3913 79.7477 88.4456C79.7189 88.46 79.694 88.4814 79.6754 88.5078C79.6569 88.5341 79.645 88.5646 79.6411 88.5966C79.6403 88.6225 79.6495 88.6477 79.6669 88.6669C79.6966 88.6939 79.7293 88.7174 79.7644 88.7369C79.8356 88.7674 79.8973 88.8164 79.943 88.8789C79.9815 88.9416 80.0006 89.0142 79.998 89.0878C79.9996 89.1406 79.9903 89.1933 79.9706 89.2423C79.9509 89.2914 79.9212 89.3359 79.8835 89.3729C79.846 89.41 79.8015 89.4392 79.7524 89.4586C79.7034 89.478 79.651 89.4873 79.5983 89.4859C79.5418 89.4873 79.4855 89.4769 79.4333 89.4554C79.381 89.4338 79.3338 89.4016 79.2947 89.3607C79.255 89.3203 79.2237 89.2724 79.2027 89.2198C79.1818 89.1672 79.1715 89.1109 79.1725 89.0543C79.172 88.8871 79.2347 88.7258 79.348 88.6028C79.4815 88.4578 79.651 88.3507 79.8392 88.2921C80.0712 88.2169 80.314 88.1803 80.5578 88.1839C80.8042 88.179 81.0495 88.2178 81.2823 88.2984C81.4689 88.3613 81.635 88.4735 81.7631 88.6232C81.8767 88.7631 81.9372 88.9386 81.934 89.1188C81.9352 89.233 81.9096 89.346 81.8592 89.4484C81.8067 89.552 81.7309 89.642 81.6378 89.7113C81.4947 89.808 81.3341 89.8759 81.165 89.9111C81.1136 89.924 81.0268 89.941 80.9061 89.9637H80.9058Z" fill="#231F20"/>
<path fill-rule="evenodd" clip-rule="evenodd" d="M13.6182 50.4922H14.0074V55.7558H13.6182C13.2661 54.6854 12.7353 53.6824 12.0482 52.7892C11.5926 52.2661 11.0536 51.8219 10.453 51.4747C9.77641 51.0852 9.05113 50.787 8.29615 50.588C7.51017 50.3726 6.69893 50.2631 5.88395 50.2625C5.3314 50.2541 4.78134 50.3382 4.25654 50.5113C3.80131 50.6687 3.38705 50.9259 3.04411 51.2641C2.81291 51.4923 2.62486 51.7604 2.48905 52.0554C2.35653 52.3167 2.28455 52.6045 2.27846 52.8974C2.27713 53.1491 2.32938 53.3982 2.43171 53.6281C2.53404 53.858 2.68413 54.0635 2.872 54.231C3.10371 54.4465 3.36871 54.6232 3.65678 54.7542C4.08133 54.9592 4.52342 55.1258 4.97774 55.2518C5.51368 55.4111 6.26666 55.6089 7.2367 55.8452C7.41165 55.9051 7.59078 55.952 7.77264 55.9855L8.30882 56.1194L9.16938 56.3428C10.2503 56.5957 11.3122 56.924 12.3472 57.3253C12.981 57.5946 13.5588 57.9797 14.0511 58.4611C14.4135 58.8008 14.7023 59.2111 14.8997 59.6668C15.1006 60.141 15.2027 60.6511 15.1997 61.1661C15.195 61.7109 15.0799 62.2492 14.8615 62.7485C14.6385 63.2766 14.3107 63.7541 13.8979 64.1521C13.3359 64.7215 12.6471 65.15 11.8878 65.4025C11.012 65.6957 10.0928 65.8381 9.16938 65.8237C8.49577 65.8274 7.82381 65.7568 7.16571 65.6131C6.37889 65.4148 5.61031 65.1502 4.86826 64.822C4.4305 64.6387 3.98316 64.4791 3.52818 64.344C3.24561 64.2652 2.9538 64.2243 2.66045 64.2226C2.18692 64.2079 1.72204 64.3517 1.33949 64.6311C0.965232 64.9225 0.70907 65.3395 0.618292 65.805H0.22913V58.7034H0.618292C0.777158 59.9709 1.30783 61.1631 2.14339 62.1295C2.72266 62.7844 3.39579 63.3498 4.14084 63.8075C4.93481 64.3144 5.79046 64.7175 6.6869 65.007C7.50142 65.2829 8.35418 65.4292 9.21408 65.4408C9.88141 65.4493 10.5442 65.3303 11.1668 65.0899C11.7051 64.89 12.1807 64.551 12.5452 64.1074C12.867 63.7059 13.0405 63.2056 13.0364 62.6911C13.033 62.4078 12.9719 62.1282 12.8568 61.8693C12.7418 61.6105 12.5751 61.3777 12.3671 61.1854C12.1305 60.9659 11.8641 60.7808 11.5758 60.6357C11.1692 60.4298 10.7466 60.2569 10.3123 60.1188C9.79544 59.9464 9.08069 59.7364 8.18093 59.4935L7.08348 59.1938C5.36666 58.7342 4.17335 58.3769 3.51622 58.1219C2.90804 57.9126 2.324 57.6388 1.77407 57.3053C1.35106 57.0292 0.981388 56.679 0.682831 56.2716C0.242376 55.7233 0.00161504 55.0416 0.000124336 54.3383C-0.00660931 53.5121 0.260334 52.7067 0.759327 52.048C1.31073 51.3358 2.04524 50.7868 2.88443 50.4594C3.84171 50.0671 4.86835 49.872 5.90284 49.8858C7.57471 49.8858 9.30834 50.3516 11.1037 51.2832C11.7353 51.5956 12.1629 51.7553 12.3926 51.7553C12.9606 51.7553 13.3691 51.3341 13.618 50.4919L13.6182 50.4922ZM33.4704 60.1453H33.8528C33.7125 60.7031 33.5181 61.2459 33.2722 61.7659C33.0307 62.2486 32.7353 62.7023 32.3916 63.1184C30.9047 64.9496 28.9159 65.8663 26.425 65.8683C24.8945 65.8791 23.3863 65.5015 22.0414 64.7709C20.7284 64.0844 19.6142 63.0716 18.8062 61.8298C18.0219 60.6454 17.6046 59.256 17.6064 57.8356C17.6099 56.9672 17.7719 56.1067 18.0845 55.2965C18.4078 54.4415 18.8738 53.6476 19.4629 52.9486C20.0655 52.2224 20.7731 51.5901 21.5624 51.0727C22.8116 50.2709 24.2708 49.8579 25.755 49.8861C26.2579 49.8837 26.76 49.9286 27.2545 50.0201C27.7172 50.1126 28.1672 50.2604 28.5946 50.4604C29.0526 50.6871 29.4885 50.9562 29.8964 51.2641C30.3941 51.6087 30.757 51.7808 30.9941 51.7808C31.5174 51.7808 32.1681 51.2385 32.9531 50.154H33.3355L33.6547 57.5359H33.2908C33.1696 57.0063 33.0485 56.5661 32.9399 56.2279C32.8143 55.8659 32.6607 55.5143 32.4805 55.1763C32.0179 54.2056 31.4137 53.309 30.6877 52.5157C30.0498 51.814 29.2857 51.2383 28.4351 50.8189C27.6542 50.4374 26.7965 50.2388 25.9273 50.2381C25.0221 50.1989 24.1334 50.4891 23.4257 51.0547C22.7813 51.6035 22.3027 52.4542 21.99 53.6068C21.6462 55.0481 21.4896 56.5278 21.5241 58.0091C21.5179 58.92 21.5733 59.8303 21.69 60.7337C21.7685 61.4236 21.9402 62.0997 22.2006 62.7434C22.4036 63.248 22.6978 63.7108 23.0684 64.1088C23.5149 64.5576 24.0554 64.9018 24.6508 65.1169C25.2991 65.352 25.9843 65.4686 26.6739 65.4613C27.3378 65.463 27.9989 65.3751 28.6393 65.1999C29.2626 65.0284 29.8564 64.7638 30.4006 64.415C30.9582 64.0551 31.4629 63.6192 31.9001 63.1199C32.2424 62.7251 32.5419 62.2952 32.7936 61.8374C33.0668 61.2936 33.2932 60.7275 33.4704 60.1453Z" fill="#231F20"/>
<path fill-rule="evenodd" clip-rule="evenodd" d="M41.8352 53.4845L38.8232 60.3303H44.9237L41.8352 53.4845ZM43.0029 49.8861H43.405L49.5821 63.3164C49.7508 63.6932 49.9766 64.0418 50.2515 64.3498C50.476 64.6101 50.7608 64.8116 51.081 64.9368C51.4278 65.0661 51.7959 65.1289 52.166 65.1218H52.5743V65.5493H43.6605V65.1218H44.8218C45.2603 65.1522 45.6994 65.071 46.0981 64.8859C46.2251 64.8117 46.3292 64.704 46.399 64.5746C46.4687 64.4451 46.5015 64.299 46.4937 64.1522C46.4842 63.8959 46.4303 63.6433 46.3342 63.4055C46.2257 63.112 45.996 62.5827 45.6386 61.8104C45.6195 61.766 45.5877 61.6957 45.543 61.5937C45.4983 61.4916 45.4474 61.3896 45.3962 61.2937L45.1409 60.7388H38.6389L38.141 61.8807C37.9839 62.2523 37.9015 62.6512 37.8986 63.0547C37.9031 63.4054 38 63.7487 38.1795 64.0501C38.3501 64.3638 38.6039 64.6243 38.9131 64.8029C39.0778 64.9045 39.2562 64.9818 39.4428 65.0326C39.665 65.0839 39.8915 65.1138 40.1193 65.1218V65.5493H33.8652V65.1218C34.2359 65.089 34.6007 65.0076 34.95 64.8794C35.2715 64.7379 35.5721 64.5529 35.8433 64.3297C36.6218 63.73 37.3812 62.5987 38.1214 60.936L43.0029 49.8861Z" fill="#231F20"/>
<path fill-rule="evenodd" clip-rule="evenodd" d="M48.9922 50.1987H57.97V50.6007H56.8723C56.4585 50.578 56.048 50.685 55.6981 50.9069C55.5594 51.0052 55.4476 51.1367 55.3729 51.2894C55.2983 51.4421 55.2631 51.6111 55.2707 51.7809C55.2896 52.2146 55.3959 52.64 55.5834 53.0316L59.7759 62.2189L63.2921 54.2947C63.5379 53.8061 63.6792 53.2716 63.707 52.7254C63.7197 52.4474 63.674 52.1698 63.5729 51.9105C63.4717 51.6511 63.3175 51.4158 63.1199 51.2197C62.6693 50.8209 62.0882 50.6008 61.4863 50.601V50.199H67.6764V50.601C67.1228 50.658 66.5877 50.832 66.1066 51.1115C65.6082 51.4159 65.178 51.8199 64.843 52.2981C64.3886 52.9437 64.0015 53.6342 63.6879 54.3587L58.5891 65.8495L58.1999 65.8686L52.2594 52.8975C51.5509 51.3662 50.6449 50.6007 49.5281 50.6007H48.9922V50.1987Z" fill="#231F20"/>
<path fill-rule="evenodd" clip-rule="evenodd" d="M76.6364 49.8861C77.9824 49.8701 79.3197 50.1037 80.5806 50.5751C81.7454 51.0179 82.8041 51.7004 83.6882 52.5784C84.4105 53.2985 84.9926 54.1466 85.4047 55.0795C85.8882 56.1738 86.0845 57.3732 85.975 58.5644C85.8655 59.7557 85.4539 60.8993 84.7792 61.8871C83.9405 63.125 82.7921 64.1214 81.4483 64.7774C80.0182 65.4981 78.4362 65.8657 76.8348 65.8493C75.6112 65.8562 74.3957 65.6511 73.2422 65.2432C72.1536 64.862 71.1452 64.2822 70.2682 63.5331C69.4261 62.8231 68.7415 61.9452 68.2581 60.9555C67.7065 59.8399 67.4641 58.5969 67.5562 57.3559C67.6482 56.1149 68.0713 54.9212 68.7814 53.8991C69.6247 52.6557 70.7712 51.6479 72.1124 50.9707C73.51 50.2469 75.063 49.8746 76.6368 49.8861H76.6364ZM76.9232 50.2816C76.2796 50.2782 75.6411 50.395 75.0405 50.6263C74.4756 50.8412 73.9656 51.179 73.5474 51.6152C73.0915 52.1013 72.7126 52.6542 72.4239 53.2548C72.0999 53.9278 71.864 54.6397 71.7221 55.373C71.5591 56.2052 71.48 57.0515 71.4859 57.8995C71.4757 58.9387 71.6023 59.9748 71.8624 60.9811C72.0788 61.8346 72.4416 62.6441 72.9345 63.3737C73.3651 64.0136 73.9428 64.5409 74.6193 64.9114C75.4085 65.3186 76.296 65.4968 77.1813 65.4257C78.0666 65.3547 78.9143 65.0373 79.6285 64.5094C80.482 63.8169 81.1215 62.8965 81.4727 61.8551C81.9266 60.5384 82.1427 59.1515 82.1109 57.7592C82.1184 56.7868 82.0005 55.8176 81.76 54.8754C81.5542 54.047 81.2135 53.2581 80.7517 52.5402C80.3388 51.9069 79.7948 51.3695 79.1564 50.9644C78.8262 50.7494 78.4675 50.5818 78.0907 50.4666C77.7128 50.3482 77.3196 50.2859 76.9237 50.2816H76.9232Z" fill="#231F20"/>
<path fill-rule="evenodd" clip-rule="evenodd" d="M87.0623 50.1987H93.2265L103.903 61.2491V54.6393C103.918 53.9117 103.776 53.1893 103.488 52.5211C103.242 51.9497 102.825 51.4684 102.294 51.143C102.038 50.972 101.756 50.8448 101.458 50.7666C101.067 50.6804 100.67 50.6249 100.271 50.6007V50.1987H107.878V50.6007H107.724C106.62 50.6007 105.778 50.9512 105.197 51.6523C104.617 52.3605 104.327 53.3835 104.329 54.7211V65.703H103.966L90.7123 52.0873V61.2099C90.6869 61.9317 90.7951 62.652 91.0314 63.3345C91.2286 63.8505 91.5897 64.2875 92.0593 64.5785C92.4954 64.8306 92.9808 64.9855 93.4823 65.0326C93.9179 65.0957 94.357 65.132 94.797 65.1411V65.5493H86.7891V65.1411C87.4788 65.1282 88.1594 64.9807 88.7927 64.7071C89.287 64.4845 89.6901 64.0995 89.9351 63.6161C90.2001 63.0521 90.327 62.4332 90.3052 61.8105V53.1348C90.3189 52.6549 90.1948 52.1811 89.9478 51.7694C89.6959 51.3826 89.3335 51.0803 88.9077 50.9019C88.3853 50.6897 87.8248 50.5876 87.2612 50.6019H87.0635L87.0623 50.1987Z" fill="#231F20"/>
<path fill-rule="evenodd" clip-rule="evenodd" d="M109.373 50.1987H125.71V56.1386H125.378C125.163 55.3428 124.895 54.5626 124.574 53.8035C124.328 53.2759 124.015 52.7826 123.641 52.3361C123.237 51.8339 122.721 51.4321 122.135 51.1621C121.088 50.7605 119.971 50.5698 118.849 50.6007H115.825V57.8995H116.642C117.215 57.9112 117.782 57.7739 118.286 57.501C118.791 57.2282 119.216 56.8291 119.52 56.3429C119.905 55.7592 120.182 55.1107 120.337 54.4288C120.447 53.969 120.526 53.5022 120.573 53.0316H120.962V63.0994H120.573C120.49 62.5571 120.387 62.0404 120.266 61.5619C120.17 61.1598 120.033 60.7686 119.858 60.3942C119.694 60.0761 119.5 59.7748 119.277 59.4946C118.62 58.6844 117.682 58.2781 116.463 58.2757H115.825V65.1407H118.352C119.03 65.1474 119.707 65.0939 120.375 64.981C120.93 64.8844 121.47 64.7172 121.983 64.4834C122.467 64.2573 122.918 63.9653 123.323 63.6156C124.051 62.9982 124.624 62.2179 124.995 61.338C125.278 60.6524 125.517 59.9491 125.71 59.2326H126.118V65.5489H109.399L109.373 65.1407H109.794C111.651 65.1407 112.581 64.2027 112.583 62.3269V53.3946C112.583 52.4439 112.359 51.7357 111.906 51.2828C111.453 50.8299 110.745 50.6 109.794 50.6H109.373L109.373 50.1987Z" fill="#231F20"/>
<path fill-rule="evenodd" clip-rule="evenodd" d="M36.2201 79.9473V78.6806H30.6953V79.9473H36.2201ZM48.1627 80.5145L46.8296 79.5123C46.6179 79.9115 46.2982 80.2432 45.907 80.4694C45.5158 80.6956 45.0689 80.8073 44.6172 80.7917C42.9678 80.7917 41.9698 79.5597 41.9698 77.9591C41.9698 76.267 43.1705 75.2106 44.5257 75.2106C45.4933 75.2106 46.2946 75.5792 46.6185 76.0992L47.8508 74.8765C47.0409 73.7895 45.7391 73.4996 44.5042 73.4996C43.914 73.4862 43.3272 73.5923 42.779 73.8113C42.2308 74.0304 41.7326 74.358 41.3143 74.7745C40.896 75.191 40.5662 75.6877 40.3447 76.2349C40.1233 76.782 40.0148 77.3682 40.0257 77.9584C40.0257 80.6366 41.8821 82.4707 44.5262 82.4707C45.7049 82.4707 47.1736 82.1146 48.1632 80.5138L48.1627 80.5145ZM60.3253 82.3263L56.0101 73.1875L51.7312 82.3254H53.8109L54.709 80.3371H57.3468L58.2451 82.3254L60.3253 82.3263ZM56.7669 78.9232H55.2451L55.9668 77.3131L56.7674 78.9232H56.7669ZM70.1995 79.8245C70.1995 78.5798 69.2321 77.8676 68.1982 77.3571L66.9975 76.7584C66.5405 76.5222 66.2412 76.3236 66.2412 75.8007C66.2412 75.2778 66.6636 75.012 67.2401 75.012C67.8644 75.0248 68.4654 75.2518 68.9421 75.6549L69.9411 74.2432C69.1503 73.6927 68.203 73.412 67.2399 73.4427C65.5632 73.4427 64.2932 74.4226 64.2932 75.8786C64.2932 76.9689 64.9833 77.7124 66.0621 78.2796L67.597 79.08C67.8743 79.2251 68.2305 79.5116 68.2305 79.937C68.2305 80.5704 67.8083 80.8132 67.2095 80.8132C66.3867 80.8132 65.6524 80.3469 65.1167 79.937L64.0389 81.4024C64.9144 82.084 65.9991 82.4414 67.1084 82.4138C69.1762 82.4138 70.2002 81.3015 70.2002 79.8238L70.1995 79.8245ZM82.4068 82.3263L78.0923 73.1884L73.8134 82.3263H75.8931L76.7914 80.3381H79.4292L80.3276 82.3263H82.4068ZM78.8486 78.9232H77.3264L78.048 77.3131L78.8486 78.9232ZM91.2672 79.9473V78.6806H85.7424V79.9473H91.2672Z" fill="#231F20"/>
<path fill-rule="evenodd" clip-rule="evenodd" d="M130.43 51.4613C130.43 51.1997 130.353 50.9439 130.207 50.7264C130.062 50.5089 129.855 50.3394 129.613 50.2393C129.371 50.1393 129.105 50.1131 128.848 50.1642C128.592 50.2153 128.356 50.3413 128.171 50.5263C127.986 50.7114 127.86 50.9471 127.809 51.2037C127.758 51.4604 127.784 51.7264 127.884 51.9681C127.984 52.2099 128.153 52.4166 128.371 52.5621C128.589 52.7075 128.844 52.7853 129.106 52.7854C129.457 52.7847 129.794 52.645 130.042 52.3968C130.29 52.1487 130.43 51.8123 130.43 51.4613ZM130.195 51.4613C130.193 51.6751 130.128 51.8835 130.008 52.0603C129.887 52.237 129.718 52.3744 129.52 52.4549C129.322 52.5355 129.104 52.5558 128.895 52.5131C128.685 52.4705 128.493 52.3669 128.342 52.2154C128.191 52.0638 128.089 51.8711 128.047 51.6614C128.006 51.4517 128.027 51.2344 128.109 51.0369C128.19 50.8393 128.329 50.6703 128.506 50.5511C128.684 50.4318 128.892 50.3677 129.106 50.3667C129.395 50.3683 129.672 50.4843 129.876 50.6894C130.081 50.8945 130.195 51.1721 130.195 51.4613ZM129.711 52.1905H129.406L128.867 51.501V52.1905H128.641V50.6968H129.161C129.221 50.6891 129.281 50.6945 129.338 50.7126C129.395 50.7307 129.448 50.761 129.492 50.8014C129.536 50.8418 129.571 50.8914 129.594 50.9467C129.617 51.002 129.628 51.0616 129.626 51.1215C129.628 51.1798 129.619 51.238 129.598 51.2925C129.576 51.3469 129.544 51.3963 129.503 51.4376C129.462 51.4789 129.412 51.5111 129.358 51.5323C129.303 51.5535 129.245 51.5631 129.187 51.5605L129.711 52.1905ZM129.386 51.106C129.386 51.2319 129.367 51.4358 129.066 51.4217L128.867 51.4119V50.8921L129.056 50.8823C129.381 50.8823 129.386 51.0068 129.386 51.106Z" fill="#231F20"/>
<path fill-rule="evenodd" clip-rule="evenodd" d="M67.871 19.845C66.7203 19.3984 65.5401 19.0318 64.3388 18.7477L63.3858 18.4999L62.7863 18.3565C62.6806 18.3371 62.4803 18.2848 62.1867 18.1964C61.1096 17.9359 60.2701 17.7129 59.6725 17.5346C59.1697 17.3913 58.6791 17.2081 58.2055 16.9868C57.8854 16.8371 57.5907 16.6381 57.3322 16.3972C57.1232 16.2118 56.956 15.9841 56.8419 15.729C56.7277 15.474 56.6693 15.1976 56.6703 14.9183C56.6758 14.5911 56.7556 14.2694 56.9036 13.9776C57.0585 13.6507 57.2688 13.3531 57.5251 13.0978C57.9057 12.7231 58.3655 12.4386 58.8707 12.2654C59.4537 12.0704 60.0656 11.976 60.6803 11.986C61.587 11.9844 62.4898 12.105 63.3643 12.3445C64.2056 12.5661 65.0134 12.8996 65.7659 13.3361C66.4339 13.7214 67.034 14.214 67.542 14.794C68.1945 15.5851 68.7776 16.686 69.2914 18.0967H69.7216V12.2391H69.2914C69.0136 13.1774 68.5565 13.6461 67.9202 13.6451C67.6685 13.6451 67.1914 13.4723 66.4907 13.1227C64.4933 12.0848 62.5655 11.5658 60.7075 11.5658C59.5545 11.5503 58.4101 11.7667 57.3423 12.2021C56.4103 12.5679 55.5947 13.179 54.9819 13.9706C54.4271 14.7046 54.1307 15.6015 54.1388 16.5215C54.1395 17.3044 54.4067 18.0638 54.8964 18.6748C55.2293 19.1274 55.6416 19.5157 56.1133 19.8208C56.7263 20.1897 57.3762 20.4932 58.0525 20.7266C58.7843 21.0125 60.1054 21.4112 62.0158 21.9228L63.2388 22.2548C64.2416 22.5244 65.0278 22.7567 65.6053 22.9534C66.0869 23.1107 66.5569 23.3016 67.0118 23.5246C67.3349 23.6855 67.6328 23.8925 67.8963 24.1391C68.1283 24.3523 68.3142 24.6107 68.4426 24.8984C68.571 25.1861 68.6393 25.497 68.6431 25.812C68.6452 26.3856 68.4521 26.9428 68.0954 27.3921C67.6878 27.8831 67.1578 28.2579 66.5589 28.4786C65.8668 28.7457 65.1302 28.8789 64.3883 28.871C63.4317 28.8599 62.4828 28.6986 61.5762 28.393C60.5783 28.0697 59.6263 27.6192 58.7435 27.0527C57.9168 26.5429 57.1691 25.9148 56.5243 25.1885C55.5908 24.115 54.9994 22.7872 54.8259 21.3753H54.3956V29.2747H54.8259C54.926 28.7568 55.211 28.2929 55.6278 27.9695C56.0534 27.6566 56.5717 27.4957 57.0996 27.5123C57.4259 27.5162 57.7503 27.5628 58.0644 27.6509C58.5707 27.8038 59.0689 27.9821 59.5572 28.1851C60.3803 28.5486 61.233 28.8411 62.1059 29.0593C62.8395 29.2207 63.5887 29.2999 64.3398 29.2955C65.3678 29.312 66.3913 29.1557 67.3675 28.833C68.2113 28.5509 68.9758 28.0722 69.5981 27.4365C70.0586 26.9952 70.4252 26.4653 70.6757 25.8787C70.9195 25.3215 71.0476 24.7207 71.0524 24.1125C71.0572 23.541 70.9425 22.9749 70.7156 22.4503C70.4961 21.941 70.1738 21.4824 69.769 21.1033C69.2233 20.5655 68.5788 20.1382 67.871 19.845Z" fill="#231F20"/>
<path fill-rule="evenodd" clip-rule="evenodd" d="M81.0561 20.8454C81.0558 24.6394 79.9302 28.3482 77.8217 31.5026C75.7132 34.6571 72.7165 37.1155 69.2105 38.5672C65.7044 40.0188 61.8466 40.3983 58.1248 39.6578C54.4031 38.9172 50.9845 37.0899 48.3015 34.4069C45.6185 31.7238 43.7915 28.3056 43.0515 24.5844C42.3116 20.8632 42.692 17.0062 44.1446 13.5011C45.5972 9.99604 48.0567 7.00036 51.2122 4.89289C54.3677 2.78541 58.0773 1.6608 61.8721 1.66127C66.9588 1.66722 71.8355 3.69044 75.432 7.28699C79.0285 10.8835 81.0511 15.7596 81.0561 20.8454ZM61.8721 6.04523e-07C57.7487 -0.000992067 53.7176 1.22057 50.2886 3.51019C46.8597 5.79982 44.1868 9.05467 42.6081 12.8631C41.0294 16.6716 40.6157 20.8626 41.4194 24.9061C42.2231 28.9496 44.208 32.6641 47.1232 35.5797C50.0384 38.4952 53.7529 40.4811 57.7969 41.2859C61.8409 42.0908 66.0329 41.6786 69.8426 40.1014C73.6523 38.5243 76.9086 35.853 79.1999 32.4255C81.4911 28.9979 82.7142 24.968 82.7146 20.8454C82.7083 15.32 80.5106 10.0226 76.6035 6.11485C72.6963 2.20712 67.3986 0.00809673 61.8721 6.04523e-07Z" fill="#231F20"/>
<path fill-rule="evenodd" clip-rule="evenodd" d="M79.4665 20.8454C79.466 24.3252 78.4333 27.7267 76.4992 30.6198C74.565 33.5128 71.8162 35.7674 68.6004 37.0985C65.3846 38.4296 61.8463 38.7774 58.4328 38.0979C55.0193 37.4184 51.884 35.7421 49.4234 33.2811C46.9628 30.82 45.2874 27.6846 44.609 24.2716C43.9307 20.8585 44.2799 17.3209 45.6125 14.1062C46.9451 10.8916 49.2012 8.14418 52.0955 6.2115C54.9898 4.27882 58.3924 3.24766 61.8729 3.24842C66.5382 3.25475 71.0106 5.11095 74.3088 8.40984C77.6071 11.7087 79.462 16.1809 79.4665 20.8454ZM61.8729 2.84882C58.3137 2.84849 54.8343 3.90336 51.8747 5.88006C48.9151 7.85676 46.6082 10.6665 45.2457 13.954C43.8833 17.2415 43.5264 20.8591 44.2203 24.3493C44.9142 27.8396 46.6277 31.0458 49.144 33.5624C51.6604 36.0791 54.8666 37.7932 58.3574 38.488C61.8481 39.1828 65.4665 38.8271 68.755 37.4659C72.0436 36.1048 74.8545 33.7992 76.8325 30.8408C78.8105 27.8823 79.8667 24.4039 79.8674 20.8454C79.8626 16.0747 77.9652 11.5007 74.5915 8.12697C71.2178 4.75324 66.6433 2.85529 61.8717 2.84953L61.8729 2.84882Z" fill="#231F20"/>
<path fill-rule="evenodd" clip-rule="evenodd" d="M61.867 35.9857C61.8376 35.9857 61.8082 35.9783 61.7773 35.9783V37.2928C61.8082 37.2928 61.8376 37.2969 61.867 37.2969C61.9566 37.2969 62.0463 37.2839 62.1354 37.2839V35.9695C62.0472 35.9716 61.9576 35.9857 61.867 35.9857Z" fill="#231F20"/>
<path fill-rule="evenodd" clip-rule="evenodd" d="M61.867 5.57103C61.9566 5.57103 62.0463 5.58274 62.1354 5.58274V4.26706C62.0463 4.26706 61.9566 4.25272 61.867 4.25272C61.8376 4.25272 61.8082 4.25845 61.7773 4.25845V5.57581C61.8091 5.57701 61.8385 5.57103 61.867 5.57103Z" fill="#231F20"/>
<path fill-rule="evenodd" clip-rule="evenodd" d="M63.3633 35.9095L63.4998 37.2146C63.6205 37.2034 63.7374 37.1814 63.8564 37.168L63.7202 35.8562C63.6006 35.8731 63.4854 35.8949 63.3633 35.9095Z" fill="#231F20"/>
<path fill-rule="evenodd" clip-rule="evenodd" d="M60.5431 5.63869L60.4035 4.32922C60.284 4.33783 60.1662 4.34882 60.0469 4.35981L60.1838 5.66976C60.3005 5.65566 60.4212 5.64825 60.5431 5.63869Z" fill="#231F20"/>
<path fill-rule="evenodd" clip-rule="evenodd" d="M58.9618 5.85641L58.6878 4.5694C58.5683 4.59091 58.4543 4.6172 58.3379 4.64516L58.6145 5.93121C58.7285 5.90564 58.8451 5.87863 58.9618 5.85641Z" fill="#231F20"/>
<path fill-rule="evenodd" clip-rule="evenodd" d="M64.9316 35.6729L65.2061 36.957C65.323 36.9345 65.4365 36.8934 65.5539 36.8688L65.2797 35.5828C65.1611 35.6098 65.049 35.6494 64.9316 35.6729Z" fill="#231F20"/>
<path fill-rule="evenodd" clip-rule="evenodd" d="M66.4688 35.2678L66.8725 36.5192C66.9894 36.4805 67.0993 36.4343 67.2115 36.3956L66.8051 35.1435C66.6932 35.183 66.5864 35.2308 66.4688 35.2678Z" fill="#231F20"/>
<path fill-rule="evenodd" clip-rule="evenodd" d="M57.4111 6.23787L57.0067 4.98792C56.8922 5.02424 56.7779 5.06941 56.666 5.10741L57.0741 6.35499C57.1867 6.31866 57.2966 6.2742 57.4111 6.23787Z" fill="#231F20"/>
<path fill-rule="evenodd" clip-rule="evenodd" d="M55.9099 6.78587L55.3735 5.58777C55.2633 5.63413 55.1603 5.69365 55.0508 5.74264L55.587 6.94265C55.6948 6.8927 55.7987 6.83558 55.9099 6.78587Z" fill="#231F20"/>
<path fill-rule="evenodd" clip-rule="evenodd" d="M67.9492 34.7083L68.4861 35.9064C68.5937 35.8564 68.6993 35.8017 68.8064 35.7489L68.2726 34.5515C68.1646 34.6003 68.0577 34.6548 67.9492 34.7083Z" fill="#231F20"/>
<path fill-rule="evenodd" clip-rule="evenodd" d="M54.4768 7.49668L53.8211 6.35785C53.7159 6.41616 53.615 6.485 53.5137 6.54427L54.1696 7.68309C54.2746 7.62215 54.3711 7.55475 54.4768 7.49668Z" fill="#231F20"/>
<path fill-rule="evenodd" clip-rule="evenodd" d="M69.3633 33.9901L70.0202 35.1294C70.1256 35.0675 70.2224 35.0044 70.3278 34.9413L69.6707 33.8047C69.5672 33.8639 69.4677 33.9318 69.3633 33.9901Z" fill="#231F20"/>
<path fill-rule="evenodd" clip-rule="evenodd" d="M70.6934 33.1385L71.4636 34.199C71.562 34.1287 71.6548 34.0556 71.7504 33.9824L70.9804 32.922C70.8848 32.9923 70.7909 33.0659 70.6934 33.1385Z" fill="#231F20"/>
<path fill-rule="evenodd" clip-rule="evenodd" d="M53.1249 8.35183L52.3552 7.29187C52.2567 7.35664 52.1623 7.43312 52.0684 7.50434L52.8374 8.56812C52.9347 8.49594 53.0293 8.4197 53.1249 8.35183Z" fill="#231F20"/>
<path fill-rule="evenodd" clip-rule="evenodd" d="M51.8733 9.34195L50.9934 8.3678C50.9025 8.44476 50.8162 8.52673 50.7285 8.6068L51.6065 9.5831C51.6933 9.5028 51.7849 9.42178 51.8733 9.34195Z" fill="#231F20"/>
<path fill-rule="evenodd" clip-rule="evenodd" d="M71.9258 32.1491L72.8086 33.1266C72.8966 33.0461 72.9838 32.9655 73.0715 32.8847L72.1921 31.9087C72.1051 31.988 72.0197 32.0693 71.9258 32.1491Z" fill="#231F20"/>
<path fill-rule="evenodd" clip-rule="evenodd" d="M73.0586 31.0399L74.0339 31.9196C74.1144 31.8307 74.196 31.7432 74.2729 31.6541L73.2988 30.7751C73.2199 30.8649 73.1365 30.9507 73.0586 31.0399Z" fill="#231F20"/>
<path fill-rule="evenodd" clip-rule="evenodd" d="M50.7281 10.4567L49.7502 9.58051C49.6697 9.66631 49.5888 9.7545 49.5078 9.8434L50.486 10.7239C50.5642 10.6335 50.6459 10.5434 50.7281 10.4567Z" fill="#231F20"/>
<path fill-rule="evenodd" clip-rule="evenodd" d="M74.0645 29.823L75.1265 30.5959C75.1982 30.5003 75.2699 30.4047 75.3417 30.3091L74.2801 29.5371C74.2084 29.6351 74.134 29.7269 74.0645 29.823Z" fill="#231F20"/>
<path fill-rule="evenodd" clip-rule="evenodd" d="M49.7032 11.6846L48.639 10.9124C48.5673 11.008 48.4932 11.1019 48.4258 11.1992L49.4876 11.9714C49.5577 11.8753 49.631 11.7804 49.7032 11.6846Z" fill="#231F20"/>
<path fill-rule="evenodd" clip-rule="evenodd" d="M48.8128 13.013L47.6723 12.3562C47.614 12.4609 47.5473 12.5565 47.4883 12.66L48.6235 13.3168C48.6856 13.2159 48.7526 13.1153 48.8128 13.013Z" fill="#231F20"/>
<path fill-rule="evenodd" clip-rule="evenodd" d="M74.9375 28.5111L76.0785 29.1655C76.1382 29.0656 76.2054 28.9645 76.2623 28.8591L75.1268 28.2009C75.0685 28.306 75.0008 28.4076 74.9375 28.5111Z" fill="#231F20"/>
<path fill-rule="evenodd" clip-rule="evenodd" d="M48.0646 14.4262L46.8643 13.8925C46.8139 14.0029 46.7553 14.1076 46.707 14.2125L47.9099 14.7498C47.9575 14.6415 48.0165 14.5361 48.0646 14.4262Z" fill="#231F20"/>
<path fill-rule="evenodd" clip-rule="evenodd" d="M75.6758 27.1091L76.877 27.6464C76.9248 27.5343 76.9865 27.4313 77.0345 27.3218L75.8307 26.7869C75.7841 26.8971 75.7255 27.0027 75.6758 27.1091Z" fill="#231F20"/>
<path fill-rule="evenodd" clip-rule="evenodd" d="M76.2617 25.6428L77.5134 26.0491C77.5497 25.9342 77.6013 25.8269 77.6372 25.7107L76.3855 25.3063C76.3518 25.4206 76.3019 25.5274 76.2617 25.6428Z" fill="#231F20"/>
<path fill-rule="evenodd" clip-rule="evenodd" d="M47.4707 15.9115L46.2207 15.5052C46.1803 15.619 46.1311 15.7273 46.0957 15.8398L47.3454 16.2461C47.381 16.1348 47.4305 16.0263 47.4707 15.9115Z" fill="#231F20"/>
<path fill-rule="evenodd" clip-rule="evenodd" d="M76.6934 24.1197L77.9789 24.395C78.0062 24.2755 78.0423 24.1646 78.0669 24.0454L76.7761 23.7715C76.7534 23.8876 76.7235 24.0045 76.6934 24.1197Z" fill="#231F20"/>
<path fill-rule="evenodd" clip-rule="evenodd" d="M47.0322 17.4507L45.7463 17.177C45.7224 17.2965 45.6861 17.4105 45.666 17.5295L46.9516 17.8013C46.9765 17.6846 47.0078 17.5687 47.0322 17.4507Z" fill="#231F20"/>
<path fill-rule="evenodd" clip-rule="evenodd" d="M76.959 22.5653L78.2682 22.702C78.283 22.5825 78.2993 22.463 78.3124 22.3447L77.0025 22.2082C76.9908 22.327 76.9752 22.4462 76.959 22.5653Z" fill="#231F20"/>
<path fill-rule="evenodd" clip-rule="evenodd" d="M46.7623 19.0316L45.4543 18.8935C45.4437 19.013 45.4284 19.1294 45.416 19.2496L46.7293 19.3873C46.7375 19.2682 46.7511 19.1492 46.7623 19.0316Z" fill="#231F20"/>
<path fill-rule="evenodd" clip-rule="evenodd" d="M46.6584 20.7785C46.6584 20.7262 46.6632 20.6781 46.6649 20.6258H45.3492C45.3492 20.6781 45.3398 20.7262 45.3398 20.7785C45.3398 20.8485 45.3508 20.9155 45.3508 20.985H46.6706C46.6675 20.9147 46.6584 20.8485 46.6584 20.7785Z" fill="#231F20"/>
<path fill-rule="evenodd" clip-rule="evenodd" d="M77.0733 20.7785C77.0733 20.8485 77.0649 20.9155 77.0625 20.985H78.3815C78.3815 20.9155 78.3913 20.8485 78.3913 20.7785C78.3913 20.7262 78.3844 20.6781 78.3844 20.6258H77.0649C77.0649 20.6781 77.0733 20.7262 77.0733 20.7785Z" fill="#231F20"/>
<path fill-rule="evenodd" clip-rule="evenodd" d="M77.0023 19.4052L78.3146 19.2685C78.3053 19.149 78.2926 19.0295 78.2785 18.9122L76.9707 19.0467C76.9817 19.1681 76.9956 19.2857 77.0023 19.4052Z" fill="#231F20"/>
<path fill-rule="evenodd" clip-rule="evenodd" d="M46.7332 22.2256L45.4199 22.3642C45.4352 22.4837 45.4512 22.6006 45.4646 22.7215L46.7731 22.5824C46.7624 22.4639 46.7416 22.3446 46.7332 22.2256Z" fill="#231F20"/>
<path fill-rule="evenodd" clip-rule="evenodd" d="M76.7857 17.8385L78.0741 17.5651C78.0502 17.4456 78.0223 17.3316 77.996 17.2126L76.707 17.4834C76.7338 17.6029 76.7611 17.7195 76.7857 17.8385Z" fill="#231F20"/>
<path fill-rule="evenodd" clip-rule="evenodd" d="M46.9601 23.8107L45.6738 24.0843C45.6977 24.2038 45.735 24.3169 45.7599 24.4347L47.0476 24.1591C47.0211 24.0437 46.9847 23.9297 46.9601 23.8107Z" fill="#231F20"/>
<path fill-rule="evenodd" clip-rule="evenodd" d="M76.4012 16.3021L77.6522 15.8946C77.617 15.782 77.5699 15.6695 77.5326 15.5571L76.2812 15.962C76.32 16.077 76.3659 16.1871 76.4012 16.3021Z" fill="#231F20"/>
<path fill-rule="evenodd" clip-rule="evenodd" d="M47.3652 25.3582L46.1152 25.7645C46.1487 25.8797 46.1991 25.9899 46.2371 26.1022L47.4885 25.6976C47.4503 25.5833 47.4013 25.4727 47.3652 25.3582Z" fill="#231F20"/>
<path fill-rule="evenodd" clip-rule="evenodd" d="M47.9327 26.8534L46.7324 27.3887C46.7786 27.4989 46.8374 27.6038 46.8873 27.7121L48.0873 27.1753C48.0381 27.0673 47.9802 26.9657 47.9327 26.8534Z" fill="#231F20"/>
<path fill-rule="evenodd" clip-rule="evenodd" d="M75.855 14.8143L77.0553 14.2806C77.0094 14.1704 76.9496 14.0655 76.8999 13.9558L75.6973 14.4921C75.7496 14.6011 75.8063 14.7051 75.855 14.8143Z" fill="#231F20"/>
<path fill-rule="evenodd" clip-rule="evenodd" d="M48.6519 28.2776L47.5117 28.9343C47.5727 29.0378 47.6372 29.1391 47.6982 29.2429L48.8358 28.5866C48.7779 28.4821 48.7098 28.383 48.6519 28.2776Z" fill="#231F20"/>
<path fill-rule="evenodd" clip-rule="evenodd" d="M75.1506 13.394L76.2887 12.7374C76.2304 12.6316 76.1654 12.5343 76.1051 12.4284L74.9668 13.0885C75.0249 13.1889 75.0923 13.2883 75.1506 13.394Z" fill="#231F20"/>
<path fill-rule="evenodd" clip-rule="evenodd" d="M49.5164 29.6195L48.4531 30.3939C48.5248 30.4895 48.5966 30.5851 48.6683 30.6783L49.7301 29.9089C49.6579 29.8119 49.5852 29.718 49.5164 29.6195Z" fill="#231F20"/>
<path fill-rule="evenodd" clip-rule="evenodd" d="M74.3081 12.0565L75.369 11.2826C75.2992 11.1846 75.2231 11.0926 75.1538 10.9958L74.0898 11.768C74.1594 11.8641 74.238 11.9583 74.3081 12.0565Z" fill="#231F20"/>
<path fill-rule="evenodd" clip-rule="evenodd" d="M73.3248 10.8116L74.3001 9.93161C74.2226 9.84247 74.1437 9.75475 74.061 9.6637L73.0879 10.5437C73.1646 10.6338 73.2454 10.7191 73.3248 10.8116Z" fill="#231F20"/>
<path fill-rule="evenodd" clip-rule="evenodd" d="M50.5134 30.8649L49.5371 31.743C49.6177 31.8307 49.6989 31.9213 49.7824 32.0059L50.7529 31.1285C50.6747 31.0413 50.592 30.9507 50.5134 30.8649Z" fill="#231F20"/>
<path fill-rule="evenodd" clip-rule="evenodd" d="M51.635 31.9988L50.752 32.9703C50.8423 33.052 50.9298 33.1376 51.019 33.2134L51.8991 32.2383C51.8102 32.1596 51.7225 32.0779 51.635 31.9988Z" fill="#231F20"/>
<path fill-rule="evenodd" clip-rule="evenodd" d="M72.2212 9.67057L73.0994 8.69618C73.0117 8.6142 72.9242 8.53437 72.8343 8.45407L71.957 9.43109C72.0414 9.50733 72.1315 9.5917 72.2212 9.67057Z" fill="#231F20"/>
<path fill-rule="evenodd" clip-rule="evenodd" d="M52.8646 33.008L52.0918 34.0699C52.1915 34.1416 52.283 34.2157 52.382 34.285L53.1541 33.221C53.0552 33.1533 52.9605 33.0797 52.8646 33.008Z" fill="#231F20"/>
<path fill-rule="evenodd" clip-rule="evenodd" d="M71.0046 8.65413L71.7777 7.59083C71.6821 7.51913 71.5884 7.44361 71.4909 7.37573L70.7188 8.43927C70.8144 8.50691 70.9112 8.57813 71.0046 8.65413Z" fill="#231F20"/>
<path fill-rule="evenodd" clip-rule="evenodd" d="M69.6895 7.76359L70.3481 6.6238C70.246 6.56333 70.1475 6.49833 70.04 6.43762L69.3848 7.57645C69.4885 7.63596 69.5865 7.70168 69.6895 7.76359Z" fill="#231F20"/>
<path fill-rule="evenodd" clip-rule="evenodd" d="M54.1911 33.8842L53.5352 35.0245C53.6394 35.0828 53.7376 35.1535 53.8433 35.2107L54.5014 34.0709C54.3936 34.0147 54.2965 33.9478 54.1911 33.8842Z" fill="#231F20"/>
<path fill-rule="evenodd" clip-rule="evenodd" d="M55.6063 34.6189L55.0742 35.8213C55.182 35.8691 55.287 35.9315 55.3943 35.9759L55.9312 34.7788C55.8205 34.7288 55.7182 34.6681 55.6063 34.6189Z" fill="#231F20"/>
<path fill-rule="evenodd" clip-rule="evenodd" d="M68.291 7.01363L68.8241 5.81457C68.7191 5.76319 68.6137 5.70702 68.5038 5.65564L67.9707 6.85995C68.0773 6.90608 68.1822 6.96344 68.291 7.01363Z" fill="#231F20"/>
<path fill-rule="evenodd" clip-rule="evenodd" d="M66.8178 6.41589L67.2241 5.16474C67.1104 5.12506 66.9997 5.07893 66.8868 5.03998L66.4805 6.29018C66.599 6.32866 66.7047 6.37431 66.8178 6.41589Z" fill="#231F20"/>
<path fill-rule="evenodd" clip-rule="evenodd" d="M57.0861 35.2018L56.6797 36.4537C56.7963 36.4914 56.9018 36.5359 57.0187 36.5732L57.4272 35.3189C57.3105 35.2838 57.1987 35.2398 57.0861 35.2018Z" fill="#231F20"/>
<path fill-rule="evenodd" clip-rule="evenodd" d="M58.6216 35.6258L58.3477 36.9152C58.465 36.9369 58.5786 36.963 58.6976 36.9869L58.9718 35.6992C58.8539 35.6781 58.7383 35.6502 58.6216 35.6258Z" fill="#231F20"/>
<path fill-rule="evenodd" clip-rule="evenodd" d="M65.2892 5.97328L65.5622 4.68603C65.4458 4.65998 65.3318 4.62246 65.2144 4.59808L64.9414 5.88294C65.0571 5.91114 65.1726 5.94699 65.2892 5.97328Z" fill="#231F20"/>
<path fill-rule="evenodd" clip-rule="evenodd" d="M60.1875 35.8853L60.0508 37.1924C60.1703 37.2077 60.2867 37.213 60.406 37.2233L60.5449 35.9176C60.4239 35.9064 60.3054 35.8999 60.1875 35.8853Z" fill="#231F20"/>
<path fill-rule="evenodd" clip-rule="evenodd" d="M63.7195 5.69746L63.8591 4.38751C63.7381 4.37246 63.6214 4.34855 63.5022 4.3378L63.3633 5.64512C63.4838 5.65564 63.6018 5.6824 63.7195 5.69746Z" fill="#231F20"/>
</svg>
