<svg width="76" height="49" viewBox="0 0 76 49" fill="none" xmlns="http://www.w3.org/2000/svg">
  <g opacity="0.5">
    <path d="M75.5447 16.72C75.5516 16.5262 75.5742 16.3373 75.5742 16.1405C75.5742 16.0749 75.5654 16.0113 75.5644 15.9467C75.5654 15.8175 75.5742 15.6902 75.5742 15.561L75.5457 15.5806C75.2471 6.92748 68.1314 -7.62939e-05 59.3759 -7.62939e-05C50.4311 -7.62939e-05 43.1787 7.22593 43.1787 16.1404C43.1787 24.2738 49.2228 30.9828 57.0765 32.099C55.1246 38.5466 49.1267 43.2384 42.0156 43.2384V49C60.1716 48.999 74.9306 34.6625 75.5442 16.719L75.5447 16.72Z" fill="#EFF1F2" />
    <path d="M33.5291 16.72C33.536 16.5262 33.5586 16.3373 33.5586 16.1405C33.5586 16.0749 33.5488 16.0113 33.5488 15.9467C33.5498 15.8175 33.5586 15.6902 33.5586 15.561L33.5291 15.5806C33.2305 6.92748 26.1148 -7.62939e-05 17.3613 -7.62939e-05C8.41449 -7.62939e-05 1.16408 7.22593 1.16408 16.1404C1.16408 24.2738 7.20818 30.9828 15.0619 32.099C13.11 38.5466 7.11212 43.2384 0.00203323 43.2384V49C18.158 48.999 32.9145 34.6625 33.5281 16.719L33.5291 16.72Z" fill="#EFF1F2" />
  </g>
</svg>
  