<svg width="76" height="49" viewBox="0 0 76 49" fill="none" xmlns="http://www.w3.org/2000/svg">
  <g opacity="0.5">
    <path d="M0.0294692 16.72C0.022593 16.5262 0 16.3373 0 16.1405C0 16.0749 0.00884083 16.0113 0.00982308 15.9467C0.00884083 15.8175 0 15.6902 0 15.561L0.0284869 15.5806C0.327109 6.92748 7.44286 -7.62939e-05 16.1983 -7.62939e-05C25.1431 -7.62939e-05 32.3955 7.22593 32.3955 16.1404C32.3955 24.2738 26.3514 30.9828 18.4978 32.099C20.4496 38.5466 26.4475 43.2384 33.5586 43.2384V49C15.4027 48.999 0.643584 34.6625 0.0299949 16.719L0.0294692 16.72Z" fill="#EFF1F2" />
    <path d="M42.0451 16.72C42.0382 16.5262 42.0156 16.3373 42.0156 16.1405C42.0156 16.0749 42.0254 16.0113 42.0254 15.9467C42.0245 15.8175 42.0156 15.6902 42.0156 15.561L42.0451 15.5806C42.3437 6.92748 49.4595 -7.62939e-05 58.2129 -7.62939e-05C67.1597 -7.62939e-05 74.4101 7.22593 74.4101 16.1404C74.4101 24.2738 68.366 30.9828 60.5124 32.099C62.4642 38.5466 68.4621 43.2384 75.5722 43.2384V49C57.4162 48.999 42.6597 34.6625 42.0461 16.719L42.0451 16.72Z" fill="#EFF1F2" />
  </g>
</svg>
  