<svg width="360" height="675" viewBox="0 0 360 675" fill="none" xmlns="http://www.w3.org/2000/svg">
<rect width="360" height="675" fill="#FAFAFA"/>
<g clip-path="url(#clip0_7596_576)">
<path opacity="0.1" d="M178.94 566.219C288.838 566.219 377.927 559.3 377.927 550.765C377.927 542.231 288.838 535.312 178.94 535.312C69.0426 535.312 -20.0469 542.231 -20.0469 550.765C-20.0469 559.3 69.0426 566.219 178.94 566.219Z" fill="#AFA089"/>
<g opacity="0.1">
<g opacity="0.1">
<path d="M346.788 448.477C346.297 448.96 345.757 449.391 345.178 449.764C345.251 451.101 345.075 452.44 344.658 453.712C345.026 453.203 345.355 452.666 345.641 452.106C346.222 450.967 346.609 449.742 346.788 448.477Z" fill="#231F20"/>
<path d="M340.339 434.682C340.296 433.994 340.323 433.301 340.419 432.617C339.51 433.513 338.753 434.553 338.181 435.694C337.898 436.257 337.66 436.841 337.469 437.441C338.244 436.349 339.218 435.413 340.339 434.682Z" fill="#231F20"/>
<path d="M308.064 495.525C308.474 494.956 308.936 494.426 309.446 493.943C309.526 493.308 309.662 492.681 309.853 492.07C309.446 492.617 309.088 493.198 308.782 493.807C308.498 494.36 308.258 494.936 308.064 495.525Z" fill="#231F20"/>
<path d="M311.598 488.55C312.007 487.979 312.469 487.45 312.979 486.967C313.055 486.348 313.186 485.737 313.368 485.141C312.979 485.672 312.634 486.234 312.338 486.822C312.048 487.379 311.801 487.956 311.598 488.55Z" fill="#231F20"/>
<path d="M306.326 499.031C305.919 499.578 305.56 500.159 305.254 500.768C304.969 501.333 304.728 501.919 304.533 502.52C304.951 501.947 305.421 501.413 305.938 500.927C306.01 500.285 306.139 499.65 306.326 499.031Z" fill="#231F20"/>
<path d="M335.234 444.737C335.19 444.047 335.217 443.356 335.313 442.672C334.403 443.568 333.648 444.607 333.075 445.749C332.792 446.311 332.554 446.895 332.363 447.495C333.138 446.404 334.111 445.468 335.234 444.737Z" fill="#231F20"/>
<path d="M327.885 485.738C327.793 486.434 327.637 487.121 327.418 487.789C327.784 487.277 328.111 486.739 328.396 486.178C328.703 485.576 328.959 484.949 329.159 484.305C328.776 484.818 328.35 485.297 327.885 485.738Z" fill="#231F20"/>
<path d="M320.826 499.703C320.734 500.399 320.577 501.086 320.357 501.754C320.727 501.243 321.055 500.705 321.34 500.143C321.646 499.54 321.901 498.914 322.104 498.27C321.721 498.783 321.292 499.263 320.826 499.703Z" fill="#231F20"/>
<path d="M324.357 492.718C324.265 493.414 324.109 494.101 323.889 494.769C324.261 494.267 324.596 493.738 324.891 493.186C325.197 492.584 325.453 491.957 325.653 491.312C325.261 491.817 324.828 492.286 324.357 492.718Z" fill="#231F20"/>
<path d="M331.418 478.755C331.326 479.45 331.169 480.135 330.949 480.802C331.317 480.293 331.644 479.755 331.928 479.196C332.238 478.583 332.495 477.946 332.695 477.289C332.314 477.815 331.887 478.305 331.418 478.755Z" fill="#231F20"/>
<path d="M308.301 461.098C311.915 459.914 316.11 462.812 317.664 467.574C317.883 468.263 318.04 468.97 318.133 469.687C318.935 470.313 319.636 471.06 320.211 471.901C320.427 470.968 320.754 470.064 321.185 469.208C321.349 468.89 321.527 468.586 321.71 468.272C321.178 467.537 320.548 466.878 319.837 466.315C319.745 465.599 319.588 464.894 319.368 464.207C317.805 459.445 313.609 456.542 310.005 457.731C307.944 458.406 306.521 460.264 305.969 462.615C306.602 461.917 307.405 461.395 308.301 461.098Z" fill="#231F20"/>
<path d="M325.064 464.846C325.022 464.158 325.05 463.467 325.148 462.785C324.235 463.679 323.478 464.72 322.906 465.862C322.622 466.422 322.383 467.005 322.193 467.603C322.971 466.514 323.943 465.578 325.064 464.846Z" fill="#231F20"/>
<path d="M330.15 454.787C330.108 454.098 330.136 453.409 330.234 452.727C329.32 453.618 328.563 454.656 327.991 455.798C327.708 456.36 327.47 456.944 327.279 457.545C328.054 456.454 329.028 455.517 330.15 454.787Z" fill="#231F20"/>
<path d="M317.297 506.683C317.204 507.381 317.048 508.069 316.828 508.738C317.598 507.672 318.187 506.487 318.574 505.23C318.192 505.751 317.764 506.237 317.297 506.683Z" fill="#231F20"/>
</g>
<path opacity="0.1" d="M335.9 455.754C332.576 454.072 331.564 449.311 333.512 444.918C333.409 445.096 333.306 445.278 333.212 445.47C330.913 450.013 331.868 455.117 335.337 456.873C338.807 458.629 343.48 456.367 345.778 451.824C345.872 451.637 345.961 451.446 346.045 451.259C343.663 455.43 339.228 457.44 335.9 455.754Z" fill="#231F20"/>
<path opacity="0.1" d="M330.972 465.555C327.644 463.874 326.637 459.111 328.58 454.719C328.477 454.896 328.379 455.079 328.28 455.266C325.986 459.809 326.936 464.918 330.406 466.674C333.875 468.43 338.553 466.168 340.847 461.621C340.945 461.434 341.03 461.247 341.113 461.055C338.716 465.203 334.283 467.212 330.972 465.555Z" fill="#231F20"/>
<path opacity="0.1" d="M326.014 475.304C322.685 473.623 321.678 468.86 323.621 464.469C323.519 464.646 323.42 464.829 323.327 465.021C321.028 469.564 321.978 474.667 325.447 476.423C328.917 478.18 333.594 475.918 335.893 471.375C335.986 471.188 336.076 470.996 336.16 470.809C333.781 474.981 329.338 476.99 326.014 475.304Z" fill="#231F20"/>
<path opacity="0.1" d="M321.072 485.081C317.749 483.4 316.737 478.638 318.685 474.246C318.582 474.424 318.479 474.606 318.385 474.794C316.086 479.336 317.036 484.444 320.511 486.2C323.985 487.956 328.634 485.69 330.976 481.148C331.069 480.96 331.158 480.773 331.242 480.581C328.831 484.754 324.421 486.762 321.072 485.081Z" fill="#231F20"/>
<path opacity="0.1" d="M316.128 494.855C312.804 493.174 311.792 488.411 313.74 484.02C313.637 484.202 313.539 484.38 313.44 484.572C311.146 489.114 312.096 494.218 315.566 495.974C319.035 497.731 323.713 495.469 326.007 490.926C326.106 490.739 326.19 490.547 326.274 490.359C323.891 494.532 319.457 496.541 316.128 494.855Z" fill="#231F20"/>
<path opacity="0.1" d="M311.19 504.632C307.861 502.951 306.854 498.189 308.798 493.797C308.694 493.975 308.596 494.157 308.502 494.344C306.204 498.887 307.154 503.995 310.623 505.751C314.093 507.507 318.77 505.246 321.069 500.699C321.162 500.511 321.247 500.324 321.331 500.132C318.948 504.304 314.514 506.295 311.19 504.632Z" fill="#231F20"/>
<path opacity="0.1" d="M307.94 511.056C304.615 509.37 303.604 504.612 305.552 500.215C305.448 500.397 305.346 500.58 305.253 500.767C302.953 505.31 303.904 510.419 307.373 512.17C310.843 513.921 315.52 511.669 317.819 507.122C317.912 506.935 318.001 506.748 318.086 506.556C315.697 510.727 311.264 512.737 307.94 511.056Z" fill="#231F20"/>
<path d="M321.006 452.271C321.199 451.889 321.291 451.464 321.273 451.037C321.256 450.609 321.128 450.193 320.903 449.829C320.679 449.465 320.365 449.165 319.991 448.957C319.617 448.749 319.197 448.64 318.768 448.641C318.059 444.879 316.134 441.451 313.291 438.888C313.749 437.1 313.922 435.251 313.805 433.408L304.606 431.84L313.538 431.278C313.378 430.439 313.157 429.613 312.879 428.805C313.226 428.566 313.51 428.244 313.703 427.869C313.928 427.421 314.014 426.917 313.949 426.419C313.885 425.923 313.673 425.456 313.341 425.081C313.008 424.706 312.571 424.44 312.086 424.315C311.6 424.191 311.088 424.216 310.617 424.385C308.252 421.041 304.789 418.632 300.832 417.576C296.874 416.521 292.672 416.885 288.956 418.606C285.239 420.326 282.242 423.296 280.487 426.997C278.731 430.698 278.327 434.896 279.346 438.864C278.804 439.093 278.362 439.508 278.1 440.034C277.871 440.488 277.784 441.001 277.853 441.504C277.922 442.008 278.143 442.479 278.487 442.854C278.831 443.228 279.28 443.49 279.775 443.603C280.271 443.715 280.789 443.675 281.26 443.486C282.159 444.994 283.277 446.36 284.58 447.536C283.632 451.235 283.918 455.142 285.395 458.663L297.732 455.459L286.729 461.248C288.674 464.34 291.538 466.746 294.918 468.13C298.298 469.514 302.026 469.808 305.581 468.969C309.136 468.13 312.34 466.2 314.745 463.451C317.15 460.701 318.635 457.269 318.993 453.633C319.417 453.597 319.824 453.453 320.177 453.213C320.529 452.975 320.815 452.651 321.006 452.271Z" fill="#9DD9C9"/>
<path opacity="0.1" d="M321.008 452.272C321.201 451.89 321.294 451.465 321.275 451.038C321.257 450.61 321.13 450.195 320.906 449.83C320.681 449.466 320.366 449.166 319.993 448.958C319.619 448.75 319.198 448.641 318.771 448.642C318.061 444.88 316.136 441.452 313.293 438.889C313.368 438.594 313.433 438.304 313.489 438.008C313.162 438.245 312.86 438.513 312.585 438.809C310.924 440.63 310.071 443.08 308.428 444.92C306.489 447.093 303.586 448.226 300.688 448.53C297.79 448.834 294.873 448.39 292.013 447.832C289.643 447.365 287.241 446.821 284.839 447.051C284.605 447.051 284.371 447.102 284.156 447.14C284.296 447.275 284.437 447.411 284.582 447.542C283.634 451.241 283.92 455.147 285.397 458.669L297.734 455.46L286.732 461.249C288.677 464.341 291.539 466.747 294.919 468.131C298.3 469.515 302.028 469.809 305.583 468.97C309.138 468.131 312.342 466.201 314.746 463.452C317.151 460.702 318.637 457.27 318.995 453.634C319.419 453.598 319.827 453.454 320.179 453.215C320.531 452.976 320.816 452.652 321.008 452.272Z" fill="#231F20"/>
</g>
<g opacity="0.1">
<path d="M1.42688 480.693C2.02618 478.871 4.45616 478.033 6.85337 478.82C7.19816 478.932 7.53196 479.076 7.85065 479.25C8.00515 479.208 8.16434 479.171 8.31885 479.143C8.18731 478.619 8.13677 478.079 8.16902 477.542C7.34612 476.984 6.67897 476.227 6.23077 475.341C5.78258 474.453 5.5682 473.467 5.60795 472.475C4.77785 471.928 4.10868 471.17 3.66958 470.279C3.21202 469.395 2.99714 468.406 3.04687 467.412C2.21734 466.864 1.54843 466.104 1.10851 465.212C-0.0432775 462.926 0.424924 460.356 2.18069 459.466C3.93646 458.576 6.28684 459.723 7.44331 462.008C7.90006 462.894 8.11334 463.884 8.06134 464.879C8.88644 465.433 9.55539 466.189 10.0039 467.075C10.4524 467.962 10.6654 468.948 10.6224 469.942C11.4472 470.496 12.1159 471.253 12.5643 472.14C13.0127 473.027 13.2259 474.014 13.1835 475.008C14.0086 475.561 14.6775 476.318 15.1261 477.203C15.5746 478.09 15.7876 479.077 15.7446 480.07C16.5758 480.618 17.2464 481.378 17.6876 482.27C17.8981 482.703 18.0554 483.159 18.1558 483.629C18.4443 483.204 18.7964 482.827 19.1999 482.51C19.248 482.148 19.3295 481.793 19.4434 481.446C20.2347 479.049 22.3462 477.588 24.1675 478.169C25.9888 478.749 26.8223 481.198 26.0404 483.596C25.7173 484.626 25.0965 485.536 24.2565 486.214C24.2078 486.573 24.1264 486.927 24.0131 487.272C23.6288 488.543 22.7727 489.619 21.6206 490.279C21.7109 490.585 21.7766 490.898 21.8172 491.215C22.3006 491.679 22.7012 492.222 23.0017 492.821C23.308 493.419 23.5077 494.065 23.5917 494.732C24.0769 495.195 24.4791 495.739 24.7809 496.338C25.0866 496.935 25.2862 497.582 25.3709 498.248C25.8572 498.712 26.2596 499.257 26.5601 499.859C27.7166 502.145 27.2389 504.72 25.4926 505.6C23.7462 506.481 21.3864 505.347 20.23 503.057C19.925 502.46 19.7255 501.813 19.6401 501.146C18.6645 500.211 18.037 498.971 17.8609 497.63C16.8854 496.694 16.2578 495.454 16.0816 494.113C15.5968 493.649 15.1946 493.107 14.8924 492.507C14.5896 491.908 14.3902 491.262 14.3025 490.597C13.8191 490.133 13.4185 489.589 13.1179 488.991C12.8116 488.393 12.612 487.747 12.528 487.08C12.2266 486.799 11.958 486.484 11.7274 486.143C10.7641 486.34 9.7658 486.279 8.83388 485.966C8.48777 485.849 8.15249 485.704 7.83192 485.53C6.7906 485.806 5.69059 485.768 4.67154 485.417C2.29775 484.626 0.832261 482.514 1.42688 480.693Z" fill="#373435"/>
<g opacity="0.1">
<path d="M5.6543 473.516C5.90253 473.761 6.17557 473.979 6.46898 474.167C6.42933 474.839 6.51832 475.514 6.73118 476.152C6.54304 475.897 6.37701 475.626 6.23488 475.343C5.94204 474.77 5.74586 474.152 5.6543 473.516Z" fill="#231F20"/>
<path d="M3.0918 468.457C3.3413 468.699 3.6142 468.915 3.90648 469.103C3.86715 469.778 3.95611 470.453 4.16867 471.094C3.60153 470.315 3.23197 469.411 3.0918 468.457Z" fill="#231F20"/>
<path d="M8.91441 466.572C8.93668 466.225 8.92414 465.876 8.87695 465.531C9.33468 465.984 9.71581 466.507 10.0053 467.082C10.1467 467.365 10.2657 467.66 10.3611 467.962C9.97098 467.411 9.4801 466.939 8.91441 466.572Z" fill="#231F20"/>
<path d="M25.1607 497.225C24.956 496.938 24.724 496.672 24.4677 496.429C24.425 496.112 24.3561 495.799 24.2617 495.492C24.465 495.768 24.645 496.059 24.8002 496.363C24.9423 496.641 25.0627 496.929 25.1607 497.225Z" fill="#231F20"/>
<path d="M23.3681 493.709C23.1634 493.422 22.9313 493.156 22.6751 492.913C22.6369 492.596 22.5711 492.283 22.4785 491.977C22.8642 492.499 23.1616 493.081 23.3587 493.7L23.3681 493.709Z" fill="#231F20"/>
<path d="M8.22121 478.593C8.46699 478.835 8.73861 479.051 9.0312 479.235C8.9962 479.773 9.04677 480.314 9.18103 480.836C9.02321 480.864 8.86695 480.9 8.71283 480.944C8.39212 480.771 8.05684 480.627 7.71087 480.513C5.31366 479.726 2.88368 480.564 2.28906 482.386C2.14003 482.839 2.11259 483.324 2.20947 483.791C1.82426 483.386 1.5503 482.888 1.41413 482.345C1.27795 481.803 1.28419 481.235 1.43224 480.696C2.03154 478.874 4.46153 478.036 6.85874 478.823C7.20353 478.935 7.53734 479.079 7.85601 479.253C8.01052 479.211 8.16971 479.174 8.32421 479.146C8.27919 478.963 8.2448 478.779 8.22121 478.593Z" fill="#231F20"/>
<path d="M26.041 498.988C26.2452 499.264 26.4254 499.557 26.5795 499.864C26.7224 500.148 26.8429 500.442 26.94 500.744C26.7353 500.456 26.5033 500.188 26.247 499.944C26.2053 499.62 26.1364 499.3 26.041 498.988Z" fill="#231F20"/>
<path d="M11.4749 471.641C11.4973 471.294 11.4847 470.946 11.4375 470.602C11.8963 471.053 12.2775 471.577 12.5658 472.152C12.7072 472.433 12.8261 472.726 12.9217 473.027C12.5314 472.478 12.0405 472.008 11.4749 471.641Z" fill="#231F20"/>
<path d="M15.1781 492.294C15.222 492.644 15.2988 492.989 15.4076 493.324C15.0174 492.789 14.7199 492.193 14.5273 491.559C14.7219 491.823 14.9397 492.069 15.1781 492.294Z" fill="#231F20"/>
<path d="M18.7301 499.326C18.7773 499.676 18.8556 500.02 18.9642 500.357C18.776 500.101 18.6101 499.83 18.4679 499.546C18.3139 499.245 18.1855 498.932 18.084 498.609C18.28 498.865 18.4961 499.105 18.7301 499.326Z" fill="#231F20"/>
<path d="M16.9574 495.81C17.0013 496.16 17.0781 496.505 17.1869 496.84C17.0004 496.584 16.8344 496.313 16.6906 496.03C16.5361 495.73 16.4075 495.417 16.3066 495.094C16.5021 495.351 16.7198 495.591 16.9574 495.81Z" fill="#231F20"/>
<path d="M13.4008 488.77C13.4441 489.122 13.521 489.469 13.6302 489.805C13.4527 489.548 13.2962 489.278 13.162 488.995C13.0051 488.695 12.875 488.381 12.7734 488.059C12.9604 488.314 13.1705 488.552 13.4008 488.77Z" fill="#231F20"/>
<path d="M25.0428 479.88C23.2215 479.281 21.1099 480.742 20.3234 483.159C20.2095 483.505 20.128 483.861 20.0799 484.221C19.6749 484.537 19.3212 484.913 19.0311 485.336C18.9225 484.866 18.7573 484.41 18.5395 483.978C18.4599 483.819 18.3709 483.664 18.2773 483.509C18.5431 483.141 18.8581 482.81 19.2137 482.527C19.2618 482.166 19.3433 481.809 19.4572 481.463C20.2484 479.066 22.36 477.605 24.1813 478.186C24.7037 478.386 25.1652 478.718 25.5212 479.149C25.8773 479.582 26.1157 480.098 26.2134 480.649C25.8952 480.297 25.4922 480.032 25.0428 479.88Z" fill="#231F20"/>
<path d="M16.5961 481.766C16.6184 481.419 16.6058 481.07 16.5586 480.727C17.0175 481.177 17.3987 481.701 17.687 482.276C17.8284 482.56 17.9473 482.854 18.0429 483.157C17.6539 482.604 17.1628 482.133 16.5961 481.766Z" fill="#231F20"/>
<path d="M14.0355 476.699C14.0578 476.353 14.0452 476.004 13.998 475.66C14.4547 476.113 14.8357 476.636 15.1264 477.21C15.2678 477.494 15.3868 477.788 15.4823 478.09C15.0922 477.54 14.6012 477.067 14.0355 476.699Z" fill="#231F20"/>
<path d="M20.5134 502.845C20.5583 503.197 20.6366 503.544 20.7474 503.881C20.5603 503.623 20.3943 503.35 20.2511 503.065C20.0971 502.765 19.9688 502.452 19.8672 502.129C20.0633 502.384 20.2793 502.625 20.5134 502.845Z" fill="#231F20"/>
</g>
<path d="M-2.06922 457.285C-2.89932 456.739 -3.56849 455.981 -4.00759 455.089C-5.16406 452.799 -4.68649 450.228 -2.94008 449.343C-1.19368 448.458 1.16607 449.596 2.32253 451.886C2.77996 452.769 2.99331 453.758 2.94056 454.751C3.76539 455.307 4.43404 456.064 4.88247 456.951C5.3309 457.838 5.54409 458.825 5.50164 459.818C6.33227 460.366 7.00279 461.124 7.44469 462.014C7.5852 462.296 7.70416 462.587 7.80052 462.886C7.18032 462 6.2874 461.343 5.25818 461.012C5.14353 461.378 4.95714 461.718 4.70989 462.01C4.46264 462.303 4.15948 462.545 3.81816 462.718C3.47684 462.893 3.10418 462.998 2.72197 463.026C2.33976 463.055 1.95567 463.008 1.59214 462.886C1.245 463.91 1.245 465.022 1.59214 466.047C1.41622 465.791 1.25972 465.524 1.12393 465.246C0.666384 464.363 0.451495 463.374 0.501222 462.38C-0.322642 461.824 -0.990543 461.067 -1.43886 460.18C-1.88717 459.293 -2.10096 458.307 -2.05986 457.313L-2.06922 457.285Z" fill="#373435"/>
<path d="M-30.2197 424.816C-30.9299 424.483 -31.6166 424.103 -32.275 423.677L-24.6527 418.105L-33.6141 422.718C-35.4261 421.277 -36.9249 419.481 -38.0189 417.44C-39.113 415.4 -39.7793 413.158 -39.977 410.852L-24.7416 411.01L-40.0098 408.454C-39.8783 406.125 -39.2686 403.847 -38.2187 401.763C-37.1686 399.679 -35.701 397.835 -33.9069 396.343C-32.1129 394.852 -30.0309 393.746 -27.7908 393.094C-25.5507 392.443 -23.2005 392.259 -20.8865 392.556C-18.5725 392.853 -16.3443 393.622 -14.3408 394.818C-12.3373 396.013 -10.6014 397.609 -9.24125 399.504C-7.88108 401.4 -6.92579 403.555 -6.43492 405.836C-5.94404 408.117 -5.92808 410.474 -6.38805 412.762C-5.28211 413.273 -4.23367 413.902 -3.26044 414.636L-11.2199 425.705L-1.66387 416.022C0.352623 418.002 1.84357 420.455 2.67413 423.157C3.5047 425.859 3.64869 428.726 3.09308 431.497C5.98384 432.844 8.43733 434.977 10.173 437.653C11.9087 440.329 12.8564 443.439 12.9078 446.628C12.9594 449.817 12.1125 452.956 10.4642 455.686C8.81577 458.416 6.43243 460.628 3.58666 462.067C0.740898 463.506 -2.45242 464.115 -5.62812 463.825C-8.80382 463.535 -11.8338 462.357 -14.3713 460.425C-16.9089 458.493 -18.8518 455.886 -19.9777 452.903C-21.1037 449.918 -21.3673 446.678 -20.7385 443.551C-24.1888 441.943 -26.9989 439.222 -28.7181 435.826C-30.4375 432.429 -30.9663 428.553 -30.2197 424.82V424.816Z" fill="#9DD9C9"/>
<path opacity="0.1" d="M1.59667 420.499C3.32346 423.898 3.85142 427.781 3.09492 431.518C5.98568 432.864 8.43916 434.997 10.1748 437.673C11.9105 440.348 12.8582 443.459 12.9097 446.648C12.9612 449.837 12.1144 452.976 10.466 455.706C8.81761 458.437 6.43427 460.648 3.5885 462.087C0.742731 463.526 -2.45058 464.136 -5.62629 463.845C-8.80199 463.555 -11.8319 462.376 -14.3695 460.444C-16.9071 458.513 -18.8499 455.907 -19.9759 452.922C-21.1019 449.939 -21.3655 446.698 -20.7366 443.571C-24.0749 442.021 0.739855 418.799 1.59667 420.499Z" fill="#231F20"/>
<path d="M3.46698 428.384C4.86073 428.384 5.99061 427.254 5.99061 425.86C5.99061 424.467 4.86073 423.336 3.46698 423.336C2.07322 423.336 0.943359 424.467 0.943359 425.86C0.943359 427.254 2.07322 428.384 3.46698 428.384Z" fill="#9DD9C9"/>
<path opacity="0.1" d="M3.46698 428.384C4.86073 428.384 5.99061 427.254 5.99061 425.86C5.99061 424.467 4.86073 423.336 3.46698 423.336C2.07322 423.336 0.943359 424.467 0.943359 425.86C0.943359 427.254 2.07322 428.384 3.46698 428.384Z" fill="#231F20"/>
<path opacity="0.1" d="M6.15967 467.339C7.83584 466.492 8.3415 464.094 7.36295 461.879C7.41446 461.972 7.46595 462.061 7.51278 462.156C8.66925 464.445 8.19168 467.016 6.4406 467.901C4.68951 468.786 2.33912 467.648 1.18266 465.358C1.13584 465.265 1.08902 465.171 1.04688 465.073C2.25017 467.175 4.48349 468.187 6.15967 467.339Z" fill="#231F20"/>
<path opacity="0.1" d="M8.64522 472.266C10.3214 471.417 10.8318 469.015 9.85315 466.805C9.9047 466.894 9.95616 466.988 10.003 467.081C11.1595 469.371 10.6819 471.942 8.93083 472.827C7.17974 473.712 4.82937 472.574 3.67289 470.284C3.6214 470.191 3.57925 470.093 3.53711 469.999C4.7404 472.111 6.97841 473.113 8.64522 472.266Z" fill="#231F20"/>
<path opacity="0.1" d="M11.1374 477.186C12.8136 476.339 13.324 473.942 12.3407 471.727C12.3969 471.821 12.4437 471.909 12.4952 472.008C13.6517 474.293 13.1694 476.868 11.4231 477.748C9.67663 478.629 7.32153 477.496 6.16507 475.206C6.11357 475.113 6.07143 475.018 6.0293 474.92C7.2279 477.023 9.46123 478.035 11.1374 477.186Z" fill="#231F20"/>
<path opacity="0.1" d="M13.6276 482.113C15.3038 481.265 15.8141 478.867 14.8309 476.652C14.8825 476.742 14.9339 476.836 14.9808 476.929C16.1419 479.219 15.6597 481.789 13.9132 482.675C12.1668 483.56 9.80713 482.422 8.65063 480.132C8.60381 480.038 8.56167 479.94 8.51953 479.846C9.71814 481.944 11.9515 482.96 13.6276 482.113Z" fill="#231F20"/>
<path opacity="0.1" d="M16.1207 487.033C17.7968 486.186 18.3025 483.788 17.3239 481.578C17.3754 481.667 17.4269 481.761 17.4738 481.855C18.6302 484.144 18.1526 486.715 16.4063 487.6C14.6598 488.485 12.3001 487.343 11.1437 485.057C11.0968 484.959 11.0547 484.865 11.0078 484.772C12.2112 486.87 14.4445 487.881 16.1207 487.033Z" fill="#231F20"/>
<path opacity="0.1" d="M18.6108 491.961C20.287 491.113 20.7927 488.715 19.8141 486.5C19.8656 486.594 19.9171 486.683 19.9639 486.777C21.1204 489.067 20.6428 491.637 18.8964 492.523C17.1501 493.407 14.7903 492.269 13.6338 489.98C13.587 489.886 13.5402 489.793 13.498 489.694C14.7013 491.778 16.9347 492.808 18.6108 491.961Z" fill="#231F20"/>
<path opacity="0.1" d="M21.101 496.886C22.7726 496.038 23.2829 493.636 22.3043 491.426C22.3559 491.515 22.4073 491.608 22.4542 491.702C23.6107 493.991 23.1331 496.563 21.3819 497.448C19.6309 498.333 17.2805 497.19 16.124 494.905C16.0773 494.807 16.0304 494.713 15.9883 494.62C17.1915 496.718 19.4249 497.734 21.101 496.886Z" fill="#231F20"/>
<path opacity="0.1" d="M23.5885 501.808C25.2648 500.96 25.7751 498.563 24.7919 496.348C24.8481 496.442 24.8949 496.53 24.9464 496.629C26.1029 498.914 25.6206 501.49 23.8742 502.37C22.1278 503.25 19.7727 502.117 18.6162 499.827C18.5648 499.734 18.5226 499.639 18.4805 499.541C19.6837 501.644 21.9124 502.656 23.5885 501.808Z" fill="#231F20"/>
<path opacity="0.1" d="M25.2378 505.046C26.9139 504.199 27.4197 501.801 26.441 499.586C26.4926 499.68 26.544 499.768 26.5909 499.867C27.7474 502.153 27.2698 504.728 25.5234 505.608C23.7769 506.489 21.4173 505.355 20.2607 503.065C20.214 502.972 20.1671 502.878 20.125 502.78C21.3142 504.891 23.5476 505.894 25.2378 505.046Z" fill="#231F20"/>
<path d="M-19.7748 483.13C-20.0349 482.385 -20.1923 481.609 -20.243 480.822C-20.4162 480.821 -20.5873 480.785 -20.7458 480.715C-20.9043 480.646 -21.0466 480.544 -21.164 480.416C-21.2814 480.29 -21.3714 480.14 -21.4282 479.975C-21.485 479.812 -21.5076 479.638 -21.4944 479.466C-21.4811 479.293 -21.4324 479.125 -21.3513 478.973C-21.2703 478.819 -21.1586 478.684 -21.0231 478.577C-20.8876 478.469 -20.7315 478.39 -20.5642 478.345C-20.3969 478.3 -20.2223 478.291 -20.051 478.317C-19.7701 477.04 -19.2089 475.842 -18.4081 474.809C-17.6071 473.777 -16.5866 472.935 -15.4205 472.346C-15.5714 472.048 -15.5975 471.701 -15.4929 471.383C-15.3885 471.065 -15.162 470.802 -14.8634 470.651C-14.5647 470.5 -14.2183 470.474 -13.9005 470.578C-13.5826 470.683 -13.3193 470.91 -13.1685 471.208C-13.1137 471.314 -13.0757 471.427 -13.0561 471.545C-11.6707 471.291 -10.2446 471.371 -8.89614 471.778C-7.54769 472.185 -6.31578 472.908 -5.30261 473.886C-4.52873 473.76 -3.74133 473.737 -2.96159 473.821L-1.9409 478.466L-1.91749 473.985C-0.756603 474.253 0.337931 474.754 1.30013 475.457C2.26233 476.16 3.07225 477.05 3.68111 478.074C4.28996 479.099 4.68513 480.236 4.84279 481.417C5.00044 482.599 4.91732 483.799 4.59844 484.947C4.27955 486.096 3.73151 487.167 2.98735 488.098C2.24318 489.029 1.31829 489.799 0.268442 490.363C-0.781406 490.926 -1.93447 491.272 -3.12127 491.377C-4.30806 491.483 -5.50401 491.348 -6.637 490.979C-6.76022 491.197 -6.94403 491.374 -7.16606 491.489C-7.39748 491.606 -7.65921 491.648 -7.91578 491.612C-8.17235 491.575 -8.41139 491.46 -8.60047 491.282C-8.78955 491.106 -8.91954 490.874 -8.97283 490.62C-9.02613 490.367 -9.00015 490.103 -8.89842 489.864C-9.29988 489.584 -9.67734 489.271 -10.0268 488.928C-11.8684 489.226 -13.7572 488.934 -15.4226 488.092C-17.088 487.252 -18.4442 485.904 -19.2972 484.245L-14.5449 483.444L-19.7748 483.13Z" fill="#9DD9C9"/>
<g opacity="0.1">
<path d="M-12.4315 485.387C-10.6757 483.046 -9.59884 480.33 -8.36278 477.699C-7.86778 476.615 -7.31127 475.562 -6.69598 474.543L-5.75957 473.461C-5.60038 473.596 -5.44587 473.733 -5.29137 473.873C-4.51749 473.746 -3.73009 473.724 -2.95034 473.808L-1.92965 478.453L-1.9156 473.985C-0.754717 474.253 0.339818 474.755 1.30201 475.457C2.26421 476.16 3.07414 477.051 3.68299 478.075C4.29184 479.099 4.68702 480.236 4.84467 481.417C5.00233 482.599 4.9192 483.8 4.60032 484.947C4.28145 486.096 3.7334 487.167 2.98923 488.098C2.24506 489.029 1.32017 489.799 0.270329 490.363C-0.779521 490.927 -1.93258 491.272 -3.11938 491.377C-4.30618 491.483 -5.50211 491.348 -6.63511 490.979C-6.75834 491.197 -6.94213 491.374 -7.16418 491.489C-7.39559 491.606 -7.65731 491.649 -7.91389 491.612C-8.17047 491.575 -8.40949 491.46 -8.59858 491.283C-8.78766 491.106 -8.91765 490.874 -8.97095 490.621C-9.02425 490.367 -8.99827 490.103 -8.89653 489.865C-9.29799 489.584 -9.67542 489.271 -10.025 488.928C-11.8284 489.217 -13.6773 488.944 -15.3203 488.146C-14.2153 487.388 -13.2397 486.456 -12.4315 485.387Z" fill="#231F20"/>
</g>
<path d="M18.6438 475.43C18.5689 475.283 18.5239 475.121 18.5114 474.956C18.4989 474.792 18.5191 474.626 18.5709 474.469C18.6227 474.312 18.7049 474.167 18.8131 474.041C18.9212 473.916 19.053 473.813 19.201 473.739C19.3777 473.649 19.5736 473.603 19.7722 473.604C20.1293 471.707 21.098 469.98 22.5299 468.687C22.2983 467.786 22.2114 466.856 22.2724 465.929L26.903 465.152L22.4034 464.865C22.4849 464.443 22.5976 464.027 22.7406 463.62C22.5638 463.502 22.4202 463.341 22.3238 463.152C22.2112 462.926 22.1687 462.672 22.2015 462.422C22.2345 462.172 22.3413 461.938 22.5085 461.749C22.6755 461.56 22.8952 461.426 23.1394 461.363C23.3834 461.3 23.6408 461.311 23.8783 461.396C24.7052 460.219 25.8102 459.265 27.0949 458.619C28.608 457.851 30.3105 457.536 31.9981 457.711C33.6858 457.887 35.2872 458.545 36.6101 459.607C37.9331 460.671 38.9215 462.092 39.4569 463.702C39.9923 465.313 40.052 467.043 39.6287 468.687C39.8487 468.781 40.0374 468.936 40.1725 469.134C40.3075 469.332 40.3835 469.563 40.3913 469.803C40.3992 470.043 40.3386 470.279 40.2168 470.486C40.0951 470.691 39.917 470.858 39.7036 470.967C39.5436 471.049 39.3682 471.095 39.1889 471.102C39.0097 471.111 38.8309 471.08 38.6642 471.014C38.2123 471.772 37.6488 472.457 36.9927 473.047C37.4726 474.914 37.3295 476.887 36.5854 478.666L30.391 477.036L35.9299 479.953C35.0983 481.281 33.9288 482.363 32.5412 483.089C31.1536 483.815 29.598 484.159 28.0335 484.085C26.4692 484.012 24.9526 483.524 23.639 482.671C22.3256 481.818 21.2625 480.631 20.5587 479.233C20.0688 478.259 19.761 477.203 19.6504 476.118C19.4378 476.099 19.2337 476.025 19.0574 475.905C18.8813 475.784 18.7388 475.621 18.6438 475.43Z" fill="#9DD9C9"/>
<path opacity="0.1" d="M18.6438 475.429C18.5689 475.282 18.5239 475.121 18.5114 474.956C18.4989 474.791 18.5191 474.625 18.5709 474.468C18.6227 474.311 18.7049 474.166 18.8131 474.04C18.9212 473.915 19.053 473.813 19.201 473.739C19.3777 473.648 19.5736 473.601 19.7722 473.603C20.1293 471.707 21.098 469.98 22.5299 468.686C22.4924 468.541 22.4597 468.391 22.4316 468.246C22.5995 468.366 22.7562 468.501 22.8998 468.649C23.7378 469.585 24.1686 470.798 24.9926 471.725C26.0251 472.791 27.4133 473.439 28.8927 473.547C30.3583 473.647 31.8305 473.529 33.2611 473.196C34.4409 472.891 35.6581 472.758 36.8756 472.797L37.2221 472.844L37.0068 473.046C37.4867 474.913 37.3436 476.886 36.5994 478.665L30.391 477.035L35.9299 479.953C35.0983 481.28 33.9288 482.363 32.5412 483.088C31.1536 483.814 29.598 484.159 28.0335 484.085C26.4692 484.012 24.9526 483.524 23.639 482.671C22.3256 481.818 21.2625 480.631 20.5587 479.232C20.0688 478.258 19.761 477.202 19.6504 476.118C19.4378 476.099 19.2337 476.025 19.0574 475.905C18.8813 475.784 18.7388 475.62 18.6438 475.429Z" fill="#231F20"/>
</g>
<path opacity="0.1" d="M121.688 265.6C119.837 265.25 117.924 265.458 116.192 266.2C115.153 266.663 114.028 266.903 112.891 266.903C111.754 266.903 110.629 266.663 109.59 266.2C108.362 265.662 107.032 265.397 105.691 265.424C104.351 265.451 103.032 265.768 101.827 266.354C101.139 266.719 100.372 266.91 99.5935 266.912C96.4476 266.912 93.8303 263.742 93.2871 259.56C93.9145 259.1 94.4484 258.525 94.8604 257.865C96.7049 254.891 99.5427 252.98 102.768 252.98C105.994 252.98 108.804 254.854 110.648 257.809C111.199 258.696 111.97 259.427 112.885 259.93C113.8 260.434 114.829 260.694 115.873 260.684H115.958C118.439 260.67 120.607 262.678 121.688 265.6Z" fill="#9DD9C9"/>
<path opacity="0.1" d="M131.251 252.489L126.166 255.716L129.251 250.097C128.376 249.399 127.294 249.014 126.175 249.002H126.095C125.742 249.005 125.39 248.978 125.041 248.922L123.314 250.017L124.054 248.673C122.836 248.249 121.782 247.455 121.039 246.402L117.944 248.336L119.892 244.791C118.089 242.623 115.655 241.293 112.981 241.293C109.774 241.293 106.895 243.204 105.069 246.177C104.522 247.066 103.751 247.793 102.832 248.287C101.913 248.781 100.88 249.022 99.8385 248.987H99.684C96.1444 248.987 93.2695 253 93.2695 257.959C93.2695 262.918 96.1444 266.927 99.684 266.927C100.463 266.924 101.229 266.733 101.917 266.37C103.123 265.782 104.442 265.465 105.782 265.439C107.123 265.413 108.453 265.679 109.68 266.22C110.719 266.681 111.844 266.92 112.981 266.92C114.119 266.92 115.243 266.681 116.281 266.22C117.5 265.69 118.817 265.43 120.144 265.456C121.472 265.482 122.778 265.793 123.975 266.37C124.657 266.723 125.415 266.909 126.185 266.912C129.729 266.912 132.599 262.899 132.599 257.945C132.611 256.042 132.147 254.167 131.251 252.489Z" fill="#AFA089"/>
<path opacity="0.1" d="M15.8754 330.475C13.2314 329.974 10.4986 330.271 8.02356 331.327C6.53826 331.986 4.93094 332.324 3.30625 332.32C1.68156 332.315 0.0759354 331.969 -1.40608 331.304C-3.15968 330.534 -5.05943 330.156 -6.97382 330.194C-8.88819 330.232 -10.7714 330.686 -12.4931 331.524C-13.4779 332.042 -14.5733 332.315 -15.6863 332.32C-20.1811 332.32 -23.922 327.792 -24.6992 321.816C-23.801 321.162 -23.0379 320.34 -22.4519 319.396C-19.8159 315.148 -15.7331 312.418 -11.1494 312.418C-6.56569 312.418 -2.53444 315.115 0.0874977 319.316C0.87549 320.589 1.9796 321.637 3.29238 322.356C4.60515 323.075 6.08186 323.443 7.57877 323.422H7.69582C11.2448 323.417 14.3444 326.289 15.8754 330.475Z" fill="#9DD9C9"/>
<path opacity="0.1" d="M29.5468 311.722L22.2803 316.33L26.6908 308.308C25.4408 307.31 23.8936 306.758 22.2944 306.74H22.1773C21.6724 306.747 21.1679 306.709 20.6697 306.627L18.2163 308.214L19.2744 306.295C17.5285 305.684 16.0206 304.537 14.967 303.016L10.5565 305.826L13.3329 300.723C10.7531 297.627 7.27904 295.73 3.4585 295.73C-1.12523 295.73 -5.20797 298.456 -7.84396 302.703C-8.62469 303.977 -9.72939 305.022 -11.0454 305.73C-12.3614 306.439 -13.8416 306.785 -15.3352 306.735H-15.5834C-20.6447 306.735 -24.7461 312.471 -24.7461 319.552C-24.7461 326.632 -20.6447 332.367 -15.5834 332.367C-14.4697 332.365 -13.3735 332.09 -12.3902 331.567C-10.6682 330.73 -8.78475 330.277 -6.87037 330.24C-4.956 330.202 -3.05641 330.582 -1.30314 331.352C0.178867 332.018 1.7845 332.364 3.40918 332.367C5.03387 332.372 6.64119 332.034 8.1265 331.375C9.8668 330.62 11.7493 330.247 13.6461 330.284C15.543 330.32 17.4098 330.764 19.12 331.586C20.094 332.096 21.1763 332.364 22.2757 332.367C27.3369 332.367 31.4384 326.627 31.4384 319.552C31.4737 316.825 30.8232 314.132 29.5468 311.722Z" fill="#9DD9C9"/>
<path opacity="0.1" d="M309.729 283.867C311.579 283.515 313.493 283.723 315.225 284.466C316.263 284.929 317.387 285.168 318.524 285.168C319.66 285.168 320.784 284.929 321.822 284.466C323.049 283.927 324.38 283.662 325.72 283.689C327.061 283.716 328.379 284.034 329.585 284.621C330.273 284.984 331.04 285.175 331.818 285.178C334.965 285.178 337.587 282.007 338.129 277.826C337.501 277.366 336.967 276.791 336.557 276.13C334.721 273.148 331.851 271.223 328.635 271.223C325.418 271.223 322.604 273.096 320.759 276.05C320.209 276.942 319.438 277.677 318.521 278.183C317.604 278.689 316.572 278.949 315.525 278.94H315.445C312.954 278.935 310.782 280.945 309.729 283.867Z" fill="#9DD9C9"/>
<path opacity="0.1" d="M300.141 270.751L305.225 273.968L302.136 268.349C303.011 267.653 304.094 267.267 305.212 267.253H305.296C305.649 267.257 306.001 267.231 306.35 267.173L308.073 268.269L307.333 266.926C308.559 266.509 309.623 265.718 310.376 264.663L313.461 266.621L311.51 263.077C313.316 260.909 315.723 259.578 318.425 259.578C321.632 259.578 324.511 261.489 326.337 264.463C326.883 265.351 327.655 266.079 328.574 266.572C329.492 267.066 330.525 267.308 331.567 267.272H331.736C335.28 267.272 338.15 271.286 338.15 276.244C338.15 281.203 335.28 285.212 331.736 285.212C330.957 285.208 330.191 285.017 329.502 284.655C328.297 284.067 326.978 283.75 325.637 283.724C324.297 283.698 322.966 283.964 321.739 284.505C320.701 284.966 319.577 285.204 318.441 285.204C317.304 285.204 316.181 284.966 315.142 284.505C313.924 283.976 312.606 283.715 311.277 283.741C309.95 283.767 308.642 284.078 307.445 284.655C306.762 285.009 306.005 285.195 305.235 285.197C301.696 285.197 298.821 281.184 298.821 276.231C298.796 274.322 299.249 272.438 300.141 270.751Z" fill="#AFA089"/>
<path opacity="0.1" d="M247.765 605.087C277.502 605.087 301.609 600.894 301.609 595.721C301.609 590.548 277.502 586.355 247.765 586.355C218.028 586.355 193.922 590.548 193.922 595.721C193.922 600.894 218.028 605.087 247.765 605.087Z" fill="#9DD9C9"/>
<path d="M219.586 551.235L136.156 550.162L136.405 548.022L140.436 512.719H213.705L219.094 548.022L219.506 550.701L219.586 551.235Z" fill="#D0D2D5"/>
<path opacity="0.1" d="M219.506 550.702H177.873L136.156 550.163L136.405 548.023H219.094L219.506 550.702Z" fill="#231F20"/>
<path d="M232.958 548.559H122.252V551.233H232.958V548.559Z" fill="#D0D2D5"/>
<path d="M338.58 300.686C338.587 298.841 337.86 297.069 336.561 295.759C335.261 294.448 333.496 293.708 331.651 293.699H22.4862C21.5719 293.704 20.6674 293.888 19.8243 294.242C18.9812 294.595 18.2162 295.112 17.5727 295.762C16.9292 296.412 16.42 297.181 16.0742 298.028C15.7282 298.875 15.5524 299.781 15.5567 300.695V488.121H338.58V300.686Z" fill="#373435"/>
<path d="M15.5566 486.246V508.199C15.5566 510.036 16.2867 511.8 17.5863 513.1C18.8857 514.399 20.6483 515.129 22.4861 515.129H331.651C333.488 515.129 335.251 514.399 336.551 513.1C337.85 511.8 338.58 510.036 338.58 508.199V486.246H15.5566Z" fill="#D0D2D5"/>
<path d="M326.813 305.453H28.9277V473.942H326.813V305.453Z" fill="white"/>
<path d="M178.674 506.8C179.769 506.802 180.849 506.554 181.833 506.076C182.816 505.599 183.679 504.903 184.354 504.042C184.559 503.78 184.747 503.506 184.916 503.218L180.95 502.549L185.234 502.577C185.645 501.683 185.869 500.715 185.893 499.732C185.916 498.749 185.738 497.771 185.37 496.859L179.625 499.837L184.925 495.941C184.428 495.085 183.759 494.342 182.962 493.755C182.164 493.169 181.255 492.752 180.29 492.532C179.324 492.312 178.325 492.293 177.351 492.476C176.379 492.659 175.454 493.039 174.635 493.595C173.815 494.151 173.119 494.868 172.589 495.704C172.058 496.54 171.706 497.476 171.552 498.454C171.398 499.432 171.448 500.432 171.697 501.389C171.947 502.348 172.39 503.244 173 504.023C173.673 504.887 174.534 505.586 175.517 506.066C176.5 506.548 177.58 506.799 178.674 506.8Z" fill="#CECCC3"/>
<path opacity="0.1" d="M185.893 515.125L219.177 548.559L214.069 515.125H185.893Z" fill="#231F20"/>
<path opacity="0.1" d="M326.904 305.473H28.6953V315.316H326.904V305.473Z" fill="#444053"/>
<path opacity="0.3" d="M221.811 307.184H132.506C132.356 307.184 132.234 307.306 132.234 307.455V312.901C132.234 313.051 132.356 313.173 132.506 313.173H221.811C221.962 313.173 222.083 313.051 222.083 312.901V307.455C222.083 307.306 221.962 307.184 221.811 307.184Z" fill="#AFA089"/>
<path d="M219.413 310.8H219.193L219.114 310.73C219.386 310.403 219.535 309.991 219.535 309.564C219.532 309.214 219.427 308.873 219.23 308.584C219.034 308.295 218.756 308.07 218.432 307.939C218.109 307.807 217.752 307.775 217.41 307.845C217.068 307.915 216.753 308.085 216.507 308.334C216.262 308.582 216.095 308.897 216.028 309.241C215.962 309.584 215.999 309.94 216.133 310.262C216.268 310.585 216.496 310.86 216.788 311.053C217.079 311.247 217.42 311.35 217.771 311.349C218.197 311.347 218.609 311.196 218.936 310.922L219.016 310.992V311.212L220.388 312.585L220.795 312.173L219.413 310.8ZM217.771 310.8C217.526 310.801 217.286 310.73 217.082 310.595C216.878 310.459 216.719 310.266 216.625 310.04C216.53 309.815 216.505 309.566 216.552 309.326C216.599 309.086 216.718 308.866 216.889 308.692C217.062 308.519 217.283 308.401 217.523 308.352C217.763 308.304 218.012 308.329 218.237 308.422C218.464 308.515 218.657 308.674 218.793 308.877C218.929 309.081 219.001 309.32 219.001 309.564C219.003 309.726 218.972 309.888 218.91 310.038C218.849 310.188 218.759 310.325 218.644 310.44C218.529 310.554 218.394 310.646 218.243 310.708C218.093 310.77 217.933 310.801 217.771 310.8Z" fill="#373435"/>
<path opacity="0.8" d="M34.0545 312.196C35.0501 312.196 35.8571 311.389 35.8571 310.393C35.8571 309.398 35.0501 308.59 34.0545 308.59C33.059 308.59 32.252 309.398 32.252 310.393C32.252 311.389 33.059 312.196 34.0545 312.196Z" fill="#FA5959"/>
<path opacity="0.8" d="M39.0155 312.196C40.011 312.196 40.8181 311.389 40.8181 310.393C40.8181 309.398 40.011 308.59 39.0155 308.59C38.02 308.59 37.2129 309.398 37.2129 310.393C37.2129 311.389 38.02 312.196 39.0155 312.196Z" fill="#FED253"/>
<path opacity="0.8" d="M43.9764 312.196C44.9719 312.196 45.779 311.389 45.779 310.393C45.779 309.398 44.9719 308.59 43.9764 308.59C42.9809 308.59 42.1738 309.398 42.1738 310.393C42.1738 311.389 42.9809 312.196 43.9764 312.196Z" fill="#8CCF4D"/>
<path d="M97.1035 407.36V398.628L123.522 363.062H137.131L111.273 398.628L104.949 396.786H149.06V407.36H97.1035ZM127.284 419.134V407.36L127.684 396.786V386.292H139.933V419.134H127.284ZM176.954 420.096C172.365 420.096 168.256 418.975 164.626 416.732C160.997 414.435 158.142 411.124 156.06 406.799C153.979 402.473 152.938 397.24 152.938 391.098C152.938 384.957 153.979 379.724 156.06 375.399C158.142 371.073 160.997 367.789 164.626 365.546C168.256 363.249 172.365 362.102 176.954 362.102C181.598 362.102 185.708 363.249 189.284 365.546C192.912 367.789 195.768 371.073 197.85 375.399C199.931 379.724 200.972 384.957 200.972 391.098C200.972 397.24 199.931 402.473 197.85 406.799C195.768 411.124 192.912 414.435 189.284 416.732C185.708 418.975 181.598 420.096 176.954 420.096ZM176.954 409.121C179.143 409.121 181.037 408.508 182.639 407.279C184.294 406.051 185.574 404.102 186.481 401.432C187.442 398.762 187.922 395.317 187.922 391.098C187.922 386.879 187.442 383.436 186.481 380.765C185.574 378.095 184.294 376.146 182.639 374.917C181.037 373.69 179.143 373.075 176.954 373.075C174.82 373.075 172.925 373.69 171.271 374.917C169.67 376.146 168.389 378.095 167.428 380.765C166.521 383.436 166.067 386.879 166.067 391.098C166.067 395.317 166.521 398.762 167.428 401.432C168.389 404.102 169.67 406.051 171.271 407.279C172.925 408.508 174.82 409.121 176.954 409.121ZM206.633 407.36V398.628L233.051 363.062H246.66L220.802 398.628L214.478 396.786H258.588V407.36H206.633ZM236.813 419.134V407.36L237.214 396.786V386.292H249.462V419.134H236.813Z" fill="#CECCC3"/>
<path d="M278.376 590.261C278.103 589.83 277.76 589.447 277.359 589.132C275.313 587.198 274.363 584.36 273.857 581.579C273.352 578.798 273.206 575.96 272.397 573.239C271.956 571.844 271.405 570.487 270.748 569.179C270.28 568.177 269.69 566.215 268.833 565.513C268.665 565.367 268.462 565.269 268.244 565.227C267.839 564.366 267.262 563.599 266.548 562.969C265.209 561.757 263.575 560.793 262.681 559.223C262.436 558.68 262.132 558.163 261.777 557.683C261.173 557.018 260.218 556.747 259.661 556.044C258.936 555.136 259.1 553.833 259.193 552.677C259.287 551.52 259.193 550.134 258.191 549.525C257.592 549.155 256.819 549.193 256.197 548.865C255.26 548.398 254.89 547.217 254.909 546.163C254.928 545.11 255.255 544.085 255.339 543.031C255.601 539.678 253.392 536.343 254.244 533.094C254.568 531.862 255.307 530.795 255.855 529.647C256.046 529.266 256.202 528.867 256.322 528.458C257.784 529.037 259.319 529.408 260.883 529.559C258.303 523.771 258.959 517.047 257.756 510.828L257.91 510.617C259.126 509.013 259.816 507.074 259.886 505.064C259.886 502.75 258.804 500.586 258.317 498.32C257.901 496.395 257.92 494.382 257.381 492.491C257.008 491.315 256.512 490.181 255.902 489.109C255.318 488.026 254.705 486.96 254.062 485.911C253.463 483.925 252.862 481.94 252.259 479.954C251.416 477.169 250.55 474.335 248.911 471.929C248.312 471.048 248.129 469.259 247.207 468.725C246.458 468.338 245.608 468.189 244.773 468.3C243.471 467.569 242.328 466.515 242.164 465.073C242.148 464.758 242.18 464.442 242.258 464.137H242.417C244.477 463.949 245.521 462.132 246.594 460.54C248.326 457.965 247.666 454.481 246.594 451.549C246.328 450.624 245.846 449.775 245.189 449.072C243.686 447.668 241.308 447.976 239.369 447.297C238.718 447.072 238.109 446.731 237.445 446.572C236.158 446.272 234.809 446.694 233.629 447.288C232.449 447.883 231.349 448.65 230.112 449.119C228.877 449.587 227.351 449.957 227.046 451.226C226.961 451.653 226.996 452.096 227.149 452.504C227.433 453.319 227.933 454.04 228.596 454.593C228.07 455.678 227.784 456.865 227.761 458.071C227.738 459.277 227.976 460.473 228.46 461.579C228.944 462.683 229.661 463.67 230.564 464.47C231.466 465.271 232.531 465.867 233.686 466.215C234.041 466.787 234.373 467.367 234.677 467.963C235.221 469.011 235.68 470.248 235.492 471.372C235.153 471.731 234.84 472.114 234.556 472.519C233.212 474.392 232.449 476.587 231.746 478.779C230.804 481.578 230.048 484.435 229.486 487.334C228.343 489.765 226.947 492.087 226.119 494.639C224.635 494.641 223.158 494.443 221.727 494.05L217.776 493.155C216.399 492.841 214.967 492.504 213.889 491.595C213.318 491.128 212.874 490.505 212.293 490.041C211.712 489.577 210.547 489.035 209.909 489.419C209.793 489.489 209.685 489.572 209.587 489.667C209.006 488.491 208.454 487.325 207.779 486.187C206.81 484.595 205.368 483.139 203.543 482.834C202.426 482.655 201.285 482.92 200.363 483.575C199.296 484.333 198.626 485.916 199.427 486.984C199.627 487.221 199.845 487.443 200.078 487.648C200.619 488.273 201.104 488.945 201.525 489.657C203.034 491.776 205.291 493.242 207.84 493.76L207.676 494.227C207.344 495.201 206.637 496.377 206.815 497.389L224.391 503.406C225.519 503.864 226.715 504.128 227.931 504.187C228.405 504.184 228.877 504.121 229.336 504V504.899V504.937C229.382 511.113 228.399 517.247 228.216 523.42C228.184 524.548 228.216 525.761 228.928 526.642C229.724 527.606 231.138 527.798 232.369 527.578C232.666 527.528 232.956 527.462 233.24 527.381C233.657 528.935 233.957 530.518 234.14 532.115L235.3 540.479C235.45 541.335 235.511 542.204 235.483 543.073C235.347 545.035 234.312 546.791 233.564 548.603C232.814 550.416 232.369 552.584 233.352 554.278C233.662 554.803 234.088 555.248 234.364 555.791C234.715 556.633 234.875 557.54 234.832 558.451C234.904 560.973 234.973 563.499 235.038 566.028C234.834 565.994 234.624 566.036 234.449 566.145C233.474 566.903 233.582 570.514 233.512 571.633C233.437 573.506 233.512 575.416 233.409 577.309C233.287 579.858 232.877 582.385 232.187 584.842C232.018 585.642 231.649 586.384 231.115 587.002C230.568 587.478 229.914 587.816 229.209 587.989C226.876 588.72 224.437 589.053 221.994 588.973C221.006 588.94 219.976 588.846 219.058 589.221C218.14 589.595 217.401 590.626 217.733 591.563C218.019 592.349 218.885 592.724 219.667 593.019C221.453 593.648 223.177 594.441 224.817 595.389C225.449 595.818 226.114 596.195 226.807 596.517C227.472 596.755 228.159 596.925 228.858 597.023L237.159 598.456C238.859 598.746 240.905 598.923 241.987 597.519C242.571 596.76 242.656 595.731 242.628 594.765C242.581 592.892 242.207 590.986 242.45 589.113C242.635 588.007 242.927 586.919 243.321 585.868C244.148 583.411 244.978 580.956 245.811 578.503C246.645 576.039 247.488 573.553 247.811 570.968C247.928 570.032 247.919 568.963 247.202 568.378C247.021 568.229 246.811 568.121 246.584 568.06C246.556 565.803 246.262 563.541 246.387 561.284C246.42 560.722 246.477 560.16 246.524 559.594C246.958 560.006 247.345 560.464 247.68 560.961C248.48 562.216 248.776 563.873 249.997 564.707C251.037 565.419 252.577 565.381 253.308 566.412C253.542 566.807 253.719 567.234 253.832 567.681C254.256 568.785 254.892 569.795 255.705 570.654C255.984 571.682 256.371 572.677 256.861 573.623C257.551 575.081 258.238 576.535 258.921 577.983C259.624 579.546 260.405 581.073 261.263 582.557C261.916 583.492 262.444 584.509 262.831 585.583C263.491 587.896 262.415 590.434 260.71 592.138C259.006 593.843 256.758 594.822 254.544 595.734C254.31 595.814 254.096 595.942 253.917 596.109C253.725 596.337 253.623 596.627 253.631 596.924C253.631 598.006 254.52 598.933 255.541 599.265C256.584 599.546 257.678 599.586 258.739 599.383C264.722 598.656 270.687 597.195 275.978 594.288C276.769 593.913 277.47 593.371 278.034 592.7C278.305 592.363 278.481 591.957 278.541 591.528C278.601 591.098 278.544 590.661 278.376 590.261Z" fill="url(#paint0_linear_7596_576)"/>
<path d="M253.086 485.25C254.085 486.783 255.022 488.353 255.895 489.961C256.508 491.024 257.005 492.15 257.379 493.318C257.923 495.191 257.908 497.191 258.315 499.101C258.784 501.349 259.879 503.494 259.879 505.798C259.808 507.794 259.118 509.719 257.904 511.305C256.693 512.877 255.308 514.307 253.775 515.566C250.239 506.406 248.263 496.716 247.931 486.903C247.884 485.545 247.874 484.144 248.371 482.876C248.675 482.08 250.136 479.898 251.077 480.755C251.419 481.069 251.508 482.483 251.719 482.955C252.113 483.755 252.571 484.522 253.086 485.25Z" fill="#373435"/>
<path opacity="0.1" d="M253.086 485.25C254.085 486.783 255.022 488.353 255.895 489.961C256.508 491.024 257.005 492.15 257.379 493.318C257.923 495.191 257.908 497.191 258.315 499.101C258.784 501.349 259.879 503.494 259.879 505.798C259.808 507.794 259.118 509.719 257.904 511.305C256.693 512.877 255.308 514.307 253.775 515.566C250.239 506.406 248.263 496.716 247.931 486.903C247.884 485.545 247.874 484.144 248.371 482.876C248.675 482.08 250.136 479.898 251.077 480.755C251.419 481.069 251.508 482.483 251.719 482.955C252.113 483.755 252.571 484.522 253.086 485.25Z" fill="#231F20"/>
<path d="M129.647 421.364C125.945 425.063 125.499 426.693 123.276 427.428C121.052 428.163 113.05 432.308 115.564 436.901L122.325 441.369L122.521 441.499L123.556 444.609L113.331 462.815C113.331 462.815 96.4756 455.108 94.8227 466.51C93.17 477.913 94.2188 481.027 93.7739 487.114C93.3292 493.202 93.9191 494.963 92.4349 494.963C90.9507 494.963 90.3655 490.963 90.3655 490.963C90.3655 490.963 90.2718 490.78 90.1079 490.438C87.9027 485.855 72.9342 452.199 96.9114 429.067C96.9114 429.067 108.017 428.337 110.69 415.6C112.534 406.796 118.987 407.555 123.276 409.348C124.67 409.895 125.969 410.658 127.125 411.609C128.164 412.595 129.09 413.695 129.882 414.888C131.104 416.817 131.769 419.238 129.647 421.364Z" fill="#D0D2D5"/>
<path opacity="0.1" d="M122.522 441.498L123.557 444.608L113.331 462.814C113.331 462.814 96.4765 455.107 94.8234 466.509C93.1705 477.911 94.2193 481.026 93.7746 487.113C93.3298 493.2 93.9197 494.961 92.4355 494.961C90.9513 494.961 90.366 490.962 90.366 490.962C90.366 490.962 90.2724 490.779 90.1085 490.437C89.364 484.743 85.5904 451.435 99.271 453.205C99.271 453.205 110.372 458.394 112.147 456.324C113.551 454.685 119.788 445.259 122.325 441.391L122.522 441.498Z" fill="#231F20"/>
<path opacity="0.1" d="M129.884 414.86L123.123 422.544C123.123 422.544 115.272 433.052 113.642 432.607C113.154 432.501 112.658 432.443 112.158 432.434C111.614 432.392 111.094 432.197 110.657 431.872C110.219 431.546 109.883 431.104 109.687 430.595C109.49 430.086 109.443 429.533 109.549 428.998C109.655 428.463 109.91 427.969 110.285 427.573C112.963 424.763 117.898 419.43 118.221 418.245C118.544 417.061 121.686 411.868 123.259 409.324C124.653 409.872 125.952 410.634 127.107 411.586C128.154 412.569 129.085 413.667 129.884 414.86Z" fill="#231F20"/>
<path d="M321.173 525.414C320.026 527.708 314.149 536.315 311.58 540.076L310.376 541.846C310.376 541.846 309.908 544.955 302.234 541.101C294.56 537.247 114.259 461.157 114.259 461.157L113.037 457.486L121.933 444.164L319.548 520.525C319.548 520.525 322.657 522.45 321.173 525.414Z" fill="#CECCC3"/>
<path opacity="0.1" d="M311.579 540.074L310.376 541.844C310.376 541.844 309.908 544.954 302.234 541.099C294.56 537.245 114.259 461.156 114.259 461.156L113.037 457.484L311.579 540.074Z" fill="#231F20"/>
<path d="M202.824 490.372C200.993 490.073 198.961 490.218 197.537 491.407C196.677 492.136 196.134 493.17 196.021 494.291C195.899 495.589 196.653 497.13 197.954 497.228C198.268 497.232 198.581 497.212 198.891 497.167C199.713 497.164 200.535 497.233 201.344 497.373C202.938 497.523 204.546 497.288 206.032 496.689C207.517 496.089 208.836 495.142 209.879 493.926C210.999 492.522 209.524 491.913 208.203 491.632C206.396 491.248 204.631 490.662 202.824 490.372Z" fill="#FBBEBE"/>
<path d="M234.139 532.662L235.299 540.912C235.447 541.764 235.507 542.629 235.478 543.493C235.341 545.437 234.307 547.178 233.563 548.976C232.818 550.774 232.364 552.929 233.351 554.596C233.656 555.115 234.082 555.56 234.358 556.099C234.71 556.932 234.869 557.833 234.827 558.736L235.145 570.442C238.759 570.689 242.387 570.668 245.998 570.382C246.14 570.388 246.279 570.345 246.391 570.26C246.487 570.139 246.535 569.987 246.527 569.833C246.687 567.094 246.209 564.35 246.363 561.611C246.42 560.608 246.56 559.611 246.578 558.604C246.635 554.526 244.622 550.531 245.23 546.499C245.421 545.482 245.671 544.477 245.979 543.489C247.904 536.464 247.496 529.084 247.07 521.831C247.077 521.713 247.045 521.598 246.977 521.503C246.908 521.434 246.819 521.387 246.724 521.367C244.676 520.752 242.509 520.64 240.408 521.039C238.307 521.439 236.333 522.338 234.653 523.662C234.143 524.074 232.856 524.471 232.518 524.963C232.051 525.647 232.664 526.331 232.935 527.056C233.537 528.876 233.94 530.755 234.139 532.662Z" fill="#373435"/>
<path opacity="0.1" d="M234.139 532.662L235.299 540.912C235.447 541.764 235.507 542.629 235.478 543.493C235.341 545.437 234.307 547.178 233.563 548.976C232.818 550.774 232.364 552.929 233.351 554.596C233.656 555.115 234.082 555.56 234.358 556.099C234.71 556.932 234.869 557.833 234.827 558.736L235.145 570.442C238.759 570.689 242.387 570.668 245.998 570.382C246.14 570.388 246.279 570.345 246.391 570.26C246.487 570.139 246.535 569.987 246.527 569.833C246.687 567.094 246.209 564.35 246.363 561.611C246.42 560.608 246.56 559.611 246.578 558.604C246.635 554.526 244.622 550.531 245.23 546.499C245.421 545.482 245.671 544.477 245.979 543.489C247.904 536.464 247.496 529.084 247.07 521.831C247.077 521.713 247.045 521.598 246.977 521.503C246.908 521.434 246.819 521.387 246.724 521.367C244.676 520.752 242.509 520.64 240.408 521.039C238.307 521.439 236.333 522.338 234.653 523.662C234.143 524.074 232.856 524.471 232.518 524.963C232.051 525.647 232.664 526.331 232.935 527.056C233.537 528.876 233.94 530.755 234.139 532.662Z" fill="#231F20"/>
<path d="M255.848 530.175C255.3 531.313 254.564 532.371 254.237 533.594C253.384 536.82 255.59 540.15 255.328 543.455C255.243 544.499 254.92 545.515 254.896 546.56C254.873 547.605 255.257 548.766 256.185 549.248C256.807 549.566 257.589 549.534 258.174 549.899C259.163 550.503 259.275 551.875 259.176 553.027C259.078 554.179 258.914 555.467 259.645 556.366C260.201 557.063 261.157 557.335 261.756 557.995C262.113 558.469 262.416 558.981 262.66 559.522C263.554 561.086 265.188 562.041 266.527 563.268C267.866 564.495 268.999 566.293 268.4 567.993C267.96 569.239 266.724 570.006 265.534 570.592C263.365 571.664 261.075 572.474 258.712 573.003C258.459 573.08 258.191 573.094 257.931 573.045C257.667 572.949 257.432 572.788 257.248 572.578C255.866 571.224 254.439 569.805 253.801 567.983C253.688 567.542 253.511 567.12 253.277 566.729C252.546 565.703 251.007 565.74 249.967 565.033C248.75 564.204 248.455 562.561 247.658 561.32C246.862 560.079 245.697 559.339 244.849 558.248C243.417 556.431 243.065 554.006 242.04 551.931C241.604 551.051 241.048 550.227 240.701 549.309C240.352 548.209 240.136 547.071 240.06 545.919C239.399 540.449 237.718 534.943 238.777 529.529C239.01 528.34 239.371 527.188 239.521 525.961C239.778 523.839 239.371 521.667 239.685 519.55C239.693 519.284 239.76 519.024 239.883 518.788C240.005 518.552 240.179 518.347 240.392 518.187C240.645 518.074 240.92 518.018 241.197 518.024C243.973 517.875 246.756 517.938 249.522 518.211C250.927 518.347 252.499 518.632 253.342 519.78C254.058 520.763 254.021 522.079 254.25 523.273C254.536 524.743 255.28 525.544 256.063 526.696C256.844 527.848 256.423 528.986 255.848 530.175Z" fill="#373435"/>
<path d="M245.046 568.227C245.786 568.227 246.605 568.18 247.177 568.649C247.889 569.234 247.898 570.306 247.785 571.219C247.458 573.785 246.62 576.253 245.782 578.712L243.29 586.021C242.897 587.065 242.605 588.143 242.42 589.243C242.177 591.116 242.551 592.989 242.598 594.863C242.598 595.799 242.537 596.838 241.952 597.593C240.893 598.955 238.828 598.795 237.129 598.529L228.838 597.124C228.138 597.031 227.45 596.863 226.786 596.623C226.095 596.303 225.43 595.929 224.797 595.503C223.155 594.566 221.432 593.782 219.647 593.162C218.869 592.872 217.998 592.502 217.718 591.72C217.385 590.783 218.125 589.753 219.043 589.379C219.961 589.004 220.986 589.097 221.978 589.126C224.419 589.204 226.856 588.874 229.188 588.152C229.891 587.979 230.543 587.642 231.09 587.168C231.645 586.544 232.023 585.782 232.185 584.963C232.892 582.522 233.312 580.008 233.44 577.471C233.538 575.597 233.473 573.724 233.547 571.851C233.594 570.742 233.487 567.168 234.46 566.405C235.205 565.834 238.267 567.412 239.274 567.641C241.166 568.075 243.105 568.272 245.046 568.227Z" fill="#373435"/>
<path d="M272.361 573.436C273.172 576.119 273.298 578.957 273.823 581.715C274.347 584.473 275.274 587.287 277.32 589.207C277.718 589.523 278.062 589.903 278.336 590.331C278.509 590.732 278.568 591.173 278.505 591.605C278.443 592.037 278.264 592.443 277.985 592.78C277.42 593.446 276.719 593.984 275.93 594.358C270.643 597.242 264.693 598.699 258.695 599.42C257.635 599.619 256.545 599.578 255.502 599.303C254.481 598.956 253.577 598.039 253.596 596.962C253.587 596.666 253.687 596.378 253.877 596.151C254.059 595.985 254.275 595.859 254.509 595.781C256.719 594.874 258.962 593.885 260.671 592.209C262.379 590.532 263.452 587.994 262.791 585.718C262.401 584.652 261.871 583.644 261.214 582.717C260.358 581.244 259.576 579.73 258.872 578.179L256.812 573.857C256.209 572.593 255.6 571.291 255.497 569.896C258.085 570.011 260.67 569.597 263.092 568.678C264.222 568.217 265.275 567.585 266.215 566.805C267.01 566.14 267.736 564.899 268.809 565.766C269.67 566.458 270.213 568.411 270.718 569.399C271.376 570.698 271.925 572.048 272.361 573.436Z" fill="#373435"/>
<path d="M242.173 466.112C242.379 467.91 244.121 469.095 245.783 469.807L235.263 473.165C235.941 471.862 235.393 470.271 234.719 468.95C234.17 467.905 233.544 466.901 232.846 465.948C232.744 465.803 232.627 465.62 232.701 465.451C232.768 465.342 232.873 465.26 232.996 465.223C235.159 464.257 237.388 463.26 239.753 462.909C240.436 462.811 241.728 462.539 242.239 463.232C242.749 463.925 242.075 465.283 242.173 466.112Z" fill="#FBBEBE"/>
<path opacity="0.1" d="M242.173 466.112C242.379 467.91 244.121 469.095 245.783 469.807L235.263 473.165C235.941 471.862 235.393 470.271 234.719 468.95C234.17 467.905 233.544 466.901 232.846 465.948C232.744 465.803 232.627 465.62 232.701 465.451C232.768 465.342 232.873 465.26 232.996 465.223C235.159 464.257 237.388 463.26 239.753 462.909C240.436 462.811 241.728 462.539 242.239 463.232C242.749 463.925 242.075 465.283 242.173 466.112Z" fill="#231F20"/>
<path d="M236.058 467.568C240.614 467.568 244.308 463.874 244.308 459.317C244.308 454.76 240.614 451.066 236.058 451.066C231.502 451.066 227.809 454.76 227.809 459.317C227.809 463.874 231.502 467.568 236.058 467.568Z" fill="#FBBEBE"/>
<path d="M228.909 527.215C229.709 528.175 231.119 528.363 232.35 528.151C235.229 527.684 237.585 525.562 240.404 524.799C243.859 523.862 247.515 525.066 250.778 526.541C254.042 528.016 257.287 529.819 260.855 530.072C257.629 522.879 259.473 514.225 256.388 506.972C255.634 505.197 254.581 503.488 254.412 501.568C254.202 499.185 255.39 496.885 255.574 494.515C255.742 492.404 255.105 490.301 254.497 488.288C253.744 485.815 252.992 483.343 252.24 480.87C251.397 478.103 250.531 475.289 248.897 472.909C248.293 472.034 248.11 470.259 247.193 469.73C245.188 468.573 242.15 470.029 239.977 470.109C237.805 470.189 235.825 471.734 234.555 473.481C233.211 475.326 232.448 477.522 231.746 479.695C230.628 482.93 229.793 486.256 229.25 489.637C229.18 490.142 229.12 490.648 229.073 491.158C228.604 495.968 229.288 500.805 229.325 505.637V505.67C229.372 511.8 228.389 517.892 228.207 524.017C228.188 525.136 228.217 526.358 228.909 527.215Z" fill="#373435"/>
<path opacity="0.1" d="M229.338 505.644C230.953 505.237 232.415 504.193 233.669 503.051C234.756 502.078 235.721 500.977 236.544 499.772C237.579 498.153 238.412 496.412 239.02 494.589C240.754 489.712 241.855 484.634 242.298 479.477C242.42 478.073 242.457 476.565 241.619 475.451C241.149 474.847 240.487 474.42 239.744 474.239C239 474.06 238.217 474.137 237.523 474.457C236.418 474.996 235.701 476.088 235.036 477.132C233.72 479.201 232.395 481.299 231.548 483.603C231.173 484.624 230.897 485.673 230.532 486.698C230.161 487.709 229.732 488.699 229.249 489.662C229.179 490.169 229.118 490.674 229.071 491.184C228.636 495.993 229.3 500.812 229.338 505.644Z" fill="#231F20"/>
<path d="M241.596 474.546C242.434 475.66 242.396 477.182 242.279 478.568C241.837 483.724 240.736 488.803 239.002 493.68C238.398 495.518 237.565 497.274 236.525 498.905C235.701 500.109 234.735 501.209 233.651 502.183C232.058 503.635 230.12 504.932 227.962 504.951C226.746 504.893 225.55 504.632 224.422 504.178L206.841 498.193C206.663 497.191 207.37 496.02 207.703 495.056L208.639 492.279C208.906 491.512 209.215 490.683 209.913 490.266C210.61 489.849 211.715 490.42 212.295 490.883C212.876 491.347 213.316 491.956 213.887 492.429C214.969 493.328 216.397 493.665 217.773 493.974L221.721 494.859C223.151 495.251 224.629 495.448 226.112 495.445C227.213 492.082 229.306 489.123 230.49 485.788C230.855 484.768 231.132 483.715 231.511 482.693C232.354 480.39 233.683 478.297 234.998 476.222C235.659 475.183 236.375 474.092 237.485 473.548C238.182 473.223 238.968 473.145 239.715 473.326C240.463 473.507 241.125 473.937 241.596 474.546Z" fill="#373435"/>
<path d="M238.691 461.181C238.628 460.639 238.46 460.114 238.195 459.636C238.056 459.397 237.846 459.208 237.593 459.097C237.34 458.986 237.059 458.958 236.789 459.018C235.966 459.275 235.689 460.549 234.828 460.591C234.247 460.62 233.83 460.029 233.648 459.477C233.466 458.924 233.367 458.292 232.932 457.903C232.629 457.677 232.28 457.517 231.91 457.436C229.912 456.803 227.847 455.637 227.182 453.647C227.026 453.243 226.989 452.803 227.074 452.378C227.378 451.118 228.947 450.739 230.141 450.285C231.335 449.831 232.482 449.053 233.653 448.463C234.823 447.873 236.181 447.456 237.469 447.756C238.122 447.961 238.764 448.201 239.393 448.473C241.331 449.147 243.705 448.833 245.208 450.233C245.865 450.928 246.346 451.769 246.613 452.687C247.661 455.6 248.326 459.055 246.589 461.612C245.517 463.19 244.478 464.993 242.418 465.185C240.021 465.386 239.07 463.213 238.691 461.181Z" fill="#373435"/>
<g opacity="0.1">
<path d="M235.029 458.484C234.846 457.931 234.747 457.299 234.316 456.91C234.014 456.684 233.665 456.524 233.296 456.443C231.292 455.811 229.232 454.644 228.562 452.654C228.409 452.249 228.374 451.81 228.459 451.385C228.505 451.185 228.59 450.996 228.708 450.828C227.945 451.16 227.279 451.6 227.092 452.377C227.006 452.803 227.043 453.243 227.2 453.647C227.865 455.637 229.93 456.803 231.929 457.435C232.298 457.518 232.646 457.677 232.949 457.904C233.385 458.293 233.478 458.92 233.665 459.477C233.854 460.034 234.265 460.619 234.846 460.591C235.426 460.563 235.707 460.034 236.077 459.589C235.567 459.524 235.197 459 235.029 458.484Z" fill="#231F20"/>
<path d="M243.793 464.179C241.387 464.4 240.436 462.208 240.048 460.19C239.997 459.649 239.837 459.124 239.579 458.644C239.441 458.406 239.231 458.218 238.978 458.106C238.726 457.995 238.444 457.967 238.175 458.027C237.747 458.233 237.389 458.559 237.141 458.963C237.355 458.983 237.562 459.054 237.745 459.167C237.93 459.281 238.084 459.435 238.199 459.618C238.463 460.096 238.632 460.621 238.695 461.164C239.074 463.182 240.024 465.378 242.44 465.153C243.395 465.048 244.276 464.591 244.913 463.871C244.559 464.035 244.181 464.14 243.793 464.179Z" fill="#231F20"/>
</g>
<path d="M340.229 551.284C348.579 551.284 355.348 549.982 355.348 548.376C355.348 546.77 348.579 545.469 340.229 545.469C331.88 545.469 325.111 546.77 325.111 548.376C325.111 549.982 331.88 551.284 340.229 551.284Z" fill="#CECCC3"/>
<path d="M339.975 549.548C340.947 549.548 341.735 548.518 341.735 547.245C341.735 545.972 340.947 544.941 339.975 544.941C339.003 544.941 338.215 545.972 338.215 547.245C338.215 548.518 339.003 549.548 339.975 549.548Z" fill="#C2C0B7"/>
<path d="M339.975 546.729C340.947 546.729 341.735 545.697 341.735 544.425C341.735 543.153 340.947 542.121 339.975 542.121C339.003 542.121 338.215 543.153 338.215 544.425C338.215 545.697 339.003 546.729 339.975 546.729Z" fill="#C2C0B7"/>
<path d="M339.975 543.916C340.947 543.916 341.735 542.885 341.735 541.612C341.735 540.34 340.947 539.309 339.975 539.309C339.003 539.309 338.215 540.34 338.215 541.612C338.215 542.885 339.003 543.916 339.975 543.916Z" fill="#C2C0B7"/>
<path d="M339.975 541.096C340.947 541.096 341.735 540.064 341.735 538.793C341.735 537.52 340.947 536.488 339.975 536.488C339.003 536.488 338.215 537.52 338.215 538.793C338.215 540.064 339.003 541.096 339.975 541.096Z" fill="#C2C0B7"/>
<path d="M339.975 538.28C340.947 538.28 341.735 537.248 341.735 535.975C341.735 534.703 340.947 533.672 339.975 533.672C339.003 533.672 338.215 534.703 338.215 535.975C338.215 537.248 339.003 538.28 339.975 538.28Z" fill="#C2C0B7"/>
<path d="M339.975 535.362C340.947 535.362 341.735 534.33 341.735 533.057C341.735 531.785 340.947 530.754 339.975 530.754C339.003 530.754 338.215 531.785 338.215 533.057C338.215 534.33 339.003 535.362 339.975 535.362Z" fill="#BAAB95"/>
<path d="M339.975 532.541C340.947 532.541 341.735 531.51 341.735 530.237C341.735 528.965 340.947 527.934 339.975 527.934C339.003 527.934 338.215 528.965 338.215 530.237C338.215 531.51 339.003 532.541 339.975 532.541Z" fill="#373435"/>
<path d="M346.563 510.975C346.803 510.669 347.022 510.347 347.219 510.011L342.593 509.252L347.598 509.285C348.075 508.24 348.337 507.109 348.363 505.96C348.391 504.811 348.185 503.669 347.758 502.602L341.043 506.086L347.233 501.535C346.652 500.535 345.871 499.666 344.94 498.98C344.009 498.295 342.947 497.808 341.819 497.551C340.692 497.294 339.524 497.271 338.388 497.485C337.251 497.698 336.171 498.144 335.214 498.793C334.258 499.443 333.445 500.281 332.826 501.258C332.208 502.235 331.796 503.329 331.618 504.472C331.441 505.614 331.499 506.782 331.792 507.901C332.084 509.019 332.603 510.066 333.317 510.975C332.942 511.451 332.618 511.966 332.353 512.511L338.36 515.634L331.955 513.485C331.508 514.812 331.398 516.23 331.636 517.61C331.874 518.99 332.452 520.289 333.317 521.39C332.341 522.633 331.733 524.126 331.565 525.699C331.397 527.271 331.675 528.859 332.366 530.282C333.057 531.703 334.134 532.902 335.474 533.742C336.815 534.58 338.364 535.025 339.945 535.025C341.526 535.025 343.076 534.58 344.416 533.742C345.756 532.902 346.833 531.703 347.524 530.282C348.216 528.859 348.493 527.271 348.325 525.699C348.157 524.126 347.549 522.633 346.573 521.39C347.742 519.904 348.379 518.067 348.379 516.175C348.379 514.284 347.742 512.447 346.573 510.961L346.563 510.975Z" fill="#CECCC3"/>
<path opacity="0.1" d="M331.5 516.175C331.499 518.069 332.139 519.908 333.316 521.392C332.339 522.635 331.732 524.128 331.564 525.701C331.395 527.273 331.673 528.861 332.364 530.284C333.055 531.705 334.132 532.904 335.472 533.744C336.814 534.582 338.362 535.027 339.943 535.027C341.524 535.027 343.074 534.582 344.414 533.744C345.755 532.904 346.832 531.705 347.523 530.284C348.215 528.861 348.492 527.273 348.323 525.701C348.155 524.128 347.547 522.635 346.571 521.392C347.69 519.954 331.5 515.229 331.5 516.175Z" fill="#231F20"/>
<path d="M28.6522 586.339C30.0511 586.339 31.1852 584.853 31.1852 583.019C31.1852 581.185 30.0511 579.699 28.6522 579.699C27.2532 579.699 26.1191 581.185 26.1191 583.019C26.1191 584.853 27.2532 586.339 28.6522 586.339Z" fill="#373435"/>
<path d="M28.6522 582.285C30.0511 582.285 31.1852 580.798 31.1852 578.964C31.1852 577.131 30.0511 575.645 28.6522 575.645C27.2532 575.645 26.1191 577.131 26.1191 578.964C26.1191 580.798 27.2532 582.285 28.6522 582.285Z" fill="#373435"/>
<path d="M29.0208 609.267C41.0422 609.267 50.7875 607.393 50.7875 605.081C50.7875 602.769 41.0422 600.895 29.0208 600.895C16.9993 600.895 7.25391 602.769 7.25391 605.081C7.25391 607.393 16.9993 609.267 29.0208 609.267Z" fill="#CECCC3"/>
<path d="M28.6561 606.621C30.055 606.621 31.1891 605.134 31.1891 603.3C31.1891 601.467 30.055 599.98 28.6561 599.98C27.2571 599.98 26.123 601.467 26.123 603.3C26.123 605.134 27.2571 606.621 28.6561 606.621Z" fill="#C2C0B7"/>
<path d="M28.6561 602.566C30.055 602.566 31.1891 601.08 31.1891 599.246C31.1891 597.413 30.055 595.926 28.6561 595.926C27.2571 595.926 26.123 597.413 26.123 599.246C26.123 601.08 27.2571 602.566 28.6561 602.566Z" fill="#C2C0B7"/>
<path d="M28.6561 598.511C30.055 598.511 31.1891 597.025 31.1891 595.191C31.1891 593.357 30.055 591.871 28.6561 591.871C27.2571 591.871 26.123 593.357 26.123 595.191C26.123 597.025 27.2571 598.511 28.6561 598.511Z" fill="#C2C0B7"/>
<path d="M28.6561 594.457C30.055 594.457 31.1891 592.97 31.1891 591.136C31.1891 589.302 30.055 587.816 28.6561 587.816C27.2571 587.816 26.123 589.302 26.123 591.136C26.123 592.97 27.2571 594.457 28.6561 594.457Z" fill="#C2C0B7"/>
<path d="M28.6561 590.402C30.055 590.402 31.1891 588.915 31.1891 587.082C31.1891 585.249 30.055 583.762 28.6561 583.762C27.2571 583.762 26.123 585.249 26.123 587.082C26.123 588.915 27.2571 590.402 28.6561 590.402Z" fill="#C2C0B7"/>
<path d="M38.1411 551.216C38.4839 550.769 38.7968 550.3 39.0775 549.812L32.4197 548.716L39.6206 548.772C40.3108 547.268 40.6871 545.639 40.7265 543.984C40.766 542.33 40.4677 540.684 39.8501 539.149L30.1956 544.178L39.0915 537.622C38.2585 536.176 37.1365 534.918 35.7956 533.926C34.4547 532.934 32.9236 532.228 31.2979 531.853C29.6722 531.478 27.9869 531.443 26.3469 531.749C24.7069 532.055 23.1476 532.695 21.7662 533.631C20.3848 534.567 19.211 535.777 18.318 537.186C17.425 538.595 16.8321 540.174 16.5761 541.823C16.3202 543.471 16.4068 545.155 16.8303 546.769C17.254 548.382 18.0057 549.892 19.0383 551.203C18.4915 551.886 18.0205 552.627 17.6337 553.413L26.2814 557.908L17.0625 554.812C16.4164 556.732 16.2605 558.782 16.6088 560.777C16.9571 562.772 17.7988 564.648 19.057 566.234C17.6483 568.025 16.7721 570.176 16.5282 572.442C16.2845 574.708 16.6831 576.996 17.6784 579.046C18.6738 581.095 20.2258 582.824 22.157 584.033C24.0882 585.242 26.3207 585.883 28.5991 585.883C30.8775 585.883 33.1099 585.242 35.0411 584.033C36.9724 582.824 38.5243 581.095 39.5197 579.046C40.5152 576.996 40.9137 574.708 40.6699 572.442C40.4261 570.176 39.5498 568.025 38.1411 566.234C39.8247 564.094 40.7402 561.45 40.7402 558.728C40.7402 556.004 39.8247 553.361 38.1411 551.221V551.216Z" fill="#CECCC3"/>
<path opacity="0.1" d="M16.459 558.738C16.4595 561.457 17.3748 564.096 19.0575 566.231C17.6489 568.022 16.7725 570.173 16.5287 572.439C16.2849 574.705 16.6835 576.993 17.6789 579.043C18.6743 581.092 20.2263 582.821 22.1575 584.03C24.0887 585.239 26.3212 585.88 28.5995 585.88C30.878 585.88 33.1104 585.239 35.0416 584.03C36.9728 582.821 38.5249 581.092 39.5202 579.043C40.5156 576.993 40.9142 574.705 40.6704 572.439C40.4266 570.173 39.5502 568.022 38.1415 566.231C39.7568 564.162 16.459 557.357 16.459 558.738Z" fill="#231F20"/>
<path opacity="0.1" d="M80.5309 63.4646L65.6372 72.8952L74.6749 56.4705C72.1121 54.4321 68.9414 53.3051 65.6647 53.2675H65.4315C64.3982 53.2802 63.3656 53.2023 62.3459 53.0349L57.2853 56.2377L59.4521 52.3095C55.8861 51.0709 52.7978 48.7496 50.6202 45.6712L41.5551 51.324L47.2602 40.9627C41.9802 34.6255 34.8489 30.7383 27.0181 30.7383C17.6238 30.7383 9.18959 36.3227 3.84106 45.0141C2.24071 47.6102 -0.0194225 49.7375 -2.70989 51.1797C-5.40036 52.6221 -8.42538 53.3282 -11.4778 53.2265H-11.9303C-22.2982 53.2265 -30.7188 64.9565 -30.7188 79.4514C-30.7188 93.9462 -22.2982 105.663 -11.9303 105.663C-9.64982 105.656 -7.40509 105.097 -5.38862 104.033C-1.85773 102.317 2.00536 101.389 5.93208 101.313C9.85882 101.238 13.755 102.016 17.3495 103.595C20.3936 104.945 23.6873 105.642 27.0181 105.642C30.3488 105.642 33.6425 104.945 36.6866 103.595C40.2538 102.05 44.1125 101.289 48.0006 101.365C51.8887 101.44 55.7149 102.351 59.219 104.033C61.2199 105.068 63.4387 105.613 65.6921 105.621C76.0738 105.621 84.4806 93.8915 84.4806 79.4104C84.517 73.8495 83.1592 68.368 80.5309 63.4646Z" fill="#AFA089"/>
<path opacity="0.1" d="M385.208 -8.92072L375.278 -2.63369L381.303 -13.5835C379.595 -14.9423 377.481 -15.6938 375.297 -15.7187H375.141C374.452 -15.7103 373.764 -15.7623 373.084 -15.8739L369.71 -13.7386L371.155 -16.3575C368.777 -17.1832 366.719 -18.7307 365.267 -20.7831L359.223 -17.0145L363.027 -23.922C359.507 -28.1469 354.753 -30.7383 349.532 -30.7383C343.269 -30.7383 337.646 -27.0153 334.081 -21.2211C333.014 -19.4903 331.507 -18.0721 329.714 -17.1106C327.92 -16.1491 325.904 -15.6783 323.869 -15.7461H323.567C316.655 -15.7461 311.041 -7.92611 311.041 1.73713C311.041 11.4004 316.655 19.2112 323.567 19.2112C325.087 19.2066 326.583 18.834 327.927 18.1254C330.281 16.9811 332.857 16.3622 335.475 16.3118C338.093 16.2613 340.691 16.7806 343.087 17.8334C345.116 18.7329 347.312 19.1976 349.532 19.1976C351.753 19.1976 353.948 18.7329 355.978 17.8334C358.356 16.8029 360.928 16.2956 363.52 16.3461C366.112 16.3965 368.663 17.0033 371 18.1254C372.333 18.8151 373.813 19.1779 375.315 19.1839C382.236 19.1839 387.841 11.3639 387.841 1.70975C387.865 -1.99745 386.96 -5.65182 385.208 -8.92072Z" fill="#9DD9C9"/>
</g>
<defs>
<linearGradient id="paint0_linear_7596_576" x1="241.332" y1="600.154" x2="235.133" y2="446.503" gradientUnits="userSpaceOnUse">
<stop stop-color="#808080" stop-opacity="0.25"/>
<stop offset="0.54" stop-color="#808080" stop-opacity="0.12"/>
<stop offset="1" stop-color="#808080" stop-opacity="0.1"/>
</linearGradient>
<clipPath id="clip0_7596_576">
<rect width="360" height="609" fill="white"/>
</clipPath>
</defs>
</svg>
