<svg width="1920" height="1023" viewBox="0 0 1920 1023" fill="none" xmlns="http://www.w3.org/2000/svg">
<mask id="mask0_6993_672" style="mask-type:luminance" maskUnits="userSpaceOnUse" x="0" y="-2" width="1920" height="1025">
<path d="M1920 -2H0V1023H1920V-2Z" fill="white"/>
</mask>
<g mask="url(#mask0_6993_672)">
<path opacity="0.1" d="M1298.93 908.241C1592 908.241 1829.56 889.798 1829.56 867.046C1829.56 844.295 1592 825.852 1298.93 825.852C1005.87 825.852 768.301 844.295 768.301 867.046C768.301 889.798 1005.87 908.241 1298.93 908.241Z" fill="#AFA089"/>
<g opacity="0.1">
<path d="M1768.91 632.309C1765.75 622.683 1752.88 618.252 1740.19 622.422C1738.37 623.017 1736.61 623.782 1734.91 624.705C1734.1 624.481 1733.27 624.281 1732.42 624.131C1733.11 621.363 1733.38 618.505 1733.2 615.655C1737.58 612.728 1741.13 608.726 1743.52 604.033C1745.89 599.339 1747.04 594.113 1746.81 588.853C1751.18 585.918 1754.71 581.913 1757.09 577.22C1759.46 572.528 1760.6 567.305 1760.37 562.052C1764.77 559.155 1768.32 555.139 1770.64 550.417C1776.77 538.308 1774.23 524.701 1764.98 520.021C1755.73 515.339 1743.25 521.368 1737.14 533.478C1734.71 538.15 1733.58 543.386 1733.86 548.644C1729.49 551.579 1725.96 555.585 1723.58 560.277C1721.21 564.97 1720.07 570.192 1720.3 575.447C1715.92 578.381 1712.39 582.387 1710.01 587.079C1707.64 591.772 1706.52 596.994 1706.73 602.249C1702.35 605.18 1698.82 609.185 1696.43 613.879C1694.04 618.574 1692.91 623.802 1693.12 629.063C1688.73 631.96 1685.18 635.975 1682.85 640.697C1681.7 642.972 1680.83 645.379 1680.26 647.863C1678.73 645.622 1676.84 643.629 1674.71 641.958C1674.47 640.051 1674.04 638.17 1673.47 636.341C1669.29 623.644 1658.11 615.905 1648.49 619.076C1638.87 622.247 1634.43 635.091 1638.6 647.788C1640.31 653.23 1643.59 658.044 1648.04 661.619C1648.29 663.526 1648.7 665.406 1649.29 667.236C1651.71 674.602 1656.5 680.294 1661.97 683.153C1661.47 684.743 1661.13 686.372 1660.93 688.022C1655.78 692.98 1652.45 699.542 1651.51 706.635C1646.36 711.595 1643.03 718.163 1642.1 725.259C1639.54 727.712 1637.43 730.589 1635.86 733.761C1629.73 745.87 1632.25 759.489 1641.51 764.157C1650.76 768.826 1663.23 762.821 1669.37 750.7C1670.99 747.54 1672.04 744.123 1672.49 740.601C1677.64 735.643 1680.97 729.08 1681.9 721.988C1687.06 717.027 1690.39 710.46 1691.32 703.363C1696.43 698.393 1699.71 691.829 1700.62 684.751C1705.8 679.791 1709.13 673.211 1710.05 666.1C1711.64 664.595 1713.07 662.921 1714.28 661.107C1719.39 662.154 1724.68 661.823 1729.61 660.147C1731.44 659.55 1733.2 658.785 1734.88 657.862C1740.41 659.318 1746.24 659.11 1751.64 657.262C1764.29 653.13 1772.07 641.945 1768.91 632.309Z" fill="#373435"/>
<g opacity="0.1">
<path d="M1746.53 594.355C1745.21 595.643 1743.79 596.794 1742.24 597.788C1742.42 601.352 1741.96 604.92 1740.85 608.312C1741.82 606.954 1742.7 605.522 1743.46 604.03C1745.01 600.997 1746.05 597.728 1746.53 594.355Z" fill="#231F20"/>
<path d="M1760.09 567.555C1758.78 568.844 1757.34 569.994 1755.79 570.989C1755.99 574.552 1755.51 578.121 1754.41 581.511C1755.39 580.151 1756.27 578.715 1757.03 577.217C1758.57 574.186 1759.61 570.922 1760.09 567.555Z" fill="#231F20"/>
<path d="M1729.33 557.58C1729.21 555.742 1729.29 553.897 1729.55 552.074C1727.12 554.463 1725.1 557.234 1723.58 560.276C1722.82 561.776 1722.2 563.333 1721.68 564.932C1723.74 562.023 1726.35 559.528 1729.33 557.58Z" fill="#231F20"/>
<path d="M1643.28 719.776C1644.37 718.255 1645.6 716.842 1646.96 715.555C1647.17 713.862 1647.53 712.191 1648.04 710.562C1646.96 712.02 1646 713.569 1645.18 715.194C1644.42 716.668 1643.8 718.201 1643.28 719.776Z" fill="#231F20"/>
<path d="M1652.68 701.177C1653.78 699.657 1655.02 698.244 1656.36 696.959C1656.58 695.308 1656.92 693.679 1657.4 692.09C1656.36 693.506 1655.46 695.005 1654.66 696.572C1653.88 698.056 1653.23 699.595 1652.68 701.177Z" fill="#231F20"/>
<path d="M1732.95 621.158C1731.66 622.446 1730.22 623.593 1728.67 624.579C1728.84 627.427 1728.57 630.286 1727.88 633.055C1728.72 633.201 1729.56 633.392 1730.39 633.629C1732.07 632.706 1733.83 631.941 1735.66 631.344C1748.38 627.175 1761.22 631.607 1764.39 641.231C1765.16 643.651 1765.31 646.232 1764.79 648.721C1768.96 643.803 1770.7 637.811 1768.9 632.319C1765.73 622.693 1752.87 618.262 1740.18 622.432C1738.35 623.027 1736.59 623.792 1734.9 624.716C1734.09 624.491 1733.26 624.292 1732.4 624.141C1732.64 623.143 1732.82 622.157 1732.95 621.158Z" fill="#231F20"/>
<path d="M1638.63 729.125C1637.54 730.584 1636.59 732.133 1635.76 733.758C1635.02 735.262 1634.36 736.823 1633.84 738.426C1634.96 736.898 1636.22 735.477 1637.59 734.182C1637.78 732.468 1638.12 730.776 1638.63 729.125Z" fill="#231F20"/>
<path d="M1715.71 584.38C1715.6 582.543 1715.67 580.698 1715.92 578.875C1713.5 581.264 1711.48 584.035 1709.96 587.076C1709.2 588.576 1708.57 590.133 1708.05 591.733C1710.12 588.823 1712.72 586.329 1715.71 584.38Z" fill="#231F20"/>
<path d="M1696.13 693.687C1695.87 695.545 1695.46 697.374 1694.87 699.155C1695.86 697.791 1696.73 696.355 1697.49 694.86C1698.3 693.257 1698.98 691.586 1699.51 689.867C1698.5 691.234 1697.37 692.511 1696.13 693.687Z" fill="#231F20"/>
<path d="M1677.3 730.91C1677.05 732.767 1676.63 734.597 1676.04 736.378C1677.03 735.016 1677.91 733.582 1678.67 732.083C1679.49 730.477 1680.17 728.806 1680.7 727.09C1679.69 728.459 1678.54 729.738 1677.3 730.91Z" fill="#231F20"/>
<path d="M1686.71 712.288C1686.47 714.144 1686.05 715.976 1685.46 717.756C1686.45 716.417 1687.35 715.007 1688.13 713.536C1688.95 711.932 1689.63 710.262 1690.16 708.543C1689.12 709.886 1687.96 711.139 1686.71 712.288Z" fill="#231F20"/>
<path d="M1705.53 675.074C1705.29 676.928 1704.88 678.754 1704.29 680.53C1705.27 679.172 1706.15 677.741 1706.89 676.248C1707.72 674.617 1708.41 672.916 1708.95 671.168C1707.93 672.569 1706.79 673.877 1705.53 675.074Z" fill="#231F20"/>
<path d="M1643.9 627.998C1653.53 624.84 1664.72 632.568 1668.87 645.263C1669.45 647.098 1669.87 648.983 1670.12 650.894C1672.25 652.565 1674.12 654.557 1675.66 656.798C1676.23 654.31 1677.11 651.9 1678.26 649.621C1678.7 648.772 1679.17 647.96 1679.66 647.123C1678.23 645.163 1676.56 643.406 1674.66 641.905C1674.42 639.999 1674 638.119 1673.41 636.288C1669.24 623.592 1658.06 615.853 1648.44 619.023C1642.95 620.82 1639.15 625.777 1637.68 632.043C1639.36 630.183 1641.51 628.79 1643.9 627.998Z" fill="#231F20"/>
<path d="M1688.6 637.984C1688.48 636.15 1688.56 634.31 1688.81 632.492C1686.39 634.877 1684.37 637.648 1682.84 640.694C1682.09 642.188 1681.45 643.74 1680.94 645.337C1683.01 642.433 1685.61 639.938 1688.6 637.984Z" fill="#231F20"/>
<path d="M1702.16 611.172C1702.05 609.338 1702.12 607.497 1702.38 605.68C1699.94 608.058 1697.93 610.825 1696.39 613.868C1695.65 615.368 1695.01 616.925 1694.5 618.524C1696.57 615.615 1699.17 613.12 1702.16 611.172Z" fill="#231F20"/>
<path d="M1667.88 749.523C1667.64 751.385 1667.21 753.218 1666.64 755.003C1668.68 752.161 1670.25 749.002 1671.3 745.652C1670.27 747.04 1669.13 748.335 1667.88 749.523Z" fill="#231F20"/>
</g>
<path d="M1787.41 508.447C1791.82 505.553 1795.37 501.536 1797.69 496.813C1803.83 484.704 1801.29 471.084 1792.03 466.403C1782.78 461.721 1770.31 467.751 1764.18 479.872C1761.76 484.558 1760.62 489.807 1760.9 495.076C1756.54 498.013 1753 502.018 1750.63 506.711C1748.25 511.402 1747.13 516.626 1747.35 521.879C1742.94 524.769 1739.39 528.787 1737.07 533.514C1736.33 534.995 1735.7 536.536 1735.19 538.12C1738.45 533.401 1743.17 529.89 1748.64 528.133C1749.25 530.056 1750.26 531.836 1751.56 533.371C1752.88 534.906 1754.48 536.166 1756.3 537.076C1758.1 537.986 1760.06 538.53 1762.08 538.674C1764.09 538.819 1766.12 538.563 1768.04 537.92C1769.88 543.348 1769.88 549.232 1768.04 554.66C1769.01 553.316 1769.88 551.896 1770.63 550.416C1773.06 545.742 1774.19 540.505 1773.91 535.249C1778.27 532.318 1781.82 528.314 1784.19 523.62C1786.56 518.928 1787.69 513.701 1787.47 508.447H1787.41Z" fill="#373435"/>
<path d="M1936.44 336.626C1940.2 334.869 1943.84 332.854 1947.33 330.596L1906.96 301.11L1954.41 325.54C1964 317.917 1971.94 308.414 1977.75 297.616C1983.54 286.816 1987.07 274.947 1988.11 262.736L1907.48 263.56L1988.3 250.053C1987.46 237.829 1984.14 225.906 1978.52 215.015C1972.9 204.124 1965.12 194.495 1955.66 186.719C1946.19 178.944 1935.22 173.188 1923.46 169.802C1911.67 166.416 1899.33 165.472 1887.18 167.031C1875.02 168.588 1863.32 172.615 1852.78 178.861C1842.24 185.109 1833.09 193.443 1825.88 203.356C1818.68 213.268 1813.58 224.548 1810.9 236.503C1808.22 248.457 1808 260.834 1810.28 272.873C1804.41 275.597 1798.86 278.945 1793.73 282.86L1835.86 341.444L1785.27 290.162C1774.59 300.644 1766.69 313.623 1762.3 327.924C1757.9 342.224 1757.14 357.397 1760.09 372.066C1744.8 379.198 1731.83 390.485 1722.66 404.637C1713.5 418.788 1708.49 435.235 1708.23 452.096C1707.96 468.956 1712.44 485.552 1721.17 499.986C1729.88 514.419 1742.49 526.109 1757.54 533.719C1772.59 541.328 1789.48 544.551 1806.28 543.019C1823.07 541.487 1839.1 535.262 1852.53 525.055C1865.95 514.848 1876.22 501.069 1882.2 485.296C1888.16 469.523 1889.57 452.391 1886.26 435.856C1904.54 427.345 1919.44 412.931 1928.54 394.932C1937.64 376.934 1940.43 356.397 1936.44 336.626Z" fill="#AFA089"/>
<path opacity="0.6" d="M1768.04 313.756C1758.9 331.746 1756.11 352.291 1760.12 372.066C1744.83 379.199 1731.86 390.486 1722.69 404.638C1713.51 418.789 1708.51 435.236 1708.25 452.096C1707.99 468.957 1712.47 485.553 1721.18 499.987C1729.91 514.42 1742.52 526.11 1757.57 533.72C1772.62 541.329 1789.51 544.552 1806.29 543.02C1823.09 541.488 1839.12 535.263 1852.54 525.056C1865.98 514.848 1876.25 501.069 1882.21 485.297C1888.18 469.524 1889.59 452.391 1886.27 435.857C1903.92 427.667 1772.55 304.755 1768.04 313.756Z" fill="#AFA089"/>
<path d="M1869.35 183.616C1876.72 183.616 1882.69 177.641 1882.69 170.271C1882.69 162.901 1876.72 156.926 1869.35 156.926C1861.97 156.926 1856 162.901 1856 170.271C1856 177.641 1861.97 183.616 1869.35 183.616Z" fill="#9DD9C9"/>
<path d="M1881.36 496.349C1888.73 496.349 1894.7 490.375 1894.7 483.005C1894.7 475.634 1888.73 469.66 1881.36 469.66C1873.98 469.66 1868.02 475.634 1868.02 483.005C1868.02 490.375 1873.98 496.349 1881.36 496.349Z" fill="#9DD9C9"/>
<path d="M1758.1 355.487C1765.47 355.487 1771.44 349.512 1771.44 342.142C1771.44 334.772 1765.47 328.797 1758.1 328.797C1750.72 328.797 1744.76 334.772 1744.76 342.142C1744.76 349.512 1750.72 355.487 1758.1 355.487Z" fill="#9DD9C9"/>
<path opacity="0.1" d="M1743.86 561.637C1734.99 557.155 1732.31 544.46 1737.49 532.75C1737.21 533.225 1736.95 533.711 1736.7 534.223C1730.58 546.333 1733.11 559.939 1742.36 564.62C1751.6 569.302 1764.08 563.272 1770.2 551.163C1770.46 550.663 1770.68 550.152 1770.91 549.653C1764.56 560.776 1752.74 566.131 1743.86 561.637Z" fill="#231F20"/>
<path opacity="0.1" d="M1730.68 587.704C1721.82 583.222 1719.13 570.525 1724.32 558.805C1724.04 559.29 1723.77 559.778 1723.52 560.277C1717.38 572.386 1719.92 586.006 1729.17 590.674C1738.42 595.343 1750.9 589.338 1757.02 577.217C1757.27 576.718 1757.51 576.219 1757.74 575.707C1751.38 586.829 1739.56 592.185 1730.68 587.704Z" fill="#231F20"/>
<path opacity="0.1" d="M1717.5 613.757C1708.63 609.275 1705.93 596.58 1711.13 584.871C1710.85 585.345 1710.57 585.832 1710.33 586.343C1704.2 598.452 1706.74 612.059 1716 616.741C1725.25 621.421 1737.71 615.393 1743.84 603.284C1744.09 602.785 1744.33 602.272 1744.56 601.773C1738.19 612.896 1726.37 618.252 1717.5 613.757Z" fill="#231F20"/>
<path opacity="0.1" d="M1704.36 639.883C1695.48 635.401 1692.8 622.706 1697.98 610.996C1697.71 611.471 1697.44 611.957 1697.18 612.458C1691.07 624.565 1693.6 638.185 1702.85 642.866C1712.11 647.548 1724.57 641.518 1730.69 629.397C1730.96 628.898 1731.17 628.398 1731.4 627.886C1725.01 638.946 1713.19 644.302 1704.36 639.883Z" fill="#231F20"/>
<path opacity="0.1" d="M1691.15 665.875C1682.26 661.393 1679.58 648.697 1684.76 636.988C1684.49 637.462 1684.22 637.949 1683.97 638.462C1677.84 650.57 1680.38 664.178 1689.63 668.858C1698.89 673.54 1711.36 667.51 1717.49 655.401C1717.74 654.902 1717.98 654.391 1718.19 653.89C1711.86 665.013 1700.01 670.369 1691.15 665.875Z" fill="#231F20"/>
<path opacity="0.1" d="M1677.95 691.942C1669.09 687.46 1666.4 674.763 1671.59 663.055C1671.31 663.528 1671.04 664.016 1670.79 664.515C1664.66 676.624 1667.2 690.244 1676.46 694.924C1685.72 699.606 1698.11 693.564 1704.36 681.455C1704.61 680.956 1704.85 680.457 1705.08 679.945C1698.65 691.067 1686.88 696.423 1677.95 691.942Z" fill="#231F20"/>
<path opacity="0.1" d="M1664.77 717.992C1655.91 713.511 1653.22 700.816 1658.41 689.105C1658.13 689.593 1657.87 690.068 1657.61 690.579C1651.48 702.688 1654.02 716.295 1663.28 720.977C1672.52 725.657 1685 719.629 1691.12 707.519C1691.38 707.02 1691.6 706.508 1691.83 706.009C1685.48 717.132 1673.64 722.486 1664.77 717.992Z" fill="#231F20"/>
<path opacity="0.1" d="M1651.6 744.059C1642.73 739.577 1640.03 726.882 1645.22 715.172C1644.94 715.647 1644.68 716.134 1644.44 716.633C1638.3 728.742 1640.83 742.361 1650.09 747.043C1659.34 751.724 1671.81 745.694 1677.94 733.572C1678.19 733.073 1678.42 732.574 1678.65 732.063C1672.28 743.185 1660.46 748.491 1651.6 744.059Z" fill="#231F20"/>
<path opacity="0.1" d="M1642.93 761.184C1634.07 756.69 1631.37 744.007 1636.56 732.285C1636.3 732.772 1636.02 733.258 1635.76 733.759C1629.64 745.866 1632.17 759.486 1641.42 764.155C1650.68 768.824 1663.14 762.819 1669.28 750.698C1669.53 750.199 1669.76 749.699 1669.99 749.187C1663.62 760.31 1651.8 765.666 1642.93 761.184Z" fill="#231F20"/>
<path d="M1881.15 645.204C1882.52 641.26 1883.36 637.149 1883.64 632.981C1884.56 632.98 1885.47 632.789 1886.31 632.421C1887.15 632.052 1887.9 631.514 1888.53 630.842C1889.14 630.168 1889.62 629.374 1889.93 628.507C1890.22 627.641 1890.34 626.723 1890.27 625.809C1890.21 624.895 1889.95 624.004 1889.51 623.194C1889.09 622.384 1888.5 621.671 1887.78 621.1C1887.06 620.529 1886.23 620.113 1885.35 619.875C1884.47 619.639 1883.54 619.588 1882.63 619.724C1881.15 612.968 1878.17 606.626 1873.93 601.161C1869.7 595.697 1864.28 591.244 1858.1 588.129C1858.91 586.549 1859.05 584.718 1858.49 583.038C1857.94 581.356 1856.74 579.964 1855.17 579.166C1853.58 578.368 1851.75 578.23 1850.07 578.783C1848.39 579.336 1847 580.533 1846.2 582.112C1845.91 582.673 1845.71 583.275 1845.6 583.897C1838.28 582.532 1830.73 582.936 1823.59 585.076C1816.45 587.214 1809.92 591.026 1804.56 596.193C1800.5 595.538 1796.38 595.417 1792.3 595.832L1786.9 620.436L1786.57 596.718C1780.36 598.078 1774.5 600.688 1769.34 604.391C1764.17 608.093 1759.82 612.808 1756.55 618.249C1753.27 623.689 1751.14 629.742 1750.28 636.035C1749.42 642.328 1749.86 648.73 1751.55 654.849C1753.26 660.97 1756.18 666.678 1760.17 671.627C1764.15 676.576 1769.1 680.661 1774.71 683.632C1780.33 686.604 1786.49 688.399 1792.82 688.909C1799.16 689.419 1805.52 688.633 1811.54 686.597C1812.18 687.759 1813.17 688.7 1814.35 689.295C1815.57 689.915 1816.96 690.145 1818.32 689.95C1819.66 689.755 1820.93 689.148 1821.93 688.208C1822.93 687.27 1823.61 686.045 1823.89 684.702C1824.17 683.36 1824.03 681.965 1823.49 680.706C1825.62 679.244 1827.62 677.607 1829.48 675.812C1839.22 677.397 1849.23 675.855 1858.04 671.408C1866.86 666.961 1874.05 659.837 1878.56 651.057L1853.41 646.825L1881.15 645.204Z" fill="#AFA089"/>
<g opacity="0.1">
<path d="M1842.28 657.148C1832.99 644.889 1827.3 630.371 1820.74 616.438C1818.1 610.721 1815.17 605.153 1811.91 599.761L1806.99 594.031C1806.17 594.731 1805.35 595.454 1804.49 596.216C1800.44 595.559 1796.33 595.438 1792.23 595.853L1786.83 620.458L1786.51 596.741C1780.3 598.101 1774.43 600.711 1769.28 604.413C1764.12 608.114 1759.76 612.831 1756.49 618.271C1753.2 623.712 1751.07 629.765 1750.22 636.058C1749.36 642.35 1749.79 648.753 1751.5 654.872C1753.19 660.991 1756.13 666.701 1760.1 671.65C1764.09 676.598 1769.04 680.683 1774.65 683.655C1780.26 686.626 1786.43 688.422 1792.75 688.932C1799.09 689.442 1805.45 688.656 1811.47 686.62C1812.13 687.781 1813.1 688.721 1814.29 689.316C1815.51 689.938 1816.89 690.166 1818.25 689.973C1819.61 689.778 1820.88 689.169 1821.87 688.231C1822.87 687.292 1823.56 686.068 1823.84 684.725C1824.11 683.382 1823.97 681.986 1823.43 680.728C1825.55 679.266 1827.56 677.629 1829.42 675.835C1838.96 677.379 1848.75 675.931 1857.44 671.69C1851.63 667.686 1846.52 662.776 1842.28 657.148Z" fill="#231F20"/>
</g>
<path d="M1677.78 604.469C1678.3 603.452 1678.54 602.319 1678.5 601.18C1678.45 600.041 1678.1 598.932 1677.51 597.962C1676.91 596.992 1676.07 596.191 1675.07 595.636C1674.08 595.082 1672.95 594.792 1671.81 594.796C1669.92 584.764 1664.78 575.628 1657.2 568.792C1658.43 564.026 1658.89 559.097 1658.58 554.187L1634.04 550.004L1657.87 548.507C1657.44 546.27 1656.86 544.068 1656.11 541.915C1657.03 541.277 1657.79 540.42 1658.3 539.419C1658.9 538.226 1659.14 536.88 1658.97 535.556C1658.79 534.23 1658.22 532.988 1657.34 531.987C1656.46 530.987 1655.28 530.276 1653.99 529.945C1652.69 529.614 1651.33 529.679 1650.08 530.132C1643.77 521.218 1634.54 514.795 1623.98 511.981C1613.43 509.166 1602.22 510.137 1592.31 514.725C1582.41 519.313 1574.41 527.227 1569.73 537.093C1565.05 546.959 1563.97 558.154 1566.69 568.731C1565.25 569.339 1564.06 570.447 1563.37 571.851C1562.75 573.06 1562.53 574.427 1562.71 575.769C1562.89 577.112 1563.49 578.367 1564.39 579.366C1565.31 580.365 1566.51 581.061 1567.84 581.363C1569.16 581.665 1570.53 581.555 1571.8 581.051C1574.19 585.072 1577.18 588.713 1580.64 591.849C1578.11 601.708 1578.88 612.124 1582.82 621.51L1615.72 612.971L1586.38 628.401C1591.56 636.644 1599.2 643.058 1608.21 646.748C1617.23 650.44 1627.17 651.222 1636.64 648.985C1646.13 646.748 1654.67 641.606 1661.09 634.275C1667.49 626.945 1671.45 617.794 1672.41 608.102C1673.55 608.005 1674.63 607.621 1675.56 606.984C1676.51 606.349 1677.27 605.482 1677.78 604.469Z" fill="#9DD9C9"/>
<path opacity="0.1" d="M1677.78 604.469C1678.3 603.452 1678.54 602.319 1678.49 601.179C1678.45 600.041 1678.1 598.933 1677.51 597.961C1676.91 596.991 1676.07 596.19 1675.07 595.635C1674.07 595.081 1672.95 594.792 1671.81 594.796C1669.92 584.763 1664.78 575.628 1657.2 568.792C1657.4 568.005 1657.58 567.231 1657.72 566.445C1656.86 567.077 1656.06 567.792 1655.32 568.579C1650.89 573.436 1648.61 579.965 1644.24 584.871C1639.06 590.664 1631.32 593.684 1623.59 594.495C1615.87 595.307 1608.09 594.12 1600.46 592.635C1594.15 591.387 1587.73 589.939 1581.33 590.55C1580.71 590.55 1580.08 590.688 1579.51 590.788C1579.88 591.149 1580.26 591.512 1580.64 591.861C1578.11 601.721 1578.88 612.137 1582.82 621.522L1615.71 612.971L1586.37 628.4C1591.56 636.643 1599.19 643.057 1608.21 646.748C1617.23 650.439 1627.17 651.221 1636.64 648.984C1646.13 646.748 1654.67 641.605 1661.09 634.274C1667.49 626.944 1671.45 617.794 1672.41 608.102C1673.54 608.005 1674.63 607.62 1675.56 606.984C1676.51 606.348 1677.27 605.482 1677.78 604.469Z" fill="#231F20"/>
</g>
<g opacity="0.1">
<path d="M825.56 680.243C827.158 675.387 833.637 673.152 840.031 675.249C840.95 675.551 841.84 675.935 842.69 676.398C843.103 676.286 843.527 676.186 843.938 676.111C843.588 674.717 843.454 673.276 843.539 671.842C841.344 670.358 839.565 668.338 838.37 665.975C837.174 663.611 836.603 660.98 836.709 658.334C834.495 656.878 832.711 654.857 831.54 652.48C830.32 650.125 829.747 647.489 829.88 644.839C827.668 643.377 825.884 641.352 824.711 638.972C821.64 632.881 822.889 626.028 827.57 623.656C832.252 621.283 838.519 624.342 841.604 630.435C842.821 632.794 843.391 635.434 843.252 638.086C845.452 639.561 847.236 641.578 848.432 643.94C849.628 646.303 850.196 648.935 850.081 651.581C852.281 653.059 854.064 655.077 855.26 657.442C856.456 659.807 857.024 662.441 856.911 665.088C859.111 666.563 860.895 668.579 862.09 670.942C863.287 673.306 863.856 675.936 863.741 678.583C865.957 680.044 867.745 682.069 868.922 684.45C869.484 685.602 869.903 686.816 870.171 688.07C870.939 686.938 871.879 685.931 872.955 685.087C873.083 684.123 873.301 683.175 873.604 682.253C875.715 675.862 881.345 671.966 886.202 673.514C891.059 675.062 893.282 681.591 891.196 687.983C890.334 690.727 888.68 693.156 886.439 694.96C886.309 695.919 886.093 696.863 885.79 697.782C884.765 701.17 882.482 704.037 879.409 705.796C879.651 706.613 879.825 707.448 879.934 708.293C881.224 709.53 882.291 710.979 883.093 712.575C883.91 714.168 884.442 715.891 884.666 717.668C885.96 718.904 887.033 720.352 887.838 721.949C888.653 723.544 889.185 725.267 889.411 727.044C890.708 728.281 891.78 729.734 892.582 731.337C895.666 737.43 894.392 744.295 889.735 746.641C885.078 748.989 878.785 745.967 875.701 739.864C874.889 738.269 874.356 736.546 874.128 734.77C871.526 732.275 869.853 728.968 869.384 725.395C866.783 722.9 865.109 719.594 864.639 716.019C863.346 714.784 862.275 713.336 861.469 711.738C860.66 710.142 860.129 708.419 859.894 706.645C858.605 705.408 857.538 703.96 856.736 702.363C855.92 700.77 855.387 699.047 855.163 697.271C854.358 696.522 853.643 695.684 853.028 694.773C850.46 695.299 847.797 695.135 845.312 694.3C844.389 693.991 843.495 693.603 842.64 693.139C839.863 693.875 836.93 693.771 834.212 692.838C827.883 690.728 823.975 685.099 825.56 680.243Z" fill="#373435"/>
<g opacity="0.1">
<path d="M836.836 661.105C837.499 661.757 838.226 662.339 839.009 662.84C838.903 664.633 839.14 666.429 839.709 668.134C839.207 667.452 838.764 666.73 838.385 665.974C837.603 664.447 837.08 662.802 836.836 661.105Z" fill="#231F20"/>
<path d="M830.006 647.621C830.672 648.266 831.399 648.842 832.178 649.344C832.074 651.141 832.311 652.941 832.878 654.649C831.365 652.574 830.379 650.162 830.006 647.621Z" fill="#231F20"/>
<path d="M845.526 642.592C845.584 641.667 845.551 640.739 845.426 639.82C846.647 641.025 847.662 642.422 848.434 643.952C848.812 644.709 849.128 645.494 849.383 646.3C848.342 644.832 847.033 643.573 845.526 642.592Z" fill="#231F20"/>
<path d="M888.851 724.307C888.304 723.541 887.686 722.831 887.003 722.185C886.888 721.338 886.705 720.503 886.453 719.688C886.995 720.42 887.475 721.197 887.889 722.01C888.268 722.749 888.589 723.518 888.851 724.307Z" fill="#231F20"/>
<path d="M884.068 714.932C883.522 714.166 882.903 713.456 882.221 712.81C882.118 711.963 881.943 711.128 881.695 710.312C882.724 711.705 883.518 713.257 884.044 714.906L884.068 714.932Z" fill="#231F20"/>
<path d="M843.679 674.637C844.334 675.284 845.059 675.858 845.838 676.347C845.744 677.783 845.88 679.223 846.238 680.616C845.816 680.691 845.4 680.787 844.989 680.903C844.134 680.443 843.24 680.058 842.318 679.755C835.924 677.657 829.445 679.893 827.859 684.748C827.462 685.956 827.389 687.248 827.646 688.493C826.62 687.414 825.889 686.086 825.526 684.64C825.163 683.195 825.179 681.68 825.574 680.243C827.173 675.386 833.652 673.152 840.044 675.248C840.965 675.55 841.855 675.934 842.705 676.398C843.116 676.285 843.542 676.185 843.952 676.111C843.832 675.625 843.742 675.134 843.679 674.637Z" fill="#231F20"/>
<path d="M891.197 729.016C891.742 729.751 892.222 730.533 892.633 731.35C893.013 732.107 893.335 732.891 893.594 733.698C893.048 732.927 892.429 732.213 891.746 731.562C891.635 730.7 891.451 729.848 891.197 729.016Z" fill="#231F20"/>
<path d="M852.356 656.111C852.416 655.186 852.383 654.258 852.256 653.34C853.479 654.542 854.496 655.938 855.265 657.472C855.642 658.223 855.96 659.004 856.213 659.806C855.173 658.342 853.864 657.087 852.356 656.111Z" fill="#231F20"/>
<path d="M862.232 711.164C862.348 712.097 862.553 713.016 862.843 713.91C861.802 712.484 861.01 710.893 860.496 709.203C861.015 709.908 861.595 710.563 862.232 711.164Z" fill="#231F20"/>
<path d="M871.708 729.914C871.834 730.845 872.042 731.765 872.331 732.66C871.83 731.978 871.388 731.256 871.008 730.5C870.598 729.698 870.255 728.863 869.984 728.004C870.507 728.685 871.084 729.324 871.708 729.914Z" fill="#231F20"/>
<path d="M866.976 720.539C867.094 721.472 867.298 722.391 867.589 723.285C867.091 722.602 866.648 721.879 866.265 721.126C865.853 720.324 865.51 719.49 865.24 718.629C865.762 719.316 866.342 719.954 866.976 720.539Z" fill="#231F20"/>
<path d="M857.488 701.777C857.602 702.714 857.808 703.637 858.099 704.535C857.626 703.851 857.209 703.129 856.851 702.376C856.432 701.577 856.085 700.741 855.814 699.879C856.313 700.561 856.874 701.196 857.488 701.777Z" fill="#231F20"/>
<path d="M888.54 678.069C883.683 676.472 878.051 680.366 875.954 686.807C875.651 687.731 875.434 688.678 875.305 689.642C874.225 690.481 873.281 691.484 872.507 692.613C872.218 691.357 871.778 690.142 871.197 688.992C870.985 688.568 870.748 688.156 870.498 687.744C871.207 686.76 872.047 685.878 872.994 685.123C873.124 684.159 873.34 683.212 873.644 682.288C875.754 675.896 881.386 672.002 886.242 673.55C887.635 674.085 888.866 674.97 889.816 676.121C890.764 677.271 891.401 678.647 891.661 680.117C890.812 679.178 889.738 678.474 888.54 678.069Z" fill="#231F20"/>
<path d="M866.016 683.099C866.076 682.175 866.043 681.246 865.916 680.328C867.14 681.531 868.156 682.927 868.925 684.46C869.302 685.217 869.62 686.002 869.875 686.806C868.837 685.336 867.528 684.077 866.016 683.099Z" fill="#231F20"/>
<path d="M859.186 669.595C859.245 668.67 859.211 667.742 859.086 666.824C860.304 668.031 861.319 669.427 862.095 670.956C862.472 671.712 862.79 672.496 863.045 673.303C862.004 671.834 860.695 670.576 859.186 669.595Z" fill="#231F20"/>
<path d="M876.453 739.289C876.573 740.226 876.783 741.151 877.077 742.047C876.578 741.36 876.135 740.634 875.754 739.876C875.343 739.074 875.001 738.238 874.73 737.379C875.253 738.06 875.829 738.699 876.453 739.289Z" fill="#231F20"/>
</g>
<path d="M816.233 617.839C814.02 616.383 812.234 614.361 811.064 611.984C807.979 605.879 809.254 599.026 813.91 596.668C818.567 594.308 824.86 597.342 827.944 603.445C829.163 605.801 829.733 608.438 829.592 611.086C831.792 612.565 833.574 614.583 834.77 616.947C835.967 619.312 836.535 621.944 836.422 624.592C838.637 626.051 840.425 628.072 841.603 630.447C841.978 631.196 842.295 631.973 842.551 632.77C840.898 630.409 838.517 628.655 835.772 627.775C835.467 628.751 834.97 629.656 834.31 630.437C833.651 631.217 832.842 631.858 831.932 632.324C831.022 632.788 830.028 633.067 829.009 633.143C827.989 633.221 826.966 633.093 825.996 632.77C825.07 635.502 825.07 638.463 825.996 641.195C825.528 640.516 825.11 639.803 824.747 639.061C823.528 636.705 822.954 634.07 823.087 631.42C820.89 629.94 819.108 627.921 817.913 625.556C816.717 623.192 816.148 620.56 816.257 617.914L816.233 617.839Z" fill="#373435"/>
<path d="M741.171 531.28C739.277 530.395 737.447 529.382 735.691 528.247L756.017 513.392L732.119 525.688C727.288 521.847 723.29 517.059 720.373 511.621C717.455 506.182 715.678 500.204 715.151 494.055L755.779 494.48L715.064 487.664C715.415 481.454 717.04 475.381 719.841 469.828C722.64 464.273 726.554 459.354 731.338 455.378C736.123 451.402 741.675 448.454 747.648 446.716C753.622 444.98 759.889 444.491 766.06 445.281C772.231 446.071 778.172 448.124 783.515 451.311C788.857 454.498 793.487 458.75 797.113 463.803C800.741 468.857 803.288 474.603 804.597 480.684C805.906 486.764 805.949 493.05 804.723 499.148C807.671 500.512 810.467 502.186 813.062 504.141L791.838 533.653L817.319 507.837C822.698 513.118 826.673 519.655 828.887 526.859C831.102 534.062 831.487 541.705 830.006 549.094C837.714 552.685 844.257 558.37 848.885 565.504C853.514 572.636 856.041 580.927 856.178 589.428C856.316 597.93 854.057 606.298 849.662 613.577C845.266 620.855 838.91 626.75 831.321 630.587C823.733 634.424 815.217 636.049 806.748 635.275C798.28 634.5 790.201 631.359 783.433 626.21C776.666 621.061 771.485 614.111 768.483 606.155C765.481 598.201 764.778 589.562 766.455 581.226C757.254 576.939 749.759 569.687 745.175 560.631C740.59 551.577 739.18 541.244 741.171 531.293V531.28Z" fill="#AFA089"/>
<path opacity="0.1" d="M826.01 519.768C830.615 528.829 832.022 539.179 830.005 549.141C837.714 552.731 844.256 558.418 848.885 565.55C853.513 572.683 856.04 580.975 856.178 589.475C856.315 597.977 854.058 606.345 849.661 613.624C845.266 620.902 838.91 626.797 831.322 630.634C823.733 634.471 815.217 636.095 806.749 635.321C798.28 634.547 790.2 631.405 783.434 626.256C776.667 621.107 771.486 614.158 768.484 606.203C765.48 598.248 764.777 589.608 766.454 581.274C757.552 577.142 823.725 515.236 826.01 519.768Z" fill="#231F20"/>
<path d="M774.97 454.206C778.687 454.206 781.7 451.194 781.7 447.478C781.7 443.762 778.687 440.75 774.97 440.75C771.253 440.75 768.24 443.762 768.24 447.478C768.24 451.194 771.253 454.206 774.97 454.206Z" fill="#9DD9C9"/>
<path d="M735.691 458.527C739.407 458.527 742.42 455.515 742.42 451.798C742.42 448.083 739.407 445.07 735.691 445.07C731.974 445.07 728.961 448.083 728.961 451.798C728.961 455.515 731.974 458.527 735.691 458.527Z" fill="#9DD9C9"/>
<path d="M720.558 518.934C724.274 518.934 727.287 515.921 727.287 512.204C727.287 508.489 724.274 505.477 720.558 505.477C716.841 505.477 713.828 508.489 713.828 512.204C713.828 515.921 716.841 518.934 720.558 518.934Z" fill="#9DD9C9"/>
<path d="M740.996 549.106C744.713 549.106 747.726 546.093 747.726 542.378C747.726 538.661 744.713 535.648 740.996 535.648C737.28 535.648 734.266 538.661 734.266 542.378C734.266 546.093 737.28 549.106 740.996 549.106Z" fill="#9DD9C9"/>
<path d="M768.914 611.758C772.631 611.758 775.644 608.746 775.644 605.029C775.644 601.313 772.631 598.301 768.914 598.301C765.196 598.301 762.184 601.313 762.184 605.029C762.184 608.746 765.196 611.758 768.914 611.758Z" fill="#9DD9C9"/>
<path opacity="0.1" d="M768.914 611.758C772.631 611.758 775.644 608.746 775.644 605.029C775.644 601.313 772.631 598.301 768.914 598.301C765.196 598.301 762.184 601.313 762.184 605.029C762.184 608.746 765.196 611.758 768.914 611.758Z" fill="#231F20"/>
<path d="M831.003 540.793C834.721 540.793 837.733 537.781 837.733 534.064C837.733 530.348 834.721 527.336 831.003 527.336C827.288 527.336 824.273 530.348 824.273 534.064C824.273 537.781 827.288 540.793 831.003 540.793Z" fill="#9DD9C9"/>
<path opacity="0.1" d="M831.003 540.793C834.721 540.793 837.733 537.781 837.733 534.064C837.733 530.348 834.721 527.336 831.003 527.336C827.288 527.336 824.273 530.348 824.273 534.064C824.273 537.781 827.288 540.793 831.003 540.793Z" fill="#231F20"/>
<path opacity="0.1" d="M838.182 644.641C842.651 642.382 844 635.99 841.391 630.086C841.528 630.336 841.665 630.572 841.79 630.823C844.874 636.926 843.6 643.779 838.93 646.139C834.262 648.499 827.993 645.465 824.91 639.36C824.784 639.111 824.66 638.861 824.547 638.6C827.756 644.204 833.712 646.901 838.182 644.641Z" fill="#231F20"/>
<path opacity="0.1" d="M844.813 657.776C849.283 655.516 850.644 649.111 848.034 643.219C848.171 643.456 848.309 643.706 848.434 643.955C851.517 650.06 850.245 656.913 845.575 659.273C840.905 661.633 834.638 658.599 831.553 652.494C831.416 652.245 831.303 651.983 831.191 651.732C834.4 657.363 840.368 660.034 844.813 657.776Z" fill="#231F20"/>
<path opacity="0.1" d="M851.455 670.891C855.925 668.632 857.285 662.24 854.662 656.336C854.813 656.586 854.937 656.823 855.075 657.085C858.159 663.177 856.873 670.043 852.215 672.389C847.559 674.737 841.278 671.715 838.195 665.61C838.057 665.361 837.945 665.111 837.832 664.85C841.029 670.455 846.985 673.151 851.455 670.891Z" fill="#231F20"/>
<path opacity="0.1" d="M858.098 684.024C862.568 681.765 863.929 675.373 861.307 669.469C861.444 669.705 861.582 669.955 861.706 670.204C864.803 676.309 863.516 683.162 858.86 685.522C854.203 687.881 847.91 684.848 844.826 678.743C844.701 678.494 844.589 678.232 844.477 677.982C847.673 683.575 853.628 686.284 858.098 684.024Z" fill="#231F20"/>
<path opacity="0.1" d="M864.739 697.145C869.209 694.886 870.558 688.494 867.948 682.602C868.085 682.839 868.223 683.089 868.348 683.338C871.432 689.443 870.157 696.296 865.501 698.656C860.844 701.016 854.551 697.969 851.467 691.877C851.343 691.616 851.23 691.365 851.105 691.115C854.314 696.709 860.269 699.405 864.739 697.145Z" fill="#231F20"/>
<path opacity="0.1" d="M871.383 710.278C875.853 708.019 877.2 701.627 874.592 695.723C874.729 695.972 874.865 696.21 874.991 696.459C878.074 702.563 876.801 709.416 872.145 711.776C867.487 714.135 861.194 711.102 858.111 704.997C857.986 704.748 857.86 704.498 857.748 704.236C860.957 709.791 866.913 712.538 871.383 710.278Z" fill="#231F20"/>
<path opacity="0.1" d="M878.024 723.411C882.482 721.151 883.843 714.747 881.233 708.855C881.37 709.092 881.508 709.341 881.633 709.591C884.717 715.695 883.443 722.549 878.774 724.908C874.104 727.268 867.836 724.222 864.752 718.13C864.628 717.868 864.503 717.619 864.391 717.369C867.6 722.961 873.554 725.671 878.024 723.411Z" fill="#231F20"/>
<path opacity="0.1" d="M884.655 736.532C889.124 734.272 890.485 727.881 887.863 721.977C888.014 722.226 888.138 722.464 888.276 722.725C891.359 728.818 890.074 735.683 885.416 738.029C880.76 740.377 874.48 737.356 871.396 731.252C871.259 731.003 871.145 730.752 871.033 730.49C874.242 736.096 880.185 738.792 884.655 736.532Z" fill="#231F20"/>
<path opacity="0.1" d="M889.063 745.157C893.532 742.898 894.88 736.506 892.271 730.602C892.409 730.851 892.545 731.089 892.67 731.35C895.754 737.443 894.481 744.308 889.824 746.656C885.167 749.002 878.874 745.982 875.791 739.877C875.665 739.628 875.54 739.378 875.428 739.115C878.599 744.746 884.555 747.417 889.063 745.157Z" fill="#231F20"/>
<path d="M769.027 686.735C768.333 684.75 767.913 682.679 767.778 680.581C767.317 680.579 766.86 680.482 766.437 680.296C766.016 680.111 765.635 679.84 765.322 679.501C765.01 679.161 764.769 678.762 764.617 678.325C764.467 677.889 764.407 677.427 764.441 676.966C764.477 676.506 764.607 676.058 764.823 675.651C765.039 675.242 765.337 674.883 765.698 674.596C766.06 674.308 766.476 674.098 766.922 673.98C767.367 673.859 767.834 673.834 768.291 673.902C769.039 670.5 770.536 667.306 772.672 664.554C774.807 661.801 777.529 659.558 780.638 657.985C780.236 657.19 780.167 656.266 780.446 655.419C780.723 654.571 781.328 653.869 782.124 653.466C782.921 653.064 783.844 652.995 784.691 653.274C785.54 653.553 786.242 654.156 786.643 654.953C786.79 655.235 786.891 655.538 786.943 655.851C790.638 655.173 794.441 655.385 798.037 656.472C801.632 657.557 804.917 659.484 807.619 662.093C809.683 661.756 811.783 661.697 813.862 661.918L816.584 674.301L816.647 662.355C819.742 663.07 822.66 664.405 825.226 666.279C827.792 668.153 829.952 670.527 831.576 673.258C833.2 675.988 834.254 679.019 834.674 682.168C835.094 685.317 834.873 688.518 834.021 691.579C833.172 694.64 831.711 697.497 829.727 699.978C827.741 702.459 825.275 704.513 822.476 706.015C819.676 707.518 816.601 708.437 813.437 708.72C810.272 709.002 807.083 708.64 804.061 707.658C803.733 708.238 803.243 708.711 802.65 709.018C802.033 709.33 801.335 709.443 800.65 709.345C799.967 709.247 799.329 708.94 798.825 708.468C798.321 707.995 797.974 707.379 797.832 706.702C797.69 706.025 797.759 705.322 798.031 704.686C796.96 703.939 795.954 703.104 795.021 702.19C790.111 702.985 785.074 702.206 780.632 699.964C776.192 697.72 772.575 694.13 770.3 689.706L782.973 687.572L769.027 686.735Z" fill="#AFA089"/>
<g opacity="0.1">
<path d="M788.605 692.752C793.287 686.51 796.158 679.27 799.455 672.253C800.775 669.367 802.258 666.557 803.9 663.84L806.397 660.957C806.822 661.319 807.234 661.68 807.645 662.055C809.709 661.718 811.809 661.658 813.888 661.881L816.61 674.263L816.647 662.354C819.743 663.07 822.662 664.404 825.228 666.278C827.794 668.152 829.954 670.526 831.578 673.257C833.201 675.988 834.254 679.019 834.674 682.167C835.096 685.317 834.873 688.517 834.023 691.579C833.173 694.639 831.711 697.497 829.727 699.978C827.743 702.459 825.276 704.513 822.477 706.014C819.677 707.517 816.602 708.437 813.437 708.72C810.272 709.001 807.083 708.64 804.062 707.657C803.734 708.238 803.243 708.71 802.651 709.017C802.034 709.33 801.337 709.443 800.652 709.344C799.968 709.247 799.331 708.94 798.827 708.467C798.322 707.995 797.975 707.378 797.833 706.702C797.691 706.025 797.761 705.322 798.032 704.685C796.961 703.939 795.954 703.103 795.023 702.189C790.213 702.961 785.283 702.232 780.902 700.105C783.848 698.084 786.45 695.602 788.605 692.752Z" fill="#AFA089"/>
</g>
<path d="M871.469 666.213C871.268 665.82 871.148 665.391 871.115 664.951C871.082 664.511 871.136 664.069 871.274 663.652C871.413 663.232 871.631 662.844 871.92 662.51C872.208 662.177 872.56 661.904 872.954 661.707C873.426 661.465 873.948 661.341 874.477 661.344C875.43 656.29 878.013 651.685 881.832 648.236C881.214 645.838 880.982 643.356 881.145 640.884L893.493 638.813L881.494 638.051C881.712 636.923 882.012 635.814 882.393 634.73C881.921 634.416 881.538 633.987 881.282 633.482C880.982 632.88 880.868 632.203 880.955 631.536C881.043 630.87 881.329 630.246 881.774 629.742C882.22 629.239 882.806 628.88 883.457 628.712C884.107 628.545 884.794 628.575 885.428 628.8C887.632 625.664 890.579 623.12 894.004 621.398C898.039 619.351 902.58 618.51 907.08 618.977C911.58 619.446 915.85 621.201 919.378 624.034C922.906 626.866 925.542 630.657 926.97 634.95C928.397 639.242 928.556 643.856 927.427 648.236C928.015 648.489 928.518 648.902 928.878 649.43C929.238 649.957 929.441 650.575 929.462 651.213C929.482 651.851 929.321 652.482 928.997 653.032C928.671 653.582 928.197 654.027 927.628 654.317C927.201 654.533 926.734 654.656 926.256 654.677C925.777 654.699 925.301 654.619 924.856 654.441C923.651 656.46 922.148 658.288 920.399 659.858C921.678 664.838 921.297 670.098 919.313 674.84L902.794 670.496L917.565 678.272C915.347 681.811 912.228 684.695 908.528 686.631C904.828 688.566 900.68 689.483 896.507 689.289C892.336 689.092 888.292 687.791 884.789 685.517C881.286 683.244 878.451 680.08 876.575 676.349C875.269 673.753 874.448 670.94 874.153 668.048C873.586 667.997 873.042 667.801 872.572 667.481C872.101 667.159 871.722 666.723 871.469 666.213Z" fill="#9DD9C9"/>
<path opacity="0.1" d="M871.469 666.212C871.268 665.819 871.148 665.39 871.115 664.951C871.082 664.512 871.136 664.068 871.274 663.651C871.413 663.232 871.631 662.845 871.92 662.511C872.208 662.177 872.56 661.904 872.954 661.706C873.426 661.465 873.948 661.34 874.477 661.344C875.43 656.289 878.013 651.684 881.832 648.236C881.732 647.85 881.644 647.45 881.569 647.062C882.017 647.383 882.435 647.742 882.818 648.137C885.053 650.633 886.202 653.866 888.399 656.338C891.152 659.178 894.854 660.907 898.798 661.194C902.706 661.463 906.633 661.147 910.448 660.258C913.594 659.448 916.84 659.09 920.086 659.197L921.011 659.321L920.436 659.859C921.715 664.837 921.334 670.097 919.35 674.839L902.794 670.495L917.565 678.272C915.347 681.81 912.228 684.694 908.528 686.63C904.828 688.566 900.68 689.483 896.507 689.288C892.336 689.092 888.292 687.79 884.789 685.517C881.286 683.243 878.451 680.079 876.575 676.348C875.269 673.753 874.448 670.939 874.153 668.047C873.586 667.996 873.042 667.8 872.572 667.48C872.101 667.158 871.722 666.722 871.469 666.212Z" fill="#231F20"/>
</g>
<path opacity="0.1" d="M1171.76 71.8908L1158.2 80.4918L1166.43 65.5117C1164.09 63.6527 1161.21 62.6249 1158.22 62.5906H1158.01C1157.07 62.6021 1156.13 62.5311 1155.2 62.3784L1150.59 65.2995L1152.57 61.7168C1149.32 60.5872 1146.51 58.4701 1144.53 55.6624L1136.27 60.818L1141.47 51.3681C1136.66 45.5883 1130.17 42.043 1123.04 42.043C1114.49 42.043 1106.81 47.1362 1101.94 55.0631C1100.48 57.4309 1098.42 59.3709 1095.97 60.6865C1093.52 62.0019 1090.77 62.646 1087.99 62.5531H1087.58C1078.14 62.5531 1070.47 73.2514 1070.47 86.4714C1070.47 99.6912 1078.14 110.377 1087.58 110.377C1089.66 110.371 1091.7 109.861 1093.53 108.892C1096.75 107.326 1100.27 106.479 1103.84 106.41C1107.42 106.341 1110.96 107.052 1114.24 108.492C1117.01 109.723 1120.01 110.358 1123.04 110.358C1126.07 110.358 1129.07 109.723 1131.84 108.492C1135.09 107.082 1138.6 106.388 1142.14 106.457C1145.68 106.526 1149.16 107.356 1152.35 108.892C1154.18 109.835 1156.2 110.331 1158.25 110.34C1167.7 110.34 1175.35 99.6413 1175.35 86.4339C1175.38 81.3623 1174.15 76.3629 1171.76 71.8908Z" fill="#AFA089"/>
<path opacity="0.1" d="M900.548 229.791L881.171 242.075L892.932 220.692C889.599 218.03 885.474 216.56 881.208 216.509H880.896C879.55 216.529 878.205 216.429 876.876 216.21L870.334 220.442L873.156 215.324C868.499 213.697 864.478 210.638 861.669 206.584L849.908 214.074L857.311 200.468C850.432 192.216 841.168 187.16 830.98 187.16C818.757 187.16 807.869 194.426 800.84 205.749C798.757 209.146 795.811 211.931 792.302 213.819C788.793 215.707 784.845 216.632 780.862 216.497H780.201C766.705 216.497 755.768 231.789 755.768 250.663C755.768 269.538 766.705 284.83 780.201 284.83C783.171 284.822 786.094 284.089 788.716 282.696C793.308 280.465 798.33 279.257 803.435 279.158C808.54 279.058 813.606 280.069 818.282 282.122C822.234 283.897 826.515 284.819 830.848 284.83C835.18 284.841 839.467 283.94 843.427 282.184C848.068 280.17 853.089 279.178 858.147 279.275C863.205 279.371 868.183 280.555 872.743 282.745C875.341 284.105 878.227 284.819 881.159 284.83C894.655 284.83 905.593 269.526 905.593 250.663C905.686 243.394 903.952 236.216 900.548 229.791Z" fill="#AFA089"/>
<path opacity="0.1" d="M1622.13 120.575L1635.7 129.15L1627.45 114.171C1629.79 112.313 1632.67 111.285 1635.66 111.249H1635.88C1636.82 111.26 1637.76 111.189 1638.69 111.037L1643.29 113.958L1641.31 110.376C1644.58 109.265 1647.42 107.156 1649.43 104.346L1657.66 109.564L1652.44 100.114C1657.27 94.3344 1663.69 90.7891 1670.89 90.7891C1679.45 90.7891 1687.12 95.8823 1691.99 103.809C1693.44 106.178 1695.5 108.119 1697.95 109.434C1700.39 110.75 1703.16 111.393 1705.93 111.299H1706.39C1715.83 111.299 1723.49 121.998 1723.49 135.218C1723.49 148.437 1715.83 159.124 1706.39 159.124C1704.3 159.114 1702.26 158.605 1700.43 157.638C1697.22 156.073 1693.7 155.225 1690.12 155.157C1686.54 155.088 1683 155.798 1679.73 157.238C1676.97 158.468 1673.96 159.104 1670.93 159.104C1667.91 159.104 1664.9 158.468 1662.14 157.238C1658.89 155.829 1655.38 155.135 1651.83 155.203C1648.29 155.272 1644.8 156.102 1641.61 157.638C1639.79 158.583 1637.76 159.078 1635.72 159.086C1626.28 159.086 1618.62 148.388 1618.62 135.18C1618.55 130.094 1619.75 125.072 1622.13 120.575Z" fill="#AFA089"/>
<path opacity="0.1" d="M1482.47 1011.85C1561.77 1011.85 1626.05 1000.67 1626.05 986.885C1626.05 973.096 1561.77 961.918 1482.47 961.918C1403.18 961.918 1338.89 973.096 1338.89 986.885C1338.89 1000.67 1403.18 1011.85 1482.47 1011.85Z" fill="#9DD9C9"/>
<path d="M1407.32 868.293L1184.84 865.435L1185.51 859.73L1196.25 765.617H1391.65L1406.02 859.73L1407.11 866.871L1407.32 868.293Z" fill="#D0D2D5"/>
<path opacity="0.1" d="M1407.11 866.871H1296.09L1184.84 865.435L1185.51 859.73H1406.02L1407.11 866.871Z" fill="#231F20"/>
<path d="M1442.98 861.164H1147.76V868.292H1442.98V861.164Z" fill="#D0D2D5"/>
<path d="M1724.64 200.371C1724.65 195.453 1722.72 190.728 1719.26 187.235C1715.79 183.744 1711.08 181.769 1706.16 181.746H881.721C879.282 181.758 876.871 182.249 874.622 183.193C872.374 184.136 870.334 185.512 868.618 187.245C866.902 188.977 865.544 191.03 864.622 193.285C863.699 195.542 863.23 197.958 863.242 200.396V700.044H1724.64V200.371Z" fill="#373435"/>
<path d="M863.242 695.051V753.572C863.242 758.473 865.19 763.172 868.655 766.637C872.12 770.101 876.821 772.047 881.722 772.047H1706.16C1711.05 772.047 1715.76 770.101 1719.22 766.637C1722.69 763.172 1724.64 758.473 1724.64 753.572V695.051H863.242Z" fill="#D0D2D5"/>
<path d="M1693.26 213.078H898.9V662.243H1693.26V213.078Z" fill="white"/>
<path d="M1298.22 749.839C1301.14 749.842 1304.02 749.181 1306.64 747.908C1309.27 746.634 1311.57 744.78 1313.37 742.487C1313.92 741.787 1314.42 741.053 1314.87 740.289L1304.29 738.504L1315.72 738.579C1316.81 736.197 1317.41 733.617 1317.47 730.996C1317.53 728.374 1317.06 725.768 1316.08 723.336L1300.76 731.276L1314.89 720.89C1313.56 718.609 1311.78 716.624 1309.66 715.061C1307.53 713.498 1305.1 712.388 1302.53 711.802C1299.96 711.215 1297.29 711.164 1294.7 711.651C1292.1 712.138 1289.63 713.154 1287.45 714.634C1285.26 716.116 1283.41 718.03 1281.99 720.257C1280.58 722.486 1279.64 724.982 1279.23 727.588C1278.82 730.196 1278.95 732.86 1279.62 735.413C1280.28 737.968 1281.46 740.358 1283.09 742.436C1284.89 744.738 1287.18 746.6 1289.8 747.883C1292.43 749.165 1295.31 749.834 1298.22 749.839Z" fill="#CECCC3"/>
<path opacity="0.1" d="M1317.47 772.035L1406.23 861.167L1392.61 772.035H1317.47Z" fill="#231F20"/>
<path opacity="0.1" d="M1693.5 213.129H898.277V239.369H1693.5V213.129Z" fill="#444053"/>
<path opacity="0.3" d="M1413.25 217.695H1175.11C1174.71 217.695 1174.38 218.02 1174.38 218.419V232.937C1174.38 233.337 1174.71 233.662 1175.11 233.662H1413.25C1413.65 233.662 1413.98 233.337 1413.98 232.937V218.419C1413.98 218.02 1413.65 217.695 1413.25 217.695Z" fill="#AFA089"/>
<path d="M1406.86 227.333H1406.27L1406.06 227.144C1406.79 226.272 1407.18 225.172 1407.18 224.036C1407.18 223.104 1406.9 222.196 1406.36 221.424C1405.84 220.653 1405.11 220.053 1404.24 219.702C1403.38 219.351 1402.43 219.265 1401.52 219.452C1400.6 219.638 1399.76 220.092 1399.11 220.755C1398.45 221.417 1398.01 222.26 1397.82 223.175C1397.65 224.089 1397.74 225.037 1398.1 225.897C1398.47 226.757 1399.08 227.49 1399.85 228.007C1400.63 228.522 1401.55 228.795 1402.48 228.793C1403.62 228.789 1404.71 228.387 1405.59 227.657L1405.8 227.844V228.431L1409.46 232.088L1410.54 230.989L1406.86 227.333ZM1402.48 227.333C1401.83 227.334 1401.19 227.143 1400.64 226.783C1400.09 226.422 1399.68 225.909 1399.43 225.307C1399.17 224.705 1399.11 224.041 1399.23 223.401C1399.36 222.761 1399.67 222.173 1400.13 221.711C1400.59 221.248 1401.17 220.933 1401.81 220.805C1402.45 220.677 1403.12 220.741 1403.72 220.99C1404.32 221.24 1404.84 221.662 1405.2 222.204C1405.56 222.747 1405.76 223.385 1405.76 224.036C1405.76 224.468 1405.68 224.898 1405.52 225.299C1405.35 225.699 1405.11 226.063 1404.8 226.37C1404.5 226.676 1404.14 226.919 1403.74 227.084C1403.34 227.25 1402.91 227.334 1402.48 227.333Z" fill="#373435"/>
<path opacity="0.8" d="M912.572 231.053C915.227 231.053 917.379 228.902 917.379 226.247C917.379 223.593 915.227 221.441 912.572 221.441C909.918 221.441 907.766 223.593 907.766 226.247C907.766 228.902 909.918 231.053 912.572 231.053Z" fill="#FA5959"/>
<path opacity="0.8" d="M925.794 231.053C928.449 231.053 930.602 228.902 930.602 226.247C930.602 223.593 928.449 221.441 925.794 221.441C923.14 221.441 920.988 223.593 920.988 226.247C920.988 228.902 923.14 231.053 925.794 231.053Z" fill="#FED253"/>
<path opacity="0.8" d="M939.029 231.053C941.684 231.053 943.836 228.902 943.836 226.247C943.836 223.593 941.684 221.441 939.029 221.441C936.375 221.441 934.223 223.593 934.223 226.247C934.223 228.902 936.375 231.053 939.029 231.053Z" fill="#8CCF4D"/>
<path d="M1080.7 485.784V462.508L1151.15 367.695H1187.44L1118.48 462.508L1101.62 457.596H1219.25V485.784H1080.7ZM1161.18 517.174V485.784L1162.25 457.596V429.622H1194.91V517.174H1161.18ZM1293.64 519.737C1281.4 519.737 1270.44 516.747 1260.76 510.768C1251.08 504.646 1243.47 495.82 1237.92 484.289C1232.37 472.758 1229.59 458.807 1229.59 442.435C1229.59 426.063 1232.37 412.112 1237.92 400.581C1243.47 389.05 1251.08 380.294 1260.76 374.315C1270.44 368.193 1281.4 365.133 1293.64 365.133C1306.02 365.133 1316.98 368.193 1326.51 374.315C1336.19 380.294 1343.8 389.05 1349.35 400.581C1354.9 412.112 1357.68 426.063 1357.68 442.435C1357.68 458.807 1354.9 472.758 1349.35 484.289C1343.8 495.82 1336.19 504.646 1326.51 510.768C1316.98 516.747 1306.02 519.737 1293.64 519.737ZM1293.64 490.482C1299.47 490.482 1304.52 488.844 1308.79 485.57C1313.2 482.296 1316.62 477.099 1319.04 469.982C1321.6 462.864 1322.88 453.682 1322.88 442.435C1322.88 431.188 1321.6 422.006 1319.04 414.888C1316.62 407.77 1313.2 402.573 1308.79 399.299C1304.52 396.026 1299.47 394.388 1293.64 394.388C1287.94 394.388 1282.89 396.026 1278.48 399.299C1274.21 402.573 1270.79 407.77 1268.23 414.888C1265.81 422.006 1264.6 431.188 1264.6 442.435C1264.6 453.682 1265.81 462.864 1268.23 469.982C1270.79 477.099 1274.21 482.296 1278.48 485.57C1282.89 488.844 1287.94 490.482 1293.64 490.482ZM1372.78 485.784V462.508L1443.23 367.695H1479.52L1410.57 462.508L1393.7 457.596H1511.33V485.784H1372.78ZM1453.26 517.174V485.784L1454.33 457.596V429.622H1486.99V517.174H1453.26Z" fill="#CECCC3"/>
<path d="M1564.09 972.329C1563.37 971.179 1562.44 970.162 1561.38 969.32C1555.92 964.164 1553.38 956.599 1552.04 949.184C1550.69 941.769 1550.3 934.204 1548.14 926.951C1546.97 923.233 1545.5 919.614 1543.75 916.129C1542.5 913.457 1540.92 908.227 1538.64 906.354C1538.2 905.966 1537.65 905.704 1537.07 905.592C1535.99 903.299 1534.45 901.25 1532.56 899.575C1528.98 896.342 1524.62 893.771 1522.24 889.588C1521.58 888.138 1520.78 886.762 1519.83 885.482C1518.21 883.709 1515.67 882.985 1514.18 881.112C1512.25 878.691 1512.69 875.22 1512.93 872.137C1513.18 869.054 1512.93 865.358 1510.26 863.735C1508.66 862.749 1506.61 862.849 1504.95 861.975C1502.44 860.727 1501.46 857.581 1501.51 854.773C1501.56 851.964 1502.43 849.23 1502.66 846.421C1503.36 837.483 1497.47 828.594 1499.73 819.931C1500.6 816.648 1502.58 813.802 1504.03 810.743C1504.54 809.725 1504.96 808.664 1505.29 807.572C1509.18 809.117 1513.28 810.104 1517.44 810.506C1510.57 795.078 1512.32 777.151 1509.1 760.573L1509.51 760.011C1512.76 755.736 1514.6 750.566 1514.78 745.206C1514.78 739.039 1511.9 733.272 1510.6 727.23C1509.49 722.1 1509.54 716.732 1508.1 711.688C1507.11 708.554 1505.79 705.533 1504.16 702.675C1502.6 699.787 1500.96 696.944 1499.25 694.148C1497.65 688.855 1496.05 683.563 1494.45 678.27C1492.2 670.842 1489.89 663.29 1485.51 656.873C1483.92 654.527 1483.43 649.758 1480.97 648.334C1478.97 647.301 1476.71 646.905 1474.48 647.199C1471.01 645.251 1467.97 642.442 1467.53 638.598C1467.49 637.757 1467.57 636.915 1467.78 636.101H1468.21C1473.69 635.602 1476.48 630.759 1479.33 626.514C1483.96 619.648 1482.2 610.36 1479.33 602.546C1478.63 600.079 1477.35 597.816 1475.6 595.942C1471.58 592.197 1465.24 593.02 1460.07 591.211C1458.33 590.611 1456.72 589.7 1454.94 589.275C1451.5 588.477 1447.91 589.6 1444.76 591.185C1441.61 592.771 1438.68 594.818 1435.38 596.067C1432.09 597.315 1428.02 598.302 1427.22 601.685C1426.98 602.823 1427.08 604.004 1427.48 605.092C1428.24 607.262 1429.58 609.187 1431.34 610.66C1429.94 613.552 1429.18 616.715 1429.11 619.931C1429.06 623.146 1429.69 626.336 1430.98 629.281C1432.27 632.227 1434.18 634.857 1436.6 636.991C1439 639.125 1441.84 640.714 1444.91 641.644C1445.87 643.167 1446.75 644.715 1447.56 646.3C1449.01 649.096 1450.23 652.392 1449.74 655.388C1448.83 656.348 1447.99 657.37 1447.23 658.447C1443.66 663.44 1441.61 669.295 1439.75 675.137C1437.22 682.596 1435.21 690.215 1433.72 697.944C1430.67 704.422 1426.95 710.614 1424.74 717.418C1420.79 717.423 1416.84 716.893 1413.02 715.844L1402.49 713.461C1398.82 712.624 1395 711.726 1392.13 709.303C1390.61 708.055 1389.42 706.395 1387.87 705.159C1386.32 703.923 1383.21 702.475 1381.52 703.499C1381.2 703.687 1380.92 703.909 1380.65 704.161C1379.1 701.027 1377.64 697.919 1375.84 694.885C1373.25 690.641 1369.4 686.759 1364.53 685.947C1361.56 685.469 1358.52 686.177 1356.06 687.92C1353.21 689.942 1351.42 694.162 1353.55 697.007C1354.09 697.641 1354.67 698.234 1355.3 698.78C1356.74 700.445 1358.04 702.238 1359.16 704.135C1363.17 709.784 1369.2 713.693 1376 715.071L1375.55 716.319C1374.67 718.915 1372.79 722.049 1373.26 724.745L1420.13 740.787C1423.13 742.007 1426.32 742.712 1429.57 742.872C1430.83 742.861 1432.09 742.693 1433.31 742.371V744.768V744.869C1433.44 761.334 1430.82 777.687 1430.33 794.141C1430.25 797.149 1430.33 800.383 1432.23 802.729C1434.36 805.301 1438.12 805.813 1441.4 805.226C1442.2 805.093 1442.98 804.918 1443.74 804.702C1444.84 808.843 1445.64 813.062 1446.12 817.322L1449.22 839.618C1449.62 841.901 1449.78 844.217 1449.71 846.533C1449.35 851.764 1446.59 856.445 1444.59 861.277C1442.59 866.107 1441.4 871.887 1444.03 876.406C1444.86 877.805 1445.99 878.99 1446.72 880.438C1447.66 882.68 1448.09 885.103 1447.98 887.529C1448.17 894.253 1448.35 900.986 1448.53 907.727C1447.98 907.638 1447.42 907.749 1446.95 908.04C1444.35 910.062 1444.64 919.686 1444.46 922.67C1444.26 927.663 1444.46 932.756 1444.18 937.799C1443.86 944.597 1442.76 951.334 1440.92 957.886C1440.47 960.014 1439.49 961.995 1438.06 963.641C1436.6 964.91 1434.86 965.813 1432.98 966.274C1426.76 968.222 1420.25 969.109 1413.74 968.895C1411.1 968.808 1408.36 968.559 1405.91 969.557C1403.47 970.555 1401.49 973.302 1402.37 975.799C1403.13 977.896 1405.44 978.894 1407.54 979.682C1412.3 981.358 1416.89 983.473 1421.27 985.998C1422.95 987.145 1424.72 988.151 1426.58 989.007C1428.35 989.642 1430.18 990.094 1432.05 990.355L1454.18 994.174C1458.71 994.949 1464.16 995.422 1467.06 991.677C1468.61 989.655 1468.83 986.909 1468.77 984.338C1468.63 979.344 1467.63 974.263 1468.29 969.27C1468.78 966.318 1469.55 963.42 1470.61 960.619C1472.82 954.07 1475.02 947.524 1477.25 940.982C1479.48 934.416 1481.72 927.788 1482.59 920.898C1482.9 918.401 1482.87 915.554 1480.96 913.993C1480.48 913.597 1479.92 913.308 1479.31 913.145C1479.24 907.128 1478.45 901.098 1478.79 895.082C1478.88 893.583 1479.03 892.085 1479.15 890.575C1480.31 891.674 1481.35 892.897 1482.23 894.22C1484.36 897.565 1485.15 901.984 1488.42 904.207C1491.18 906.104 1495.29 906.004 1497.24 908.751C1497.87 909.805 1498.33 910.945 1498.64 912.133C1499.77 915.077 1501.47 917.771 1503.63 920.061C1504.38 922.801 1505.42 925.454 1506.71 927.975C1508.55 931.862 1510.4 935.736 1512.21 939.597C1514.09 943.765 1516.17 947.836 1518.45 951.793C1520.2 954.285 1521.6 956.997 1522.64 959.858C1524.39 966.024 1521.52 972.791 1516.99 977.334C1512.44 981.878 1506.45 984.488 1500.53 986.922C1499.92 987.132 1499.35 987.473 1498.87 987.92C1498.35 988.526 1498.08 989.299 1498.11 990.092C1498.11 992.976 1500.48 995.448 1503.2 996.334C1505.98 997.081 1508.9 997.188 1511.73 996.646C1527.69 994.711 1543.59 990.816 1557.69 983.064C1559.8 982.064 1561.67 980.621 1563.18 978.833C1563.9 977.932 1564.37 976.851 1564.53 975.706C1564.69 974.561 1564.54 973.394 1564.09 972.329Z" fill="url(#paint0_linear_6993_672)"/>
<path d="M1496.65 692.389C1499.32 696.476 1501.82 700.661 1504.15 704.948C1505.78 707.783 1507.1 710.783 1508.1 713.898C1509.56 718.893 1509.52 724.223 1510.6 729.316C1511.85 735.307 1514.77 741.025 1514.77 747.167C1514.59 752.488 1512.74 757.618 1509.5 761.848C1506.27 766.04 1502.58 769.85 1498.49 773.207C1489.06 748.787 1483.79 722.958 1482.91 696.796C1482.79 693.177 1482.76 689.444 1484.08 686.06C1484.9 683.938 1488.79 678.121 1491.3 680.406C1492.21 681.242 1492.45 685.011 1493.01 686.273C1494.06 688.404 1495.28 690.45 1496.65 692.389Z" fill="#373435"/>
<path opacity="0.1" d="M1496.65 692.389C1499.32 696.476 1501.82 700.661 1504.15 704.948C1505.78 707.783 1507.1 710.783 1508.1 713.898C1509.56 718.893 1509.52 724.223 1510.6 729.316C1511.85 735.307 1514.77 741.025 1514.77 747.167C1514.59 752.488 1512.74 757.618 1509.5 761.848C1506.27 766.04 1502.58 769.85 1498.49 773.207C1489.06 748.787 1483.79 722.958 1482.91 696.796C1482.79 693.177 1482.76 689.444 1484.08 686.06C1484.9 683.938 1488.79 678.121 1491.3 680.406C1492.21 681.242 1492.45 685.011 1493.01 686.273C1494.06 688.404 1495.28 690.45 1496.65 692.389Z" fill="#231F20"/>
<path d="M1167.49 522.08C1157.61 531.942 1156.42 536.286 1150.49 538.247C1144.56 540.206 1123.23 551.254 1129.93 563.501L1147.96 575.409L1148.48 575.759L1151.24 584.047L1123.98 632.583C1123.98 632.583 1079.03 612.036 1074.62 642.432C1070.21 672.83 1073.01 681.131 1071.82 697.359C1070.64 713.588 1072.21 718.281 1068.25 718.281C1064.3 718.281 1062.73 707.621 1062.73 707.621C1062.73 707.621 1062.48 707.134 1062.05 706.222C1056.17 694.001 1016.25 604.283 1080.19 542.615C1080.19 542.615 1109.8 540.668 1116.93 506.713C1121.85 483.244 1139.06 485.267 1150.49 490.048C1154.21 491.505 1157.67 493.54 1160.76 496.077C1163.53 498.703 1166 501.635 1168.11 504.815C1171.37 509.959 1173.14 516.412 1167.49 522.08Z" fill="#D0D2D5"/>
<path opacity="0.1" d="M1148.49 575.757L1151.24 584.045L1123.98 632.58C1123.98 632.58 1079.03 612.034 1074.62 642.43C1070.21 672.828 1073.01 681.129 1071.82 697.357C1070.64 713.585 1072.21 718.279 1068.25 718.279C1064.29 718.279 1062.73 707.619 1062.73 707.619C1062.73 707.619 1062.49 707.132 1062.05 706.22C1060.06 691.04 1050 602.246 1086.48 606.965C1086.48 606.965 1116.09 620.797 1120.82 615.278C1124.56 610.91 1141.19 585.78 1147.96 575.469L1148.49 575.757Z" fill="#231F20"/>
<path opacity="0.1" d="M1168.11 504.74L1150.08 525.225C1150.08 525.225 1129.15 553.238 1124.8 552.052C1123.5 551.769 1122.17 551.614 1120.84 551.59C1119.39 551.479 1118.01 550.96 1116.84 550.092C1115.67 549.225 1114.78 548.044 1114.25 546.688C1113.73 545.332 1113.6 543.856 1113.89 542.43C1114.17 541.004 1114.85 539.688 1115.85 538.633C1122.99 531.142 1136.15 516.924 1137.01 513.766C1137.87 510.607 1146.25 496.763 1150.45 489.984C1154.16 491.442 1157.63 493.477 1160.71 496.014C1163.5 498.633 1165.98 501.561 1168.11 504.74Z" fill="#231F20"/>
<path d="M1678.22 799.459C1675.16 805.575 1659.49 828.519 1652.63 838.544L1649.43 843.263C1649.43 843.263 1648.17 851.551 1627.72 841.278C1607.25 831.004 1126.45 628.161 1126.45 628.161L1123.19 618.374L1146.91 582.859L1673.88 786.426C1673.88 786.426 1682.18 791.556 1678.22 799.459Z" fill="#CECCC3"/>
<path opacity="0.1" d="M1652.63 838.544L1649.43 843.264C1649.43 843.264 1648.17 851.552 1627.72 841.279C1607.25 831.005 1126.45 628.162 1126.45 628.162L1123.19 618.375L1652.63 838.544Z" fill="#231F20"/>
<path d="M1362.63 706.045C1357.74 705.246 1352.33 705.632 1348.52 708.804C1346.23 710.747 1344.79 713.503 1344.48 716.494C1344.16 719.952 1346.16 724.058 1349.64 724.321C1350.47 724.331 1351.31 724.276 1352.14 724.159C1354.33 724.149 1356.52 724.333 1358.68 724.707C1362.93 725.108 1367.22 724.482 1371.18 722.883C1375.14 721.285 1378.65 718.76 1381.44 715.52C1384.43 711.775 1380.49 710.152 1376.97 709.403C1372.15 708.379 1367.44 706.819 1362.63 706.045Z" fill="#FBBEBE"/>
<path d="M1446.12 818.784L1449.22 840.779C1449.62 843.051 1449.78 845.356 1449.7 847.658C1449.34 852.839 1446.58 857.482 1444.59 862.276C1442.6 867.07 1441.39 872.812 1444.03 877.256C1444.84 878.642 1445.98 879.828 1446.71 881.263C1447.65 883.484 1448.07 885.885 1447.97 888.291L1448.81 919.5C1458.45 920.158 1468.13 920.103 1477.75 919.337C1478.13 919.356 1478.49 919.241 1478.8 919.013C1479.05 918.691 1479.19 918.287 1479.16 917.877C1479.59 910.574 1478.31 903.259 1478.72 895.956C1478.88 893.285 1479.25 890.627 1479.29 887.943C1479.45 877.069 1474.08 866.42 1475.71 855.672C1476.21 852.961 1476.88 850.281 1477.71 847.646C1482.83 828.921 1481.75 809.247 1480.62 789.91C1480.63 789.599 1480.55 789.29 1480.36 789.037C1480.18 788.851 1479.95 788.726 1479.68 788.674C1474.22 787.035 1468.45 786.736 1462.84 787.801C1457.24 788.865 1451.98 791.263 1447.5 794.79C1446.14 795.89 1442.71 796.951 1441.8 798.262C1440.56 800.084 1442.19 801.907 1442.92 803.842C1444.52 808.692 1445.59 813.702 1446.12 818.784Z" fill="#373435"/>
<path opacity="0.1" d="M1446.12 818.784L1449.22 840.779C1449.62 843.051 1449.78 845.356 1449.7 847.658C1449.34 852.839 1446.58 857.482 1444.59 862.276C1442.6 867.07 1441.39 872.812 1444.03 877.256C1444.84 878.642 1445.98 879.828 1446.71 881.263C1447.65 883.484 1448.07 885.885 1447.97 888.291L1448.81 919.5C1458.45 920.158 1468.13 920.103 1477.75 919.337C1478.13 919.356 1478.49 919.241 1478.8 919.013C1479.05 918.691 1479.19 918.287 1479.16 917.877C1479.59 910.574 1478.31 903.259 1478.72 895.956C1478.88 893.285 1479.25 890.627 1479.29 887.943C1479.45 877.069 1474.08 866.42 1475.71 855.672C1476.21 852.961 1476.88 850.281 1477.71 847.646C1482.83 828.921 1481.75 809.247 1480.62 789.91C1480.63 789.599 1480.55 789.29 1480.36 789.037C1480.18 788.851 1479.95 788.726 1479.68 788.674C1474.22 787.035 1468.45 786.736 1462.84 787.801C1457.24 788.865 1451.98 791.263 1447.5 794.79C1446.14 795.89 1442.71 796.951 1441.8 798.262C1440.56 800.084 1442.19 801.907 1442.92 803.842C1444.52 808.692 1445.59 813.702 1446.12 818.784Z" fill="#231F20"/>
<path d="M1504.02 812.157C1502.56 815.191 1500.6 818.012 1499.72 821.27C1497.45 829.871 1503.34 838.747 1502.63 847.56C1502.4 850.344 1501.55 853.053 1501.48 855.837C1501.42 858.62 1502.44 861.716 1504.92 863.002C1506.58 863.85 1508.66 863.764 1510.22 864.738C1512.86 866.348 1513.16 870.006 1512.89 873.077C1512.64 876.148 1512.2 879.58 1514.14 881.977C1515.63 883.837 1518.17 884.561 1519.77 886.322C1520.72 887.584 1521.54 888.95 1522.19 890.391C1524.56 894.56 1528.93 897.107 1532.5 900.377C1536.07 903.648 1539.09 908.442 1537.49 912.973C1536.32 916.294 1533.02 918.341 1529.85 919.901C1524.07 922.761 1517.96 924.919 1511.66 926.33C1510.98 926.534 1510.27 926.573 1509.58 926.442C1508.87 926.186 1508.25 925.757 1507.75 925.194C1504.07 921.587 1500.25 917.804 1498.56 912.948C1498.27 911.772 1497.79 910.644 1497.16 909.603C1495.21 906.868 1491.11 906.968 1488.34 905.084C1485.1 902.874 1484.31 898.492 1482.18 895.184C1480.05 891.876 1476.94 889.904 1474.69 886.996C1470.87 882.152 1469.94 875.685 1467.2 870.155C1466.04 867.808 1464.55 865.611 1463.63 863.164C1462.7 860.232 1462.12 857.197 1461.92 854.126C1460.16 839.545 1455.68 824.866 1458.49 810.434C1459.12 807.263 1460.08 804.194 1460.48 800.922C1461.17 795.268 1460.08 789.475 1460.92 783.832C1460.93 783.124 1461.12 782.43 1461.44 781.801C1461.77 781.171 1462.24 780.624 1462.8 780.199C1463.48 779.896 1464.22 779.748 1464.95 779.763C1472.36 779.368 1479.77 779.535 1487.15 780.262C1490.9 780.624 1495.09 781.386 1497.33 784.444C1499.25 787.066 1499.15 790.574 1499.76 793.757C1500.52 797.677 1502.51 799.811 1504.59 802.882C1506.67 805.953 1505.55 808.986 1504.02 812.157Z" fill="#373435"/>
<path d="M1475.21 913.597C1477.19 913.597 1479.37 913.471 1480.9 914.719C1482.79 916.281 1482.82 919.14 1482.52 921.574C1481.64 928.414 1479.41 934.992 1477.17 941.547L1470.53 961.034C1469.49 963.814 1468.7 966.69 1468.21 969.622C1467.57 974.615 1468.57 979.608 1468.69 984.602C1468.69 987.099 1468.53 989.87 1466.97 991.88C1464.14 995.513 1458.64 995.088 1454.1 994.377L1432 990.632C1430.13 990.383 1428.3 989.935 1426.52 989.296C1424.68 988.443 1422.91 987.446 1421.21 986.312C1416.84 983.812 1412.25 981.723 1407.48 980.071C1405.42 979.297 1403.08 978.311 1402.33 976.226C1401.45 973.729 1403.43 970.982 1405.87 969.984C1408.33 968.986 1411.05 969.235 1413.7 969.31C1420.21 969.517 1426.71 968.64 1432.93 966.713C1434.8 966.254 1436.54 965.355 1438 964.092C1439.48 962.427 1440.48 960.397 1440.92 958.212C1442.8 951.706 1443.92 945.004 1444.27 938.238C1444.52 933.245 1444.35 928.253 1444.55 923.258C1444.67 920.299 1444.39 910.776 1446.99 908.74C1448.97 907.217 1457.13 911.424 1459.83 912.035C1464.87 913.193 1470.03 913.717 1475.21 913.597Z" fill="#373435"/>
<path d="M1548.06 927.477C1550.22 934.629 1550.56 942.194 1551.96 949.548C1553.35 956.901 1555.83 964.403 1561.28 969.521C1562.34 970.364 1563.26 971.376 1563.99 972.517C1564.45 973.586 1564.61 974.761 1564.45 975.914C1564.27 977.066 1563.79 978.149 1563.06 979.046C1561.55 980.821 1559.68 982.256 1557.57 983.253C1543.47 990.942 1527.61 994.824 1511.61 996.747C1508.78 997.276 1505.87 997.171 1503.1 996.435C1500.38 995.512 1497.96 993.065 1498.01 990.193C1497.99 989.406 1498.25 988.636 1498.76 988.034C1499.25 987.589 1499.83 987.253 1500.46 987.047C1506.34 984.626 1512.33 981.992 1516.88 977.523C1521.44 973.054 1524.3 966.287 1522.54 960.221C1521.5 957.38 1520.08 954.689 1518.33 952.219C1516.05 948.293 1513.96 944.258 1512.09 940.123L1506.59 928.601C1504.98 925.23 1503.36 921.76 1503.08 918.04C1509.98 918.348 1516.88 917.245 1523.34 914.794C1526.35 913.565 1529.16 911.881 1531.66 909.8C1533.79 908.028 1535.72 904.72 1538.58 907.029C1540.88 908.876 1542.32 914.083 1543.67 916.716C1545.43 920.178 1546.89 923.776 1548.06 927.477Z" fill="#373435"/>
<path d="M1467.55 641.369C1468.1 646.163 1472.74 649.321 1477.17 651.218L1449.13 660.168C1450.93 656.698 1449.47 652.454 1447.67 648.934C1446.2 646.147 1444.54 643.472 1442.68 640.932C1442.4 640.545 1442.09 640.058 1442.29 639.608C1442.47 639.315 1442.75 639.097 1443.08 638.997C1448.85 636.425 1454.78 633.767 1461.09 632.83C1462.92 632.568 1466.36 631.843 1467.73 633.692C1469.09 635.539 1467.29 639.159 1467.55 641.369Z" fill="#FBBEBE"/>
<path opacity="0.1" d="M1467.55 641.369C1468.1 646.163 1472.74 649.321 1477.17 651.218L1449.13 660.168C1450.93 656.698 1449.47 652.454 1447.67 648.934C1446.2 646.147 1444.54 643.472 1442.68 640.932C1442.4 640.545 1442.09 640.058 1442.29 639.608C1442.47 639.315 1442.75 639.097 1443.08 638.997C1448.85 636.425 1454.78 633.767 1461.09 632.83C1462.92 632.568 1466.36 631.843 1467.73 633.692C1469.09 635.539 1467.29 639.159 1467.55 641.369Z" fill="#231F20"/>
<path d="M1451.25 645.253C1463.39 645.253 1473.25 635.404 1473.25 623.256C1473.25 611.109 1463.39 601.262 1451.25 601.262C1439.09 601.262 1429.25 611.109 1429.25 623.256C1429.25 635.404 1439.09 645.253 1451.25 645.253Z" fill="#FBBEBE"/>
<path d="M1432.18 804.268C1434.32 806.826 1438.07 807.325 1441.36 806.764C1449.03 805.516 1455.32 799.861 1462.83 797.826C1472.05 795.33 1481.79 798.537 1490.5 802.47C1499.2 806.402 1507.85 811.208 1517.36 811.882C1508.77 792.707 1513.68 769.638 1505.46 750.302C1503.44 745.57 1500.64 741.014 1500.19 735.896C1499.63 729.541 1502.79 723.413 1503.28 717.096C1503.74 711.465 1502.03 705.861 1500.42 700.493C1498.4 693.901 1496.4 687.311 1494.4 680.719C1492.14 673.341 1489.83 665.839 1485.49 659.497C1483.87 657.163 1483.38 652.432 1480.94 651.021C1475.58 647.938 1467.49 651.82 1461.7 652.033C1455.9 652.245 1450.62 656.365 1447.23 661.02C1443.66 665.939 1441.61 671.793 1439.75 677.586C1436.76 686.21 1434.53 695.079 1433.09 704.089C1432.9 705.437 1432.74 706.785 1432.62 708.145C1431.37 720.965 1433.2 733.86 1433.29 746.744V746.832C1433.41 763.172 1430.79 779.413 1430.3 795.741C1430.26 798.725 1430.33 801.983 1432.18 804.268Z" fill="#373435"/>
<path opacity="0.1" d="M1433.33 746.755C1437.64 745.67 1441.53 742.886 1444.88 739.841C1447.78 737.248 1450.35 734.313 1452.54 731.102C1455.3 726.785 1457.52 722.143 1459.15 717.283C1463.78 704.283 1466.71 690.745 1467.89 676.999C1468.21 673.254 1468.31 669.235 1466.07 666.264C1464.82 664.654 1463.06 663.516 1461.08 663.035C1459.09 662.555 1457.01 662.76 1455.16 663.617C1452.21 665.052 1450.3 667.961 1448.53 670.745C1445.02 676.263 1441.48 681.855 1439.23 687.997C1438.22 690.718 1437.49 693.514 1436.52 696.249C1435.52 698.945 1434.38 701.583 1433.09 704.15C1432.9 705.498 1432.74 706.847 1432.62 708.207C1431.46 721.028 1433.22 733.874 1433.33 746.755Z" fill="#231F20"/>
<path d="M1466.02 663.853C1468.25 666.826 1468.15 670.882 1467.83 674.577C1466.66 688.324 1463.72 701.863 1459.09 714.861C1457.49 719.763 1455.26 724.443 1452.49 728.793C1450.3 732 1447.73 734.935 1444.83 737.531C1440.59 741.401 1435.41 744.859 1429.66 744.908C1426.42 744.756 1423.23 744.06 1420.21 742.849L1373.34 726.895C1372.86 724.224 1374.74 721.103 1375.64 718.531L1378.13 711.129C1378.84 709.082 1379.67 706.871 1381.53 705.761C1383.39 704.649 1386.34 706.173 1387.88 707.409C1389.43 708.645 1390.61 710.267 1392.13 711.528C1395.01 713.925 1398.83 714.823 1402.49 715.648L1413.02 718.008C1416.84 719.051 1420.77 719.577 1424.72 719.568C1427.66 710.604 1433.24 702.715 1436.4 693.827C1437.37 691.105 1438.11 688.296 1439.12 685.575C1441.37 679.433 1444.91 673.854 1448.42 668.323C1450.18 665.552 1452.09 662.643 1455.05 661.195C1456.91 660.327 1459.01 660.119 1461 660.602C1462.99 661.085 1464.76 662.232 1466.02 663.853Z" fill="#373435"/>
<path d="M1458.27 628.224C1458.09 626.777 1457.65 625.377 1456.94 624.104C1456.57 623.467 1456.01 622.963 1455.33 622.666C1454.66 622.37 1453.92 622.297 1453.2 622.457C1450.99 623.143 1450.26 626.538 1447.97 626.65C1446.42 626.725 1445.3 625.153 1444.82 623.679C1444.32 622.207 1444.07 620.522 1442.91 619.484C1442.09 618.881 1441.17 618.455 1440.19 618.237C1434.85 616.551 1429.35 613.443 1427.58 608.137C1427.15 607.06 1427.06 605.887 1427.28 604.754C1428.1 601.396 1432.27 600.386 1435.46 599.175C1438.65 597.963 1441.71 595.892 1444.83 594.319C1447.95 592.745 1451.57 591.635 1455.01 592.434C1456.74 592.981 1458.45 593.619 1460.13 594.344C1465.31 596.142 1471.63 595.305 1475.64 599.038C1477.4 600.889 1478.68 603.131 1479.39 605.579C1482.19 613.344 1483.96 622.555 1479.32 629.371C1476.46 633.578 1473.69 638.386 1468.21 638.897C1461.8 639.433 1459.28 633.641 1458.27 628.224Z" fill="#373435"/>
<g opacity="0.1">
<path d="M1448.5 621.036C1448 619.563 1447.75 617.878 1446.6 616.842C1445.79 616.238 1444.87 615.812 1443.88 615.593C1438.53 613.907 1433.03 610.8 1431.26 605.494C1430.85 604.414 1430.75 603.242 1430.98 602.112C1431.1 601.578 1431.33 601.073 1431.65 600.625C1429.61 601.513 1427.83 602.686 1427.34 604.757C1427.11 605.89 1427.2 607.063 1427.62 608.14C1429.39 613.445 1434.9 616.554 1440.23 618.24C1441.21 618.458 1442.15 618.884 1442.95 619.487C1444.11 620.524 1444.36 622.197 1444.87 623.682C1445.36 625.168 1446.46 626.728 1448 626.653C1449.55 626.578 1450.31 625.168 1451.3 623.982C1449.94 623.808 1448.95 622.409 1448.5 621.036Z" fill="#231F20"/>
<path d="M1471.87 636.218C1465.46 636.805 1462.92 630.962 1461.88 625.582C1461.75 624.139 1461.32 622.738 1460.64 621.462C1460.27 620.827 1459.71 620.323 1459.03 620.027C1458.36 619.732 1457.61 619.657 1456.89 619.815C1455.74 620.366 1454.8 621.234 1454.13 622.311C1454.7 622.365 1455.25 622.552 1455.74 622.855C1456.24 623.158 1456.65 623.571 1456.94 624.059C1457.65 625.332 1458.1 626.731 1458.28 628.178C1459.28 633.559 1461.81 639.414 1468.26 638.815C1470.81 638.533 1473.16 637.313 1474.85 635.394C1473.92 635.833 1472.9 636.111 1471.87 636.218Z" fill="#231F20"/>
</g>
<path d="M1729.03 868.43C1751.3 868.43 1769.35 864.96 1769.35 860.679C1769.35 856.397 1751.3 852.926 1729.03 852.926C1706.77 852.926 1688.72 856.397 1688.72 860.679C1688.72 864.96 1706.77 868.43 1729.03 868.43Z" fill="#CECCC3"/>
<path d="M1728.36 863.802C1730.95 863.802 1733.06 861.053 1733.06 857.66C1733.06 854.269 1730.95 851.52 1728.36 851.52C1725.77 851.52 1723.66 854.269 1723.66 857.66C1723.66 861.053 1725.77 863.802 1728.36 863.802Z" fill="#CECCC3"/>
<path d="M1728.36 856.288C1730.95 856.288 1733.06 853.537 1733.06 850.146C1733.06 846.753 1730.95 844.004 1728.36 844.004C1725.77 844.004 1723.66 846.753 1723.66 850.146C1723.66 853.537 1725.77 856.288 1728.36 856.288Z" fill="#CECCC3"/>
<path d="M1728.36 848.784C1730.95 848.784 1733.06 846.035 1733.06 842.642C1733.06 839.251 1730.95 836.5 1728.36 836.5C1725.77 836.5 1723.66 839.251 1723.66 842.642C1723.66 846.035 1725.77 848.784 1728.36 848.784Z" fill="#CECCC3"/>
<path d="M1728.36 841.268C1730.95 841.268 1733.06 838.518 1733.06 835.126C1733.06 831.734 1730.95 828.984 1728.36 828.984C1725.77 828.984 1723.66 831.734 1723.66 835.126C1723.66 838.518 1725.77 841.268 1728.36 841.268Z" fill="#CECCC3"/>
<path d="M1728.36 833.753C1730.95 833.753 1733.06 831.002 1733.06 827.611C1733.06 824.218 1730.95 821.469 1728.36 821.469C1725.77 821.469 1723.66 824.218 1723.66 827.611C1723.66 831.002 1725.77 833.753 1728.36 833.753Z" fill="#CECCC3"/>
<path d="M1728.36 825.975C1730.95 825.975 1733.06 823.226 1733.06 819.833C1733.06 816.442 1730.95 813.691 1728.36 813.691C1725.77 813.691 1723.66 816.442 1723.66 819.833C1723.66 823.226 1725.77 825.975 1728.36 825.975Z" fill="#BAAB95"/>
<path d="M1728.36 818.46C1730.95 818.46 1733.06 815.709 1733.06 812.318C1733.06 808.925 1730.95 806.176 1728.36 806.176C1725.77 806.176 1723.66 808.925 1723.66 812.318C1723.66 815.709 1725.77 818.46 1728.36 818.46Z" fill="#373435"/>
<path d="M1745.93 760.974C1746.57 760.158 1747.15 759.299 1747.68 758.403L1735.34 756.381L1748.68 756.467C1749.96 753.682 1750.66 750.667 1750.72 747.604C1750.8 744.542 1750.26 741.497 1749.11 738.654L1731.2 747.942L1747.71 735.808C1746.16 733.142 1744.08 730.824 1741.6 728.996C1739.11 727.169 1736.29 725.873 1733.27 725.187C1730.27 724.501 1727.16 724.443 1724.13 725.013C1721.09 725.583 1718.22 726.769 1715.66 728.5C1713.11 730.23 1710.95 732.467 1709.29 735.072C1707.64 737.676 1706.55 740.592 1706.08 743.637C1705.6 746.683 1705.76 749.794 1706.53 752.777C1707.32 755.76 1708.71 758.551 1710.6 760.974C1709.6 762.242 1708.73 763.616 1708.04 765.069L1724.05 773.396L1706.97 767.665C1705.78 771.203 1705.49 774.983 1706.12 778.661C1706.76 782.341 1708.29 785.804 1710.6 788.737C1708 792.053 1706.39 796.034 1705.93 800.225C1705.48 804.417 1706.23 808.65 1708.07 812.442C1709.91 816.234 1712.78 819.43 1716.35 821.666C1719.93 823.902 1724.06 825.088 1728.28 825.088C1732.5 825.088 1736.62 823.902 1740.2 821.666C1743.77 819.43 1746.65 816.234 1748.49 812.442C1750.34 808.65 1751.07 804.417 1750.63 800.225C1750.18 796.034 1748.56 792.053 1745.95 788.737C1749.07 784.776 1750.76 779.88 1750.76 774.837C1750.76 769.795 1749.07 764.898 1745.95 760.937L1745.93 760.974Z" fill="#CECCC3"/>
<path opacity="0.1" d="M1705.76 774.831C1705.76 779.881 1707.47 784.782 1710.6 788.738C1708 792.053 1706.38 796.034 1705.93 800.225C1705.48 804.417 1706.22 808.65 1708.07 812.442C1709.91 816.234 1712.78 819.43 1716.35 821.666C1719.93 823.903 1724.06 825.088 1728.28 825.088C1732.5 825.088 1736.62 823.903 1740.19 821.666C1743.77 819.43 1746.65 816.234 1748.49 812.442C1750.34 808.65 1751.07 804.417 1750.63 800.225C1750.18 796.034 1748.56 792.053 1745.95 788.738C1748.93 784.905 1705.76 772.31 1705.76 774.831Z" fill="#898883"/>
<path d="M898.164 961.881C901.895 961.881 904.92 957.918 904.92 953.03C904.92 948.142 901.895 944.18 898.164 944.18C894.434 944.18 891.41 948.142 891.41 953.03C891.41 957.918 894.434 961.881 898.164 961.881Z" fill="#373435"/>
<path d="M898.164 951.072C901.895 951.072 904.92 947.11 904.92 942.221C904.92 937.334 901.895 933.371 898.164 933.371C894.434 933.371 891.41 937.334 891.41 942.221C891.41 947.11 894.434 951.072 898.164 951.072Z" fill="#373435"/>
<path d="M899.138 1023C931.195 1023 957.184 1018 957.184 1011.84C957.184 1005.68 931.195 1000.68 899.138 1000.68C867.081 1000.68 841.094 1005.68 841.094 1011.84C841.094 1018 867.081 1023 899.138 1023Z" fill="#CECCC3"/>
<path d="M898.164 1015.95C901.895 1015.95 904.92 1011.98 904.92 1007.1C904.92 1002.21 901.895 998.246 898.164 998.246C894.434 998.246 891.41 1002.21 891.41 1007.1C891.41 1011.98 894.434 1015.95 898.164 1015.95Z" fill="#CECCC3"/>
<path d="M898.164 1005.13C901.895 1005.13 904.92 1001.17 904.92 996.285C904.92 991.396 901.895 987.434 898.164 987.434C894.434 987.434 891.41 991.396 891.41 996.285C891.41 1001.17 894.434 1005.13 898.164 1005.13Z" fill="#CECCC3"/>
<path d="M898.164 994.326C901.895 994.326 904.92 990.364 904.92 985.476C904.92 980.587 901.895 976.625 898.164 976.625C894.434 976.625 891.41 980.587 891.41 985.476C891.41 990.364 894.434 994.326 898.164 994.326Z" fill="#CECCC3"/>
<path d="M898.164 983.514C901.895 983.514 904.92 979.551 904.92 974.664C904.92 969.775 901.895 965.812 898.164 965.812C894.434 965.812 891.41 969.775 891.41 974.664C891.41 979.551 894.434 983.514 898.164 983.514Z" fill="#CECCC3"/>
<path d="M898.164 972.705C901.895 972.705 904.92 968.743 904.92 963.855C904.92 958.966 901.895 955.004 898.164 955.004C894.434 955.004 891.41 958.966 891.41 963.855C891.41 968.743 894.434 972.705 898.164 972.705Z" fill="#CECCC3"/>
<path d="M923.459 868.243C924.374 867.051 925.208 865.799 925.956 864.498L908.201 861.576L927.404 861.726C929.245 857.716 930.249 853.373 930.354 848.963C930.46 844.552 929.663 840.166 928.016 836.073L902.272 849.48L925.994 832.003C923.772 828.149 920.781 824.795 917.205 822.148C913.629 819.502 909.546 817.621 905.211 816.623C900.875 815.625 896.381 815.53 892.008 816.345C887.635 817.162 883.476 818.869 879.792 821.364C876.108 823.857 872.978 827.084 870.598 830.841C868.216 834.598 866.635 838.805 865.952 843.2C865.27 847.596 865.501 852.084 866.631 856.386C867.76 860.689 869.764 864.711 872.518 868.205C871.061 870.027 869.804 872.004 868.773 874.096L891.834 886.081L867.249 877.829C865.526 882.945 865.11 888.412 866.04 893.729C866.969 899.046 869.213 904.047 872.569 908.276C868.811 913.052 866.475 918.787 865.825 924.826C865.174 930.866 866.238 936.967 868.891 942.431C871.547 947.895 875.685 952.502 880.834 955.727C885.985 958.95 891.938 960.66 898.014 960.66C904.089 960.66 910.043 958.95 915.193 955.727C920.342 952.502 924.481 947.895 927.136 942.431C929.79 936.967 930.853 930.866 930.202 924.826C929.552 918.787 927.216 913.052 923.459 908.276C927.948 902.572 930.39 895.524 930.39 888.266C930.39 881.007 927.948 873.959 923.459 868.255V868.243Z" fill="#CECCC3"/>
<path opacity="0.1" d="M865.641 888.306C865.642 895.553 868.084 902.588 872.571 908.279C868.814 913.054 866.477 918.789 865.827 924.828C865.176 930.869 866.24 936.969 868.894 942.433C871.549 947.899 875.688 952.506 880.837 955.729C885.987 958.952 891.94 960.662 898.016 960.662C904.091 960.662 910.045 958.952 915.195 955.729C920.344 952.506 924.483 947.899 927.138 942.433C929.792 936.969 930.855 930.869 930.204 924.828C929.554 918.789 927.218 913.054 923.461 908.279C927.769 902.761 865.641 884.622 865.641 888.306Z" fill="#2F2516"/>
<path d="M17.3448 1001.13C82.9281 1001.13 136.094 990.906 136.094 978.296C136.094 965.687 82.9281 955.465 17.3448 955.465C-48.2386 955.465 -101.404 965.687 -101.404 978.296C-101.404 990.906 -48.2386 1001.13 17.3448 1001.13Z" fill="#CECCC3"/>
<path d="M15.3519 986.698C22.9838 986.698 29.1707 978.592 29.1707 968.591C29.1707 958.591 22.9838 950.484 15.3519 950.484C7.72006 950.484 1.5332 958.591 1.5332 968.591C1.5332 978.592 7.72006 986.698 15.3519 986.698Z" fill="#CECCC3"/>
<path d="M15.3519 964.581C22.9838 964.581 29.1707 956.475 29.1707 946.474C29.1707 936.474 22.9838 928.367 15.3519 928.367C7.72006 928.367 1.5332 936.474 1.5332 946.474C1.5332 956.475 7.72006 964.581 15.3519 964.581Z" fill="#CECCC3"/>
<path d="M15.3519 942.468C22.9838 942.468 29.1707 934.361 29.1707 924.361C29.1707 914.36 22.9838 906.254 15.3519 906.254C7.72006 906.254 1.5332 914.36 1.5332 924.361C1.5332 934.361 7.72006 942.468 15.3519 942.468Z" fill="#CECCC3"/>
<path d="M15.3519 920.351C22.9838 920.351 29.1707 912.243 29.1707 902.244C29.1707 892.243 22.9838 884.137 15.3519 884.137C7.72006 884.137 1.5332 892.243 1.5332 902.244C1.5332 912.243 7.72006 920.351 15.3519 920.351Z" fill="#CECCC3"/>
<path d="M15.3519 898.233C22.9838 898.233 29.1707 890.127 29.1707 880.126C29.1707 870.126 22.9838 862.02 15.3519 862.02C7.72006 862.02 1.5332 870.126 1.5332 880.126C1.5332 890.127 7.72006 898.233 15.3519 898.233Z" fill="#CECCC3"/>
<path d="M67.0981 684.523C68.9683 682.085 70.675 679.526 72.2067 676.862L35.8846 670.886L75.1696 671.193C78.935 662.989 80.9879 654.104 81.2031 645.081C81.4183 636.057 79.7913 627.084 76.4212 618.711L23.7517 646.139L72.2833 610.384C67.7387 602.5 61.6176 595.638 54.3023 590.224C46.9869 584.811 38.6342 580.962 29.7652 578.92C20.8963 576.878 11.7015 576.685 2.75461 578.353C-6.19226 580.021 -14.6992 583.517 -22.2354 588.618C-29.7716 593.72 -36.1752 600.32 -41.0467 608.006C-45.9182 615.692 -49.1532 624.3 -50.5496 633.292C-51.9459 642.285 -51.4738 651.467 -49.1628 660.269C-46.8517 669.069 -42.7511 677.3 -37.1171 684.447C-40.1002 688.176 -42.6696 692.217 -44.78 696.501L2.39783 721.019L-47.8963 704.137C-51.4211 714.603 -52.2721 725.785 -50.3716 736.665C-48.4711 747.543 -43.8796 757.775 -37.015 766.426C-44.7001 776.194 -49.481 787.927 -50.811 800.284C-52.1411 812.64 -49.9667 825.122 -44.5362 836.3C-39.1059 847.479 -30.6388 856.905 -20.1031 863.5C-9.56739 870.095 2.61165 873.592 15.0416 873.592C27.4715 873.592 39.6505 870.095 50.1862 863.5C60.7219 856.905 69.189 847.479 74.6193 836.3C80.0498 825.122 82.2242 812.64 80.8941 800.284C79.5641 787.927 74.7832 776.194 67.0981 766.426C76.2836 754.757 81.2777 740.338 81.2777 725.487C81.2777 710.638 76.2836 696.219 67.0981 684.55V684.523Z" fill="#CECCC3"/>
<path opacity="0.1" d="M-51.1894 725.567C-51.187 740.394 -46.1935 754.786 -37.013 766.43C-44.6982 776.197 -49.479 787.929 -50.8091 800.287C-52.1392 812.643 -49.9647 825.124 -44.5344 836.303C-39.1039 847.482 -30.6368 856.909 -20.1011 863.503C-9.56549 870.098 2.61355 873.594 15.0434 873.594C27.4734 873.594 39.6525 870.098 50.1882 863.503C60.7238 856.909 69.1909 847.482 74.6213 836.303C80.0516 825.124 82.2261 812.643 80.8961 800.287C79.5659 787.929 74.785 776.197 67.1 766.43C75.9122 755.141 -51.1894 718.033 -51.1894 725.567Z" fill="#2F2516"/>
<path opacity="0.1" d="M141.31 812.613L127.75 821.214L135.978 806.234C133.644 804.376 130.758 803.347 127.775 803.314H127.563C126.622 803.324 125.682 803.254 124.754 803.101L120.146 806.022L122.119 802.44C118.873 801.31 116.061 799.192 114.078 796.386L105.826 801.541L111.02 792.091C106.213 786.31 99.7203 782.766 92.591 782.766C84.0386 782.766 76.36 787.859 71.4907 795.786C70.0338 798.154 67.9761 800.093 65.5266 801.409C63.0772 802.725 60.3233 803.368 57.5444 803.276H57.1324C47.6935 803.276 40.0273 813.975 40.0273 827.194C40.0273 840.414 47.6935 851.1 57.1324 851.1C59.2085 851.094 61.2522 850.584 63.088 849.613C66.3025 848.049 69.8195 847.202 73.3944 847.132C76.9693 847.064 80.5163 847.774 83.7888 849.214C86.5602 850.445 89.5588 851.082 92.591 851.082C95.6234 851.082 98.622 850.445 101.393 849.214C104.641 847.805 108.154 847.111 111.694 847.18C115.233 847.249 118.717 848.079 121.907 849.613C123.729 850.557 125.749 851.054 127.8 851.062C137.252 851.062 144.906 840.364 144.906 827.157C144.939 822.085 143.702 817.086 141.31 812.613Z" fill="#9DD9C9"/>
<path opacity="0.1" d="M425.606 56.2622L384.536 82.2793L409.464 36.9872C402.399 31.3528 393.654 28.2356 384.616 28.1298H383.954C381.1 28.1714 378.249 27.9591 375.434 27.4952L361.567 36.4583L367.547 25.6179C357.68 22.1725 349.157 15.6934 343.202 7.10973L318.275 22.9738L333.967 -5.84596C319.387 -23.3229 299.752 -34.0312 278.158 -34.0312C252.252 -34.0312 229.176 -18.643 214.279 5.33824C209.865 12.5343 203.622 18.4327 196.185 22.4318C188.747 26.4311 180.381 28.3881 171.939 28.1032H170.537C141.931 28.1032 118.75 60.4926 118.75 100.47C118.75 140.448 141.931 172.837 170.537 172.837C176.83 172.82 183.027 171.268 188.584 168.316C198.316 163.588 208.961 161.031 219.781 160.822C230.601 160.612 241.336 162.754 251.246 167.1C259.622 170.859 268.697 172.815 277.879 172.837C287.062 172.86 296.147 170.95 304.54 167.232C314.377 162.966 325.016 160.864 335.737 161.07C346.457 161.275 357.009 163.783 366.674 168.421C372.179 171.3 378.297 172.815 384.509 172.837C413.116 172.837 436.296 140.422 436.296 100.47C436.496 85.072 432.82 69.8705 425.606 56.2622Z" fill="#AFA089"/>
<path opacity="0.1" d="M541.231 597.676L554.79 606.252L546.549 591.272C548.884 589.414 551.769 588.387 554.752 588.351H554.978C555.918 588.361 556.858 588.291 557.786 588.138L562.381 591.06L560.408 587.476C563.678 586.366 566.516 584.257 568.523 581.448L576.751 586.666L571.545 577.216C576.364 571.435 582.782 567.891 589.986 567.891C598.539 567.891 606.217 572.984 611.086 580.911C612.543 583.279 614.6 585.221 617.05 586.535C619.5 587.851 622.254 588.495 625.033 588.401H625.483C634.933 588.401 642.588 599.1 642.588 612.319C642.588 625.539 634.933 636.225 625.483 636.225C623.406 636.216 621.364 635.706 619.526 634.739C616.312 633.174 612.795 632.327 609.221 632.257C605.645 632.189 602.098 632.899 598.825 634.339C596.057 635.57 593.06 636.205 590.03 636.205C587 636.205 584.003 635.57 581.233 634.339C577.984 632.93 574.469 632.236 570.927 632.304C567.385 632.374 563.9 633.204 560.708 634.739C558.887 635.683 556.867 636.18 554.815 636.187C545.376 636.187 537.71 625.489 537.71 612.282C537.643 607.196 538.853 602.173 541.231 597.676Z" fill="#AFA089"/>
<g opacity="0.1">
<path d="M66.918 475.324C70.6821 473.569 74.32 471.554 77.8053 469.296L37.44 439.81L84.8847 464.239C94.4828 456.615 102.423 447.114 108.22 436.314C114.016 425.516 117.547 413.647 118.595 401.435L37.9642 402.26L118.77 388.752C117.935 376.529 114.609 364.606 108.996 353.715C103.384 342.823 95.604 333.195 86.1339 325.419C76.664 317.644 65.7043 311.886 53.9277 308.5C42.1511 305.114 29.8067 304.172 17.6524 305.73C5.49811 307.288 -6.20932 311.314 -16.7507 317.561C-27.292 323.807 -36.4447 332.143 -43.6466 342.056C-50.8484 351.968 -55.9474 363.248 -58.6302 375.203C-61.313 387.157 -61.523 399.533 -59.2473 411.571C-65.1086 414.297 -70.6592 417.645 -75.8031 421.559L-33.6647 480.144L-84.2557 428.862C-94.9327 439.344 -102.827 452.323 -107.224 466.624C-111.621 480.924 -112.382 496.097 -109.439 510.766C-124.722 517.898 -137.69 529.185 -146.861 543.336C-156.032 557.488 -161.036 573.934 -161.301 590.796C-161.567 607.656 -157.082 624.251 -148.362 638.685C-139.641 653.119 -127.035 664.809 -111.984 672.418C-96.9337 680.028 -80.0453 683.251 -63.2494 681.719C-46.4535 680.187 -30.4273 673.961 -17.0025 663.753C-3.57753 653.546 6.70462 639.769 12.669 623.996C18.6335 608.222 20.0395 591.089 16.7267 574.554C35.015 566.043 49.9086 551.631 59.0124 533.632C68.1161 515.633 70.9005 495.097 66.918 475.324Z" fill="#AFA089"/>
<path opacity="0.6" d="M-101.488 452.455C-110.621 470.445 -113.415 490.99 -109.416 510.766C-124.699 517.898 -137.667 529.185 -146.837 543.336C-156.009 557.488 -161.012 573.934 -161.278 590.796C-161.543 607.656 -157.06 624.252 -148.34 638.685C-139.619 653.119 -127.012 664.809 -111.962 672.418C-96.9108 680.028 -80.0226 683.251 -63.2265 681.719C-46.4306 680.187 -30.4045 673.961 -16.9796 663.753C-3.55473 653.546 6.72749 639.769 12.6919 623.996C18.6564 608.222 20.0623 591.089 16.7493 574.556C34.3913 566.366 -96.9681 443.455 -101.488 452.455Z" fill="#9DD9C9"/>
<path d="M-0.17847 322.315C7.19285 322.315 13.1685 316.34 13.1685 308.97C13.1685 301.6 7.19285 295.625 -0.17847 295.625C-7.54979 295.625 -13.5254 301.6 -13.5254 308.97C-13.5254 316.34 -7.54979 322.315 -0.17847 322.315Z" fill="#9DD9C9"/>
<path d="M11.8333 635.048C19.2045 635.048 25.1803 629.074 25.1803 621.703C25.1803 614.333 19.2045 608.359 11.8333 608.359C4.46197 608.359 -1.51367 614.333 -1.51367 621.703C-1.51367 629.074 4.46197 635.048 11.8333 635.048Z" fill="#9DD9C9"/>
<path opacity="0.1" d="M11.8333 635.048C19.2045 635.048 25.1803 629.074 25.1803 621.703C25.1803 614.333 19.2045 608.359 11.8333 608.359C4.46197 608.359 -1.51367 614.333 -1.51367 621.703C-1.51367 629.074 4.46197 635.048 11.8333 635.048Z" fill="#231F20"/>
<path d="M11.6205 783.902C12.9958 779.958 13.8356 775.847 14.1174 771.681C15.0345 771.679 15.9414 771.487 16.7811 771.119C17.6209 770.75 18.3756 770.214 18.9982 769.54C19.6207 768.867 20.0977 768.073 20.3992 767.207C20.7008 766.341 20.8205 765.423 20.7507 764.508C20.6809 763.594 20.4234 762.704 19.9939 761.894C19.5645 761.084 18.9725 760.371 18.2551 759.8C17.5377 759.229 16.7102 758.811 15.8242 758.575C14.9383 758.338 14.013 758.286 13.1062 758.424C11.6222 751.666 8.65144 745.326 4.40986 739.86C0.168274 734.395 -5.23766 729.944 -11.4152 726.828C-10.6172 725.249 -10.4793 723.418 -11.0319 721.736C-11.5845 720.056 -12.7822 718.662 -14.3617 717.866C-15.9413 717.067 -17.7731 716.93 -19.4543 717.481C-21.1355 718.034 -22.5283 719.232 -23.3263 720.811C-23.6153 721.373 -23.8173 721.975 -23.9257 722.597C-31.2513 721.231 -38.7969 721.636 -45.9351 723.774C-53.0732 725.913 -59.5975 729.725 -64.9654 734.893C-69.0188 734.236 -73.1409 734.115 -77.226 734.53L-82.6323 759.135L-82.9568 735.417C-89.1619 736.776 -95.0244 739.388 -100.186 743.089C-105.348 746.791 -109.7 751.508 -112.977 756.948C-116.254 762.389 -118.387 768.442 -119.245 774.734C-120.104 781.027 -119.67 787.429 -117.969 793.549C-116.269 799.668 -113.339 805.376 -109.357 810.325C-105.375 815.274 -100.426 819.359 -94.8121 822.331C-89.1979 825.302 -83.0366 827.099 -76.7047 827.609C-70.3728 828.118 -64.0035 827.332 -57.9858 825.297C-57.3425 826.458 -56.3633 827.398 -55.1767 827.993C-53.9541 828.615 -52.5697 828.843 -51.2122 828.65C-49.8547 828.455 -48.5903 827.846 -47.591 826.908C-46.5918 825.968 -45.9064 824.744 -45.6285 823.402C-45.3504 822.059 -45.4932 820.663 -46.0374 819.405C-43.9075 817.943 -41.9029 816.306 -40.0443 814.512C-30.2971 816.096 -20.2985 814.555 -11.4816 810.108C-2.66469 805.661 4.51773 798.536 9.03596 789.757L-16.1222 785.525L11.6205 783.902Z" fill="#9DD9C9"/>
</g>
</g>
<defs>
<linearGradient id="paint0_linear_6993_672" x1="1465.31" y1="998.702" x2="1448.78" y2="589.093" gradientUnits="userSpaceOnUse">
<stop stop-color="#808080" stop-opacity="0.25"/>
<stop offset="0.54" stop-color="#808080" stop-opacity="0.12"/>
<stop offset="1" stop-color="#808080" stop-opacity="0.1"/>
</linearGradient>
</defs>
</svg>
