<svg width="51" height="33" viewBox="0 0 51 33" fill="none" xmlns="http://www.w3.org/2000/svg">
<g opacity="0.5">
<path d="M0.0198466 11.2604C0.0152157 11.1299 0 11.0026 0 10.8701C0 10.826 0.00595404 10.7831 0.00661555 10.7396C0.00595404 10.6526 0 10.5669 0 10.4799L0.0191851 10.493C0.220298 4.66542 5.01254 -7.62939e-05 10.9091 -7.62939e-05C16.9331 -7.62939e-05 21.8174 4.86642 21.8174 10.8701C21.8174 16.3477 17.7469 20.866 12.4577 21.6177C13.7722 25.96 17.8116 29.1198 22.6007 29.1198V33C10.3732 32.9993 0.433434 23.3441 0.0202007 11.2597L0.0198466 11.2604Z" fill="#9DD9C9" fill-opacity="0.5"/>
<path d="M28.3165 11.2604C28.3118 11.1299 28.2966 11.0026 28.2966 10.8701C28.2966 10.826 28.3032 10.7831 28.3032 10.7396C28.3026 10.6526 28.2966 10.5669 28.2966 10.4799L28.3165 10.493C28.5176 4.66542 33.3098 -7.62939e-05 39.205 -7.62939e-05C45.2304 -7.62939e-05 50.1134 4.86642 50.1134 10.8701C50.1134 16.3477 46.0428 20.866 40.7536 21.6177C42.0681 25.96 46.1075 29.1198 50.896 29.1198V33C38.6685 32.9993 28.7304 23.3441 28.3172 11.2597L28.3165 11.2604Z" fill="#9DD9C9" fill-opacity="0.5"/>
</g>
</svg>
