<svg width="131" height="92" viewBox="0 0 131 92" fill="none" xmlns="http://www.w3.org/2000/svg">
<path fill-rule="evenodd" clip-rule="evenodd" d="M43.3829 88.36V91.8315H44.0923C44.2638 91.8334 44.4352 91.8216 44.6049 91.7963C44.7322 91.7774 44.8561 91.7398 44.9725 91.685C45.076 91.6344 45.1695 91.5657 45.2486 91.4821C45.5399 91.1862 45.6853 90.7306 45.6849 90.1155C45.6855 89.9235 45.6677 89.732 45.6316 89.5435C45.6001 89.3793 45.5472 89.2199 45.4743 89.0694C45.4081 88.9364 45.3211 88.8148 45.2166 88.7092C45.1319 88.626 45.0339 88.5575 44.9266 88.5065C44.8081 88.4511 44.6823 88.413 44.553 88.3935C44.3848 88.3691 44.215 88.3579 44.045 88.36H43.3829ZM41.8052 88.2644H44.2415C44.593 88.2577 44.9432 88.3076 45.2787 88.4124C45.5598 88.5027 45.8151 88.6591 46.0233 88.8684C46.2008 89.039 46.3442 89.2417 46.446 89.4659C46.5434 89.6815 46.5938 89.9154 46.5939 90.152C46.5963 90.3992 46.5415 90.6435 46.4338 90.8659C46.3256 91.0859 46.1705 91.2795 45.9796 91.4333C45.7736 91.5986 45.5385 91.7238 45.2864 91.8026C45.0052 91.8915 44.7118 91.9357 44.417 91.9335H41.8066V91.8315H41.941C42.0321 91.8458 42.1254 91.8383 42.2131 91.8097C42.3008 91.7812 42.3806 91.7323 42.4458 91.667C42.5111 91.6018 42.56 91.5221 42.5885 91.4344C42.6171 91.3467 42.6246 91.2534 42.6103 91.1623V89.0292C42.625 88.9381 42.6179 88.8447 42.5894 88.7568C42.561 88.669 42.512 88.5891 42.4467 88.5239C42.3813 88.4586 42.3014 88.4099 42.2134 88.3816C42.1255 88.3533 42.0321 88.3463 41.941 88.3612H41.8066V88.2656L41.8052 88.2644ZM50.4806 89.0498L49.7606 90.6864H51.2187L50.4803 89.0498H50.4806ZM50.7598 88.1894H50.8554L52.3322 91.4001C52.3725 91.4902 52.4265 91.5736 52.4924 91.6472C52.5459 91.7095 52.614 91.7577 52.6905 91.7875C52.7735 91.8183 52.8614 91.8333 52.9499 91.8317H53.0477V91.9338H50.918V91.8317H51.1958C51.3006 91.8389 51.4055 91.8195 51.5008 91.7753C51.5314 91.7577 51.5565 91.732 51.5734 91.7011C51.5902 91.6701 51.5982 91.6351 51.5964 91.5999C51.5941 91.5386 51.5812 91.4782 51.5582 91.4213C51.5324 91.3513 51.4774 91.2247 51.3908 91.0401C51.3863 91.0294 51.3786 91.0127 51.3681 90.9883C51.3576 90.9639 51.3442 90.9405 51.333 90.9166L51.272 90.7839H49.7183L49.5987 91.0569C49.5611 91.1457 49.5415 91.241 49.5409 91.3375C49.5418 91.4216 49.5648 91.5041 49.6078 91.5765C49.6487 91.6514 49.7094 91.7137 49.7833 91.7564C49.8226 91.7807 49.8653 91.7991 49.91 91.8112C49.963 91.8236 50.0171 91.8308 50.0716 91.8327V91.9347H48.5754V91.8327C48.664 91.8248 48.7512 91.8053 48.8348 91.7746C48.9116 91.7409 48.9835 91.6968 49.0482 91.6434C49.2911 91.4195 49.4777 91.1415 49.593 90.832L50.76 88.1903L50.7598 88.1894ZM54.8448 88.2642H57.3483V88.3598H57.083C56.992 88.3454 56.8988 88.3529 56.8113 88.3815C56.7237 88.4102 56.6442 88.4592 56.5792 88.5245C56.5143 88.5899 56.4658 88.6697 56.4377 88.7574C56.4096 88.8452 56.4028 88.9383 56.4177 89.0292V91.8372H57.3698C57.5542 91.8383 57.7362 91.7954 57.9007 91.7122C58.0682 91.6284 58.2158 91.5098 58.3339 91.3645C58.4041 91.2761 58.4693 91.1839 58.5292 91.0882C58.5927 90.9831 58.6463 90.8724 58.6893 90.7574C58.7395 90.6276 58.79 90.4797 58.8387 90.3105H58.9365V91.9357H54.845L54.8388 91.8382H54.9763C55.0673 91.8507 55.16 91.8419 55.247 91.8125C55.334 91.783 55.413 91.7337 55.4777 91.6685C55.5424 91.6032 55.591 91.5238 55.6197 91.4365C55.6483 91.3493 55.6563 91.2565 55.643 91.1656V89.0292C55.6559 88.9386 55.6477 88.8462 55.6188 88.7593C55.5899 88.6725 55.5412 88.5935 55.4765 88.5287C55.4118 88.4639 55.333 88.415 55.2461 88.386C55.1593 88.3569 55.0669 88.3484 54.9763 88.3612H54.845V88.2656L54.8448 88.2642ZM64.2168 91.8363H64.5952C64.6901 91.8447 64.7858 91.834 64.8765 91.8046C64.9672 91.7753 65.051 91.7279 65.123 91.6654C65.2468 91.5088 65.3057 91.3106 65.2877 91.1118V89.4752C65.292 89.3471 65.2823 89.2188 65.2587 89.0928C65.2392 89.0142 65.1961 88.9434 65.1352 88.8899C64.9863 88.7641 64.7941 88.7017 64.5997 88.7161H64.3191V88.6246C64.5112 88.6156 64.7027 88.5963 64.8928 88.5665C65.0515 88.5435 65.2078 88.5057 65.3596 88.4537C65.516 88.399 65.6679 88.3322 65.8138 88.2539H65.9921V91.2008C65.9921 91.6247 66.2199 91.8367 66.6756 91.8367H67.0251V91.9342H64.217V91.8367L64.2168 91.8363ZM71.063 89.8244C71.1803 89.7431 71.2744 89.6328 71.336 89.5041C71.3931 89.3697 71.4208 89.2247 71.417 89.0787C71.4253 88.9702 71.4107 88.8612 71.3742 88.7587C71.3376 88.6562 71.2799 88.5626 71.2047 88.4838C71.0285 88.3393 70.8036 88.2678 70.5763 88.284C70.4091 88.2804 70.2426 88.3072 70.0851 88.3634C69.9593 88.4067 69.8473 88.4825 69.7602 88.583C69.6837 88.6767 69.6431 88.7946 69.6457 88.9155C69.6461 88.9872 69.6614 89.0582 69.6906 89.1238C69.7197 89.1894 69.7622 89.2482 69.8152 89.2967C69.8617 89.3366 69.9117 89.3723 69.9646 89.4035C70.2191 89.5307 70.4833 89.6373 70.7549 89.7223C70.822 89.7422 70.9241 89.7773 71.063 89.8244ZM70.1247 90.25C70.0142 90.3134 69.9126 90.3914 69.8228 90.4818C69.7466 90.5587 69.6882 90.6514 69.6519 90.7533C69.6147 90.8654 69.5967 90.983 69.5986 91.1011C69.5986 91.6428 69.9392 91.9133 70.6205 91.9125C70.8041 91.9154 70.9867 91.8844 71.1591 91.821C71.3023 91.7712 71.4305 91.6857 71.5313 91.5724C71.6169 91.4743 71.664 91.3486 71.6639 91.2184C71.6657 91.1513 71.6529 91.0847 71.6263 91.0231C71.5997 90.9614 71.56 90.9063 71.51 90.8616C71.4615 90.8209 71.4106 90.7833 71.3575 90.7488C71.2141 90.674 71.0417 90.5947 70.8419 90.5124C70.7792 90.4864 70.7183 90.462 70.6619 90.4407C70.6055 90.4195 70.5474 90.3994 70.4878 90.3781C70.4496 90.3645 70.4085 90.3492 70.3628 90.3325C70.3172 90.3157 70.2772 90.3019 70.2452 90.2897C70.2132 90.2775 70.1735 90.2658 70.1257 90.25H70.1247ZM70.0119 90.2022C69.7765 90.1151 69.5645 89.9746 69.3925 89.7919C69.2649 89.6338 69.1983 89.4352 69.2049 89.2321C69.2009 89.0338 69.2614 88.8396 69.3772 88.6786C69.5051 88.5114 69.679 88.3852 69.8776 88.3156C70.1226 88.2268 70.3819 88.1838 70.6425 88.1889C70.832 88.1727 71.0228 88.1945 71.2038 88.2529C71.3848 88.3113 71.5524 88.4051 71.6967 88.529C71.7698 88.5978 71.8281 88.6808 71.8682 88.7728C71.9083 88.8648 71.9293 88.964 71.93 89.0643C71.9314 89.1733 71.9068 89.2811 71.8583 89.3786C71.8017 89.483 71.7219 89.5729 71.625 89.6415C71.4918 89.7364 71.3486 89.8161 71.1978 89.8793C71.4311 89.9579 71.6509 90.0721 71.8492 90.218C71.9592 90.3 72.0488 90.4062 72.1112 90.5284C72.1736 90.6505 72.2072 90.7854 72.2092 90.9226C72.2095 91.0411 72.1856 91.1585 72.1389 91.2674C72.0914 91.3784 72.0224 91.479 71.936 91.5633C71.6324 91.8546 71.1743 92 70.5617 91.9995C70.3267 92.0007 70.0922 91.9751 69.863 91.9232C69.6747 91.885 69.4951 91.8121 69.3335 91.7081C69.2325 91.6472 69.1489 91.5613 69.0906 91.4587C69.0324 91.3561 69.0016 91.2403 69.001 91.1224C68.9985 90.9927 69.0335 90.8651 69.1016 90.7548C69.1843 90.6327 69.2946 90.5319 69.4236 90.4606C69.6101 90.3538 69.8075 90.2673 70.0124 90.2027L70.0119 90.2022ZM75.5126 88.279C75.41 88.2708 75.3071 88.2907 75.215 88.3365C75.1229 88.3824 75.045 88.4525 74.9898 88.5393C74.9513 88.6107 74.9231 88.6871 74.9059 88.7663C74.8935 88.8214 74.8855 88.8773 74.882 88.9336C74.8757 89.0022 74.8712 89.0923 74.8683 89.202C74.8655 89.3117 74.8621 89.4095 74.8621 89.4919C74.8591 89.6335 74.8703 89.7751 74.8956 89.9145C74.9131 90.0108 74.9489 90.1028 75.001 90.1857C75.0504 90.257 75.1178 90.314 75.1963 90.3509C75.2747 90.3879 75.3616 90.4035 75.448 90.3963C75.5419 90.3999 75.6355 90.384 75.7229 90.3496C75.8104 90.3152 75.8897 90.2631 75.956 90.1965C76.0476 90.1034 76.1135 89.9881 76.1472 89.8619C76.1909 89.6937 76.211 89.5201 76.2067 89.3464C76.2125 89.1429 76.1873 88.9397 76.1319 88.7439C76.0944 88.6062 76.0143 88.4839 75.9031 88.3944C75.7889 88.3147 75.6517 88.2746 75.5126 88.2802V88.279ZM76.2005 90.6212V90.0294H76.1914C76.098 90.1849 75.9655 90.3132 75.8071 90.4015C75.6408 90.4837 75.457 90.5239 75.2716 90.5189C75.1039 90.5197 74.9375 90.4903 74.7804 90.4319C74.6299 90.3779 74.4912 90.2956 74.3716 90.1895C74.257 90.0908 74.1644 89.9692 74.0998 89.8325C74.0346 89.6975 74.0012 89.5493 74.0023 89.3994C74.0004 89.1794 74.0653 88.964 74.1885 88.7816C74.3187 88.5917 74.4986 88.4413 74.7086 88.3469C74.9399 88.24 75.1923 88.1864 75.4471 88.1898C75.746 88.1855 76.0397 88.2686 76.2921 88.4288C76.5443 88.5924 76.7457 88.8233 76.8734 89.0954C77.015 89.401 77.0853 89.7348 77.0793 90.0715C77.0898 90.3298 77.0485 90.5877 76.9578 90.8298C76.8672 91.072 76.729 91.2936 76.5514 91.4816C76.387 91.6459 76.1915 91.7759 75.9763 91.864C75.7627 91.9533 75.5335 91.9989 75.302 91.9983C75.1466 92.0067 74.991 91.9838 74.8446 91.9312C74.6982 91.8785 74.5638 91.7971 74.4493 91.6917C74.3801 91.6311 74.3242 91.5569 74.2851 91.4737C74.246 91.3905 74.2245 91.3001 74.222 91.2082C74.2196 91.1493 74.229 91.0906 74.2495 91.0354C74.27 90.9801 74.3013 90.9295 74.3415 90.8865C74.3793 90.8456 74.4254 90.8133 74.4768 90.7917C74.5281 90.7701 74.5834 90.7597 74.6391 90.7612C74.753 90.7573 74.8641 90.7978 74.9486 90.8743C74.989 90.9117 75.0207 90.9573 75.0418 91.0081C75.0629 91.0588 75.0728 91.1136 75.0708 91.1685C75.0733 91.2426 75.0525 91.3157 75.0113 91.3774C74.9603 91.4431 74.8936 91.495 74.8174 91.5284C74.7321 91.5726 74.6893 91.6154 74.6893 91.6596C74.6893 91.7222 74.7488 91.7791 74.8693 91.8269C75.0006 91.8776 75.1404 91.9025 75.2812 91.9001C75.4136 91.9077 75.5458 91.8817 75.6655 91.8247C75.7853 91.7677 75.8887 91.6814 75.9663 91.5738C76.1404 91.2871 76.2219 90.9537 76.1996 90.619L76.2005 90.6212ZM80.9063 89.9637V89.9699C81.1107 89.992 81.3114 90.0396 81.5039 90.1116C81.6389 90.1609 81.7651 90.2315 81.8776 90.3208C81.9734 90.3967 82.0511 90.493 82.1049 90.6028C82.1729 90.7479 82.1962 90.9099 82.1717 91.0683C82.1473 91.2267 82.0763 91.3742 81.9677 91.4921C81.8017 91.6671 81.5922 91.795 81.3605 91.8625C81.0733 91.955 80.7728 91.9999 80.471 91.9954C80.2834 91.9953 80.0963 91.9759 79.9126 91.9374C79.7603 91.9095 79.6129 91.8596 79.4749 91.7894C79.3608 91.7224 79.2641 91.6294 79.1926 91.5179C79.1251 91.42 79.088 91.3044 79.086 91.1855C79.0844 91.1258 79.0948 91.0665 79.1165 91.011C79.1382 90.9554 79.1708 90.9048 79.2125 90.8621C79.2534 90.8201 79.3026 90.787 79.357 90.765C79.4113 90.7429 79.4696 90.7324 79.5283 90.734C79.5841 90.7317 79.6398 90.7408 79.692 90.7608C79.7441 90.7807 79.7917 90.811 79.8318 90.8499C79.8702 90.8885 79.9003 90.9345 79.9202 90.9852C79.9402 91.0358 79.9495 91.09 79.9478 91.1443C79.9491 91.2115 79.9317 91.2777 79.8976 91.3356C79.8521 91.4004 79.7939 91.4553 79.7267 91.4971C79.6518 91.5449 79.6138 91.5872 79.6138 91.6252C79.6138 91.7046 79.6901 91.7701 79.844 91.8205C80.0296 91.8757 80.2226 91.9015 80.4161 91.8972C80.669 91.9193 80.9206 91.8422 81.1177 91.6821C81.201 91.5838 81.2626 91.4689 81.2983 91.3451C81.3341 91.2213 81.3432 91.0913 81.3251 90.9637C81.3367 90.7002 81.2527 90.4413 81.0887 90.2347C80.9216 90.0885 80.7032 90.0145 80.4816 90.0289C80.4161 90.0289 80.2985 90.0363 80.1261 90.0502C80.0791 90.0575 80.0316 90.061 79.9841 90.0607C79.8851 90.0607 79.8347 90.0304 79.8347 89.9694C79.8347 89.9085 79.8911 89.8793 80.002 89.8793C80.0233 89.8793 80.0828 89.8839 80.1789 89.8946C80.2807 89.9071 80.3831 89.9142 80.4856 89.9159C80.6154 89.9219 80.7447 89.8962 80.8624 89.8411C80.9579 89.7898 81.0313 89.7052 81.0684 89.6033C81.1166 89.4594 81.1384 89.308 81.1325 89.1564C81.1331 89.0597 81.1243 88.9631 81.1064 88.8681C81.091 88.7871 81.066 88.7083 81.0318 88.6332C81.0031 88.5697 80.9625 88.5123 80.9123 88.464C80.8435 88.4008 80.7626 88.3522 80.6744 88.3213C80.5863 88.2904 80.4928 88.2777 80.3996 88.284C80.2742 88.2835 80.1492 88.2983 80.0274 88.3282C79.9284 88.3516 79.8341 88.3913 79.7482 88.4456C79.7193 88.46 79.6945 88.4814 79.6759 88.5078C79.6573 88.5341 79.6455 88.5646 79.6416 88.5966C79.6408 88.6225 79.65 88.6477 79.6674 88.6669C79.6971 88.6939 79.7298 88.7174 79.7649 88.7369C79.8361 88.7674 79.8977 88.8164 79.9435 88.8789C79.982 88.9416 80.0011 89.0142 79.9985 89.0878C80.0001 89.1406 79.9908 89.1933 79.9711 89.2423C79.9514 89.2914 79.9217 89.3359 79.8839 89.3729C79.8465 89.41 79.8019 89.4392 79.7529 89.4586C79.7039 89.478 79.6515 89.4873 79.5988 89.4859C79.5422 89.4873 79.486 89.4769 79.4338 89.4554C79.3815 89.4338 79.3343 89.4016 79.2952 89.3607C79.2555 89.3203 79.2242 89.2724 79.2032 89.2198C79.1823 89.1672 79.172 89.1109 79.173 89.0543C79.1725 88.8871 79.2352 88.7258 79.3485 88.6028C79.482 88.4578 79.6515 88.3507 79.8397 88.2921C80.0717 88.2169 80.3144 88.1803 80.5583 88.1839C80.8047 88.179 81.05 88.2178 81.2828 88.2984C81.4694 88.3613 81.6355 88.4735 81.7635 88.6232C81.8772 88.7631 81.9377 88.9386 81.9345 89.1188C81.9357 89.233 81.9101 89.346 81.8597 89.4484C81.8072 89.552 81.7314 89.642 81.6383 89.7113C81.4952 89.808 81.3346 89.8759 81.1655 89.9111C81.1141 89.924 81.0273 89.941 80.9066 89.9637H80.9063Z" fill="#231F20"/>
<path fill-rule="evenodd" clip-rule="evenodd" d="M13.6184 50.4922H14.0075V55.7558H13.6184C13.2662 54.6854 12.7354 53.6824 12.0483 52.7892C11.5927 52.2661 11.0537 51.8219 10.4532 51.4747C9.77653 51.0852 9.05125 50.787 8.29627 50.588C7.51029 50.3726 6.69905 50.2631 5.88408 50.2625C5.33152 50.2541 4.78146 50.3382 4.25667 50.5113C3.80143 50.6687 3.38718 50.9259 3.04424 51.2641C2.81303 51.4923 2.62498 51.7604 2.48917 52.0554C2.35665 52.3167 2.28468 52.6045 2.27858 52.8974C2.27726 53.1491 2.3295 53.3982 2.43183 53.6281C2.53417 53.858 2.68425 54.0635 2.87212 54.231C3.10383 54.4465 3.36883 54.6232 3.6569 54.7542C4.08145 54.9592 4.52354 55.1258 4.97786 55.2518C5.5138 55.4111 6.26678 55.6089 7.23682 55.8452C7.41177 55.9051 7.59091 55.952 7.77276 55.9855L8.30894 56.1194L9.1695 56.3428C10.2504 56.5957 11.3123 56.924 12.3474 57.3253C12.9811 57.5946 13.559 57.9797 14.0513 58.4611C14.4136 58.8008 14.7024 59.2111 14.8999 59.6668C15.1007 60.141 15.2028 60.6511 15.1999 61.1661C15.1951 61.7109 15.08 62.2492 14.8616 62.7485C14.6386 63.2766 14.3108 63.7541 13.898 64.1521C13.336 64.7215 12.6472 65.15 11.8879 65.4025C11.0121 65.6957 10.0929 65.8381 9.1695 65.8237C8.4959 65.8274 7.82393 65.7568 7.16583 65.6131C6.37901 65.4148 5.61044 65.1502 4.86838 64.822C4.43062 64.6387 3.98328 64.4791 3.5283 64.344C3.24574 64.2652 2.95392 64.2243 2.66057 64.2226C2.18704 64.2079 1.72216 64.3517 1.33961 64.6311C0.965354 64.9225 0.709192 65.3395 0.618414 65.805H0.229253V58.7034H0.618414C0.777281 59.9709 1.30795 61.1631 2.14352 62.1295C2.72278 62.7844 3.39591 63.3498 4.14097 63.8075C4.93493 64.3144 5.79058 64.7175 6.68703 65.007C7.50154 65.2829 8.3543 65.4292 9.2142 65.4408C9.88153 65.4493 10.5444 65.3303 11.167 65.0899C11.7052 64.89 12.1808 64.551 12.5453 64.1074C12.8671 63.7059 13.0406 63.2056 13.0365 62.6911C13.0331 62.4078 12.972 62.1282 12.857 61.8693C12.7419 61.6105 12.5752 61.3777 12.3672 61.1854C12.1306 60.9659 11.8642 60.7808 11.576 60.6357C11.1693 60.4298 10.7468 60.2569 10.3124 60.1188C9.79556 59.9464 9.08081 59.7364 8.18105 59.4935L7.0836 59.1938C5.36678 58.7342 4.17348 58.3769 3.51634 58.1219C2.90816 57.9126 2.32412 57.6388 1.77419 57.3053C1.35119 57.0292 0.98151 56.679 0.682954 56.2716C0.242498 55.7233 0.00173711 55.0416 0.000246406 54.3383C-0.00648724 53.5121 0.260456 52.7067 0.759449 52.048C1.31085 51.3358 2.04536 50.7868 2.88455 50.4594C3.84183 50.0671 4.86847 49.872 5.90296 49.8858C7.57484 49.8858 9.30846 50.3516 11.1038 51.2832C11.7354 51.5956 12.163 51.7553 12.3928 51.7553C12.9607 51.7553 13.3692 51.3341 13.6181 50.4919L13.6184 50.4922ZM33.4705 60.1453H33.853C33.7127 60.7031 33.5182 61.2459 33.2723 61.7659C33.0309 62.2486 32.7354 62.7023 32.3917 63.1184C30.9048 64.9496 28.916 65.8663 26.4251 65.8683C24.8946 65.8791 23.3864 65.5015 22.0415 64.7709C20.7285 64.0844 19.6143 63.0716 18.8063 61.8298C18.022 60.6454 17.6047 59.256 17.6066 57.8356C17.61 56.9672 17.772 56.1067 18.0847 55.2965C18.4079 54.4415 18.874 53.6476 19.463 52.9486C20.0656 52.2224 20.7733 51.5901 21.5625 51.0727C22.8117 50.2709 24.2709 49.8579 25.7551 49.8861C26.258 49.8837 26.7601 49.9286 27.2546 50.0201C27.7174 50.1126 28.1673 50.2604 28.5947 50.4604C29.0528 50.6871 29.4886 50.9562 29.8965 51.2641C30.3942 51.6087 30.7571 51.7808 30.9942 51.7808C31.5175 51.7808 32.1682 51.2385 32.9532 50.154H33.3357L33.6548 57.5359H33.291C33.1698 57.0063 33.0486 56.5661 32.9401 56.2279C32.8145 55.8659 32.6608 55.5143 32.4806 55.1763C32.018 54.2056 31.4138 53.309 30.6878 52.5157C30.0499 51.814 29.2858 51.2383 28.4353 50.8189C27.6543 50.4374 26.7967 50.2388 25.9275 50.2381C25.0223 50.1989 24.1335 50.4891 23.4258 51.0547C22.7814 51.6035 22.3028 52.4542 21.9902 53.6068C21.6463 55.0481 21.4897 56.5278 21.5243 58.0091C21.518 58.92 21.5734 59.8303 21.6902 60.7337C21.7686 61.4236 21.9404 62.0997 22.2007 62.7434C22.4037 63.248 22.6979 63.7108 23.0685 64.1088C23.515 64.5576 24.0555 64.9018 24.651 65.1169C25.2992 65.352 25.9844 65.4686 26.674 65.4613C27.3379 65.463 27.999 65.3751 28.6394 65.1999C29.2627 65.0284 29.8565 64.7638 30.4007 64.415C30.9583 64.0551 31.463 63.6192 31.9002 63.1199C32.2425 62.7251 32.542 62.2952 32.7938 61.8374C33.0669 61.2936 33.2933 60.7275 33.4705 60.1453Z" fill="#231F20"/>
<path fill-rule="evenodd" clip-rule="evenodd" d="M41.8343 53.4845L38.8224 60.3303H44.9228L41.8343 53.4845ZM43.0021 49.8861H43.4042L49.5813 63.3164C49.75 63.6932 49.9757 64.0418 50.2506 64.3498C50.4751 64.6101 50.7599 64.8116 51.0801 64.9368C51.4269 65.0661 51.795 65.1289 52.1651 65.1218H52.5734V65.5493H43.6597V65.1218H44.821C45.2595 65.1522 45.6986 65.071 46.0972 64.8859C46.2242 64.8117 46.3283 64.704 46.3981 64.5746C46.4679 64.4451 46.5007 64.299 46.4928 64.1522C46.4834 63.8959 46.4294 63.6433 46.3334 63.4055C46.2249 63.112 45.9951 62.5827 45.6378 61.8104C45.6187 61.766 45.5869 61.6957 45.5422 61.5937C45.4975 61.4916 45.4465 61.3896 45.3954 61.2937L45.1401 60.7388H38.6381L38.1402 61.8807C37.9831 62.2523 37.9007 62.6512 37.8978 63.0547C37.9023 63.4054 37.9991 63.7487 38.1786 64.0501C38.3492 64.3638 38.6031 64.6243 38.9123 64.8029C39.0769 64.9045 39.2553 64.9818 39.442 65.0326C39.6641 65.0839 39.8907 65.1138 40.1185 65.1218V65.5493H33.8644V65.1218C34.2351 65.089 34.5998 65.0076 34.9492 64.8794C35.2707 64.7379 35.5712 64.5529 35.8425 64.3297C36.621 63.73 37.3803 62.5987 38.1206 60.936L43.0021 49.8861Z" fill="#231F20"/>
<path fill-rule="evenodd" clip-rule="evenodd" d="M48.9921 50.1987H57.9698V50.6007H56.8722C56.4584 50.578 56.0479 50.685 55.698 50.9069C55.5593 51.0052 55.4475 51.1367 55.3728 51.2894C55.2982 51.4421 55.263 51.6111 55.2706 51.7809C55.2894 52.2146 55.3958 52.64 55.5832 53.0316L59.7758 62.2189L63.2919 54.2947C63.5378 53.8061 63.6791 53.2716 63.7069 52.7254C63.7195 52.4474 63.6738 52.1698 63.5727 51.9105C63.4716 51.6511 63.3173 51.4158 63.1198 51.2197C62.6692 50.8209 62.0881 50.6008 61.4862 50.601V50.199H67.6762V50.601C67.1227 50.658 66.5876 50.832 66.1064 51.1115C65.6081 51.4159 65.1779 51.8199 64.8428 52.2981C64.3884 52.9437 64.0014 53.6342 63.6878 54.3587L58.589 65.8495L58.1998 65.8686L52.2593 52.8975C51.5508 51.3662 50.6448 50.6007 49.528 50.6007H48.9921V50.1987Z" fill="#231F20"/>
<path fill-rule="evenodd" clip-rule="evenodd" d="M76.6361 49.8861C77.9822 49.8701 79.3195 50.1037 80.5803 50.5751C81.7451 51.0179 82.8038 51.7004 83.6879 52.5784C84.4102 53.2985 84.9923 54.1466 85.4045 55.0795C85.8879 56.1738 86.0842 57.3732 85.9748 58.5644C85.8653 59.7557 85.4537 60.8993 84.7789 61.8871C83.9403 63.125 82.7918 64.1214 81.4481 64.7774C80.018 65.4981 78.4359 65.8657 76.8345 65.8493C75.611 65.8562 74.3955 65.6511 73.2419 65.2432C72.1533 64.862 71.1449 64.2822 70.268 63.5331C69.4259 62.8231 68.7413 61.9452 68.2579 60.9555C67.7063 59.8399 67.4639 58.5969 67.5559 57.3559C67.648 56.1149 68.071 54.9212 68.7811 53.8991C69.6245 52.6557 70.7709 51.6479 72.1122 50.9707C73.5098 50.2469 75.0627 49.8746 76.6366 49.8861H76.6361ZM76.923 50.2816C76.2794 50.2782 75.6408 50.395 75.0403 50.6263C74.4754 50.8412 73.9654 51.179 73.5472 51.6152C73.0913 52.1013 72.7124 52.6542 72.4237 53.2548C72.0997 53.9278 71.8638 54.6397 71.7218 55.373C71.5589 56.2052 71.4798 57.0515 71.4857 57.8995C71.4755 58.9387 71.6021 59.9748 71.8622 60.9811C72.0786 61.8346 72.4413 62.6441 72.9343 63.3737C73.3648 64.0136 73.9426 64.5409 74.619 64.9114C75.4083 65.3186 76.2958 65.4968 77.1811 65.4257C78.0663 65.3547 78.914 65.0373 79.6282 64.5094C80.4817 63.8169 81.1212 62.8965 81.4725 61.8551C81.9263 60.5384 82.1424 59.1515 82.1107 57.7592C82.1182 56.7868 82.0002 55.8176 81.7598 54.8754C81.5539 54.047 81.2133 53.2581 80.7515 52.5402C80.3386 51.9069 79.7945 51.3695 79.1561 50.9644C78.826 50.7494 78.4672 50.5818 78.0905 50.4666C77.7126 50.3482 77.3194 50.2859 76.9234 50.2816H76.923Z" fill="#231F20"/>
<path fill-rule="evenodd" clip-rule="evenodd" d="M87.0629 50.1987H93.2271L103.903 61.2491V54.6393C103.918 53.9117 103.777 53.1893 103.489 52.5211C103.242 51.9497 102.825 51.4684 102.295 51.143C102.039 50.972 101.756 50.8448 101.458 50.7666C101.068 50.6804 100.671 50.6249 100.272 50.6007V50.1987H107.878V50.6007H107.725C106.621 50.6007 105.779 50.9512 105.198 51.6523C104.617 52.3605 104.328 53.3835 104.33 54.7211V65.703H103.966L90.7129 52.0873V61.2099C90.6875 61.9317 90.7957 62.652 91.032 63.3345C91.2293 63.8505 91.5903 64.2875 92.0599 64.5785C92.496 64.8306 92.9814 64.9855 93.4829 65.0326C93.9185 65.0957 94.3576 65.132 94.7977 65.1411V65.5493H86.7897V65.1411C87.4794 65.1282 88.1601 64.9807 88.7933 64.7071C89.2876 64.4845 89.6907 64.0995 89.9357 63.6161C90.2008 63.0521 90.3276 62.4332 90.3058 61.8105V53.1348C90.3195 52.6549 90.1955 52.1811 89.9484 51.7694C89.6965 51.3826 89.3341 51.0803 88.9083 50.9019C88.386 50.6897 87.8254 50.5876 87.2618 50.6019H87.0641L87.0629 50.1987Z" fill="#231F20"/>
<path fill-rule="evenodd" clip-rule="evenodd" d="M109.374 50.1987H125.71V56.1386H125.378C125.164 55.3428 124.895 54.5626 124.574 53.8035C124.328 53.2759 124.015 52.7826 123.642 52.3361C123.237 51.8339 122.722 51.4321 122.136 51.1621C121.088 50.7605 119.971 50.5698 118.849 50.6007H115.825V57.8995H116.642C117.215 57.9112 117.782 57.7739 118.287 57.501C118.791 57.2282 119.216 56.8291 119.52 56.3429C119.905 55.7592 120.182 55.1107 120.337 54.4288C120.448 53.969 120.527 53.5022 120.573 53.0316H120.962V63.0994H120.573C120.49 62.5571 120.388 62.0404 120.267 61.5619C120.17 61.1598 120.034 60.7686 119.858 60.3942C119.695 60.0761 119.5 59.7748 119.277 59.4946C118.62 58.6844 117.682 58.2781 116.463 58.2757H115.825V65.1407H118.352C119.03 65.1474 119.707 65.0939 120.375 64.981C120.93 64.8844 121.471 64.7172 121.983 64.4834C122.468 64.2573 122.919 63.9653 123.323 63.6156C124.052 62.9982 124.625 62.2179 124.995 61.338C125.279 60.6524 125.518 59.9491 125.71 59.2326H126.118V65.5489H109.399L109.374 65.1407H109.795C111.651 65.1407 112.581 64.2027 112.583 62.3269V53.3946C112.583 52.4439 112.36 51.7357 111.907 51.2828C111.454 50.8299 110.746 50.6 109.795 50.6H109.373L109.374 50.1987Z" fill="#231F20"/>
<path fill-rule="evenodd" clip-rule="evenodd" d="M36.2196 79.9473V78.6806H30.6948V79.9473H36.2196ZM48.1622 80.5145L46.8291 79.5123C46.6174 79.9115 46.2977 80.2432 45.9065 80.4694C45.5153 80.6956 45.0684 80.8073 44.6168 80.7917C42.9673 80.7917 41.9693 79.5597 41.9693 77.9591C41.9693 76.267 43.1701 75.2106 44.5252 75.2106C45.4929 75.2106 46.2941 75.5792 46.618 76.0992L47.8503 74.8765C47.0404 73.7895 45.7386 73.4996 44.5037 73.4996C43.9135 73.4862 43.3267 73.5923 42.7785 73.8113C42.2303 74.0304 41.7321 74.358 41.3138 74.7745C40.8955 75.191 40.5657 75.6877 40.3442 76.2349C40.1228 76.782 40.0143 77.3682 40.0252 77.9584C40.0252 80.6366 41.8816 82.4707 44.5257 82.4707C45.7044 82.4707 47.1731 82.1146 48.1627 80.5138L48.1622 80.5145ZM60.3248 82.3263L56.0096 73.1875L51.7307 82.3254H53.8104L54.7085 80.3371H57.3463L58.2447 82.3254L60.3248 82.3263ZM56.7664 78.9232H55.2447L55.9663 77.3131L56.7669 78.9232H56.7664ZM70.199 79.8245C70.199 78.5798 69.2316 77.8676 68.1977 77.3571L66.997 76.7584C66.54 76.5222 66.2407 76.3236 66.2407 75.8007C66.2407 75.2778 66.6631 75.012 67.2396 75.012C67.8639 75.0248 68.4649 75.2518 68.9416 75.6549L69.9406 74.2432C69.1498 73.6927 68.2025 73.412 67.2394 73.4427C65.5628 73.4427 64.2927 74.4226 64.2927 75.8786C64.2927 76.9689 64.9828 77.7124 66.0616 78.2796L67.5965 79.08C67.8738 79.2251 68.23 79.5116 68.23 79.937C68.23 80.5704 67.8079 80.8132 67.209 80.8132C66.3863 80.8132 65.6519 80.3469 65.1162 79.937L64.0384 81.4024C64.9139 82.084 65.9986 82.4414 67.1079 82.4138C69.1757 82.4138 70.1997 81.3015 70.1997 79.8238L70.199 79.8245ZM82.4063 82.3263L78.0918 73.1884L73.8129 82.3263H75.8926L76.7909 80.3381H79.4288L80.3271 82.3263H82.4063ZM78.8481 78.9232H77.3259L78.0476 77.3131L78.8481 78.9232ZM91.2667 79.9473V78.6806H85.7419V79.9473H91.2667Z" fill="#231F20"/>
<path fill-rule="evenodd" clip-rule="evenodd" d="M130.431 51.4613C130.431 51.1997 130.353 50.9439 130.207 50.7264C130.062 50.5089 129.855 50.3394 129.613 50.2393C129.372 50.1393 129.105 50.1131 128.849 50.1642C128.592 50.2153 128.356 50.3413 128.171 50.5263C127.986 50.7114 127.86 50.9471 127.809 51.2037C127.758 51.4604 127.784 51.7264 127.884 51.9681C127.984 52.2099 128.154 52.4166 128.371 52.5621C128.589 52.7075 128.845 52.7853 129.106 52.7854C129.457 52.7847 129.794 52.645 130.042 52.3968C130.29 52.1487 130.43 51.8123 130.431 51.4613ZM130.196 51.4613C130.193 51.6751 130.128 51.8835 130.008 52.0603C129.888 52.237 129.718 52.3744 129.52 52.4549C129.322 52.5355 129.105 52.5558 128.895 52.5131C128.686 52.4705 128.493 52.3669 128.343 52.2154C128.192 52.0638 128.089 51.8711 128.048 51.6614C128.006 51.4517 128.027 51.2344 128.109 51.0369C128.191 50.8393 128.329 50.6703 128.506 50.5511C128.684 50.4318 128.893 50.3677 129.106 50.3667C129.396 50.3683 129.673 50.4843 129.877 50.6894C130.081 50.8945 130.195 51.1721 130.196 51.4613ZM129.711 52.1905H129.407L128.867 51.501V52.1905H128.642V50.6968H129.162C129.221 50.6891 129.281 50.6945 129.339 50.7126C129.396 50.7307 129.448 50.761 129.492 50.8014C129.537 50.8418 129.572 50.8914 129.595 50.9467C129.618 51.002 129.628 51.0616 129.626 51.1215C129.629 51.1798 129.619 51.238 129.598 51.2925C129.577 51.3469 129.544 51.3963 129.503 51.4376C129.462 51.4789 129.412 51.5111 129.358 51.5323C129.304 51.5535 129.245 51.5631 129.187 51.5605L129.711 52.1905ZM129.387 51.106C129.387 51.2319 129.367 51.4358 129.067 51.4217L128.867 51.4119V50.8921L129.057 50.8823C129.381 50.8823 129.387 51.0068 129.387 51.106Z" fill="#231F20"/>
<path fill-rule="evenodd" clip-rule="evenodd" d="M67.8702 19.845C66.7195 19.3984 65.5393 19.0318 64.3381 18.7477L63.385 18.4999L62.7855 18.3565C62.6799 18.3371 62.4795 18.2848 62.186 18.1964C61.1089 17.9359 60.2693 17.7129 59.6717 17.5346C59.1689 17.3913 58.6784 17.2081 58.2047 16.9868C57.8846 16.8371 57.59 16.6381 57.3315 16.3972C57.1224 16.2118 56.9553 15.9841 56.8411 15.729C56.727 15.474 56.6685 15.1976 56.6696 14.9183C56.6751 14.5911 56.7549 14.2694 56.9029 13.9776C57.0578 13.6507 57.2681 13.3531 57.5244 13.0978C57.9049 12.7231 58.3648 12.4386 58.87 12.2654C59.453 12.0704 60.0649 11.976 60.6795 11.986C61.5862 11.9844 62.489 12.105 63.3635 12.3445C64.2049 12.5661 65.0126 12.8996 65.7652 13.3361C66.4332 13.7214 67.0332 14.214 67.5413 14.794C68.1937 15.5851 68.7768 16.686 69.2906 18.0967H69.7209V12.2391H69.2906C69.0129 13.1774 68.5558 13.6461 67.9195 13.6451C67.6678 13.6451 67.1906 13.4723 66.49 13.1227C64.4925 12.0848 62.5648 11.5658 60.7068 11.5658C59.5537 11.5503 58.4093 11.7667 57.3415 12.2021C56.4096 12.5679 55.594 13.179 54.9812 13.9706C54.4264 14.7046 54.1299 15.6015 54.1381 16.5215C54.1388 17.3044 54.406 18.0638 54.8956 18.6748C55.2285 19.1274 55.6409 19.5157 56.1126 19.8208C56.7256 20.1897 57.3755 20.4932 58.0517 20.7266C58.7835 21.0125 60.1047 21.4112 62.0151 21.9228L63.238 22.2548C64.2408 22.5244 65.027 22.7567 65.6046 22.9534C66.0862 23.1107 66.5562 23.3016 67.0111 23.5246C67.3341 23.6855 67.6321 23.8925 67.8956 24.1391C68.1275 24.3523 68.3135 24.6107 68.4419 24.8984C68.5703 25.1861 68.6385 25.497 68.6424 25.812C68.6445 26.3856 68.4514 26.9428 68.0947 27.3921C67.6871 27.8831 67.157 28.2579 66.5581 28.4786C65.866 28.7457 65.1294 28.8789 64.3876 28.871C63.431 28.8599 62.482 28.6986 61.5755 28.393C60.5776 28.0697 59.6256 27.6192 58.7428 27.0527C57.9161 26.5429 57.1684 25.9148 56.5235 25.1885C55.5901 24.115 54.9986 22.7872 54.8251 21.3753H54.3948V29.2747H54.8251C54.9253 28.7568 55.2103 28.2929 55.6271 27.9695C56.0527 27.6566 56.5709 27.4957 57.0989 27.5123C57.4252 27.5162 57.7495 27.5628 58.0637 27.6509C58.57 27.8038 59.0682 27.9821 59.5565 28.1851C60.3796 28.5486 61.2322 28.8411 62.1052 29.0593C62.8387 29.2207 63.588 29.2999 64.3391 29.2955C65.3671 29.312 66.3906 29.1557 67.3668 28.833C68.2105 28.5509 68.9751 28.0722 69.5973 27.4365C70.0579 26.9952 70.4245 26.4653 70.6749 25.8787C70.9187 25.3215 71.0469 24.7207 71.0517 24.1125C71.0565 23.541 70.9418 22.9749 70.7149 22.4503C70.4954 21.941 70.1731 21.4824 69.7682 21.1033C69.2226 20.5655 68.5781 20.1382 67.8702 19.845Z" fill="#231F20"/>
<path fill-rule="evenodd" clip-rule="evenodd" d="M81.0557 20.8454C81.0554 24.6394 79.9299 28.3482 77.8214 31.5026C75.7129 34.6571 72.7161 37.1155 69.2101 38.5672C65.7041 40.0188 61.8462 40.3983 58.1245 39.6578C54.4027 38.9172 50.9842 37.0899 48.3011 34.4069C45.6181 31.7238 43.7911 28.3056 43.0512 24.5844C42.3113 20.8632 42.6916 17.0062 44.1442 13.5011C45.5968 9.99604 48.0563 7.00036 51.2118 4.89289C54.3673 2.78541 58.077 1.6608 61.8717 1.66127C66.9585 1.66722 71.8351 3.69044 75.4316 7.28699C79.0282 10.8835 81.0508 15.7596 81.0557 20.8454ZM61.8717 6.04523e-07C57.7483 -0.000992067 53.7173 1.22057 50.2883 3.51019C46.8593 5.79982 44.1864 9.05467 42.6077 12.8631C41.029 16.6716 40.6153 20.8626 41.419 24.9061C42.2227 28.9496 44.2076 32.6641 47.1228 35.5797C50.038 38.4952 53.7525 40.4811 57.7965 41.2859C61.8406 42.0908 66.0325 41.6786 69.8422 40.1014C73.6519 38.5243 76.9083 35.853 79.1995 32.4255C81.4907 28.9979 82.7138 24.968 82.7142 20.8454C82.708 15.32 80.5103 10.0226 76.6031 6.11485C72.6959 2.20712 67.3982 0.00809673 61.8717 6.04523e-07Z" fill="#231F20"/>
<path fill-rule="evenodd" clip-rule="evenodd" d="M79.4668 20.8454C79.4662 24.3252 78.4336 27.7267 76.4994 30.6198C74.5653 33.5128 71.8165 35.7674 68.6007 37.0985C65.3849 38.4296 61.8465 38.7774 58.433 38.0979C55.0195 37.4184 51.8842 35.7421 49.4236 33.2811C46.963 30.82 45.2876 27.6846 44.6093 24.2716C43.9309 20.8585 44.2801 17.3209 45.6127 14.1062C46.9453 10.8916 49.2014 8.14418 52.0958 6.2115C54.9901 4.27882 58.3926 3.24766 61.8731 3.24842C66.5385 3.25475 71.0108 5.11095 74.3091 8.40984C77.6074 11.7087 79.4622 16.1809 79.4668 20.8454ZM61.8731 2.84882C58.3139 2.84849 54.8345 3.90336 51.8749 5.88006C48.9153 7.85676 46.6084 10.6665 45.246 13.954C43.8835 17.2415 43.5267 20.8591 44.2206 24.3493C44.9144 27.8396 46.6279 31.0458 49.1443 33.5624C51.6606 36.0791 54.8669 37.7932 58.3576 38.488C61.8483 39.1828 65.4667 38.8271 68.7553 37.4659C72.0438 36.1048 74.8548 33.7992 76.8328 30.8408C78.8107 27.8823 79.8669 24.4039 79.8677 20.8454C79.8628 16.0747 77.9654 11.5007 74.5917 8.12697C71.218 4.75324 66.6436 2.85529 61.8719 2.84953L61.8731 2.84882Z" fill="#231F20"/>
<path fill-rule="evenodd" clip-rule="evenodd" d="M61.8663 35.9857C61.8369 35.9857 61.8074 35.9783 61.7766 35.9783V37.2928C61.8074 37.2928 61.8369 37.2969 61.8663 37.2969C61.9559 37.2969 62.0455 37.2839 62.1347 37.2839V35.9695C62.0465 35.9716 61.9569 35.9857 61.8663 35.9857Z" fill="#231F20"/>
<path fill-rule="evenodd" clip-rule="evenodd" d="M61.8663 5.57103C61.9559 5.57103 62.0455 5.58274 62.1347 5.58274V4.26706C62.0455 4.26706 61.9559 4.25272 61.8663 4.25272C61.8369 4.25272 61.8074 4.25845 61.7766 4.25845V5.57581C61.8084 5.57701 61.8378 5.57103 61.8663 5.57103Z" fill="#231F20"/>
<path fill-rule="evenodd" clip-rule="evenodd" d="M63.3624 35.9095L63.4989 37.2146C63.6196 37.2034 63.7365 37.1814 63.8556 37.168L63.7193 35.8562C63.5998 35.8731 63.4846 35.8949 63.3624 35.9095Z" fill="#231F20"/>
<path fill-rule="evenodd" clip-rule="evenodd" d="M60.5434 5.63869L60.4038 4.32922C60.2843 4.33783 60.1664 4.34882 60.0471 4.35981L60.1841 5.66976C60.3007 5.65566 60.4215 5.64825 60.5434 5.63869Z" fill="#231F20"/>
<path fill-rule="evenodd" clip-rule="evenodd" d="M58.9609 5.85641L58.687 4.5694C58.5675 4.59091 58.4535 4.6172 58.337 4.64516L58.6136 5.93121C58.7276 5.90564 58.8443 5.87863 58.9609 5.85641Z" fill="#231F20"/>
<path fill-rule="evenodd" clip-rule="evenodd" d="M64.9324 35.6729L65.2068 36.957C65.3237 36.9345 65.4372 36.8934 65.5546 36.8688L65.2804 35.5828C65.1619 35.6098 65.0497 35.6494 64.9324 35.6729Z" fill="#231F20"/>
<path fill-rule="evenodd" clip-rule="evenodd" d="M66.4678 35.2678L66.8715 36.5192C66.9884 36.4805 67.0984 36.4343 67.2105 36.3956L66.8041 35.1435C66.6922 35.183 66.5854 35.2308 66.4678 35.2678Z" fill="#231F20"/>
<path fill-rule="evenodd" clip-rule="evenodd" d="M57.4101 6.23787L57.0057 4.98792C56.8912 5.02424 56.7769 5.06941 56.665 5.10741L57.0731 6.35499C57.1857 6.31866 57.2956 6.2742 57.4101 6.23787Z" fill="#231F20"/>
<path fill-rule="evenodd" clip-rule="evenodd" d="M55.9105 6.78587L55.3741 5.58777C55.2639 5.63413 55.1609 5.69365 55.0514 5.74264L55.5876 6.94265C55.6954 6.8927 55.7994 6.83558 55.9105 6.78587Z" fill="#231F20"/>
<path fill-rule="evenodd" clip-rule="evenodd" d="M67.949 34.7083L68.4859 35.9064C68.5934 35.8564 68.6991 35.8017 68.8062 35.7489L68.2724 34.5515C68.1643 34.6003 68.0575 34.6548 67.949 34.7083Z" fill="#231F20"/>
<path fill-rule="evenodd" clip-rule="evenodd" d="M54.4769 7.49668L53.8212 6.35785C53.716 6.41616 53.6151 6.485 53.5138 6.54427L54.1697 7.68309C54.2747 7.62215 54.3712 7.55475 54.4769 7.49668Z" fill="#231F20"/>
<path fill-rule="evenodd" clip-rule="evenodd" d="M69.3634 33.9901L70.0203 35.1294C70.1257 35.0675 70.2225 35.0044 70.3279 34.9413L69.6708 33.8047C69.5673 33.8639 69.4679 33.9318 69.3634 33.9901Z" fill="#231F20"/>
<path fill-rule="evenodd" clip-rule="evenodd" d="M70.6937 33.1385L71.4639 34.199C71.5624 34.1287 71.6552 34.0556 71.7508 33.9824L70.9808 32.922C70.8852 32.9923 70.7913 33.0659 70.6937 33.1385Z" fill="#231F20"/>
<path fill-rule="evenodd" clip-rule="evenodd" d="M53.1253 8.35183L52.3556 7.29187C52.2571 7.35664 52.1627 7.43312 52.0687 7.50434L52.8377 8.56812C52.935 8.49594 53.0297 8.4197 53.1253 8.35183Z" fill="#231F20"/>
<path fill-rule="evenodd" clip-rule="evenodd" d="M51.8742 9.34195L50.9942 8.3678C50.9034 8.44476 50.8171 8.52673 50.7294 8.6068L51.6074 9.5831C51.6942 9.5028 51.7857 9.42178 51.8742 9.34195Z" fill="#231F20"/>
<path fill-rule="evenodd" clip-rule="evenodd" d="M71.9266 32.1491L72.8094 33.1266C72.8974 33.0461 72.9847 32.9655 73.0724 32.8847L72.1929 31.9087C72.1059 31.988 72.0206 32.0693 71.9266 32.1491Z" fill="#231F20"/>
<path fill-rule="evenodd" clip-rule="evenodd" d="M73.0579 31.0399L74.0332 31.9196C74.1137 31.8307 74.1952 31.7432 74.2722 31.6541L73.2981 30.7751C73.2192 30.8649 73.1358 30.9507 73.0579 31.0399Z" fill="#231F20"/>
<path fill-rule="evenodd" clip-rule="evenodd" d="M50.7285 10.4567L49.7506 9.58051C49.67 9.66631 49.5892 9.7545 49.5082 9.8434L50.4864 10.7239C50.5645 10.6335 50.6463 10.5434 50.7285 10.4567Z" fill="#231F20"/>
<path fill-rule="evenodd" clip-rule="evenodd" d="M74.0645 29.823L75.1265 30.5959C75.1982 30.5003 75.2699 30.4047 75.3417 30.3091L74.2801 29.5371C74.2084 29.6351 74.134 29.7269 74.0645 29.823Z" fill="#231F20"/>
<path fill-rule="evenodd" clip-rule="evenodd" d="M49.7035 11.6846L48.6393 10.9124C48.5675 11.008 48.4934 11.1019 48.426 11.1992L49.4879 11.9714C49.5579 11.8753 49.6313 11.7804 49.7035 11.6846Z" fill="#231F20"/>
<path fill-rule="evenodd" clip-rule="evenodd" d="M48.8122 13.013L47.6717 12.3562C47.6134 12.4609 47.5467 12.5565 47.4877 12.66L48.6229 13.3168C48.685 13.2159 48.752 13.1153 48.8122 13.013Z" fill="#231F20"/>
<path fill-rule="evenodd" clip-rule="evenodd" d="M74.9374 28.5111L76.0783 29.1655C76.1381 29.0656 76.2053 28.9645 76.2622 28.8591L75.1267 28.2009C75.0684 28.306 75.0007 28.4076 74.9374 28.5111Z" fill="#231F20"/>
<path fill-rule="evenodd" clip-rule="evenodd" d="M48.0643 14.4262L46.8641 13.8925C46.8136 14.0029 46.7551 14.1076 46.7068 14.2125L47.9097 14.7498C47.9572 14.6415 48.0163 14.5361 48.0643 14.4262Z" fill="#231F20"/>
<path fill-rule="evenodd" clip-rule="evenodd" d="M75.6758 27.1091L76.877 27.6464C76.9248 27.5343 76.9865 27.4313 77.0345 27.3218L75.8307 26.7869C75.7841 26.8971 75.7255 27.0027 75.6758 27.1091Z" fill="#231F20"/>
<path fill-rule="evenodd" clip-rule="evenodd" d="M76.2622 25.6428L77.5138 26.0491C77.5502 25.9342 77.6018 25.8269 77.6377 25.7107L76.386 25.3063C76.3523 25.4206 76.3024 25.5274 76.2622 25.6428Z" fill="#231F20"/>
<path fill-rule="evenodd" clip-rule="evenodd" d="M47.4698 15.9115L46.2199 15.5052C46.1795 15.619 46.1302 15.7273 46.0948 15.8398L47.3446 16.2461C47.3802 16.1348 47.4297 16.0263 47.4698 15.9115Z" fill="#231F20"/>
<path fill-rule="evenodd" clip-rule="evenodd" d="M76.6929 24.1197L77.9784 24.395C78.0057 24.2755 78.0418 24.1646 78.0664 24.0454L76.7756 23.7715C76.7529 23.8876 76.723 24.0045 76.6929 24.1197Z" fill="#231F20"/>
<path fill-rule="evenodd" clip-rule="evenodd" d="M47.0319 17.4507L45.7461 17.177C45.7222 17.2965 45.6859 17.4105 45.6658 17.5295L46.9513 17.8013C46.9762 17.6846 47.0075 17.5687 47.0319 17.4507Z" fill="#231F20"/>
<path fill-rule="evenodd" clip-rule="evenodd" d="M76.9597 22.5653L78.269 22.702C78.2838 22.5825 78.3 22.463 78.3132 22.3447L77.0032 22.2082C76.9915 22.327 76.976 22.4462 76.9597 22.5653Z" fill="#231F20"/>
<path fill-rule="evenodd" clip-rule="evenodd" d="M46.7624 19.0316L45.4544 18.8935C45.4439 19.013 45.4286 19.1294 45.4161 19.2496L46.7295 19.3873C46.7376 19.2682 46.7512 19.1492 46.7624 19.0316Z" fill="#231F20"/>
<path fill-rule="evenodd" clip-rule="evenodd" d="M46.6576 20.7785C46.6576 20.7262 46.6623 20.6781 46.664 20.6258H45.3483C45.3483 20.6781 45.339 20.7262 45.339 20.7785C45.339 20.8485 45.35 20.9155 45.35 20.985H46.6698C46.6666 20.9147 46.6576 20.8485 46.6576 20.7785Z" fill="#231F20"/>
<path fill-rule="evenodd" clip-rule="evenodd" d="M77.074 20.7785C77.074 20.8485 77.0656 20.9155 77.0632 20.985H78.3823C78.3823 20.9155 78.3921 20.8485 78.3921 20.7785C78.3921 20.7262 78.3851 20.6781 78.3851 20.6258H77.0656C77.0656 20.6781 77.074 20.7262 77.074 20.7785Z" fill="#231F20"/>
<path fill-rule="evenodd" clip-rule="evenodd" d="M77.003 19.4052L78.3153 19.2685C78.306 19.149 78.2934 19.0295 78.2792 18.9122L76.9714 19.0467C76.9824 19.1681 76.9963 19.2857 77.003 19.4052Z" fill="#231F20"/>
<path fill-rule="evenodd" clip-rule="evenodd" d="M46.7322 22.2256L45.4189 22.3642C45.4342 22.4837 45.4502 22.6006 45.4636 22.7215L46.7722 22.5824C46.7614 22.4639 46.7406 22.3446 46.7322 22.2256Z" fill="#231F20"/>
<path fill-rule="evenodd" clip-rule="evenodd" d="M76.7847 17.8385L78.0731 17.5651C78.0492 17.4456 78.0213 17.3316 77.995 17.2126L76.7061 17.4834C76.7328 17.6029 76.7601 17.7195 76.7847 17.8385Z" fill="#231F20"/>
<path fill-rule="evenodd" clip-rule="evenodd" d="M46.9606 23.8107L45.6743 24.0843C45.6982 24.2038 45.7355 24.3169 45.7604 24.4347L47.0481 24.1591C47.0216 24.0437 46.9852 23.9297 46.9606 23.8107Z" fill="#231F20"/>
<path fill-rule="evenodd" clip-rule="evenodd" d="M76.4018 16.3021L77.6528 15.8946C77.6176 15.782 77.5705 15.6695 77.5333 15.5571L76.2819 15.962C76.3206 16.077 76.3665 16.1871 76.4018 16.3021Z" fill="#231F20"/>
<path fill-rule="evenodd" clip-rule="evenodd" d="M47.3645 25.3582L46.1145 25.7645C46.148 25.8797 46.1984 25.9899 46.2364 26.1022L47.4878 25.6976C47.4496 25.5833 47.4006 25.4727 47.3645 25.3582Z" fill="#231F20"/>
<path fill-rule="evenodd" clip-rule="evenodd" d="M47.9323 26.8534L46.7321 27.3887C46.7782 27.4989 46.837 27.6038 46.887 27.7121L48.087 27.1753C48.0377 27.0673 47.9799 26.9657 47.9323 26.8534Z" fill="#231F20"/>
<path fill-rule="evenodd" clip-rule="evenodd" d="M75.8542 14.8143L77.0544 14.2806C77.0085 14.1704 76.9488 14.0655 76.899 13.9558L75.6964 14.4921C75.7488 14.6011 75.8054 14.7051 75.8542 14.8143Z" fill="#231F20"/>
<path fill-rule="evenodd" clip-rule="evenodd" d="M48.6528 28.2776L47.5126 28.9343C47.5735 29.0378 47.6381 29.1391 47.699 29.2429L48.8366 28.5866C48.7788 28.4821 48.7107 28.383 48.6528 28.2776Z" fill="#231F20"/>
<path fill-rule="evenodd" clip-rule="evenodd" d="M75.1506 13.394L76.2887 12.7374C76.2304 12.6316 76.1654 12.5343 76.1051 12.4284L74.9668 13.0885C75.0249 13.1889 75.0923 13.2883 75.1506 13.394Z" fill="#231F20"/>
<path fill-rule="evenodd" clip-rule="evenodd" d="M49.5171 29.6195L48.4539 30.3939C48.5256 30.4895 48.5973 30.5851 48.669 30.6783L49.7308 29.9089C49.6586 29.8119 49.586 29.718 49.5171 29.6195Z" fill="#231F20"/>
<path fill-rule="evenodd" clip-rule="evenodd" d="M74.3078 12.0565L75.3687 11.2826C75.2989 11.1846 75.2229 11.0926 75.1536 10.9958L74.0896 11.768C74.1592 11.8641 74.2378 11.9583 74.3078 12.0565Z" fill="#231F20"/>
<path fill-rule="evenodd" clip-rule="evenodd" d="M73.324 10.8116L74.2993 9.93161C74.2219 9.84247 74.143 9.75475 74.0603 9.6637L73.0872 10.5437C73.1639 10.6338 73.2447 10.7191 73.324 10.8116Z" fill="#231F20"/>
<path fill-rule="evenodd" clip-rule="evenodd" d="M50.5134 30.8649L49.5371 31.743C49.6177 31.8307 49.6989 31.9213 49.7824 32.0059L50.7529 31.1285C50.6747 31.0413 50.592 30.9507 50.5134 30.8649Z" fill="#231F20"/>
<path fill-rule="evenodd" clip-rule="evenodd" d="M51.6352 31.9988L50.7522 32.9703C50.8426 33.052 50.93 33.1376 51.0192 33.2134L51.8994 32.2383C51.8104 32.1596 51.7227 32.0779 51.6352 31.9988Z" fill="#231F20"/>
<path fill-rule="evenodd" clip-rule="evenodd" d="M72.2217 9.67057L73.0999 8.69618C73.0122 8.6142 72.9247 8.53437 72.8348 8.45407L71.9575 9.43109C72.0419 9.50733 72.132 9.5917 72.2217 9.67057Z" fill="#231F20"/>
<path fill-rule="evenodd" clip-rule="evenodd" d="M52.8655 33.008L52.0927 34.0699C52.1923 34.1416 52.2839 34.2157 52.3828 34.285L53.155 33.221C53.056 33.1533 52.9613 33.0797 52.8655 33.008Z" fill="#231F20"/>
<path fill-rule="evenodd" clip-rule="evenodd" d="M71.0054 8.65413L71.7784 7.59083C71.6828 7.51913 71.5891 7.44361 71.4916 7.37573L70.7195 8.43927C70.8151 8.50691 70.9119 8.57813 71.0054 8.65413Z" fill="#231F20"/>
<path fill-rule="evenodd" clip-rule="evenodd" d="M69.6904 7.76359L70.349 6.6238C70.2469 6.56333 70.1484 6.49833 70.0408 6.43762L69.3856 7.57645C69.4894 7.63596 69.5874 7.70168 69.6904 7.76359Z" fill="#231F20"/>
<path fill-rule="evenodd" clip-rule="evenodd" d="M54.1917 33.8842L53.5358 35.0245C53.64 35.0828 53.7382 35.1535 53.8439 35.2107L54.502 34.0709C54.3942 34.0147 54.2971 33.9478 54.1917 33.8842Z" fill="#231F20"/>
<path fill-rule="evenodd" clip-rule="evenodd" d="M55.6061 34.6189L55.074 35.8213C55.1818 35.8691 55.2867 35.9315 55.3941 35.9759L55.931 34.7788C55.8203 34.7288 55.718 34.6681 55.6061 34.6189Z" fill="#231F20"/>
<path fill-rule="evenodd" clip-rule="evenodd" d="M68.291 7.01363L68.8241 5.81457C68.7191 5.76319 68.6137 5.70702 68.5038 5.65564L67.9707 6.85995C68.0773 6.90608 68.1822 6.96344 68.291 7.01363Z" fill="#231F20"/>
<path fill-rule="evenodd" clip-rule="evenodd" d="M66.818 6.41589L67.2244 5.16474C67.1106 5.12506 66.9999 5.07893 66.8871 5.03998L66.4807 6.29018C66.5993 6.32866 66.7049 6.37431 66.818 6.41589Z" fill="#231F20"/>
<path fill-rule="evenodd" clip-rule="evenodd" d="M57.087 35.2018L56.6807 36.4537C56.7973 36.4914 56.9027 36.5359 57.0196 36.5732L57.4282 35.3189C57.3115 35.2838 57.1996 35.2398 57.087 35.2018Z" fill="#231F20"/>
<path fill-rule="evenodd" clip-rule="evenodd" d="M58.622 35.6258L58.348 36.9152C58.4654 36.9369 58.5789 36.963 58.698 36.9869L58.9722 35.6992C58.8543 35.6781 58.7386 35.6502 58.622 35.6258Z" fill="#231F20"/>
<path fill-rule="evenodd" clip-rule="evenodd" d="M65.2898 5.97328L65.5628 4.68603C65.4464 4.65998 65.3324 4.62246 65.215 4.59808L64.942 5.88294C65.0577 5.91114 65.1732 5.94699 65.2898 5.97328Z" fill="#231F20"/>
<path fill-rule="evenodd" clip-rule="evenodd" d="M60.1879 35.8853L60.0511 37.1924C60.1707 37.2077 60.2871 37.213 60.4064 37.2233L60.5452 35.9176C60.4243 35.9064 60.3057 35.8999 60.1879 35.8853Z" fill="#231F20"/>
<path fill-rule="evenodd" clip-rule="evenodd" d="M63.7203 5.69746L63.8599 4.38751C63.739 4.37246 63.6223 4.34855 63.503 4.3378L63.3641 5.64512C63.4846 5.65564 63.6027 5.6824 63.7203 5.69746Z" fill="#231F20"/>
</svg>
