<svg width="66" height="66" viewBox="0 0 66 66" fill="none" xmlns="http://www.w3.org/2000/svg">
<g filter="url(#filter0_d_256_14493)">
<rect x="10" y="5" width="46" height="46" rx="23" fill="white"/>
</g>
<g clip-path="url(#clip0_256_14493)">
<path d="M25.286 31.4286C27.1795 31.4286 28.7146 29.8935 28.7146 28C28.7146 26.1065 27.1795 24.5714 25.286 24.5714C23.3924 24.5714 21.8574 26.1065 21.8574 28C21.8574 29.8935 23.3924 31.4286 25.286 31.4286Z" stroke="#9DD9C9" stroke-width="1.71429" stroke-linecap="round" stroke-linejoin="round"/>
<path d="M40.7147 23.7143C42.6083 23.7143 44.1433 22.1793 44.1433 20.2857C44.1433 18.3922 42.6083 16.8571 40.7147 16.8571C38.8212 16.8571 37.2861 18.3922 37.2861 20.2857C37.2861 22.1793 38.8212 23.7143 40.7147 23.7143Z" stroke="#9DD9C9" stroke-width="1.71429" stroke-linecap="round" stroke-linejoin="round"/>
<path d="M40.7147 39.1429C42.6083 39.1429 44.1433 37.6078 44.1433 35.7143C44.1433 33.8207 42.6083 32.2857 40.7147 32.2857C38.8212 32.2857 37.2861 33.8207 37.2861 35.7143C37.2861 37.6078 38.8212 39.1429 40.7147 39.1429Z" stroke="#9DD9C9" stroke-width="1.71429" stroke-linecap="round" stroke-linejoin="round"/>
<path d="M27.3604 25.2743L37.3889 21.1086" stroke="#9DD9C9" stroke-width="1.71429" stroke-linecap="round" stroke-linejoin="round"/>
<path d="M27.3604 30.7257L37.3889 34.8914" stroke="#9DD9C9" stroke-width="1.71429" stroke-linecap="round" stroke-linejoin="round"/>
</g>
<defs>
<filter id="filter0_d_256_14493" x="0" y="0" width="66" height="66" filterUnits="userSpaceOnUse" color-interpolation-filters="sRGB">
<feFlood flood-opacity="0" result="BackgroundImageFix"/>
<feColorMatrix in="SourceAlpha" type="matrix" values="0 0 0 0 0 0 0 0 0 0 0 0 0 0 0 0 0 0 127 0" result="hardAlpha"/>
<feOffset dy="5"/>
<feGaussianBlur stdDeviation="5"/>
<feComposite in2="hardAlpha" operator="out"/>
<feColorMatrix type="matrix" values="0 0 0 0 0.215686 0 0 0 0 0.203922 0 0 0 0 0.207843 0 0 0 0.08 0"/>
<feBlend mode="normal" in2="BackgroundImageFix" result="effect1_dropShadow_256_14493"/>
<feBlend mode="normal" in="SourceGraphic" in2="effect1_dropShadow_256_14493" result="shape"/>
</filter>
<clipPath id="clip0_256_14493">
<rect width="24" height="24" fill="white" transform="translate(21 16)"/>
</clipPath>
</defs>
</svg>
