<svg width="21" height="21" viewBox="0 0 21 21" fill="none" xmlns="http://www.w3.org/2000/svg">
<path fill-rule="evenodd" clip-rule="evenodd" d="M17.5848 3.68122C15.7048 1.80798 13.2047 0.775833 10.541 0.77478C5.05258 0.77478 0.585687 5.22032 0.583491 10.6846C0.582759 12.4313 1.0413 14.1363 1.91262 15.6392L0.5 20.7748L5.77862 19.3967C7.23297 20.1862 8.87047 20.6022 10.537 20.6029H10.5411C16.029 20.6029 20.4962 16.1568 20.4985 10.6925C20.4995 8.04444 19.4648 5.55446 17.5848 3.68122ZM10.5411 18.9291H10.5377C9.05266 18.9285 7.59606 18.5315 6.32539 17.781L6.02315 17.6024L2.89079 18.4202L3.72689 15.3806L3.53008 15.069C2.70162 13.7575 2.26405 12.2416 2.2647 10.6852C2.26652 6.14353 5.97925 2.44859 10.5444 2.44859C12.7549 2.44943 14.8329 3.30737 16.3955 4.86433C17.9581 6.4213 18.8181 8.49089 18.8173 10.6919C18.8154 15.2339 15.1027 18.9291 10.5411 18.9291ZM15.0808 12.7599C14.832 12.636 13.6087 12.0369 13.3807 11.9543C13.1526 11.8716 12.9868 11.8303 12.8209 12.0782C12.655 12.3261 12.1782 12.8839 12.033 13.0491C11.8879 13.2144 11.7428 13.2351 11.494 13.1111C11.2452 12.9872 10.4435 12.7257 9.4932 11.8821C8.7536 11.2255 8.25422 10.4145 8.1091 10.1666C7.96397 9.91871 8.09367 9.78467 8.21821 9.66124C8.33012 9.55028 8.46701 9.37202 8.59142 9.2274C8.7158 9.0828 8.75726 8.97951 8.84018 8.81426C8.92313 8.64899 8.88167 8.50436 8.81946 8.38042C8.75726 8.25648 8.2597 7.03762 8.05234 6.54182C7.85041 6.05895 7.64527 6.12428 7.49256 6.11672C7.34759 6.10954 7.18156 6.108 7.01572 6.108C6.84985 6.108 6.58031 6.16999 6.35224 6.41787C6.12419 6.66579 5.48148 7.26488 5.48148 8.48371C5.48148 9.70254 6.37298 10.88 6.49739 11.0453C6.62177 11.2106 8.25178 13.7118 10.7476 14.7845C11.3412 15.0396 11.8047 15.1919 12.166 15.3061C12.762 15.4945 13.3044 15.4679 13.7331 15.4042C14.2111 15.3331 15.2051 14.8051 15.4125 14.2267C15.6198 13.6483 15.6198 13.1525 15.5576 13.0492C15.4954 12.9459 15.3296 12.8839 15.0808 12.7599Z" fill="#34AF23"/>
</svg>
