<svg width="25" height="24" viewBox="0 0 25 24" fill="none" xmlns="http://www.w3.org/2000/svg">
<path d="M17.2031 1.46973C20.8048 1.46994 23.6406 4.31929 23.6406 7.94043C23.6406 10.1421 22.645 12.0675 21.0996 13.9697C19.5654 15.8582 17.3875 17.8428 14.8613 20.1475L13.4287 21.459L12.7539 22.0781L12.0781 21.459L10.6445 20.1465V20.1455C8.11921 17.8416 5.94207 15.8577 4.4082 13.9697C2.86276 12.0675 1.8672 10.1421 1.86719 7.94043C1.86719 4.31919 4.70288 1.46979 8.30469 1.46973C9.95631 1.46973 11.5409 2.09808 12.7529 3.13086C13.965 2.09759 15.5511 1.46973 17.2031 1.46973Z" stroke="#CECCC3" stroke-width="2"/>
</svg>
