<svg width="25" height="25" viewBox="0 0 25 25" fill="none" xmlns="http://www.w3.org/2000/svg">
<path d="M16.9863 1.95996C20.6174 1.95996 23.4863 4.81649 23.4863 8.45996C23.4863 10.6737 22.4794 12.609 20.917 14.5205C19.3656 16.4185 17.1636 18.4134 14.6084 20.7305L13.1592 22.0498L12.4863 22.6621L11.8135 22.0498L10.3643 20.7305C7.80907 18.4134 5.60705 16.4185 4.05566 14.5205C2.49322 12.609 1.48633 10.6737 1.48633 8.45996C1.48633 4.81649 4.35523 1.95996 7.98633 1.95996C9.657 1.95996 11.2608 2.59357 12.4863 3.63574C13.7118 2.59357 15.3157 1.95996 16.9863 1.95996Z" fill="#9F8D79" stroke="#9F8D79" stroke-width="2"/>
</svg>
